<svg width="241" height="200" viewBox="0 0 241 200" fill="none" xmlns="http://www.w3.org/2000/svg">
    <g clip-path="url(#clip0_1478_10770)">
        <path opacity="0.4" fill-rule="evenodd" clip-rule="evenodd" d="M209.69 199.49C228.64 178.31 240.15 150.38 240.15 119.77C240.15 53.62 186.39 0 120.08 0C53.77 0 0 53.62 0 119.77C0 150.38 11.52 178.32 30.46 199.49H209.69Z" fill="#CCEAFF"/>
        <path d="M76.2501 110.76L80.5401 106.55C80.8801 106.22 80.8501 105.66 80.4701 105.36L75.0501 101.19C74.7401 100.95 74.3001 100.98 74.0201 101.25L71.0901 104.12C70.8101 104.39 70.7701 104.83 71.0101 105.15L75.0701 110.66C75.3501 111.04 75.9101 111.09 76.2501 110.76V110.76Z" fill="#27509E"/>
        <path d="M87.0799 127.71C87.2899 128.02 87.7299 128.07 87.9899 127.8L97.3499 118.63C97.6099 118.37 97.5799 117.93 97.2799 117.72L93.7099 115.15C93.7099 115.15 93.6399 115.09 93.5999 115.05L85.8499 105.94C85.6799 105.74 85.3999 105.68 85.1599 105.78L81.0799 107.51L80.3299 106.74L76.4299 110.56L77.1799 111.33L75.3699 115.38C75.2599 115.62 75.3199 115.9 75.5199 116.07L84.7399 124.27C84.7399 124.27 84.8099 124.34 84.8399 124.38L87.0599 127.7L87.0799 127.71Z" fill="#119AB0"/>
        <path opacity="0.25" d="M92.1291 117.143L92.1363 117.136C92.5427 116.738 92.5494 116.086 92.1513 115.68L86.651 110.065C86.2529 109.659 85.6008 109.652 85.1944 110.05L85.1872 110.057C84.7809 110.455 84.7742 111.107 85.1722 111.514L90.6726 117.128C91.0707 117.535 91.7228 117.541 92.1291 117.143Z" fill="white"/>
        <path opacity="0.25" d="M93.7258 119.035L94.0044 118.762C94.3358 118.437 94.3429 117.907 94.0202 117.577C93.6975 117.248 93.1672 117.244 92.8358 117.569L92.5572 117.842C92.2258 118.166 92.2188 118.696 92.5415 119.026C92.8642 119.355 93.3944 119.359 93.7258 119.035Z" fill="white"/>
        <path d="M95.33 123.22C95.37 123.09 95.48 123 95.57 123.03L97.09 123.48C97.18 123.51 97.23 123.64 97.19 123.77L96.47 125.59C96.43 125.72 96.32 125.81 96.23 125.78L95.03 125.42C94.94 125.39 94.89 125.26 94.93 125.13L95.32 123.22H95.33Z" fill="#D76143"/>
        <path d="M103.89 110.55L98.1703 123.56C98.1703 123.56 98.1403 123.61 98.1103 123.62L97.4203 123.95C97.4203 123.95 97.3603 123.96 97.3403 123.95L95.0503 123.27C95.0503 123.27 95.0003 123.24 94.9803 123.22L94.5903 122.57C94.5903 122.57 94.5703 122.52 94.5703 122.49L96.8903 108.47L103.88 110.55H103.89Z" fill="white"/>
        <path d="M104.19 109.56L103.9 110.54C103.9 110.54 103.9 110.54 103.9 110.55L96.9102 108.47V108.46L97.2001 107.48C97.2201 107.42 97.2802 107.38 97.3502 107.4L104.12 109.41C104.18 109.43 104.22 109.49 104.2 109.56H104.19Z" fill="#D76143"/>
        <path d="M101.778 110.604L101.605 110.552L101.141 112.115L101.313 112.166L101.778 110.604Z" fill="black"/>
        <path d="M101.472 110.51L101.204 110.43L100.739 111.992L101.008 112.072L101.472 110.51Z" fill="black"/>
        <path d="M101.132 110.406L100.959 110.355L100.494 111.917L100.667 111.969L101.132 110.406Z" fill="black"/>
        <path d="M100.849 110.33L100.581 110.25L100.116 111.813L100.385 111.893L100.849 110.33Z" fill="black"/>
        <path d="M100.5 110.224L100.327 110.173L99.8623 111.735L100.035 111.786L100.5 110.224Z" fill="black"/>
        <path d="M100.183 110.13L99.915 110.05L99.4502 111.613L99.7186 111.692L100.183 110.13Z" fill="black"/>
        <path d="M99.8434 110.024L99.6709 109.973L99.206 111.535L99.3786 111.586L99.8434 110.024Z" fill="black"/>
        <path d="M99.535 109.933L99.2666 109.853L98.8017 111.415L99.0701 111.495L99.535 109.933Z" fill="black"/>
        <path d="M99.195 109.839L99.0225 109.788L98.5576 111.35L98.7301 111.402L99.195 109.839Z" fill="black"/>
        <path d="M98.8149 109.713L98.6328 109.659L98.168 111.221L98.3501 111.276L98.8149 109.713Z" fill="black"/>
        <path d="M86.2356 113.076L90.6943 113.394L90.7029 113.274L86.2441 112.957L86.2356 113.076Z" fill="white"/>
        <path d="M80.0996 118.95C80.0196 118.78 80.0996 118.57 80.2696 118.49L83.7096 116.93C85.0896 116.3 85.9996 114.95 86.0896 113.43L86.1196 112.96C86.1296 112.77 86.2996 112.63 86.4896 112.64C86.6796 112.65 86.8196 112.82 86.8096 113.01L86.7896 113.35C86.7396 114.11 87.1996 114.79 87.8896 115.03C88.0296 115.08 88.1696 115.11 88.3296 115.12C88.7796 115.15 89.2096 115 89.5296 114.72C89.8496 114.44 90.0696 114.04 90.0996 113.58L90.1196 113.24C90.1296 113.05 90.2996 112.91 90.4896 112.92C90.6796 112.93 90.8196 113.1 90.8096 113.29L90.7796 113.73C90.7096 114.67 90.0996 115.45 89.2696 115.76C88.7596 115.95 88.2496 116.16 87.7496 116.38L80.7696 119.55C80.5996 119.63 80.3896 119.55 80.3096 119.38L80.1096 118.93L80.0996 118.95Z" fill="#1B8158"/>
        <path d="M111.11 110.53L108.71 111.83C108.65 111.86 108.58 111.84 108.55 111.78L107.83 110.45C107.8 110.39 107.82 110.32 107.88 110.29L109.31 109.52L109.66 109.08C109.66 109.08 109.68 109.06 109.69 109.05L110.16 108.8C110.22 108.77 110.29 108.8 110.32 108.85L111.06 110.21C111.1 110.28 111.15 110.37 111.17 110.46C111.17 110.49 111.15 110.53 111.12 110.54L111.11 110.53Z" fill="white"/>
        <path d="M101.41 116.85C101.41 116.85 101.34 116.89 101.3 116.91C99.1098 118.03 96.1498 119.67 94.2998 120.57C92.3598 121.51 86.1498 124.53 86.1498 124.53C86.1498 124.53 84.4698 125.37 84.2598 124.53C84.3898 124.25 84.5698 124.05 84.8198 123.87C84.8598 123.88 84.8898 123.87 84.9198 123.85L86.3198 123.09H86.3298C86.3998 123.04 86.4198 122.97 86.3998 122.92L86.4498 122.89C88.2298 121.92 92.2098 119.7 94.9798 118.2C95.0798 118.25 95.1598 118.28 95.2798 118.29C95.6598 118.33 95.8398 118.2 96.7398 117.71L98.1898 116.92C98.4898 116.69 98.6698 116.37 98.7298 116.02C98.7698 115.96 98.8098 115.9 98.8498 115.85C98.9998 115.77 99.1798 115.67 99.4098 115.57C99.4398 115.56 99.4698 115.55 99.4998 115.53L101.4 116.88L101.41 116.85Z" fill="#F9B357"/>
        <path d="M101.879 116.6C101.879 116.6 101.779 116.65 101.729 116.68L99.8594 115.32C99.9094 115.29 99.9694 115.26 100.029 115.24L101.879 116.6V116.6Z" fill="#F9B357"/>
        <path d="M101.879 116.6C101.879 116.6 101.779 116.65 101.729 116.68L99.8594 115.32C99.9094 115.29 99.9694 115.26 100.029 115.24C100.199 115.17 100.389 115.11 100.569 115.04C101.779 114.99 103.019 114.71 104.109 114.18C105.279 113.65 106.419 113 107.479 112.28L108.489 111.69L110.909 110.28L111.039 110.21C111.079 110.28 111.129 110.37 111.149 110.46C111.149 110.47 111.149 110.49 111.159 110.5C111.189 110.62 111.199 110.83 110.819 111.11C110.439 111.39 109.069 112.34 108.089 112.94C107.129 113.53 104.069 115.46 101.879 116.59V116.6Z" fill="#F9B357"/>
        <path d="M86.3596 123.06L84.9896 123.8C84.9896 123.8 84.9196 123.8 84.8896 123.82C85.1596 123.6 85.4197 123.43 85.7197 123.26L86.4596 122.86C86.4296 122.94 86.4096 123.03 86.3496 123.06H86.3596Z" fill="#F9B357"/>
        <path d="M99.8698 115.31L99.5098 115.5L101.41 116.85L101.74 116.67L99.8698 115.31Z" fill="#D76143"/>
        <path d="M95.2902 118.25C95.1802 118.24 95.0902 118.21 94.9902 118.16L98.8602 115.81C98.8202 115.87 98.7802 115.92 98.7402 115.98C98.6802 116.33 98.5002 116.64 98.2002 116.88L96.7502 117.67C95.8402 118.16 95.6702 118.29 95.2902 118.25V118.25Z" fill="#D76143"/>
        <path d="M95.6285 109.497L94.5928 110.69L95.0836 111.116L96.1194 109.923L95.6285 109.497Z" fill="#1B2525"/>
        <path d="M95.7804 111.59L84.7504 124.29C84.7504 124.29 84.7204 124.32 84.7004 124.33L82.9404 122.8C82.9404 122.8 82.9604 122.76 82.9704 122.74L94.0004 110.04C94.0604 109.97 94.1604 109.97 94.2304 110.03L95.7504 111.35C95.8204 111.41 95.8304 111.51 95.7704 111.58L95.7804 111.59Z" fill="#A8DE96"/>
        <g opacity="0.14">
            <path d="M94.6504 110.61L83.6204 123.31C83.6204 123.31 83.5904 123.34 83.5804 123.35L82.9404 122.8C82.9404 122.8 82.9604 122.77 82.9804 122.75L94.0104 110.05C94.0704 109.98 94.1404 109.94 94.1604 109.97L94.7104 110.45C94.7104 110.45 94.7104 110.54 94.6504 110.61V110.61Z" fill="#1B8158"/>
        </g>
        <path d="M95.59 113.52L92.97 111.24L92.55 111.73L95.06 113.9L91.36 118.16C91.24 118.29 91.26 118.5 91.39 118.62C91.52 118.74 91.73 118.72 91.85 118.59L95.65 114.21C95.83 114.01 95.81 113.7 95.6 113.52H95.59Z" fill="#1B2525"/>
        <path d="M96.1513 108.045L95.2335 109.103C95.172 109.173 95.1796 109.281 95.2505 109.342L96.3077 110.26C96.3786 110.322 96.486 110.314 96.5475 110.243L97.4653 109.186C97.5268 109.115 97.5192 109.008 97.4483 108.946L96.3911 108.028C96.3202 107.967 96.2128 107.974 96.1513 108.045Z" fill="black"/>
        <path d="M84.7103 124.33L82.1503 125.76C81.9703 125.86 81.8103 125.73 81.8903 125.53L82.9503 122.8L84.7103 124.33Z" fill="#1B2525"/>
        <path d="M69.5394 113.37C69.5594 113.31 69.5594 113.25 69.5294 113.19L69.0794 112.28C68.6694 111.46 67.7094 111.1 66.8794 111.46L66.8394 111.48C66.7194 111.53 66.6694 111.67 66.7194 111.79C66.7694 111.91 66.9094 111.96 67.0294 111.91H67.0594C67.6594 111.64 68.3494 111.91 68.6494 112.5L69.0994 113.41C69.1594 113.53 69.2994 113.58 69.4194 113.52C69.4794 113.49 69.5194 113.44 69.5394 113.39V113.37Z" fill="black"/>
        <path d="M71.99 116.88C71.99 116.88 71.97 116.87 71.96 116.86C71.96 116.86 71.97 116.86 71.98 116.86C71.98 116.86 71.99 116.86 72 116.87L71.99 116.88Z" fill="black"/>
        <path d="M67.8595 119.84C68.0095 119.83 68.1695 119.79 68.3195 119.75C68.3895 119.74 68.4595 119.71 68.5395 119.69C68.5995 119.67 68.6595 119.65 68.7195 119.62C68.7795 119.59 68.8395 119.57 68.8895 119.54C68.9495 119.51 68.9995 119.48 69.0595 119.45C69.1795 119.38 69.2895 119.31 69.3995 119.22C69.8395 118.9 70.1795 118.45 70.3795 117.93C70.3895 117.89 70.4195 117.87 70.4495 117.86L71.7795 117.36C71.7795 117.36 71.8495 117.36 71.8795 117.37C71.9395 117.4 71.9895 117.42 72.0395 117.44C72.7595 117.77 73.5795 117.81 74.3395 117.53C74.9595 117.3 75.4495 116.89 75.7895 116.39C75.8095 116.37 75.8195 116.35 75.8295 116.32C76.3195 115.55 76.4495 114.57 76.1095 113.64C75.5195 112.09 73.7795 111.29 72.2195 111.88L66.5795 113.99C66.0295 114.2 65.5595 114.54 65.2195 114.98C64.6595 115.7 64.3995 116.64 64.6295 117.57C64.9195 118.72 65.8095 119.53 66.8495 119.78C66.9295 119.8 67.0095 119.82 67.0995 119.83C67.1695 119.84 67.2495 119.85 67.3295 119.86C67.4095 119.86 67.4895 119.87 67.5795 119.87C67.6795 119.87 67.7695 119.87 67.8695 119.86L67.8595 119.84ZM67.3195 119.37C67.2595 119.37 67.2095 119.36 67.1695 119.35C67.0495 119.33 66.9295 119.31 66.8195 119.27C66.7795 119.25 66.7295 119.24 66.6895 119.22C66.6295 119.2 66.5795 119.18 66.5195 119.15C66.4095 119.1 66.2995 119.05 66.1995 118.98C66.0795 118.91 65.9695 118.82 65.8695 118.73C65.8195 118.69 65.7795 118.65 65.7395 118.6C65.6995 118.56 65.6495 118.51 65.6195 118.47C65.3795 118.19 65.1895 117.84 65.0995 117.45C65.0195 117.12 65.0095 116.8 65.0595 116.48C65.0795 116.35 65.1095 116.23 65.1495 116.1C65.1695 116.04 65.1895 115.98 65.2195 115.91C65.2695 115.79 65.3295 115.67 65.3995 115.56C65.4395 115.5 65.4695 115.45 65.4995 115.39C65.5695 115.28 65.6595 115.18 65.7495 115.09C66.0295 114.8 66.3595 114.57 66.7495 114.43L72.4095 112.32C72.9795 112.11 73.5795 112.11 74.1195 112.29C74.1895 112.31 74.2595 112.34 74.3195 112.37C74.3895 112.4 74.4495 112.43 74.5095 112.47C74.5495 112.48 74.5895 112.51 74.6295 112.54C74.6995 112.58 74.7695 112.63 74.8295 112.67C74.8495 112.68 74.8795 112.71 74.8995 112.73C74.9595 112.77 75.0095 112.82 75.0595 112.87C75.0795 112.89 75.1195 112.92 75.1295 112.94C75.1495 112.96 75.1695 112.98 75.1795 113C75.2295 113.05 75.2695 113.1 75.3095 113.15C75.3795 113.24 75.4495 113.35 75.5095 113.45C75.5795 113.57 75.6395 113.71 75.6895 113.85C75.7195 113.92 75.7295 113.99 75.7495 114.07C76.0395 115.2 75.4895 116.43 74.4395 116.96C74.2595 117.05 74.0795 117.12 73.8895 117.17C73.3395 117.3 72.7595 117.25 72.2495 117C72.1595 116.97 72.0795 116.93 71.9995 116.88C71.9995 116.88 71.9795 116.87 71.9695 116.86C71.9595 116.85 71.9495 116.85 71.9295 116.85C71.9195 116.85 71.9095 116.85 71.8895 116.84H71.8595C71.8595 116.84 71.7995 116.84 71.7795 116.85L70.1295 117.47C70.1295 117.47 70.0895 117.48 70.0795 117.5C70.0695 117.5 70.0595 117.52 70.0495 117.52C70.0495 117.52 70.0295 117.55 70.0195 117.56C70.0195 117.56 70.0195 117.58 70.0095 117.58V117.6C70.0095 117.6 69.9895 117.61 69.9895 117.62C69.7495 118.36 69.1995 118.93 68.4695 119.2C68.3195 119.26 68.1595 119.3 67.9995 119.33C67.8595 119.35 67.7295 119.36 67.5995 119.36C67.5095 119.36 67.4195 119.36 67.3295 119.35L67.3195 119.37Z" fill="black"/>
        <path d="M67.8595 119.84C68.0095 119.83 68.1695 119.79 68.3195 119.75C68.3895 119.74 68.4595 119.71 68.5395 119.69C68.5995 119.67 68.6595 119.65 68.7195 119.62C68.7795 119.59 68.8395 119.57 68.8895 119.54C68.9495 119.51 68.9995 119.48 69.0595 119.45C69.1795 119.38 69.2895 119.31 69.3995 119.22C69.8395 118.9 70.1795 118.45 70.3795 117.93C70.3895 117.89 70.4195 117.87 70.4495 117.86L71.7795 117.36C71.7795 117.36 71.8495 117.36 71.8795 117.37C71.9395 117.4 71.9895 117.42 72.0395 117.44C72.7595 117.77 73.5795 117.81 74.3395 117.53C74.9595 117.3 75.4495 116.89 75.7895 116.39C75.8095 116.37 75.8195 116.35 75.8295 116.32C76.3195 115.55 76.4495 114.57 76.1095 113.64C75.5195 112.09 73.7795 111.29 72.2195 111.88L66.5795 113.99C66.0295 114.2 65.5595 114.54 65.2195 114.98C64.6595 115.7 64.3995 116.64 64.6295 117.57C64.9195 118.72 65.8095 119.53 66.8495 119.78C66.9295 119.8 67.0095 119.82 67.0995 119.83C67.1695 119.84 67.2495 119.85 67.3295 119.86C67.4095 119.86 67.4895 119.87 67.5795 119.87C67.6795 119.87 67.7695 119.87 67.8695 119.86L67.8595 119.84ZM67.3195 119.37C67.2595 119.37 67.2095 119.36 67.1695 119.35C67.0495 119.33 66.9295 119.31 66.8195 119.27C66.7795 119.25 66.7295 119.24 66.6895 119.22C66.6295 119.2 66.5795 119.18 66.5195 119.15C66.4095 119.1 66.2995 119.05 66.1995 118.98C66.0795 118.91 65.9695 118.82 65.8695 118.73C65.8195 118.69 65.7795 118.65 65.7395 118.6C65.6995 118.56 65.6495 118.51 65.6195 118.47C65.3795 118.19 65.1895 117.84 65.0995 117.45C65.0195 117.12 65.0095 116.8 65.0595 116.48C65.0795 116.35 65.1095 116.23 65.1495 116.1C65.1695 116.04 65.1895 115.98 65.2195 115.91C65.2695 115.79 65.3295 115.67 65.3995 115.56C65.4395 115.5 65.4695 115.45 65.4995 115.39C65.5695 115.28 65.6595 115.18 65.7495 115.09C66.0295 114.8 66.3595 114.57 66.7495 114.43L72.4095 112.32C72.9795 112.11 73.5795 112.11 74.1195 112.29C74.1895 112.31 74.2595 112.34 74.3195 112.37C74.3895 112.4 74.4495 112.43 74.5095 112.47C74.5495 112.48 74.5895 112.51 74.6295 112.54C74.6995 112.58 74.7695 112.63 74.8295 112.67C74.8495 112.68 74.8795 112.71 74.8995 112.73C74.9595 112.77 75.0095 112.82 75.0595 112.87C75.0795 112.89 75.1195 112.92 75.1295 112.94C75.1495 112.96 75.1695 112.98 75.1795 113C75.2295 113.05 75.2695 113.1 75.3095 113.15C75.3795 113.24 75.4495 113.35 75.5095 113.45C75.5795 113.57 75.6395 113.71 75.6895 113.85C75.7195 113.92 75.7295 113.99 75.7495 114.07C76.0395 115.2 75.4895 116.43 74.4395 116.96C74.2595 117.05 74.0795 117.12 73.8895 117.17C73.3395 117.3 72.7595 117.25 72.2495 117C72.1595 116.97 72.0795 116.93 71.9995 116.88C71.9995 116.88 71.9795 116.87 71.9695 116.86C71.9595 116.85 71.9495 116.85 71.9295 116.85C71.9195 116.85 71.9095 116.85 71.8895 116.84H71.8595C71.8595 116.84 71.7995 116.84 71.7795 116.85L70.1295 117.47C70.1295 117.47 70.0895 117.48 70.0795 117.5C70.0695 117.5 70.0595 117.52 70.0495 117.52C70.0495 117.52 70.0295 117.55 70.0195 117.56C70.0195 117.56 70.0195 117.58 70.0095 117.58V117.6C70.0095 117.6 69.9895 117.61 69.9895 117.62C69.7495 118.36 69.1995 118.93 68.4695 119.2C68.3195 119.26 68.1595 119.3 67.9995 119.33C67.8595 119.35 67.7295 119.36 67.5995 119.36C67.5095 119.36 67.4195 119.36 67.3295 119.35L67.3195 119.37Z" fill="#1B8158"/>
        <path d="M74.4397 116.96C73.6497 117.36 72.7397 117.32 71.9797 116.88C71.9797 116.88 71.9597 116.87 71.9497 116.86C71.9397 116.86 71.9297 116.85 71.9097 116.85C71.8997 116.85 71.8897 116.85 71.8697 116.85C71.8297 116.85 71.7897 116.85 71.7597 116.86L70.1197 117.47C70.1197 117.47 70.0797 117.49 70.0697 117.5C70.0597 117.5 70.0497 117.52 70.0397 117.53C70.0297 117.54 70.0197 117.56 70.0097 117.57C70.0097 117.58 69.9897 117.6 69.9897 117.62V117.64C69.7497 118.38 69.1897 118.95 68.4697 119.22C67.0697 119.75 65.4897 118.95 65.1097 117.45C64.7897 116.18 65.5297 114.89 66.7497 114.43L72.4097 112.31C73.8097 111.78 75.3797 112.58 75.7697 114.06C76.0597 115.2 75.5097 116.42 74.4597 116.95L74.4397 116.96Z" fill="#1B8158"/>
        <path d="M67.8599 118.09C67.7999 118.07 67.7599 118.02 67.7299 117.96L66.9499 115.88C66.8999 115.76 66.9699 115.62 67.0899 115.58C67.2099 115.53 67.3499 115.6 67.3899 115.72L68.1699 117.8C68.2199 117.92 68.1499 118.06 68.0299 118.1C67.9699 118.12 67.9099 118.12 67.8499 118.1L67.8599 118.09Z" fill="black"/>
        <path d="M66.4295 117.44C66.3695 117.42 66.3295 117.37 66.2995 117.31C66.2495 117.19 66.3195 117.05 66.4395 117.01L68.5195 116.23C68.6395 116.18 68.7795 116.25 68.8195 116.37C68.8695 116.49 68.7995 116.63 68.6795 116.67L66.5995 117.45C66.5395 117.47 66.4795 117.47 66.4195 117.45L66.4295 117.44Z" fill="black"/>
        <path d="M69.2899 114.37C69.2299 114.35 69.1899 114.3 69.1599 114.24C69.1099 114.12 69.1799 113.98 69.2999 113.94L70.0699 113.65C70.1899 113.6 70.3299 113.67 70.3699 113.79C70.4199 113.91 70.3499 114.05 70.2299 114.09L69.4599 114.38C69.3999 114.4 69.3399 114.4 69.2799 114.38L69.2899 114.37Z" fill="black"/>
        <path d="M67.1596 111.76C67.1796 111.7 67.1796 111.64 67.1596 111.58C67.1096 111.46 66.9696 111.41 66.8496 111.46H66.8196C66.2196 111.73 65.5296 111.46 65.2296 110.87L64.7796 109.96C64.7196 109.84 64.5796 109.79 64.4596 109.85C64.3396 109.91 64.2896 110.05 64.3496 110.17L64.7996 111.08C65.2096 111.9 66.1696 112.26 66.9996 111.9L67.0396 111.88C67.0996 111.85 67.1396 111.8 67.1696 111.74L67.1596 111.76Z" fill="black"/>
        <path opacity="0.1" d="M67.5692 119.85C67.4792 119.85 67.3992 119.85 67.3192 119.84C67.2392 119.84 67.1692 119.82 67.0892 119.81C66.9992 119.8 66.9192 119.78 66.8392 119.76C65.7992 119.5 64.9092 118.69 64.6192 117.55C64.3892 116.62 64.6392 115.68 65.2092 114.96C65.0392 115.34 64.9492 115.77 64.9492 116.22C64.9492 116.42 64.9692 116.62 65.0092 116.81C65.2992 118.23 66.5392 119.28 68.0192 119.26C68.1392 119.26 68.2492 119.26 68.3692 119.24C69.0592 119.15 69.6592 118.85 70.1192 118.39C69.9192 118.71 69.6792 118.99 69.3792 119.22C69.2692 119.31 69.1592 119.38 69.0392 119.45C68.9792 119.48 68.9292 119.51 68.8692 119.54C68.8092 119.57 68.7492 119.59 68.6992 119.62C68.6392 119.65 68.5792 119.67 68.5192 119.69C68.4492 119.72 68.3792 119.74 68.2992 119.75C68.1492 119.79 67.9892 119.83 67.8392 119.84C67.7392 119.84 67.6492 119.85 67.5492 119.85H67.5692Z" fill="#010101"/>
        <path opacity="0.1" d="M72.0401 117.43C71.6801 117.18 71.5801 116.85 72.0401 116.95C72.1101 116.97 72.1801 116.98 72.2401 116.99C73.0001 117.15 73.3201 117.17 73.7501 117.16C73.7901 117.16 73.8401 117.16 73.8901 117.16C73.9601 117.16 74.0301 117.16 74.0901 117.15C74.7701 117.06 75.3701 116.76 75.8301 116.31C75.8201 116.33 75.8101 116.36 75.7901 116.38C75.4501 116.88 74.9601 117.29 74.3401 117.52C73.5801 117.8 72.7601 117.77 72.0401 117.43V117.43Z" fill="#010101"/>
        <path d="M71.6898 115.73C71.5198 115.65 71.3798 115.51 71.3098 115.33C71.1698 114.96 71.3598 114.54 71.7298 114.41C71.9098 114.35 72.0898 114.35 72.2698 114.43C72.4398 114.51 72.5698 114.65 72.6398 114.83C72.7098 115.01 72.6998 115.21 72.6198 115.38C72.5398 115.55 72.3998 115.68 72.2198 115.75C72.0398 115.82 71.8398 115.8 71.6798 115.74L71.6898 115.73Z" fill="#074674"/>
        <path d="M73.35 116.29C73.35 116.29 73.35 116.29 73.34 116.29C73.17 116.21 73.04 116.07 72.97 115.89C72.83 115.52 73.02 115.11 73.38 114.97C73.56 114.9 73.76 114.92 73.93 114.99C74.1 115.07 74.23 115.21 74.3 115.39C74.33 115.47 74.34 115.55 74.35 115.64C74.35 115.93 74.18 116.2 73.89 116.31C73.71 116.38 73.52 116.37 73.35 116.3V116.29Z" fill="#074674"/>
        <path d="M74.1898 114.79H74.1798C74.0098 114.71 73.8798 114.57 73.8098 114.39C73.6698 114.02 73.8598 113.6 74.2298 113.47C74.4098 113.41 74.5998 113.42 74.7798 113.49C74.9498 113.57 75.0798 113.71 75.1498 113.89C75.1798 113.97 75.1898 114.06 75.1998 114.14C75.1998 114.43 75.0298 114.71 74.7398 114.82C74.5598 114.88 74.3698 114.88 74.1998 114.8L74.1898 114.79Z" fill="#DF7F68"/>
        <path d="M72.5694 114.2C72.5694 114.2 72.5694 114.2 72.5594 114.2C72.3894 114.12 72.2594 113.98 72.1894 113.8C72.1194 113.62 72.1294 113.43 72.1994 113.26C72.2794 113.09 72.4194 112.95 72.5994 112.89C72.9694 112.75 73.3894 112.94 73.5194 113.31C73.5794 113.49 73.5794 113.68 73.4994 113.85C73.4194 114.02 73.2794 114.15 73.0994 114.22C72.9194 114.28 72.7294 114.28 72.5594 114.21L72.5694 114.2Z" fill="#CA4B2B"/>
        <path d="M81.2639 111.34L75.0836 113.254C74.7354 113.362 74.5406 113.732 74.6484 114.08L76.5627 120.26C76.6706 120.609 77.0402 120.803 77.3884 120.696L83.5688 118.781C83.9169 118.673 84.1118 118.304 84.0039 117.956L82.0896 111.775C81.9818 111.427 81.6121 111.232 81.2639 111.34Z" fill="#CA4B2B"/>
        <path d="M79.0104 114.62C79.5504 114.45 79.9504 114.67 80.0804 115.08C80.1604 115.35 80.0804 115.63 79.8804 115.78C80.1504 115.77 80.4404 115.93 80.5404 116.27C80.6804 116.71 80.4404 117.14 79.9304 117.3L78.7404 117.67L77.9004 114.96L79.0104 114.62V114.62ZM79.2104 115.73C79.3804 115.68 79.4604 115.54 79.4104 115.39C79.3604 115.24 79.2404 115.17 79.0404 115.23L78.7604 115.32L78.9204 115.83L79.2104 115.74V115.73ZM79.5804 116.78C79.7704 116.72 79.8404 116.58 79.7904 116.42C79.7404 116.26 79.6004 116.18 79.4104 116.24L79.0804 116.34L79.2504 116.89L79.5804 116.79V116.78Z" fill="black"/>
        <path opacity="0.16" d="M82.1804 111.91L84.2004 118.43C84.2004 118.5 84.1704 118.57 84.1104 118.61C84.0904 118.62 84.0704 118.63 84.0504 118.64L79.9004 119.92C79.9804 119.89 80.0504 119.87 80.1304 119.84C81.2504 119.43 82.2604 118.88 82.7304 117.98C83.5604 116.4 82.7504 113.75 82.1804 111.91V111.91Z" fill="#010101"/>
        <path d="M58.4596 114.73C58.2596 116.62 59.0496 118.25 60.2196 118.37L70.6796 119.46C71.8496 119.58 72.9596 118.15 73.1496 116.26L58.4596 114.73L55.8496 112.92" stroke="black" stroke-miterlimit="10"/>
        <path d="M58.4597 114.73C58.2597 116.62 59.0497 118.25 60.2197 118.37L70.6797 119.46C71.8497 119.58 72.9597 118.15 73.1497 116.26L58.4597 114.73" fill="#13220F"/>
        <path d="M51.9613 109.072C51.4779 108.752 50.8263 108.884 50.5059 109.367C50.1855 109.85 50.3176 110.502 50.801 110.822L54.6017 113.342C55.0851 113.662 55.7366 113.53 56.057 113.047C56.3774 112.563 56.2454 111.912 55.762 111.591L51.9613 109.072Z" fill="#13220F"/>
        <path d="M108.459 77.56C109.479 77.65 110.569 77.1 110.569 76.88C110.579 76.6 109.969 76.18 109.749 76.06C109.529 75.96 109.279 75.81 109.049 75.7C108.829 75.6 108.719 75.34 108.829 75.05C108.939 74.77 109.919 74.99 110.249 75.14C111.259 75.6 113.699 77.34 113.969 77.52C114.289 77.72 120.909 77.2 123.199 77.2C126.939 77.09 130.779 76.79 131.179 76.78L146.379 71.71L150.409 76.55C150.409 76.55 133.629 82.41 132.739 82.61C132.329 82.7 123.639 82.29 123.639 82.28C119.369 81.81 115.609 81.38 114.899 81.31C114.899 81.31 112.689 81.7 111.299 82.05C110.399 82.27 109.659 81.07 109.009 81.03C108.959 79.27 109.249 80.28 108.779 78.6C108.739 78.43 108.499 77.72 108.469 77.54L108.459 77.56Z" fill="#F7A491"/>
        <path d="M149.459 188.97C149.629 187.76 149.259 185.68 148.299 182.42C150.179 182.42 151.749 181.59 153.669 181.62C154.189 184.68 154.999 189.71 154.999 189.71L155.089 193.68L141.739 193.78C141.739 193.78 141.859 193.83 145.789 191.35C146.079 191.17 149.299 190.13 149.459 188.97V188.97Z" fill="#F7A491"/>
        <path d="M155.16 194.7H141.38C140.87 194.65 140.74 194.24 140.92 193.99C141.28 193.47 143.98 192.19 145.78 191.35C148.95 191.68 154.52 190.38 155.02 189.64C155.89 192.07 155.44 194.63 155.16 194.7Z" fill="#13220F"/>
        <path d="M166.089 188.97C166.259 187.76 166.549 186.24 166.129 182.22C168.009 182.22 169.789 181.88 171.699 181.9C171.699 185.05 171.639 189.72 171.639 189.72L171.729 193.69L158.379 193.79C158.379 193.79 158.489 193.84 162.429 191.36C162.709 191.17 165.919 190.12 166.089 188.97Z" fill="#F7A491"/>
        <path d="M171.789 194.7H158.009C157.499 194.65 157.369 194.24 157.549 193.99C157.909 193.47 160.609 192.19 162.409 191.35C165.579 191.68 171.149 190.38 171.649 189.64C172.519 192.07 172.069 194.63 171.789 194.7Z" fill="#13220F"/>
        <path d="M153.15 102.33L157.23 104.6L165.5 117.25L150.7 152.06C150.7 152.06 152.36 157.3 152.91 159.91C153.47 162.65 154.87 186.13 154.87 186.13L148.55 186.23C148.55 186.23 142.55 161.23 141.53 153.11C140.3 143.25 147.81 119.78 147.81 119.78C149.22 114.99 152.23 105.13 152.23 105.13C152.23 105.13 152.97 102.75 153.15 102.33V102.33Z" fill="#035B52"/>
        <path d="M167.32 97.5801C167.32 97.5801 166.9 100.56 168.59 103.95C169.61 106.01 171.39 107.64 172.66 110.18C175.06 114.97 176.37 121.78 175.47 126.16C175.47 126.16 170.5 145.11 170.7 152.04C170.78 154.6 171.65 159.2 172.21 162.31C172.71 165.06 172.53 185.46 172.53 185.46L165.82 185.59L160.42 152.12L158.13 122.37L153.14 102.32L167.32 97.5801V97.5801Z" fill="#1C907D"/>
        <path d="M151.64 53.3599C152.29 50.2899 152.97 47.2099 156.02 44.9899C158.49 43.1899 161.15 42.6799 163.96 43.6999C171.94 46.5899 167.65 52.9199 177.55 59.6699C180.63 61.7699 181.79 62.4999 184.01 65.2899C187.1 69.1999 188.8 74.4499 187.24 78.7699C184.03 87.6999 174.06 90.2799 168.86 88.3899C159.16 84.8599 151.08 72.5699 150.54 69.2199C149.96 65.6299 151.22 55.3399 151.64 53.3599V53.3599Z" fill="#13220F"/>
        <path d="M150.899 77.0999C148.649 78.1299 144.589 79.6999 144.589 79.6999L142.279 72.3799C155.369 64.9399 154.339 66.1399 164.169 66.2899C172.019 66.3999 175.299 64.8999 182.069 83.1299C182.069 83.1299 176.929 85.4399 175.089 86.1699C174.299 83.9199 172.869 79.4199 172.039 81.9799C170.769 85.8499 169.849 89.7599 169.239 93.7699C168.839 96.1499 167.989 99.2099 168.429 101.64C168.429 101.64 163.089 102.74 159.009 102.91H158.969C156.999 102.86 154.979 102.68 153.179 102.3C153.179 102.3 152.369 85.3899 151.949 84.6899C151.479 83.9099 149.479 81.3799 151.179 77.6099C151.459 76.9699 151.369 76.8799 150.909 77.0999H150.899Z" fill="#F9CA58"/>
        <path d="M162.92 58.7601C162.92 58.7601 163.55 63.8001 163.92 65.5501C164.3 67.3801 164.89 73.1501 161.08 74.0801C157.28 75.0201 158.46 67.8001 158.4 65.9401C158.34 64.0801 157.26 57.5801 157.26 57.5801L162.92 58.7501V58.7601Z" fill="#F7A491"/>
        <path d="M163.14 60.3801C163.14 60.3801 163.06 60.4301 163.02 60.4601C160.92 61.6601 159.09 61.4801 157.72 60.5401C157.48 58.9201 157.26 57.6201 157.26 57.6201L162.94 58.7901C162.94 58.7901 163.02 59.4401 163.15 60.3801H163.14Z" fill="#F47458"/>
        <path d="M161.779 45.63C161.779 45.63 163.999 46.25 165.299 48.47C166.579 50.69 167.229 57.03 162.499 59.74C157.769 62.45 154.419 58.11 154.559 54.05C154.689 49.99 155.819 44.61 161.779 45.63V45.63Z" fill="#F7A491"/>
        <path d="M153.499 52.2998C153.449 53.3598 153.899 54.2398 154.509 54.2598C155.119 54.2898 155.659 53.4598 155.709 52.3998C155.759 51.3398 155.309 50.4598 154.699 50.4398C154.099 50.4098 153.559 51.2398 153.499 52.2998Z" fill="#F7A491"/>
        <path d="M161.119 45.46C161.119 45.46 163.659 52.1 166.169 52.81C168.659 53.52 168.469 56.78 168.469 56.78C168.469 56.78 168.779 49.23 166.489 47.38C164.219 45.53 161.119 45.46 161.119 45.46V45.46Z" fill="#13220F"/>
        <path d="M165.079 54.1098C164.699 55.1398 164.949 56.1998 165.639 56.4698C166.329 56.7398 167.209 56.0998 167.599 55.0698C167.979 54.0398 167.729 52.9798 167.039 52.7098C166.349 52.4398 165.479 53.0798 165.079 54.1098Z" fill="#F7A491"/>
        <path d="M161.239 56.3098L156.879 55.8398C156.879 55.8398 156.799 57.5098 158.709 57.7598C161.049 58.0798 161.239 56.3098 161.239 56.3098Z" fill="white"/>
        <path d="M107.789 78.6697C107.579 78.1497 107.429 77.6997 107.919 77.5997C108.409 77.4997 111.099 77.1797 111.559 77.2697C112.029 77.3597 112.149 77.6397 111.989 77.7897C111.849 77.9197 109.129 78.5397 109.129 78.5397C109.129 78.5397 108.779 78.6197 108.989 78.7397C109.199 78.8697 111.669 78.2897 112.079 78.2897C112.489 78.2797 112.849 78.4697 112.719 78.7897C112.569 79.1697 109.829 79.5897 109.829 79.5897C109.829 79.5897 109.479 79.6497 109.609 79.7897C109.739 79.9297 111.819 79.4097 112.069 79.4697C112.309 79.5297 112.579 79.7997 112.389 80.0397C112.169 80.3197 109.709 80.6797 109.709 80.6797C109.709 80.6797 109.559 80.7697 109.669 80.8297C109.779 80.9097 111.649 80.5997 111.929 80.7397C112.169 80.8497 112.129 81.0297 112.129 81.0297C112.159 81.4597 109.959 81.8097 109.819 81.8197C109.269 81.8797 108.709 80.9297 108.489 80.3397L107.789 78.6497V78.6697Z" fill="#F7A491"/>
        <path d="M158.069 105.5C158.009 105.3 157.779 105.03 157.869 104.86C157.869 104.86 158.059 104.69 158.229 104.71C158.409 104.72 158.599 105.07 158.719 105.09C158.819 105.12 159.099 105.24 159.249 105.14C159.389 105.04 160.229 104.5 160.389 104.38C160.539 104.24 161.089 103.9 161.169 103.81C161.249 103.72 161.769 103.12 161.629 102.83C161.629 102.83 161.489 102.94 161.169 102.59C160.959 102.72 161.399 102.3 161.169 102.59C161.389 102.46 160.719 101.83 160.899 101.81C161.079 101.79 161.779 101.58 161.779 101.58C161.779 101.58 162.419 101.48 162.869 101.81C163.319 102.14 163.889 102.32 164.279 102.5C164.499 102.6 165.209 102.37 165.779 102.14L167.249 101.3C167.989 100.82 167.819 100.92 168.489 100.5C168.729 100.33 168.979 100.18 169.209 100.03C178.539 93.9301 178.709 93.6901 178.759 93.5601C178.939 93.0601 177.229 88.9701 175.769 85.8901C177.359 85.2301 180.189 83.9701 181.529 83.3701C183.259 88.2601 185.379 94.7201 185.219 95.5501C184.939 97.0401 166.519 105.28 166.209 105.46V105.42L165.379 105.81C165.379 105.81 165.119 106.07 164.919 106.26C164.719 106.44 164.009 106.73 164.009 106.73C164.009 106.73 162.489 107.47 162.349 107.48C162.209 107.49 161.189 107.86 161.019 107.82C160.849 107.78 160.459 107.63 160.299 107.63C160.139 107.63 159.829 107.63 159.609 107.46C159.389 107.29 159.069 107.13 159.039 106.91C159.039 106.91 158.629 106.66 158.489 106.5C158.349 106.36 158.249 106.12 158.259 105.94L158.319 105.83C158.319 105.83 158.149 105.7 158.089 105.5H158.069Z" fill="#F7A491"/>
        <path d="M216.28 200H24.6297C23.1497 200 21.9697 198.79 21.9697 197.32C21.9697 195.85 23.1497 194.64 24.6297 194.64H216.28C217.76 194.64 218.94 195.85 218.94 197.32C218.94 198.79 217.76 200 216.28 200Z" fill="#C4C4C4"/>
        <path d="M105.76 121.47L104.76 150.84L103.19 196.85H59.6598L57.2098 124.45L57.0898 121.48H105.76V121.47Z" fill="#1B8158"/>
        <path d="M69.1998 121.47V196.85H59.6598L57.2098 124.45L57.0898 121.48H69.1998V121.47Z" fill="#33916B"/>
        <path d="M93.6797 121.47V196.85H103.19L105.67 124.45L105.76 121.48H93.6797V121.47Z" fill="#005C35"/>
        <path opacity="0.2" d="M105.76 121.47L104.76 150.84C103.28 146.63 101.01 142.71 98.0296 139.38C92.7696 133.49 85.5396 129.54 77.9496 127.3C71.2496 125.33 64.2196 124.62 57.1896 124.47L57.0996 121.47H105.77H105.76Z" fill="#13220F"/>
        <path d="M106.82 123.39H56.0297C54.1997 123.39 52.7197 121.92 52.7197 120.09C52.7197 118.26 54.1997 116.79 56.0297 116.79H106.82C108.65 116.79 110.13 118.26 110.13 120.09C110.16 121.92 108.65 123.39 106.82 123.39Z" fill="#005C35"/>
        <path d="M107.79 78.6702C107.58 78.1502 107.43 77.7002 107.92 77.6002C108.41 77.5002 111.1 77.1802 111.56 77.2702C112.03 77.3602 112.15 77.6402 111.99 77.7902C111.85 77.9202 109.13 78.5402 109.13 78.5402C109.13 78.5402 108.78 78.6202 108.99 78.7402C109.2 78.8702 111.67 78.2902 112.08 78.2902C112.49 78.2802 112.85 78.4702 112.72 78.7902C112.57 79.1702 109.83 79.5902 109.83 79.5902C109.83 79.5902 109.48 79.6502 109.61 79.7902C109.74 79.9302 111.82 79.4102 112.07 79.4702C112.31 79.5302 112.58 79.8002 112.39 80.0402C112.17 80.3202 109.71 80.6802 109.71 80.6802C109.71 80.6802 109.56 80.7702 109.67 80.8302C109.78 80.9102 111.65 80.6002 111.93 80.7402C112.17 80.8502 112.13 81.0302 112.13 81.0302C112.16 81.4602 109.96 81.8102 109.82 81.8202C109.27 81.8802 108.71 80.9302 108.49 80.3402L107.79 78.6502V78.6702Z" fill="#F7A491"/>
        <path d="M162.94 110.4C162.86 110.3 162.86 110.18 162.94 110.12L164.08 109.26C164.15 109.21 164.27 109.24 164.34 109.34L165.28 110.83C165.36 110.93 165.36 111.05 165.28 111.11L164.38 111.79C164.31 111.84 164.19 111.81 164.12 111.71L162.94 110.4V110.4Z" fill="#27509E"/>
        <path d="M158.32 97.4102L164.71 108.51C164.71 108.51 164.73 108.56 164.72 108.58L164.59 109.26C164.59 109.26 164.57 109.31 164.55 109.32L162.83 110.62C162.83 110.62 162.78 110.65 162.76 110.64L162.08 110.58C162.08 110.58 162.03 110.57 162.01 110.55L153.08 101.37L158.32 97.4102V97.4102Z" fill="white"/>
        <path d="M157.76 96.67L158.31 97.4C158.31 97.4 158.31 97.4 158.31 97.41L153.07 101.37L152.52 100.64C152.52 100.64 152.49 100.53 152.54 100.49L157.62 96.65C157.62 96.65 157.73 96.62 157.77 96.67H157.76Z" fill="#27509E"/>
        <path d="M157.229 98.9441L157.102 99.0405L157.988 100.213L158.116 100.117L157.229 98.9441Z" fill="black"/>
        <path d="M156.995 99.1162L156.787 99.2729L157.673 100.446L157.881 100.289L156.995 99.1162Z" fill="black"/>
        <path d="M156.741 99.3147L156.613 99.4111L157.5 100.584L157.627 100.487L156.741 99.3147Z" fill="black"/>
        <path d="M156.536 99.4767L156.337 99.6274L157.223 100.8L157.423 100.649L156.536 99.4767Z" fill="black"/>
        <path d="M156.273 99.675L156.146 99.7715L157.032 100.944L157.159 100.848L156.273 99.675Z" fill="black"/>
        <path d="M156.031 99.8434L155.831 99.9941L156.717 101.167L156.917 101.016L156.031 99.8434Z" fill="black"/>
        <path d="M155.767 100.042L155.64 100.138L156.526 101.311L156.654 101.214L155.767 100.042Z" fill="black"/>
        <path d="M155.551 100.218L155.352 100.369L156.238 101.541L156.437 101.391L155.551 100.218Z" fill="black"/>
        <path d="M155.288 100.416L155.16 100.513L156.046 101.685L156.174 101.589L155.288 100.416Z" fill="black"/>
        <path d="M154.999 100.637L154.863 100.739L155.75 101.912L155.885 101.81L154.999 100.637Z" fill="black"/>
        <path d="M160.9 101.81C161.08 101.8 161.77 101.58 161.77 101.58C161.77 101.58 162.41 101.48 162.85 101.81C163.3 102.14 163.88 102.32 164.26 102.5C164.48 102.6 165.19 102.37 165.76 102.14L167.23 101.3C167.97 100.82 167.8 100.92 168.47 100.5C168.71 100.33 168.95 100.18 169.18 100.03C178.51 93.9201 178.68 93.6801 178.73 93.5601C178.91 93.0601 177.2 88.9701 175.74 85.8901C177.33 85.2301 180.16 83.9601 181.51 83.3701C183.23 88.2601 185.35 94.7101 185.2 95.5401C184.92 97.0301 166.5 105.27 166.19 105.45V105.41L165.36 105.81C165.36 105.81 165.1 106.06 164.9 106.25C164.7 106.43 163.99 106.72 163.99 106.72C163.99 106.72 162.47 107.46 162.33 107.48C162.19 107.49 161.17 107.86 161 107.82C160.84 107.78 160.44 107.63 160.29 107.63C160.13 107.63 159.81 107.63 159.6 107.46C159.38 107.3 159.06 107.13 159.02 106.92C159.02 106.92 158.61 106.66 158.47 106.51C158.33 106.37 158.23 106.13 158.24 105.95L158.3 105.83C158.3 105.83 158.14 105.7 158.07 105.5C158.01 105.3 157.78 105.03 157.87 104.87C157.87 104.87 158.06 104.7 158.23 104.71C158.41 104.73 158.6 105.07 158.71 105.1C158.82 105.12 159.1 105.25 159.24 105.15C159.38 105.04 160.22 104.51 160.38 104.38C160.53 104.24 161.08 103.9 161.15 103.81C161.23 103.72 161.63 103.25 161.49 102.96" fill="#F7A491"/>
        <path d="M117.066 81.9838L116.833 82.3333C116.796 82.3884 116.811 82.4629 116.866 82.4997L117.807 83.1267C117.862 83.1634 117.936 83.1486 117.973 83.0934L118.206 82.744C118.243 82.6889 118.228 82.6143 118.173 82.5776L117.233 81.9506C117.177 81.9138 117.103 81.9287 117.066 81.9838Z" fill="#19724C"/>
        <path d="M116.651 82.2101L116.881 81.8601C116.991 81.7001 117.211 81.6501 117.371 81.7601L118.301 82.3801C118.461 82.4901 118.511 82.7101 118.401 82.8701L118.171 83.2201C118.061 83.3801 117.841 83.4301 117.681 83.3201L116.751 82.7001C116.591 82.5901 116.541 82.3701 116.651 82.2101ZM117.211 82.2101L117.101 82.3801L117.851 82.8801L117.961 82.7101L117.211 82.2101Z" fill="#19724C"/>
        <path d="M104.51 74.09C104.42 73.94 104.54 73.75 104.72 73.78L105.09 73.84C105.88 73.97 106.64 74.27 107.31 74.71L117.34 81.4C117.4 81.44 117.41 81.51 117.37 81.57L116.56 82.78C116.52 82.84 116.45 82.85 116.39 82.81L106.67 76.33C105.8 75.75 105.06 74.99 104.51 74.1V74.09Z" fill="#1B8158"/>
        <path d="M116.75 82.9L117.56 81.69C117.67 81.53 117.62 81.31 117.46 81.2L110.87 76.8L107.5 74.56L107.43 74.51C106.73 74.04 105.95 73.74 105.12 73.6L104.75 73.54C104.58 73.51 104.41 73.58 104.31 73.73C104.21 73.88 104.21 74.06 104.31 74.21C104.83 75.05 105.5 75.77 106.3 76.35C106.38 76.41 106.45 76.46 106.54 76.52L109.67 78.61L116.26 83C116.42 83.11 116.64 83.07 116.75 82.9V82.9ZM106.8 76.13C106.71 76.07 106.63 76.01 106.54 75.95C105.82 75.42 105.22 74.77 104.74 74.01L105.05 74.06C105.81 74.18 106.53 74.46 107.17 74.89L107.21 74.92L110.61 77.19L117.1 81.52L116.42 82.54L109.93 78.21L106.79 76.12L106.8 76.13Z" fill="#1B8158"/>
        <path d="M111.05 80.3601C111.12 80.2501 111.27 80.2201 111.37 80.3001L114.75 82.5501L116.08 80.5601C116.15 80.4501 116.3 80.4201 116.4 80.5001C116.5 80.5801 116.54 80.7201 116.46 80.8201L115.07 82.9001C114.96 83.0601 114.74 83.1101 114.58 83.0001L111.11 80.6801C111 80.6101 110.97 80.4601 111.05 80.3601V80.3601Z" fill="#1B8158"/>
        <path d="M109.671 78.5998L106.541 76.5098C106.461 76.4498 106.381 76.3998 106.301 76.3398C106.311 76.2898 106.331 76.2498 106.361 76.1998L106.411 76.1298L106.541 75.9398L107.221 74.9198L107.351 74.7298L107.391 74.6698C107.391 74.6698 107.461 74.5798 107.511 74.5498L110.881 76.7898C110.881 76.7898 110.861 76.8398 110.841 76.8698L110.761 76.9898L110.631 77.1798L109.951 78.1998L109.821 78.3898L109.741 78.5198C109.741 78.5198 109.711 78.5598 109.691 78.5798L109.671 78.5998Z" fill="#074674"/>
        <path d="M86.0232 141.996L86.3579 142.444L83.2292 142.865L84.4212 140L84.8097 140.497C84.8097 140.497 85.2651 140.244 86.1956 140.229C88.289 140.195 90 141.884 90 143.95C90.0011 144.439 89.9039 144.923 89.7138 145.375C89.5238 145.827 89.2447 146.238 88.8925 146.584C88.5403 146.93 88.1218 147.205 87.6611 147.392C87.2004 147.58 86.7065 147.677 86.2076 147.677C84.1172 147.677 82.7825 145.778 82.6099 145.56C82.289 145.155 80.7343 143.264 80.6449 143.15C80.5555 143.037 79.8748 142.039 78.7931 142.039C78.5392 142.04 78.2878 142.089 78.0533 142.185C77.8189 142.28 77.606 142.42 77.427 142.597C77.248 142.773 77.1063 142.983 77.0101 143.213C76.9139 143.443 76.865 143.69 76.8664 143.938C76.8698 144.284 76.9666 144.623 77.1471 144.92C77.3275 145.217 77.5851 145.462 77.8936 145.629C78.337 145.885 78.955 145.842 79.0433 145.829L78.7245 145.413L81.8179 145.002L80.6608 147.857L80.2638 147.323C80.2638 147.323 79.7366 147.578 78.7972 147.609C76.6913 147.679 75 145.939 75 143.876C74.9996 143.389 75.0974 142.908 75.2878 142.459C75.4782 142.01 75.7575 141.602 76.1095 141.259C76.4615 140.916 76.8793 140.645 77.3388 140.461C77.7983 140.277 78.2904 140.184 78.7868 140.188C80.8744 140.188 81.7591 141.59 81.85 141.687C81.9409 141.785 84.3297 144.801 84.4511 144.95C84.6409 145.218 84.8943 145.437 85.1896 145.589C85.485 145.74 85.8134 145.819 86.1467 145.819C86.4078 145.818 86.666 145.766 86.9062 145.666C87.1463 145.565 87.3635 145.419 87.5448 145.235C87.7262 145.051 87.868 144.833 87.962 144.594C88.0559 144.356 88.1001 144.101 88.0918 143.845C88.0836 143.59 88.0231 143.338 87.9139 143.106C87.8048 142.873 87.6492 142.665 87.4563 142.493C87.2635 142.32 87.0373 142.187 86.7912 142.102C86.545 142.017 86.2839 141.981 86.0233 141.996" fill="white"/>
    </g>
    <defs>
        <clipPath id="clip0_1478_10770">
            <rect width="240.15" height="200" fill="white"/>
        </clipPath>
    </defs>
</svg>
