<svg width="241" height="200" viewBox="0 0 241 200" fill="none" xmlns="http://www.w3.org/2000/svg">
<path opacity="0.4" fill-rule="evenodd" clip-rule="evenodd" d="M209.689 199.494C228.636 178.319 240.152 150.387 240.152 119.772C240.152 53.6236 186.392 0 120.076 0C53.7598 0 0 53.6236 0 119.772C0 150.387 11.5157 178.319 30.4622 199.494H209.689Z" fill="#CCEAFF"/>
<g clip-path="url(#clip0_4337_9808)">
<path d="M15.2798 64.986H77.2799C79.145 63.0166 80.4314 61.1107 80.3027 58.4425C80.1741 55.3296 77.4085 52.7249 74.2571 52.1532C71.1699 51.5814 67.9542 52.7249 65.3172 54.5037C66.089 48.1509 63.0662 41.8615 57.4708 38.558C51.8753 35.2545 44.3504 35.5086 39.0122 39.2568C33.8027 42.9415 31.0371 49.8661 32.2591 56.1555C30.8442 54.5673 29.0433 53.2332 27.1139 52.2167C25.1844 51.2002 22.8691 50.7555 20.811 51.4544C18.2384 52.2802 16.4375 54.8214 15.7944 57.4261C15.0869 60.0307 15.0226 62.3178 15.2798 64.986Z" fill="white"/>
</g>
<g clip-path="url(#clip1_4337_9808)">
<path d="M188.867 89.1675H234.361C235.508 87.5035 236.812 85.0867 237.444 83.1454C238.077 81.2041 238.077 78.9458 236.97 77.2422C235.666 75.2216 233.017 74.35 230.685 74.7858C228.353 75.2217 226.298 76.7272 224.836 78.6289C226.654 73.7954 226.772 68.2487 224.124 63.8114C221.476 59.3741 215.587 56.8385 210.883 58.9383C207.405 60.4438 205.191 64.1284 204.44 67.8922C203.689 71.656 204.124 75.499 204.559 79.3024C201.753 75.5386 195.705 74.7858 191.634 77.163C187.602 79.5005 187.049 84.849 188.867 89.1675Z" fill="white"/>
</g>
<g clip-path="url(#clip2_4337_9808)">
<g clip-path="url(#clip3_4337_9808)">
<path d="M108.463 77.5585C109.485 77.6476 110.572 77.1 110.572 76.8834C110.585 76.6032 109.971 76.1829 109.754 76.0683C109.536 75.9664 109.281 75.8136 109.051 75.7117C108.833 75.6098 108.718 75.355 108.833 75.0621C108.948 74.7819 109.92 74.9984 110.252 75.1513C111.262 75.6098 113.704 77.3547 113.972 77.533C114.292 77.7368 120.913 77.2146 123.202 77.2146C126.947 77.1 130.782 76.807 131.178 76.7943L146.378 71.7251L150.404 76.565C150.404 76.565 133.62 82.4239 132.738 82.6277C132.329 82.7168 123.636 82.3093 123.636 82.2965C119.367 81.8253 115.608 81.3922 114.893 81.3285C114.893 81.3285 112.681 81.7234 111.288 82.0673C110.393 82.2838 109.652 81.0865 109 81.0483C108.948 79.2907 109.242 80.2969 108.769 78.6156C108.731 78.4501 108.488 77.7368 108.463 77.5585Z" fill="#F7A491"/>
<path d="M149.457 188.966C149.624 187.756 149.253 185.68 148.294 182.419C150.173 182.419 151.746 181.591 153.663 181.617C154.187 184.674 154.993 189.705 154.993 189.705L155.082 193.678L141.736 193.78C141.736 193.78 141.851 193.831 145.789 191.348C146.083 191.169 149.304 190.125 149.457 188.966Z" fill="#F7A491"/>
<path d="M155.159 194.697H141.379C140.867 194.646 140.74 194.239 140.918 193.984C141.276 193.462 143.974 192.188 145.776 191.347C148.946 191.678 154.52 190.379 155.018 189.641C155.888 192.073 155.44 194.633 155.159 194.697Z" fill="#13220F"/>
<path d="M166.088 188.966C166.254 187.756 166.548 186.24 166.127 182.215C168.006 182.215 169.783 181.871 171.7 181.897C171.7 185.043 171.636 189.717 171.636 189.717L171.726 193.691L158.38 193.793C158.38 193.793 158.495 193.844 162.432 191.36C162.713 191.169 165.922 190.125 166.088 188.966Z" fill="#F7A491"/>
<path d="M171.79 194.697H158.01C157.498 194.646 157.37 194.239 157.549 193.984C157.907 193.462 160.605 192.188 162.407 191.347C165.577 191.678 171.151 190.379 171.649 189.641C172.518 192.073 172.071 194.633 171.79 194.697Z" fill="#13220F"/>
<path d="M153.152 102.331L157.23 104.598L165.501 117.246L150.698 152.055C150.698 152.055 152.36 157.29 152.91 159.901C153.472 162.639 154.865 186.125 154.865 186.125L148.55 186.227C148.55 186.227 142.555 161.225 141.533 153.112C140.305 143.254 147.809 119.78 147.809 119.78C149.215 114.991 152.232 105.133 152.232 105.133C152.232 105.133 152.973 102.751 153.152 102.331Z" fill="#035B52"/>
<path d="M167.316 97.5801C167.316 97.5801 166.894 100.56 168.582 103.948C169.604 106.012 171.381 107.642 172.647 110.177C175.05 114.966 176.354 121.78 175.459 126.161C175.459 126.161 170.486 145.113 170.691 152.042C170.768 154.602 171.637 159.2 172.199 162.308C172.698 165.059 172.519 185.463 172.519 185.463L165.808 185.59L160.413 152.118L158.125 122.366L153.14 102.318L167.316 97.5801Z" fill="#1C907D"/>
<path d="M151.644 53.3597C152.296 50.2902 152.973 47.2079 156.028 44.9917C158.495 43.1959 161.154 42.6864 163.967 43.7053C171.943 46.5965 167.661 52.9267 177.555 59.6771C180.636 61.7786 181.799 62.5046 184.011 65.2939C187.104 69.2041 188.804 74.4516 187.245 78.7693C184.036 87.6977 174.065 90.2832 168.863 88.3855C159.16 84.8574 151.081 72.5666 150.544 69.2168C149.969 65.6251 151.222 55.3339 151.644 53.3597Z" fill="#13220F"/>
<path d="M150.902 77.1002C148.652 78.1318 144.587 79.6984 144.587 79.6984L142.273 72.3749C155.363 64.9367 154.328 66.1339 164.158 66.2867C172.007 66.4014 175.292 64.8984 182.055 83.1246C182.055 83.1246 176.916 85.4299 175.075 86.1687C174.283 83.9143 172.851 79.4182 172.02 81.9783C170.754 85.8502 169.834 89.7604 169.22 93.7724C168.824 96.1542 167.968 99.211 168.415 101.644C168.415 101.644 163.072 102.739 158.994 102.917C158.981 102.917 158.968 102.917 158.955 102.917C156.987 102.866 154.967 102.688 153.165 102.306C153.165 102.306 152.359 85.3917 151.938 84.6912C151.465 83.9143 149.47 81.3797 151.171 77.6096C151.452 76.9728 151.362 76.8836 150.902 77.1002Z" fill="#F9CA58"/>
<path d="M162.919 58.7592C162.919 58.7592 163.545 63.8029 163.916 65.5478C164.299 67.3819 164.888 73.1516 161.078 74.0814C157.282 75.0239 158.458 67.8022 158.394 65.9426C158.33 64.0831 157.256 57.5874 157.256 57.5874L162.919 58.7592Z" fill="#F7A491"/>
<path d="M163.136 60.3766C163.097 60.4021 163.059 60.4276 163.021 60.4531C160.924 61.6503 159.096 61.472 157.716 60.5295C157.473 58.9119 157.255 57.6128 157.255 57.6128L162.931 58.7846C162.918 58.7591 163.008 59.4341 163.136 60.3766Z" fill="#F47458"/>
<path d="M161.781 45.6275C161.781 45.6275 164.005 46.2516 165.297 48.4677C166.575 50.6839 167.227 57.0268 162.497 59.7397C157.767 62.4526 154.418 58.1094 154.559 54.0464C154.686 49.9834 155.824 44.6085 161.781 45.6275Z" fill="#F7A491"/>
<path d="M153.497 52.3015C153.446 53.3587 153.894 54.2375 154.507 54.263C155.121 54.2884 155.658 53.4606 155.709 52.4034C155.76 51.3463 155.313 50.4675 154.699 50.442C154.098 50.4165 153.561 51.2444 153.497 52.3015Z" fill="#F7A491"/>
<path d="M161.116 45.4619C161.116 45.4619 163.66 52.0977 166.166 52.811C168.658 53.5242 168.467 56.7848 168.467 56.7848C168.467 56.7848 168.774 49.232 166.485 47.3851C164.21 45.5383 161.116 45.4619 161.116 45.4619Z" fill="#13220F"/>
<path d="M165.079 54.1101C164.695 55.1417 164.951 56.1989 165.641 56.4664C166.331 56.7338 167.213 56.097 167.597 55.0653C167.98 54.0337 167.725 52.9765 167.034 52.709C166.344 52.4416 165.475 53.0784 165.079 54.1101Z" fill="#F7A491"/>
<path d="M161.244 56.3135L156.885 55.8423C156.885 55.8423 156.808 57.5108 158.713 57.7655C161.052 58.0839 161.244 56.3135 161.244 56.3135Z" fill="white"/>
<path opacity="0.6" d="M106.447 74.3675L106.404 74.261C105.613 72.4509 106.233 70.3852 107.794 69.2779C108.05 69.0862 108.136 68.7455 108.007 68.4473L107.302 66.8075L108.969 66.0835L109.674 67.7233C109.803 68.0214 110.123 68.1918 110.422 68.1066C112.282 67.7233 114.248 68.6603 115.039 70.4704L115.082 70.5769C115.21 70.8963 115.103 71.2584 114.804 71.4287L117.283 77.1147C117.647 77.0721 117.989 77.2637 118.16 77.6045L121.75 85.8033C122.328 87.145 121.729 88.6995 120.383 89.2958L118.502 90.1264L116.621 90.9569C115.274 91.5532 113.714 90.9356 113.116 89.594L109.525 81.3951C109.375 81.0544 109.482 80.6498 109.76 80.4368L107.281 74.7509C106.939 74.836 106.575 74.687 106.447 74.3675Z" fill="#879DD1"/>
<path d="M107.601 67.893L109.546 67.0412C109.696 66.9773 109.76 66.807 109.696 66.6579L109.439 66.0829C109.375 65.9339 109.204 65.87 109.055 65.9338L107.11 66.7857C106.96 66.8496 106.896 67.0199 106.96 67.169L107.217 67.744C107.281 67.893 107.452 67.9569 107.601 67.893Z" fill="#CA4B2B"/>
<path opacity="0.3" d="M109.739 80.4149L107.259 74.7289L111.043 73.0679C111.043 73.0679 108.35 74.6651 108.691 75.9641C109.033 77.2631 109.461 80.6492 113.586 78.9029C113.586 78.9029 110.359 80.6704 110.872 82.4806C111.406 84.2907 113.586 92.1489 118.502 90.1258L116.621 90.9563C115.275 91.5526 113.714 90.935 113.116 89.5934L109.525 81.3945C109.354 81.0325 109.461 80.6492 109.739 80.4149Z" fill="#CFE9FA"/>
<path d="M107.785 78.6666C107.58 78.1444 107.427 77.6986 107.912 77.5967C108.398 77.4948 111.095 77.1764 111.556 77.2656C112.029 77.3547 112.144 77.6349 111.99 77.7878C111.85 77.9151 109.127 78.5392 109.127 78.5392C109.127 78.5392 108.782 78.6156 108.986 78.743C109.191 78.8704 111.671 78.2972 112.08 78.2972C112.489 78.2845 112.847 78.4755 112.719 78.794C112.565 79.1761 109.83 79.5964 109.83 79.5964C109.83 79.5964 109.485 79.6601 109.612 79.8002C109.74 79.9403 111.824 79.4181 112.067 79.4817C112.31 79.5454 112.578 79.8129 112.386 80.0549C112.169 80.3351 109.702 80.6917 109.702 80.6917C109.702 80.6917 109.549 80.7809 109.664 80.8446C109.779 80.921 111.645 80.6153 111.926 80.7554C112.169 80.87 112.131 81.0483 112.131 81.0483C112.156 81.4814 109.958 81.8253 109.817 81.838C109.267 81.9017 108.705 80.9464 108.488 80.3606L107.785 78.6666Z" fill="#F7A491"/>
<g clip-path="url(#clip4_4337_9808)">
<path fill-rule="evenodd" clip-rule="evenodd" d="M162.66 114.898C161.736 115.309 160.792 115.729 159.869 116.141C159.54 116.287 159.152 116.133 159.003 115.798C157.083 111.485 155.153 107.152 153.224 102.818C153.01 101.508 153.105 100.286 153.68 99.2026C154.234 98.9559 154.789 98.7091 155.343 98.4624C155.897 98.2157 156.451 97.969 157.005 97.7222C158.188 97.9482 159.169 98.7156 159.997 99.802C161.927 104.136 163.847 108.449 165.776 112.783C165.926 113.118 165.78 113.509 165.451 113.655C164.528 114.066 163.604 114.478 162.66 114.898Z" fill="#9CDBE3"/>
<path fill-rule="evenodd" clip-rule="evenodd" d="M155.352 98.4836L153.71 99.2146L153.598 98.9634L155.24 98.2323L156.902 97.4921L157.014 97.7434L155.352 98.4836Z" fill="#313130"/>
<path fill-rule="evenodd" clip-rule="evenodd" d="M155.24 98.2324L153.7 98.9178L152.982 97.3057L154.522 96.6203L156.082 95.9258L156.799 97.5379L155.24 98.2324Z" fill="#141515"/>
<path fill-rule="evenodd" clip-rule="evenodd" d="M154.523 96.6203L153.147 97.2325L153.33 96.3733L154.234 95.9712L155.157 95.56L155.918 95.9989L154.523 96.6203Z" fill="#313130"/>
<path fill-rule="evenodd" clip-rule="evenodd" d="M154.233 95.9714L153.433 96.3278L153.377 96.2021L154.177 95.8458L154.998 95.4802L155.054 95.6059L154.233 95.9714Z" fill="#141515"/>
<path fill-rule="evenodd" clip-rule="evenodd" d="M153.665 94.6941L152.762 95.0962L153.274 96.2477L154.178 95.8456L155.101 95.4344L154.588 94.2829L153.665 94.6941Z" fill="#313130"/>
<path fill-rule="evenodd" clip-rule="evenodd" d="M154.588 94.2829C153.849 94.6119 153.11 94.9409 152.371 95.2698C151.963 95.4016 151.622 94.5249 152.676 94.4068C153.502 94.1642 154.273 93.796 155.036 93.3559C155.738 92.9432 156.421 92.7646 157.2 92.9693C157.159 93.2636 157.144 93.3957 157.114 93.6599C156.111 93.2287 155.392 93.8245 154.588 94.2829Z" fill="#141515"/>
</g>
<path d="M158.074 105.503C158.01 105.299 157.78 105.031 157.87 104.866C157.87 104.866 158.061 104.7 158.228 104.713C158.407 104.726 158.598 105.069 158.713 105.095C158.816 105.12 159.097 105.248 159.238 105.146C159.378 105.044 160.222 104.509 160.375 104.382C160.529 104.242 161.078 103.898 161.155 103.809C161.232 103.719 161.756 103.121 161.615 102.828C161.615 102.828 161.475 102.941 161.155 102.584C160.95 102.712 161.389 102.291 161.155 102.584C161.372 102.457 160.706 101.822 160.885 101.809C161.064 101.796 161.769 101.58 161.769 101.58C161.769 101.58 162.408 101.478 162.855 101.809C163.303 102.14 163.878 102.318 164.261 102.497C164.479 102.599 165.194 102.369 165.757 102.14L167.227 101.299C167.968 100.815 167.802 100.917 168.467 100.497C168.71 100.331 168.953 100.179 169.183 100.026C178.515 93.9249 178.681 93.6829 178.732 93.5555C178.911 93.0588 177.198 88.9703 175.741 85.8881C177.326 85.2258 180.164 83.9648 181.506 83.3662C183.232 88.2571 185.354 94.7146 185.2 95.5425C184.919 97.0326 166.498 105.273 166.192 105.452L166.179 105.413L165.361 105.808C165.361 105.808 165.105 106.063 164.9 106.254C164.696 106.432 163.993 106.725 163.993 106.725C163.993 106.725 162.472 107.464 162.331 107.477C162.19 107.489 161.168 107.859 161.002 107.821C160.835 107.782 160.439 107.63 160.286 107.63C160.132 107.63 159.813 107.63 159.595 107.464C159.378 107.298 159.059 107.133 159.02 106.916C159.02 106.916 158.611 106.662 158.471 106.509C158.33 106.369 158.228 106.127 158.24 105.948L158.304 105.834C158.317 105.846 158.138 105.706 158.074 105.503Z" fill="#F7A491"/>
</g>
<path opacity="0.6" d="M69.0314 103.995L69.0393 103.881C69.1152 101.907 70.5724 100.317 72.4592 99.9995C72.7735 99.9386 72.9988 99.669 73.0131 99.3448L73.0919 97.5615L74.908 97.6353L74.8292 99.4186C74.8149 99.7429 75.0293 100.036 75.3358 100.089C77.1768 100.554 78.5392 102.253 78.4632 104.227L78.4553 104.342C78.4317 104.685 78.1779 104.964 77.8344 104.988L77.5914 111.186C77.9371 111.306 78.1615 111.627 78.1672 112.008L77.831 120.953C77.7665 122.412 76.551 123.551 75.0792 123.501L73.0243 123.43L70.9695 123.359C69.4977 123.31 68.3618 122.075 68.407 120.606L68.7432 111.662C68.7568 111.29 69.0292 110.972 69.372 110.902L69.615 104.703C69.27 104.631 69.0078 104.339 69.0314 103.995Z" fill="#FDB73E"/>
<path d="M72.8895 98.6687L75.0114 98.7484C75.1739 98.756 75.3058 98.6306 75.3129 98.4685L75.3323 97.8392C75.3395 97.6771 75.2133 97.5451 75.0508 97.5375L72.929 97.4577C72.7665 97.4501 72.6346 97.5756 72.6274 97.7377L72.6081 98.367C72.6009 98.5291 72.727 98.6611 72.8895 98.6687Z" fill="#DF7F68"/>
<path opacity="0.3" d="M69.3627 110.872L69.6057 104.674L73.7346 104.825C73.7346 104.825 70.6148 105.091 70.3573 106.409C70.0997 107.728 69.0106 110.962 73.4845 111.186C73.4845 111.186 69.8095 111.372 69.4834 113.225C69.1765 115.087 67.7186 123.111 73.025 123.429L70.9701 123.358C69.4983 123.309 68.3624 122.074 68.4077 120.605L68.7439 111.661C68.7475 111.261 69.0106 110.962 69.3627 110.872Z" fill="#CFE9FA"/>
<path fill-rule="evenodd" clip-rule="evenodd" d="M84.6264 105.261L83.1019 105.227L81.5774 105.192C81.4006 105.176 81.2734 105.039 81.2897 104.861L81.3183 103.657C81.3345 103.48 81.4715 103.353 81.6483 103.369L83.1728 103.404L84.6973 103.438C84.8741 103.455 85.0013 103.592 84.9851 103.769L84.9565 104.973C84.9381 105.121 84.8033 105.277 84.6264 105.261Z" fill="#074674"/>
<path fill-rule="evenodd" clip-rule="evenodd" d="M84.9489 105.267L83.1115 105.227L83.102 105.227L83.0946 105.226L81.2821 105.155L81.2603 105.655L81.6758 105.671L81.635 106.771L81.6841 106.772C79.1724 108.337 78.4999 111.49 79.428 114.174C79.407 115.043 79.3895 116.161 79.3715 117.308C79.3276 120.116 79.2808 123.101 79.1729 123.047C77.1325 126.744 78.5999 133.965 82.4076 130.021C85.9896 134.155 87.8375 127.042 86.0073 123.248C85.9188 123.291 86.0129 120.972 86.1134 118.498C86.1733 117.024 86.2354 115.494 86.2624 114.375C87.3569 111.744 86.8591 108.556 84.4512 106.857C84.3659 106.853 84.2817 106.849 84.1981 106.846L84.4802 106.855L84.521 105.757L84.9271 105.767L84.9489 105.267ZM84.0087 106.84L83.0729 106.812C83.3077 106.824 83.5347 106.829 83.7617 106.834C83.8439 106.836 83.9261 106.838 84.0087 106.84Z" fill="#1B8158" fill-opacity="0.6"/>
<path opacity="0.6" d="M79.4341 114.579L79.2275 121.768L85.997 121.965L86.2036 114.775L79.4341 114.579Z" fill="#074674"/>
<path opacity="0.6" d="M59.6049 108.315L59.5882 108.201C59.2419 106.256 60.3269 104.392 62.1026 103.68C62.3968 103.553 62.5594 103.242 62.5044 102.922L62.2014 101.163L63.9915 100.848L64.2945 102.607C64.3496 102.927 64.6215 103.168 64.9324 103.155C66.83 103.216 68.5232 104.587 68.8695 106.531L68.8862 106.645C68.9364 106.985 68.7479 107.312 68.4172 107.408L69.5004 113.516C69.8637 113.559 70.1514 113.826 70.2381 114.197L71.8154 123.007C72.0633 124.447 71.1184 125.819 69.6698 126.084L67.647 126.452L65.6242 126.821C64.1757 127.086 62.8027 126.121 62.5341 124.677L60.9569 115.867C60.8909 115.5 61.0893 115.132 61.4092 114.99L60.326 108.882C59.9736 108.885 59.6551 108.655 59.6049 108.315Z" fill="#05A4B9"/>
<path d="M62.2387 102.289L64.3288 101.915C64.4892 101.887 64.5914 101.737 64.5638 101.577L64.4487 100.958C64.4211 100.798 64.2698 100.696 64.1094 100.723L62.0193 101.097C61.8589 101.124 61.7567 101.275 61.7843 101.435L61.8994 102.054C61.927 102.214 62.0783 102.316 62.2387 102.289Z" fill="#074674"/>
<path opacity="0.3" d="M61.3935 114.963L60.3103 108.855L64.3767 108.124C64.3767 108.124 61.3851 109.048 61.4144 110.391C61.4436 111.734 61.0687 115.126 65.4875 114.391C65.4875 114.391 61.9366 115.356 62.0127 117.236C62.1097 119.121 62.3948 127.271 67.6472 126.452L65.6244 126.82C64.1758 127.085 62.8029 126.121 62.5342 124.676L60.957 115.866C60.8753 115.474 61.0687 115.126 61.3935 114.963Z" fill="#CFE9FA"/>
<path opacity="0.6" d="M71.3944 111.156L71.4149 111.043C71.7082 109.09 73.3319 107.67 75.2422 107.563C75.5613 107.537 75.815 107.294 75.865 106.973L76.1401 105.21L77.9369 105.483L77.6619 107.247C77.6118 107.568 77.7927 107.883 78.0914 107.97C79.8698 108.634 81.0364 110.474 80.7431 112.427L80.7226 112.54C80.6613 112.879 80.3782 113.128 80.0342 113.114L79.1088 119.247C79.4391 119.404 79.6267 119.749 79.5902 120.128L78.2691 128.981C78.044 130.424 76.7102 131.422 75.2528 131.21L73.2184 130.913L71.1839 130.616C69.7265 130.404 68.7339 129.051 68.9409 127.597L70.262 118.744C70.3166 118.376 70.6223 118.09 70.9709 118.058L71.8963 111.924C71.5614 111.814 71.3331 111.495 71.3944 111.156Z" fill="#60D695"/>
<path d="M75.8161 106.287L77.9161 106.601C78.0768 106.626 78.2217 106.516 78.2467 106.356L78.3354 105.732C78.3605 105.572 78.2497 105.427 78.089 105.401L75.9889 105.088C75.8282 105.063 75.6833 105.173 75.6583 105.333L75.5696 105.956C75.5446 106.117 75.6554 106.262 75.8161 106.287Z" fill="#CA4B2B"/>
<path opacity="0.3" d="M70.9642 118.028L71.8897 111.894L75.9767 112.5C75.9767 112.5 72.8467 112.42 72.4452 113.702C72.0437 114.984 70.6043 118.078 75.0263 118.794C75.0263 118.794 71.3531 118.574 70.8245 120.379C70.314 122.196 67.9797 130.01 73.2185 130.912L71.184 130.615C69.7266 130.403 68.734 129.05 68.941 127.596L70.2621 118.743C70.3099 118.346 70.6043 118.078 70.9642 118.028Z" fill="#CFE9FA"/>
<path d="M216.282 200H24.6275C23.151 200 21.9697 198.792 21.9697 197.32C21.9697 195.847 23.151 194.639 24.6275 194.639H216.282C217.758 194.639 218.939 195.847 218.939 197.32C218.939 198.792 217.758 200 216.282 200Z" fill="#C4C4C4"/>
<path d="M105.761 121.471L104.757 150.838L103.192 196.848H59.6639L57.2128 124.446L57.0947 121.471H105.761Z" fill="#1B8158"/>
<path d="M69.2023 121.471V196.848H59.6639L57.2128 124.446L57.0947 121.471H69.2023Z" fill="#33916B"/>
<path d="M93.6836 121.471V196.848H103.192L105.673 124.446L105.762 121.471H93.6836Z" fill="#005C35"/>
<path opacity="0.2" d="M105.761 121.471L104.757 150.838C103.281 146.626 101.007 142.708 98.0243 139.38C92.7678 133.489 85.5328 129.542 77.9434 127.303C71.2399 125.329 64.2116 124.622 57.1833 124.475L57.0947 121.471H105.761Z" fill="#13220F"/>
<path d="M106.825 123.385H56.032C54.2011 123.385 52.7246 121.912 52.7246 120.086C52.7246 118.26 54.2011 116.787 56.032 116.787H106.825C108.656 116.787 110.132 118.26 110.132 120.086C110.162 121.912 108.656 123.385 106.825 123.385Z" fill="#005C35"/>
</g>
<defs>
<clipPath id="clip0_4337_9808">
<rect width="65.1515" height="28.715" fill="white" transform="translate(15.1514 36.2715)"/>
</clipPath>
<clipPath id="clip1_4337_9808">
<rect width="50" height="30.982" fill="white" transform="translate(187.879 58.1855)"/>
</clipPath>
<clipPath id="clip2_4337_9808">
<rect width="196.97" height="188.665" fill="white" transform="translate(21.9697 11.335)"/>
</clipPath>
<clipPath id="clip3_4337_9808">
<rect width="102.227" height="151.515" fill="white" transform="matrix(-1 0 0 1 187.833 43.1821)"/>
</clipPath>
<clipPath id="clip4_4337_9808">
<rect width="7.61648" height="22.8494" fill="white" transform="translate(150 95.5225) rotate(-23.9995)"/>
</clipPath>
</defs>
</svg>
