<svg width="257" height="244" viewBox="0 0 257 244" fill="none" xmlns="http://www.w3.org/2000/svg">
<path opacity="0.15" d="M128.331 243.982C199.206 243.982 256.662 239.242 256.662 233.394C256.662 227.547 199.206 222.807 128.331 222.807C57.4557 222.807 0 227.547 0 233.394C0 239.242 57.4557 243.982 128.331 243.982Z" fill="black"/>
<path d="M165.296 145.192C165.296 145.192 182.661 165.622 211.52 162.566C240.379 159.528 252.795 134.871 252.795 134.871C252.795 134.871 236.352 118.261 206.536 118.207C176.719 118.154 165.296 145.192 165.296 145.192Z" fill="#A9DE98"/>
<path d="M200.186 118.581L202.048 118.314L189.774 141.835L218.615 138.424L227.679 121.228L229.133 121.636L220.318 138.229L252.369 134.445L252.777 134.818L252.298 135.884L233.568 138.087L242.773 147.769L241.745 148.746L231.812 138.3L204.904 141.48L218.579 161.359L216.894 161.732L203.325 141.657L165.988 146.063L165.296 145.193L165.473 144.695L188.071 142.031L200.186 118.581Z" fill="white"/>
<path d="M164.126 135.688C164.126 135.688 188.125 147.608 213.436 133.414C238.748 119.22 240.45 91.6488 240.45 91.6488C240.45 91.6488 218.793 82.873 191.389 94.5978C163.984 106.323 164.126 135.688 164.126 135.688Z" fill="#1B8158"/>
<path d="M185.712 97.4402L187.326 96.4809L185.286 122.933L210.456 108.401L212.017 89.0196L213.507 88.8242L211.946 107.548L239.918 91.4179L240.45 91.5955L240.414 92.7502L224.078 102.183L236.335 107.442L235.785 108.756L222.535 103.072L199.068 116.608L219.466 129.488L218.065 130.501L197.685 117.408L165.101 136.203L164.125 135.688L164.09 135.155L183.814 123.785L185.712 97.4402Z" fill="white"/>
<path d="M156.924 125.687C156.924 125.687 183.619 127.908 201.924 105.364C220.229 82.8205 211.679 56.5818 211.679 56.5818C211.679 56.5818 188.319 56.4219 167.158 77.4377C145.997 98.4358 156.924 125.687 156.924 125.687Z" fill="#3F56AB"/>
<path d="M162.919 82.1625L164.072 80.6702L171.912 106.003L189.969 83.2284L184.275 64.6286L185.605 63.8825L191.033 81.8783L211.094 56.5634L211.662 56.5278L212.07 57.6292L200.327 72.4274L213.666 72.7827L213.631 74.2038L199.228 73.813L182.395 95.0598L206.092 99.501L205.17 100.958L181.402 96.3211L158.024 125.811L156.924 125.686L156.711 125.207L170.848 107.353L162.919 82.1625Z" fill="white"/>
<path fill-rule="evenodd" clip-rule="evenodd" d="M85.3162 115.773L83.5957 116.964C82.9216 115.987 82.2653 115.009 81.6445 113.997L83.4183 112.878C84.0391 113.855 84.6777 114.814 85.3162 115.773Z" fill="black"/>
<path fill-rule="evenodd" clip-rule="evenodd" d="M89.0234 120.765L87.3915 122.08C86.6465 121.156 85.937 120.215 85.2275 119.273L86.9126 118.03C87.6044 118.936 88.3139 119.859 89.0234 120.765Z" fill="black"/>
<path fill-rule="evenodd" clip-rule="evenodd" d="M93.0683 125.437L91.5429 126.876C90.7269 126.006 89.9465 125.118 89.166 124.229L90.7624 122.862C91.5074 123.732 92.2878 124.603 93.0683 125.437Z" fill="black"/>
<path fill-rule="evenodd" clip-rule="evenodd" d="M76.6617 99.3056L74.6928 100.034C74.48 99.4832 74.3026 98.9148 74.1075 98.3463C73.9124 97.7778 73.735 97.2093 73.5576 96.6409L75.562 96.0369C75.7216 96.5876 75.899 97.1383 76.0941 97.689C76.2715 98.2219 76.4489 98.7727 76.6617 99.3056Z" fill="#13220F"/>
<path fill-rule="evenodd" clip-rule="evenodd" d="M79.0739 105.026L77.1937 105.932C76.9454 105.399 76.6793 104.866 76.4488 104.315C76.2182 103.765 75.9521 103.232 75.7393 102.681L77.6726 101.864C77.8855 102.397 78.1338 102.93 78.3644 103.445C78.5772 103.978 78.8256 104.493 79.0739 105.026Z" fill="black"/>
<path fill-rule="evenodd" clip-rule="evenodd" d="M81.9644 110.48L80.1551 111.546L79.286 110L78.4346 108.437L80.297 107.46L81.113 108.987L81.9644 110.48Z" fill="black"/>
<path fill-rule="evenodd" clip-rule="evenodd" d="M73.752 81.2386L71.6768 80.9366L71.73 80.4748L71.8187 80.0129L72.0138 79.0891C72.067 78.7871 72.1734 78.4851 72.2621 78.1831L72.5282 77.2771L74.5148 77.9522L74.2842 78.7516C74.2132 79.018 74.1068 79.2845 74.0713 79.5688L73.8939 80.3859L73.8053 80.7945L73.752 81.2386Z" fill="#13220F"/>
<path fill-rule="evenodd" clip-rule="evenodd" d="M73.699 87.3141L71.6237 87.5273C71.5705 86.9233 71.5172 86.3193 71.4818 85.7153C71.464 85.1113 71.4463 84.4895 71.4463 83.8855L73.5393 83.921C73.5393 84.4895 73.5571 85.058 73.5748 85.6265C73.5925 86.1772 73.6635 86.7456 73.699 87.3141Z" fill="#13220F"/>
<path fill-rule="evenodd" clip-rule="evenodd" d="M74.816 93.3544L72.7762 93.8696L72.3683 92.1286C72.2441 91.5424 72.1377 90.9561 72.0312 90.3699L74.0888 89.9968C74.1952 90.5653 74.2839 91.1338 74.4258 91.6845L74.816 93.3544Z" fill="#13220F"/>
<path fill-rule="evenodd" clip-rule="evenodd" d="M84.341 67.4353L83.3477 65.5877C84.4119 65.0015 85.5116 64.5041 86.6114 64.0244L87.4273 65.9608C86.3808 66.4049 85.3343 66.8846 84.341 67.4353Z" fill="#13220F"/>
<path fill-rule="evenodd" clip-rule="evenodd" d="M79.3212 70.8639L77.9199 69.3006C78.1328 69.0874 78.3811 68.892 78.6294 68.6966L79.3567 68.1104C79.5873 67.915 79.8533 67.7551 80.1016 67.5774L80.8644 67.0623L82.0173 68.8209L81.3255 69.3006C81.0949 69.4605 80.8466 69.6204 80.6338 69.798L79.9775 70.3309C79.7469 70.4908 79.5163 70.6685 79.3212 70.8639Z" fill="#13220F"/>
<path fill-rule="evenodd" clip-rule="evenodd" d="M75.5966 75.5182L73.752 74.5233C73.8939 74.2391 74.0535 73.9726 74.2309 73.7062L74.7275 72.9067C74.9049 72.6403 75.1 72.4093 75.2951 72.1429C75.4902 71.8941 75.6676 71.6454 75.8804 71.3967L77.4768 72.7469C77.2994 72.96 77.1398 73.191 76.9624 73.4042C76.8028 73.6351 76.6254 73.8483 76.4658 74.0792L76.0223 74.7898C75.8627 75.0385 75.7208 75.2695 75.5966 75.5182Z" fill="#13220F"/>
<path fill-rule="evenodd" clip-rule="evenodd" d="M101.955 61.7151L101.547 59.6544C102.7 59.4057 103.853 59.2102 105.006 58.9971L105.36 61.0578C104.243 61.271 103.09 61.4664 101.955 61.7151Z" fill="#13220F"/>
<path fill-rule="evenodd" clip-rule="evenodd" d="M95.9061 63.1008L95.374 61.0756L97.0946 60.6315C97.6622 60.4894 98.2475 60.365 98.8151 60.2229L99.2763 62.2658C98.7087 62.3902 98.1411 62.5145 97.5912 62.6567L95.9061 63.1008Z" fill="#13220F"/>
<path fill-rule="evenodd" clip-rule="evenodd" d="M89.9995 64.9304L89.29 62.9585C90.4075 62.5321 91.5427 62.1946 92.6779 61.8215L93.281 63.829C92.1812 64.202 91.0815 64.5218 89.9995 64.9304Z" fill="#13220F"/>
<path fill-rule="evenodd" clip-rule="evenodd" d="M120.508 58.9973L120.277 56.9188L122.016 56.7234L123.772 56.5635L123.967 58.642L122.228 58.8196L120.508 58.9973Z" fill="#13220F"/>
<path fill-rule="evenodd" clip-rule="evenodd" d="M114.3 59.7255L114.034 57.6471C115.187 57.4872 116.358 57.3628 117.511 57.2207L117.759 59.2992C116.606 59.4413 115.453 59.5657 114.3 59.7255Z" fill="#13220F"/>
<path fill-rule="evenodd" clip-rule="evenodd" d="M108.146 60.6139L107.809 58.5354C108.962 58.34 110.132 58.1979 111.285 58.0203L111.569 60.0987C110.434 60.2586 109.281 60.4185 108.146 60.6139Z" fill="#13220F"/>
<path fill-rule="evenodd" clip-rule="evenodd" d="M139.221 57.0429L138.973 54.9644L142.414 54.5203L142.698 56.5988L139.221 57.0429Z" fill="#13220F"/>
<path fill-rule="evenodd" clip-rule="evenodd" d="M132.995 57.7535L132.765 55.675L136.223 55.2842L136.472 57.3804L132.995 57.7535Z" fill="#13220F"/>
<path fill-rule="evenodd" clip-rule="evenodd" d="M126.769 58.3752L126.574 56.2789C127.727 56.1723 128.88 56.0658 130.033 55.9414L130.246 58.0199C129.093 58.162 127.922 58.2686 126.769 58.3752Z" fill="#13220F"/>
<path fill-rule="evenodd" clip-rule="evenodd" d="M157.846 53.9164L157.367 51.8735C157.935 51.7491 158.485 51.5892 159.035 51.4649L159.868 51.2517L160.684 51.0208L161.252 53.0459L160.4 53.2947L159.549 53.5078C158.981 53.6322 158.414 53.7921 157.846 53.9164Z" fill="#13220F"/>
<path fill-rule="evenodd" clip-rule="evenodd" d="M151.673 55.1958L151.301 53.135L153.004 52.8153L154.689 52.46L155.114 54.5207L153.394 54.876L151.673 55.1958Z" fill="#13220F"/>
<path fill-rule="evenodd" clip-rule="evenodd" d="M145.483 56.2081L145.182 54.1296C146.317 53.952 147.47 53.7921 148.605 53.5967L148.942 55.6574C147.807 55.8528 146.654 56.0305 145.483 56.2081Z" fill="#13220F"/>
<path fill-rule="evenodd" clip-rule="evenodd" d="M175.123 46.0109L173.633 44.5364C174.023 44.1811 174.342 43.7548 174.679 43.364C174.839 43.1508 174.981 42.9376 175.123 42.7244L175.336 42.4047C175.407 42.2981 175.46 42.1737 175.513 42.0671L177.34 43.0975C177.269 43.2396 177.198 43.364 177.109 43.5061L176.843 43.8969C176.666 44.1456 176.506 44.4121 176.311 44.6608C175.939 45.1049 175.566 45.6023 175.123 46.0109Z" fill="#13220F"/>
<path fill-rule="evenodd" clip-rule="evenodd" d="M169.854 49.7595L168.896 47.8941C169.375 47.6277 169.89 47.379 170.333 47.077L171.025 46.6506C171.256 46.5085 171.468 46.3308 171.681 46.1887L172.905 47.8941C172.657 48.0718 172.426 48.2494 172.16 48.4093L171.397 48.889C170.919 49.2087 170.369 49.4752 169.854 49.7595Z" fill="#13220F"/>
<path fill-rule="evenodd" clip-rule="evenodd" d="M163.983 52.1931L163.327 50.2034C163.877 50.0435 164.391 49.8304 164.924 49.635C165.456 49.4573 165.97 49.2264 166.502 49.0132L167.318 50.9495C166.768 51.1805 166.218 51.4114 165.668 51.6069C165.101 51.8023 164.551 52.0154 163.983 52.1931Z" fill="#13220F"/>
<path fill-rule="evenodd" clip-rule="evenodd" d="M177.02 27.6066L175.228 28.6902C174.714 27.802 174.058 27.0381 173.277 26.3808L174.625 24.782C175.583 25.5636 176.399 26.5229 177.02 27.6066Z" fill="#13220F"/>
<path fill-rule="evenodd" clip-rule="evenodd" d="M178.936 33.8598L176.86 34.0907C176.754 32.9893 176.541 31.9412 176.222 30.9286L178.208 30.2891C178.581 31.4615 178.811 32.6696 178.936 33.8598Z" fill="#13220F"/>
<path fill-rule="evenodd" clip-rule="evenodd" d="M178.51 40.3438L176.506 39.7575L176.612 39.3845L176.683 38.9936C176.736 38.7449 176.79 38.4785 176.843 38.2297L176.932 37.4481C176.949 37.3237 176.967 37.1816 176.967 37.0573V36.6487L179.06 36.7197L179.042 37.1816C179.042 37.3415 179.007 37.4836 179.007 37.6435L178.9 38.5495C178.847 38.8515 178.776 39.1535 178.723 39.4555L178.634 39.8996L178.51 40.3438Z" fill="#13220F"/>
<path fill-rule="evenodd" clip-rule="evenodd" d="M159.389 21.9573L159.637 24.0358C158.52 24.1779 157.384 24.3555 156.267 24.5509L155.895 22.4902C157.047 22.2948 158.218 22.0994 159.389 21.9573Z" fill="#13220F"/>
<path fill-rule="evenodd" clip-rule="evenodd" d="M165.774 21.7086L165.65 23.8048C164.55 23.7338 163.433 23.7338 162.315 23.8048L162.209 21.7086C163.38 21.6375 164.568 21.6375 165.774 21.7086Z" fill="#13220F"/>
<path fill-rule="evenodd" clip-rule="evenodd" d="M172.089 23.1653L171.202 25.0662C170.262 24.6398 169.251 24.32 168.187 24.1069L168.594 22.0461C169.783 22.2949 170.954 22.6501 172.089 23.1653Z" fill="#13220F"/>
<path fill-rule="evenodd" clip-rule="evenodd" d="M141.012 26.4873L141.651 28.477L138.334 29.5606L137.678 27.5532L141.012 26.4873Z" fill="#13220F"/>
<path fill-rule="evenodd" clip-rule="evenodd" d="M147.025 24.6399L147.593 26.6473C146.476 26.9671 145.376 27.2869 144.276 27.6422L143.655 25.6347C144.773 25.2972 145.89 24.9597 147.025 24.6399Z" fill="#13220F"/>
<path fill-rule="evenodd" clip-rule="evenodd" d="M153.11 23.0767L153.571 25.1196C152.454 25.3683 151.336 25.6526 150.219 25.9368L149.687 23.9116C150.822 23.6096 151.957 23.3254 153.11 23.0767Z" fill="#13220F"/>
<path fill-rule="evenodd" clip-rule="evenodd" d="M123.187 30.2534L122.779 32.3142C122.46 32.2609 122.159 32.172 121.857 32.101C121.556 32.0299 121.236 31.9589 120.952 31.8523L120.048 31.5503C119.764 31.4437 119.463 31.3016 119.179 31.195L120.012 29.2764C120.278 29.383 120.527 29.4895 120.775 29.5961L121.573 29.8626C121.839 29.9514 122.105 30.0225 122.371 30.0935C122.655 30.1291 122.921 30.2179 123.187 30.2534Z" fill="#13220F"/>
<path fill-rule="evenodd" clip-rule="evenodd" d="M129.129 30.218L129.537 32.2787L128.615 32.4564C128.313 32.5097 127.994 32.5274 127.675 32.563L127.214 32.6163L126.983 32.634H126.753L125.812 32.6518L125.848 30.5555L126.682 30.5378H126.894L127.107 30.52L127.515 30.4845C127.799 30.449 128.065 30.4312 128.349 30.3957L129.129 30.218Z" fill="#13220F"/>
<path fill-rule="evenodd" clip-rule="evenodd" d="M135 28.4414L135.657 30.4311L132.34 31.5147L131.701 29.5251L135 28.4414Z" fill="#13220F"/>
<path fill-rule="evenodd" clip-rule="evenodd" d="M109.299 19.2392L107.525 20.3584C106.886 19.3458 106.283 18.2976 105.733 17.214L107.596 16.2725C108.128 17.2673 108.696 18.2621 109.299 19.2392Z" fill="black"/>
<path fill-rule="evenodd" clip-rule="evenodd" d="M113.024 24.107L111.498 25.5282C110.665 24.6399 109.902 23.6984 109.175 22.7213L110.86 21.4778C111.534 22.3838 112.243 23.272 113.024 24.107Z" fill="#13220F"/>
<path fill-rule="evenodd" clip-rule="evenodd" d="M117.635 27.9974L116.518 29.7738C115.471 29.0988 114.478 28.3527 113.556 27.5532L114.939 25.9722C115.773 26.7183 116.695 27.3934 117.635 27.9974Z" fill="#13220F"/>
<path d="M115.826 1.9719L110.327 8.90018L73.6104 0L115.826 1.9719Z" fill="#E2E2E2"/>
<path d="M109.387 22.8456L110.327 8.88242L73.6104 0L105.236 14.958L109.387 22.8456Z" fill="#ACACAC"/>
<path d="M95.9064 25.3327L105.236 14.9402L73.6104 0L95.9064 25.3327Z" fill="#E2E2E2"/>
<path d="M51.0664 227.408C51.0664 229.309 51.705 230.89 52.9643 232.169C54.2237 233.128 55.5008 233.75 57.3987 233.75L196.798 233.839C198.376 233.839 199.973 233.199 201.232 232.258C202.509 230.996 203.13 229.397 203.13 227.497L203.183 134.533L51.1196 134.427L51.0664 227.408Z" fill="#074674"/>
<path d="M52.9639 232.169C54.2232 233.128 55.5003 233.75 57.3982 233.75L196.797 233.839C198.376 233.839 199.972 233.199 201.232 232.257L127.142 168.428L52.9639 232.169Z" fill="#0B70B7"/>
<path d="M51.1377 134.427L72.671 149.989L123.01 186.193C125.547 188.094 129.023 188.094 131.56 186.193L181.633 150.06L203.184 134.533L181.65 118.971L134.806 85.3068L131.329 82.7664C128.792 80.8656 125.316 80.8656 122.779 82.7664L119.285 85.3068L96.7763 101.473L85.6726 109.396L72.671 118.9L51.1377 134.427Z" fill="#0B70B7"/>
<path d="M72.6888 104.937L72.6533 149.989L122.992 186.193C125.529 188.094 129.005 188.094 131.542 186.193L181.615 150.06L181.65 91.6844C181.65 88.2025 178.795 85.3424 175.318 85.3424L92.6258 85.2891L72.6888 104.937Z" fill="#FBE5A8"/>
<path d="M92.3416 99.874C92.3416 102.734 90.1245 104.955 87.2687 104.955L72.6885 104.937L92.3416 85.2712V99.874Z" fill="#FDB73E"/>
<path d="M226.916 183.351C226.81 183.404 226.473 181.148 226.473 181.148H223.439V183.404L226.916 183.351Z" fill="#A67C52"/>
<path d="M213.223 167.753C213.223 167.753 211.645 168.872 211.308 171.466C211.308 171.466 213.773 172.017 213.223 167.753Z" fill="#898989"/>
<path d="M228.955 200.494L227.607 212.307L233.674 230.09H230.641L223.616 214.954C223.368 214.404 223.226 213.8 223.226 213.196L222.659 208.612L221.417 213.782L222.091 230.108H219.395L216.131 212.307C215.989 211.508 216.043 210.673 216.309 209.891L219.501 200.494H228.955Z" fill="#1C907D"/>
<path d="M230.179 200.494H218.827L220.069 188.112L215.244 185.98L218.277 182.036L226.011 183.102C228.104 183.386 229.682 185.145 229.753 187.259L230.179 200.494Z" fill="#F9CA58"/>
<path d="M224.344 181.485C224.344 181.485 222.765 180.704 222.215 180.029C221.648 179.354 222.996 176.085 224.344 175.303C225.692 174.522 227.944 174.397 227.944 175.747C227.944 177.098 229.062 179.354 227.944 179.904C226.809 180.473 226.472 181.592 224.344 181.485Z" fill="#C69C6D"/>
<path d="M225.124 175.961C225.124 175.961 223.332 173.704 224.45 171.466C224.45 171.466 224.893 172.585 226.366 172.923C227.82 173.26 229.505 173.58 230.073 175.179C230.977 177.648 231.031 180.473 226.135 181.148C226.135 181.148 228.157 179.354 227.714 178.11C227.27 176.867 225.922 176.636 225.124 175.961Z" fill="#333333"/>
<path d="M224.113 175.285L213.205 167.753C213.205 167.753 212.637 170.791 211.289 171.466L224.113 175.285Z" fill="#0B70B7"/>
<path d="M212.637 182.906L213.506 172.283C213.506 172.265 213.506 172.248 213.506 172.23V172.159C213.808 170.382 214.553 169.991 214.872 169.991C215.209 169.991 215.777 170.436 215.883 171.111C215.99 171.75 215.245 172.834 215.156 172.976L215.209 181.468L218.242 182.036L215.546 185.518L214.038 185.021C213.169 184.736 212.584 183.866 212.637 182.906Z" fill="#C69C6D"/>
<path d="M220.406 174.06L220.92 182.409L218.277 182.036L218.685 173.669L220.406 174.06Z" fill="#C69C6D"/>
<path d="M233.674 230.108H230.641L227.643 232.471C227.271 232.773 227.466 233.377 227.963 233.377H233.177C233.461 233.377 233.692 233.146 233.692 232.861V230.108H233.674Z" fill="#333333"/>
<path d="M222.091 230.108H219.395L216.096 232.453C215.688 232.737 215.901 233.377 216.38 233.377H221.577C221.86 233.377 222.091 233.146 222.091 232.861V230.108Z" fill="#333333"/>
</svg>
