<svg width="242" height="200" viewBox="0 0 242 200" fill="none" xmlns="http://www.w3.org/2000/svg">
    <g clip-path="url(#clip0_2440_13034)">
        <path opacity="0.4" fill-rule="evenodd" clip-rule="evenodd" d="M212.5 199.49C231.45 178.31 242.96 150.38 242.96 119.77C242.96 53.62 189.2 0 122.89 0C56.5805 0 2.81049 53.62 2.81049 119.77C2.81049 150.38 14.3305 178.32 33.2705 199.49H212.5Z" fill="#CCEAFF"/>
        <path d="M214.409 194.716C215.045 194.719 215.681 194.706 216.315 194.728C217.486 194.769 218.39 195.315 218.908 196.35C219.472 197.478 219.19 198.534 218.392 199.471C218.213 199.682 218.03 199.89 217.918 200.17C153.153 200.24 88.3198 200.24 23.4425 200.17C23.2444 199.919 23.0999 199.728 22.9351 199.557C21.3879 197.947 21.8913 195.575 24.0017 194.862C24.6501 194.643 25.4104 194.755 26.1194 194.716C37.0962 194.721 48.073 194.725 59.2596 194.741C60.0576 194.821 60.6457 194.95 61.2339 194.95C91.3492 194.96 121.465 194.959 151.58 194.958C152.059 194.958 152.538 194.944 153.129 194.947C157.938 194.943 162.635 194.93 167.447 194.93C171.901 194.949 176.239 194.961 180.577 194.948C181.043 194.947 181.509 194.802 182.091 194.727C184.191 194.712 186.175 194.694 188.249 194.678C189.427 194.63 190.516 194.58 191.681 194.595C191.954 194.684 192.151 194.729 192.347 194.729C199.701 194.727 207.055 194.721 214.409 194.716Z" fill="#C4C4C4"/>
        <path d="M153.017 194.937C152.537 194.944 152.058 194.958 151.579 194.958C121.464 194.959 91.3485 194.96 61.2332 194.95C60.645 194.95 60.0569 194.821 59.3742 194.738C59.536 193.959 59.6237 193.067 60.0815 192.451C61.2905 190.824 61.281 189.25 60.3169 187.561C59.9616 186.938 59.6845 186.271 59.367 185.626C58.7826 184.44 58.7859 183.249 59.3507 182.061C59.8133 181.088 60.2975 180.125 60.7602 179.152C61.2886 178.041 61.3587 176.934 60.7066 175.836C60.5848 175.631 60.5253 175.387 60.3931 175.191C58.5894 172.512 58.6385 169.856 60.4168 167.175C61.4207 165.661 61.2994 164.139 60.4381 162.55C59.6323 161.063 58.5169 159.562 59.0418 157.742C59.4133 156.454 60.0598 155.234 60.6752 154.03C61.2683 152.87 61.33 151.775 60.7219 150.61C60.2423 149.692 59.8492 148.73 59.3962 147.797C58.8008 146.571 58.6266 145.26 59.3999 144.141C61.4866 141.122 61.437 138.199 59.4437 135.174C58.6898 134.029 58.764 132.752 59.4001 131.524C59.5461 131.242 59.5905 130.896 59.7739 130.647C61.6653 128.083 61.1594 125.661 59.5673 123.142C58.5251 121.494 58.8509 121.11 60.8565 121.11C92.4513 121.109 124.046 121.108 155.787 121.196C156.23 123.454 156.579 125.617 156.813 127.792C157.552 134.656 158.284 141.521 158.95 148.393C159.966 158.88 160.903 169.375 161.931 179.861C162.066 181.237 161.788 182.802 163.025 183.949C162.918 184.498 162.913 184.973 162.828 185.433C162.609 186.615 162.355 187.789 162.003 188.96C160.423 188.953 158.956 188.927 157.49 188.973C157.217 188.982 156.953 189.282 156.685 189.448C156.956 189.607 157.22 189.891 157.498 189.906C158.724 189.97 159.954 189.956 161.14 190.033C160.802 190.36 160.506 190.623 160.134 190.928C157.98 191.886 155.886 192.766 153.842 193.749C153.464 193.931 153.287 194.53 153.017 194.937ZM103.825 172.55C107.747 176.934 112.643 179.558 118.483 180.039C125.958 180.655 132.42 178.285 137.417 172.552C142.738 166.448 144.318 159.385 142.214 151.588C139.45 141.342 129.105 133.984 117.881 135.468C113.1 136.101 108.905 137.961 105.41 141.264C100.348 146.05 97.9539 151.942 98.2873 158.941C98.5321 164.08 100.371 168.546 103.825 172.55ZM66.7956 175.418C66.676 175.65 66.4578 175.88 66.4529 176.115C66.4213 177.624 66.4052 179.135 66.4627 180.643C66.474 180.939 66.8293 181.222 67.0259 181.511C67.2161 181.21 67.5573 180.914 67.5706 180.605C67.6302 179.217 67.6373 177.823 67.5686 176.436C67.551 176.081 67.1877 175.742 66.7956 175.418ZM67.5975 170.252C67.5973 168.903 67.6376 167.552 67.568 166.207C67.5511 165.882 67.1718 165.575 66.9592 165.259C66.7845 165.568 66.4715 165.871 66.4589 166.186C66.4034 167.572 66.408 168.962 66.4536 170.349C66.4647 170.686 66.7145 171.015 66.8545 171.348C67.1014 171.052 67.3483 170.755 67.5975 170.252ZM66.4343 146.236C66.4344 147.506 66.3942 148.777 66.4616 150.043C66.4796 150.381 66.8265 150.701 67.0225 151.03C67.2131 150.717 67.5533 150.411 67.5682 150.09C67.631 148.744 67.6403 147.391 67.57 146.046C67.5493 145.651 67.2016 145.273 67.0038 144.888C66.814 145.264 66.6242 145.641 66.4343 146.236ZM66.4352 137.77C66.4371 138.569 66.409 139.37 66.4614 140.165C66.4751 140.373 66.739 140.565 66.888 140.764C67.1143 140.587 67.5313 140.417 67.5371 140.233C67.5882 138.598 67.5883 136.961 67.5371 135.326C67.5312 135.139 67.1182 134.965 66.894 134.785C66.743 134.982 66.4779 135.171 66.4617 135.379C66.4058 136.094 66.4371 136.815 66.4352 137.77ZM67.3759 160.978C67.4429 159.242 67.5305 157.506 67.5492 155.769C67.5513 155.566 67.1736 155.358 66.972 155.153C66.7946 155.366 66.4693 155.574 66.4632 155.792C66.4198 157.345 66.4108 158.902 66.4766 160.454C66.4861 160.678 66.9552 160.882 67.3759 160.978ZM71.355 187.786C70.8334 186.326 69.7617 185.43 68.3337 184.962C68.0859 184.881 67.7284 185.134 67.4215 185.233C67.5414 185.454 67.6143 185.816 67.7884 185.874C69.3255 186.384 70.2788 187.369 70.5848 188.988C70.6169 189.158 71.0209 189.397 71.2023 189.36C71.38 189.323 71.5835 188.986 71.6117 188.76C71.6438 188.504 71.494 188.225 71.355 187.786ZM67.2279 130.811C67.6478 130.901 68.1329 131.173 68.4765 131.05C70.0259 130.494 71.0869 129.404 71.4784 127.773C71.5403 127.515 71.3192 127.189 71.2289 126.894C70.9847 127.092 70.6022 127.243 70.5192 127.494C70.0567 128.892 69.155 129.79 67.7522 130.221C67.5514 130.282 67.3958 130.491 67.2279 130.811ZM88.6058 188.948C87.77 188.95 86.9324 188.923 86.0996 188.975C85.8827 188.988 85.6807 189.245 85.472 189.39C85.6859 189.568 85.8957 189.895 86.1144 189.901C87.7052 189.945 89.2982 189.94 90.8895 189.905C91.1003 189.9 91.3054 189.638 91.5131 189.495C91.2989 189.314 91.0989 189.003 90.8681 188.978C90.199 188.907 89.5175 188.95 88.6058 188.948ZM96.597 189.929C98.0234 189.929 99.4506 189.953 100.875 189.906C101.141 189.897 101.398 189.602 101.658 189.439C101.434 189.276 101.214 188.979 100.985 188.973C99.4409 188.932 97.8949 188.937 96.3503 188.969C96.1312 188.974 95.9169 189.209 95.7004 189.338C95.9257 189.534 96.1511 189.731 96.597 189.929ZM106.291 189.913C107.924 189.917 109.558 189.941 111.19 189.904C111.42 189.899 111.643 189.593 111.869 189.426C111.674 189.27 111.481 188.982 111.283 188.978C109.651 188.943 108.016 188.925 106.385 188.984C105.819 189.005 105.6 189.369 106.291 189.913ZM138.282 189.929C139.356 189.929 140.432 189.96 141.503 189.908C141.794 189.894 142.072 189.632 142.356 189.484C142.059 189.305 141.77 188.989 141.464 188.973C140.314 188.912 139.155 188.9 138.006 188.969C137.439 189.002 136.886 189.253 136.326 189.406C136.902 189.58 137.478 189.755 138.282 189.929ZM129.368 126.138C128.453 126.14 127.536 126.115 126.623 126.163C126.406 126.175 126.202 126.429 125.992 126.572C126.165 126.749 126.335 127.075 126.512 127.08C128.182 127.118 129.854 127.114 131.525 127.082C131.697 127.079 131.864 126.82 132.034 126.68C131.86 126.504 131.7 126.197 131.509 126.176C130.879 126.108 130.238 126.143 129.368 126.138ZM149.993 188.948C149.035 188.951 148.076 188.928 147.12 188.979C146.92 188.989 146.733 189.267 146.541 189.421C146.719 189.588 146.893 189.895 147.075 189.899C148.711 189.937 150.348 189.937 151.984 189.898C152.159 189.894 152.328 189.575 152.5 189.403C152.301 189.254 152.115 189 151.902 188.976C151.35 188.912 150.787 188.95 149.993 188.948ZM78.2938 126.138C77.4584 126.14 76.6213 126.113 75.7887 126.163C75.5695 126.176 75.3644 126.426 75.1529 126.567C75.3236 126.745 75.4908 127.075 75.6656 127.079C77.3351 127.118 79.0064 127.118 80.676 127.078C80.8521 127.074 81.0205 126.746 81.1925 126.569C81.0205 126.431 80.8562 126.186 80.6753 126.173C79.9626 126.122 79.2447 126.144 78.2938 126.138ZM127.521 189.929C128.796 189.928 130.072 189.956 131.345 189.905C131.613 189.895 131.869 189.601 132.131 189.437C131.866 189.275 131.606 188.982 131.335 188.972C129.982 188.923 128.626 188.919 127.273 188.968C126.904 188.981 126.544 189.231 126.18 189.372C126.553 189.558 126.926 189.743 127.521 189.929ZM118.358 126.139C117.801 126.139 117.236 126.086 116.69 126.162C116.398 126.203 116.138 126.468 115.864 126.632C116.124 126.794 116.379 127.087 116.644 127.096C118.075 127.142 119.509 127.147 120.939 127.095C121.234 127.084 121.518 126.767 121.807 126.592C121.531 126.441 121.264 126.182 120.978 126.16C120.187 126.1 119.388 126.139 118.358 126.139ZM139.909 126.139C138.874 126.141 137.839 126.119 136.806 126.165C136.606 126.174 136.418 126.448 136.224 126.6C136.397 126.77 136.566 127.083 136.743 127.087C138.373 127.126 140.004 127.122 141.635 127.095C141.815 127.092 141.991 126.865 142.169 126.742C142.01 126.548 141.873 126.217 141.687 126.186C141.183 126.102 140.657 126.146 139.909 126.139ZM90.2068 126.139C88.972 126.139 87.7351 126.099 86.5036 126.162C86.1216 126.182 85.7541 126.483 85.3799 126.656C85.7318 126.81 86.0788 127.083 86.4364 127.098C87.7487 127.151 89.0655 127.147 90.3782 127.099C90.6988 127.087 91.0101 126.824 91.3257 126.676C91.0259 126.497 90.7261 126.318 90.2068 126.139ZM80.8221 189.919C80.9759 189.732 81.1297 189.545 81.2835 189.358C81.0331 189.222 80.7857 188.976 80.5319 188.969C79.0989 188.93 77.6633 188.921 76.2311 188.972C75.9301 188.982 75.6396 189.286 75.3442 189.455C75.6636 189.613 75.9787 189.896 76.3032 189.907C77.7355 189.956 79.1705 189.928 80.8221 189.919ZM120.224 189.928C120.461 189.928 120.716 189.983 120.933 189.916C121.3 189.804 121.644 189.615 121.998 189.458C121.653 189.289 121.314 188.986 120.963 188.972C119.578 188.916 118.189 188.924 116.805 188.975C116.553 188.985 116.314 189.311 116.068 189.492C116.307 189.637 116.54 189.896 116.785 189.907C117.852 189.954 118.923 189.928 120.224 189.928ZM100.08 127.119C100.199 127.119 100.334 127.156 100.434 127.112C100.777 126.96 101.107 126.779 101.442 126.61C101.095 126.453 100.753 126.175 100.4 126.161C99.0944 126.107 97.7838 126.11 96.4776 126.16C96.1504 126.172 95.8328 126.438 95.5109 126.587C95.8476 126.764 96.1765 127.073 96.5225 127.094C97.6285 127.16 98.7409 127.119 100.08 127.119ZM110.798 127.118C111.088 126.936 111.379 126.754 111.67 126.573C111.382 126.428 111.098 126.168 110.807 126.159C109.381 126.116 107.953 126.115 106.528 126.163C106.264 126.171 106.009 126.471 105.75 126.637C106.012 126.797 106.27 127.086 106.537 127.096C107.883 127.144 109.231 127.118 110.798 127.118ZM147.897 127.119C149.126 127.118 150.356 127.141 151.584 127.096C151.822 127.088 152.051 126.817 152.284 126.667C152.074 126.493 151.868 126.173 151.653 126.166C150.108 126.123 148.561 126.122 147.015 126.166C146.79 126.172 146.574 126.487 146.353 126.659C146.555 126.809 146.738 127.012 146.965 127.093C147.177 127.169 147.435 127.115 147.897 127.119Z" fill="#A8DE96"/>
        <path d="M190.389 77.8541C190.15 78.0961 189.94 78.2603 189.612 78.5128C188.464 79.1823 187.485 79.8968 186.394 80.3202C182.822 81.706 179.302 81.0569 175.827 79.7367C176.042 78.1503 176.341 76.6666 176.459 75.1686C176.752 71.472 175.923 70.2198 172.419 68.9495C171.646 68.6694 170.815 68.5495 169.948 68.2989C169.297 66.1773 168.707 64.1136 168.129 62.0466C168.088 61.902 168.076 61.7 168.146 61.5814C169.018 60.111 170.001 58.6967 170.754 57.1691C171.125 56.4166 171.17 55.4596 171.17 54.5952C171.169 54.3455 170.406 53.8119 170.154 53.8955C169.049 54.2618 168.343 53.6708 167.743 52.9948C166.689 51.8063 165.692 50.5584 164.762 49.2702C163.796 47.9339 163.325 47.6919 161.901 48.5521C161.153 49.0039 160.425 49.7125 160.036 50.481C159.527 51.4859 159.361 52.6649 159.037 53.8041C157.985 53.784 157.596 54.2522 157.977 55.385C158.15 55.8958 158.511 56.3433 158.789 56.818C159.055 57.2729 159.433 57.6947 159.574 58.185C160.151 60.1839 161.154 61.8349 163.049 62.9403C163.437 65.074 163.819 67.1094 164.109 69.1701C163.469 69.3089 162.92 69.4224 162.371 69.5359C161.047 66.8713 159.613 64.2547 158.429 61.5293C157.081 58.4255 156.313 55.1729 157.332 51.7829C159.219 45.5079 166.302 44.6037 169.538 46.8524C170.35 47.4169 171.102 48.0975 171.78 48.8199C174.589 51.8107 178.11 53.1654 182.1 53.7817C184.666 54.1781 187.297 54.7508 189.649 55.8017C194.708 58.0609 196.686 62.0757 195.621 67.475C194.856 71.3577 193.218 74.881 190.389 77.8541Z" fill="#142310"/>
        <path d="M163.09 183.869C161.788 182.802 162.067 181.237 161.932 179.86C160.904 169.374 159.966 158.879 158.95 148.392C158.285 141.521 157.552 134.656 156.814 127.792C156.58 125.616 156.231 123.453 155.899 121.192C156.112 117.087 156.348 113.073 156.62 109.061C156.648 108.648 156.889 108.249 157.143 107.794C157.594 107.958 157.934 108.171 158.286 108.422C158.298 108.46 158.316 108.538 158.305 108.644C158.442 109.57 158.637 110.384 158.731 111.209C159.53 118.277 161.969 124.89 164.311 131.534C165.397 134.612 166.385 137.724 167.41 140.929C167.35 142.153 167.283 143.269 167.248 144.385C167.161 147.132 167.007 149.858 167.913 152.555C168.82 155.253 169.164 158.072 169.035 160.937C168.725 167.835 168.465 174.734 168.102 181.629C168.06 182.42 167.49 183.184 167.066 183.989C165.675 183.968 164.383 183.918 163.09 183.869Z" fill="#045C52"/>
        <path d="M156.59 98.0617C155.094 98.5358 154.18 97.7727 153.504 96.5732C152.785 95.2951 152.101 93.9963 151.351 92.5451C150.758 91.0315 150.229 89.6742 149.669 88.3296C149.387 87.6517 149.049 86.997 148.728 86.2359C148.371 85.2396 148.024 84.3391 147.617 83.3684C146.839 81.0046 146.282 78.6434 145.351 76.4395C144.629 74.7292 143.888 73.1052 144.116 71.2057C144.116 71.2057 144.123 71.2202 144.177 71.1873C144.27 71.0705 144.309 70.9865 144.347 70.9026C144.543 70.6169 144.738 70.3313 145.073 70.0861C145.624 70.8937 145.89 71.8303 146.984 71.761C146.828 71.0577 146.679 70.3824 146.53 69.707C147.88 70.1488 149.283 71.6723 149.111 73.052C148.69 76.4211 150.434 79.0781 151.748 82.058C152.905 84.4662 153.88 86.7987 155.583 88.8211C155.993 88.384 156.282 88.0764 156.58 87.8701C156.614 88.4446 156.64 88.9178 156.666 89.391C156.794 89.4386 156.922 89.4861 157.05 89.5337C157.699 88.7839 158.348 88.0341 159.061 87.2389C161.947 83.251 164.845 79.3594 167.557 75.3423C168.743 73.5851 170.275 72.4683 172.168 71.7432C174.398 70.8885 175.794 71.8482 175.762 74.2304C175.722 77.2112 174.401 79.7595 172.848 82.187C169.309 87.7194 164.645 92.1876 159.383 96.1676C158.396 96.8057 157.493 97.4337 156.59 98.0617Z" fill="#F7A491"/>
        <path d="M52.1617 91.928C49.8808 93.3502 48.8618 95.384 48.6611 98.2145C50.0448 97.518 51.2499 96.9535 52.412 96.3113C53.1484 95.9043 53.7875 95.8043 54.2479 96.6149C54.7489 97.4969 54.1051 97.9505 53.459 98.3122C52.345 98.9359 51.2068 99.5165 50.0737 100.105C49.5619 100.372 49.1014 100.73 49.6095 101.276C49.8101 101.492 50.4452 101.513 50.7683 101.368C51.9686 100.83 53.1307 100.204 54.2884 99.5756C55.0061 99.1862 55.6724 99.226 56.016 99.9636C56.3462 100.673 55.995 101.264 55.2753 101.621C54.1041 102.201 52.9442 102.804 51.5499 103.515C53.0147 104.669 54.5034 105.209 56.0229 104.963C57.3864 104.742 58.7441 104.131 59.9576 103.436C61.2308 102.707 62.0517 102.815 63.2434 104.355C63.8737 105.169 63.6654 106.152 62.6938 106.95C58.9033 110.061 52.9203 110.147 48.9963 107.142C48.4291 106.708 47.8781 106.253 47.3051 105.796C46.4729 106.144 45.594 107.093 44.8095 105.867C44.1391 104.82 45.1924 104.428 45.8431 103.82C45.7031 103.486 45.5551 103.133 45.3773 102.708C45.0627 102.818 44.7952 103.011 44.5682 102.971C44.0406 102.879 43.5326 102.675 43.0166 102.516C43.19 101.996 43.2127 101.209 43.5667 101.01C44.4117 100.533 44.4877 100.029 44.4101 99.1177C43.9631 93.8666 46.6148 89.5436 51.4177 87.4813C53.8818 86.4233 55.0562 87.1807 54.8729 89.821C54.8387 90.3144 54.3273 90.8767 53.8873 91.2118C53.4317 91.5588 52.795 91.6679 52.1617 91.928Z" fill="#A9DE98"/>
        <path d="M148.737 86.3318C149.05 86.997 149.387 87.6518 149.669 88.3296C150.229 89.6742 150.758 91.0315 151.31 92.4719C149.595 93.6989 147.922 94.927 146.13 95.947C144.793 96.7085 143.809 96.2409 143.699 94.7123C143.503 91.9839 143.426 89.2283 143.573 86.4989C143.72 83.7682 144.297 81.062 144.483 78.3313C144.54 77.5025 144.056 76.5482 143.592 75.7907C142.585 74.1469 142.802 72.7009 144.044 71.2471C143.889 73.1052 144.63 74.7292 145.352 76.4395C146.282 78.6434 146.84 81.0047 147.625 83.4812C147.693 84.7464 147.693 85.8285 147.693 87.1764C148.205 86.7618 148.471 86.5468 148.737 86.3318Z" fill="#DB9083"/>
        <path d="M110.143 23.7642C111.332 23.6186 112.428 23.4119 113.526 23.4029C114.379 23.3959 114.841 23.9476 114.624 24.853C114.441 25.6185 114.363 26.4307 113.165 26.3021C111.096 26.08 109.567 26.9596 108.518 28.9533C109.28 28.9533 109.927 28.9866 110.57 28.9441C111.238 28.8998 112.115 28.6288 112.162 29.6069C112.209 30.5763 111.281 30.3958 110.628 30.4501C109.993 30.5029 109.353 30.5413 108.732 30.6672C108.515 30.7112 108.348 30.9974 108.158 31.173C108.37 31.2867 108.582 31.4961 108.794 31.497C109.59 31.5007 110.392 31.3613 111.179 31.4275C111.598 31.4629 111.992 31.8096 112.397 32.0157C112.04 32.2944 111.72 32.7204 111.318 32.82C110.559 33.0084 109.752 33.0094 108.958 33.0891C109.443 34.7101 111.837 35.6017 113.67 35.2282C114.739 35.0105 115.443 35.5288 115.571 36.652C115.697 37.7711 114.847 37.9668 114.052 38.0952C110.344 38.6946 107.413 37.045 105.661 33.374C105.376 33.3578 105.037 33.4076 104.756 33.302C104.499 33.2055 104.133 32.9464 104.127 32.7488C104.118 32.4726 104.355 32.1474 104.566 31.9159C104.797 31.6634 105.118 31.4939 105.4 31.2882C105.347 31.1857 105.294 31.0832 105.241 30.9807C105.017 30.955 104.748 30.9975 104.577 30.888C104.304 30.7132 103.878 30.4028 103.909 30.2122C103.958 29.9061 104.297 29.4524 104.565 29.4133C105.243 29.3145 105.438 28.955 105.636 28.3654C106.379 26.1593 107.912 24.6703 110.143 23.7642Z" fill="#055439"/>
        <path d="M128.605 101.189C130.061 101.126 129.99 102.081 129.975 102.983C129.959 103.983 129.306 104.109 128.498 104.074C125.609 103.949 122.737 101.377 122.071 98.3269C121.89 97.4991 122.114 96.4336 120.864 96.1508C120.741 96.1229 120.605 95.5467 120.702 95.3234C120.797 95.1044 121.173 94.9935 121.441 94.8671C121.735 94.7285 122.047 94.6264 122.179 94.5749C121.81 93.9017 121.576 93.4748 121.342 93.0478C121.777 92.8991 122.228 92.7845 122.642 92.5909C122.971 92.4371 123.317 92.2401 123.55 91.9711C125.858 89.3081 129.316 88.4948 132.424 89.9174C133.151 90.2505 133.832 90.6424 133.407 91.623C132.922 92.7415 132.318 92.9954 131.277 92.5753C129.261 91.7622 127.453 92.1254 126.169 93.6562C126.983 93.9027 127.798 94.0691 128.533 94.4092C128.863 94.5621 129.033 95.0622 129.275 95.4048C128.878 95.5566 128.456 95.8783 128.089 95.825C127.311 95.7122 126.569 95.3657 125.794 95.1963C125.52 95.1362 125.193 95.3119 124.89 95.3799C124.899 95.5324 124.908 95.6848 124.917 95.8373C125.849 96.1177 126.809 96.3325 127.7 96.7092C128.082 96.8708 128.614 97.4134 128.57 97.7054C128.458 98.4353 127.845 98.3532 127.247 98.1492C126.544 97.9092 125.815 97.7464 125.067 97.5417C125.193 99.3359 126.273 100.447 128.605 101.189Z" fill="#51A647"/>
        <path d="M98.1682 76.5044C98.5054 76.5591 98.9595 76.6235 99.0045 76.7952C99.1644 77.4045 99.3015 78.063 99.2348 78.68C99.0731 80.1765 99.7248 81.0731 101.035 81.6782C101.776 82.0208 102.446 82.5185 103.495 83.1577C102.42 83.6327 101.684 84.0724 100.887 84.2855C99.475 84.663 98.7527 85.4925 98.6046 86.9446C98.5218 87.7564 98.2544 88.5494 98.0057 89.6316C97.4361 89.0912 96.9224 88.798 96.6969 88.3574C95.522 86.0612 93.5704 85.9986 91.4152 86.3789C91.0421 86.4447 90.6473 86.3882 90.0146 86.3882C90.7468 85.1792 91.4051 84.2718 91.8585 83.2715C92.1031 82.7318 92.1708 81.9844 92.0116 81.4167C91.7181 80.3698 91.1985 79.3862 90.7731 78.3763C90.8467 78.2712 90.9203 78.1661 90.9939 78.061C91.9739 78.2681 92.983 78.3882 93.9258 78.7056C94.945 79.0487 95.6858 78.7902 96.3975 78.068C96.9275 77.5303 97.5282 77.0623 98.1682 76.5044Z" fill="#6B97C0"/>
        <path d="M156.57 87.7691C156.282 88.0767 155.993 88.3843 155.583 88.8213C153.88 86.799 152.905 84.4664 151.811 82.115C153.472 79.3368 155.167 76.6588 156.802 73.945C157.813 72.2671 159.043 70.8807 161.051 70.3398C160.865 71.0911 160.586 71.7496 160.323 72.4147C158.369 77.3608 155.985 82.2023 156.57 87.7691Z" fill="#DB9083"/>
        <path d="M82.392 35.836C82.8724 37.0688 83.6693 37.5692 84.9328 37.4632C85.5884 37.4081 86.2638 37.5899 87.2976 37.7058C86.677 38.4376 86.2891 39.0121 85.7881 39.4604C84.8749 40.2776 84.6178 41.1767 85.0424 42.3459C85.2779 42.9943 85.3233 43.7116 85.4902 44.5854C84.1324 44.1207 82.9688 43.3679 81.8616 43.4433C80.7585 43.5185 79.712 44.4246 78.408 45.084C78.4576 44.1629 78.3925 43.4786 78.5508 42.8507C78.8309 41.7393 78.5698 40.9323 77.6215 40.2709C77.0186 39.8504 76.5063 39.3001 75.708 38.5896C76.6301 38.3262 77.2722 38.0376 77.9352 37.9763C79.1659 37.8625 79.8955 37.3004 80.2132 36.0914C80.3796 35.4583 80.7287 34.8732 81.1466 33.9219C81.6517 34.6993 81.997 35.2309 82.392 35.836Z" fill="#ECCD44"/>
        <path d="M156.58 87.8701C155.986 82.2021 158.37 77.3606 160.324 72.4145C160.586 71.7494 160.866 71.0909 161.14 70.3388C161.142 70.2483 161.148 70.2576 161.197 70.2472C161.314 70.203 161.364 70.1514 161.396 70.0821C161.676 69.9275 161.955 69.7728 162.303 69.5769C162.92 69.422 163.469 69.3085 164.134 69.2427C163.939 70.575 163.629 71.8596 163.314 73.2392C163.301 73.5873 163.294 73.8405 163.204 74.1091C162.598 75.1316 162.066 76.1344 161.553 77.1465C159.935 80.332 159.01 83.6936 158.997 87.2843C158.348 88.0341 157.699 88.7838 157.05 89.5336C156.922 89.4861 156.794 89.4385 156.666 89.391C156.641 88.9178 156.615 88.4446 156.58 87.8701Z" fill="#DDB251"/>
        <path d="M93.9819 108.027C94.1082 109.205 94.2354 110.31 94.1903 111.408C94.1789 111.687 93.5831 112.19 93.3215 112.151C92.9613 112.097 92.4659 111.673 92.3821 111.323C92.2301 110.688 92.339 109.99 92.339 109.354C89.4228 108.563 89.4228 108.563 89.1091 106.08C88.789 106.053 88.4456 106.016 88.1013 105.997C86.7321 105.924 86.056 105.272 86.0916 103.897C86.1152 102.981 86.004 102.417 84.873 102.317C84.0211 102.242 83.5273 101.51 83.4655 100.613C83.4333 100.145 83.4598 99.6736 83.4598 99.1308C82.9903 99.0921 82.5733 99.1751 82.3135 99.0103C81.8587 98.7218 81.5003 98.2813 81.1016 97.9044C81.5008 97.5678 81.8612 97.01 82.3058 96.9321C84.4724 96.5523 85.5238 97.4852 85.6058 99.7034C85.613 99.8984 85.6413 100.093 85.6583 100.27C87.5671 100.843 87.5671 100.843 88.1529 103.904C91.1485 104.534 91.1485 104.534 91.4393 106.834C92.3199 107.23 93.1194 107.59 93.9819 108.027Z" fill="#84E3ED"/>
        <path d="M130.527 53.5062C128.311 54.1051 128.298 54.1217 128.298 56.4081C128.298 58.9641 127.71 59.8075 125.32 60.6592C124.682 60.8867 124.049 61.2145 123.393 61.2735C122.989 61.3098 122.318 61.0186 122.187 60.7013C122.059 60.3919 122.351 59.7185 122.667 59.4635C123.112 59.1052 123.741 58.9626 124.305 58.7683C126.269 58.0915 126.426 57.9796 126.34 55.8597C126.274 54.2163 126.552 52.7906 128.146 52.0343C128.922 51.6664 129.811 51.479 130.669 51.358C131.768 51.2032 132.177 50.6155 132.138 49.5745C132.115 48.936 132.006 48.258 132.179 47.6691C132.305 47.24 132.828 46.9275 133.174 46.563C133.471 46.9232 133.98 47.2591 134.025 47.6483C134.142 48.6734 134.122 49.7266 134.04 50.7594C133.919 52.2892 132.548 53.3426 130.527 53.5062Z" fill="#84E3ED"/>
        <path d="M156.592 98.1765C157.494 97.4341 158.397 96.8061 159.373 96.2676C159.36 97.2611 159.275 98.1652 159.186 99.0691C158.883 102.174 158.578 105.279 158.274 108.384C157.934 108.172 157.595 107.959 157.187 107.715C156.955 107.005 156.669 106.329 156.65 105.647C156.582 103.196 156.605 100.743 156.592 98.1765Z" fill="#DDB352"/>
        <path d="M146.501 69.6289C146.679 70.3827 146.829 71.058 146.984 71.7613C145.891 71.8306 145.624 70.894 145.149 70.0707C144.522 68.2801 143.923 66.5555 143.423 64.8029C143.326 64.4616 143.611 64.0113 143.719 63.6113C144.045 63.8688 144.54 64.0611 144.669 64.3947C145.322 66.0932 145.88 67.8282 146.501 69.6289Z" fill="#244F5E"/>
        <path d="M161.337 70.0835C161.364 70.1516 161.313 70.2032 161.191 70.248C161.148 70.1715 161.195 70.1134 161.337 70.0835Z" fill="#DB9083"/>
        <path d="M144.291 70.9414C144.309 70.9866 144.271 71.0706 144.17 71.1879C144.15 71.1408 144.192 71.0605 144.291 70.9414Z" fill="#DB9083"/>
        <path d="M167.164 183.961C167.489 183.185 168.06 182.421 168.102 181.629C168.465 174.735 168.725 167.835 169.035 160.938C169.164 158.072 168.819 155.253 167.913 152.556C167.007 149.858 167.16 147.132 167.247 144.386C167.283 143.269 167.35 142.154 167.473 140.979C168.355 143.25 169.126 145.593 169.985 147.904C171.246 151.295 172.57 154.664 173.856 158.152C173.845 159.209 173.845 160.157 173.845 161.444C174.468 161.027 174.742 160.844 175.036 160.749C175.549 162.091 176.042 163.344 176.531 164.598C177.954 168.246 179.374 171.895 180.728 175.597C179.544 177.287 180.167 178.872 181.068 180.236C182.7 182.709 182.63 185.061 181.061 187.461C179.815 189.367 180.126 191.106 181.436 192.859C181.798 193.344 181.804 194.095 181.974 194.723C181.508 194.802 181.042 194.947 180.576 194.948C176.238 194.961 171.9 194.949 167.494 194.863C168.452 193.663 168.434 192.17 167.381 190.522C167.31 188.267 167.237 186.114 167.164 183.961ZM169.809 188.427C169.967 188.693 170.124 188.959 170.282 189.226C170.489 189.075 170.858 188.943 170.877 188.771C171.061 187.151 172.187 186.43 173.498 185.819C173.735 185.708 173.839 185.313 174.004 185.049C173.698 184.99 173.342 184.799 173.094 184.893C171.498 185.495 170.271 186.492 169.809 188.427ZM173.844 176.05C173.844 177.604 173.824 179.159 173.864 180.713C173.87 180.959 174.145 181.199 174.295 181.442C174.469 181.222 174.788 181.006 174.794 180.782C174.835 179.189 174.825 177.594 174.796 176C174.792 175.805 174.576 175.614 174.459 175.421C174.26 175.562 174.061 175.703 173.844 176.05ZM174.82 167.759C174.819 167.162 174.865 166.56 174.794 165.971C174.764 165.723 174.487 165.504 174.323 165.271C174.163 165.492 173.871 165.709 173.865 165.933C173.823 167.444 173.818 168.957 173.866 170.467C173.874 170.721 174.195 170.966 174.372 171.215C174.52 170.976 174.782 170.745 174.798 170.498C174.852 169.666 174.819 168.829 174.82 167.759Z" fill="#A7DD96"/>
        <path d="M182.09 194.726C181.805 194.094 181.798 193.344 181.436 192.859C180.126 191.105 179.815 189.367 181.061 187.461C182.63 185.061 182.7 182.709 181.068 180.236C180.167 178.871 179.544 177.287 180.77 175.673C181.49 177.194 182.055 178.713 182.732 180.18C182.998 180.757 183.514 181.218 183.928 181.826C184.268 183.187 184.655 184.443 184.914 185.724C185.29 187.589 185.574 189.472 185.888 191.435C186.298 192.821 186.928 193.966 188.159 194.676C186.175 194.694 184.191 194.712 182.09 194.726Z" fill="#CBE9FD"/>
        <path d="M167.378 190.624C168.434 192.17 168.451 193.662 167.379 194.849C162.634 194.929 157.937 194.943 153.128 194.947C153.286 194.53 153.464 193.93 153.842 193.749C155.886 192.765 157.98 191.886 160.232 190.944C162.753 191.346 165.084 191.427 167.378 190.624Z" fill="#162511"/>
        <path d="M188.248 194.678C186.928 193.966 186.298 192.821 185.992 191.432C188.546 191.561 190.472 190.635 191.955 188.72C193.499 190.608 193.407 193.289 191.681 194.494C190.516 194.58 189.427 194.63 188.248 194.678Z" fill="#172613"/>
        <path d="M103.767 172.487C100.371 168.546 98.5322 164.08 98.2874 158.941C97.954 151.943 100.348 146.05 105.411 141.264C108.905 137.961 113.1 136.101 117.882 135.468C129.105 133.984 139.45 141.342 142.215 151.588C144.318 159.385 142.738 166.448 137.417 172.552C132.42 178.285 125.959 180.655 118.483 180.039C112.643 179.558 107.747 176.934 103.767 172.487ZM99.5316 161.204C99.6473 161.748 99.7463 162.297 99.8812 162.837C102.56 173.559 112.732 180.381 123.796 178.88C135.598 177.279 143.98 165.467 141.67 153.69C139.402 142.126 128.283 134.521 116.697 136.723C110.644 137.873 105.884 141.073 102.586 146.336C99.7631 150.842 98.741 155.73 99.5316 161.204Z" fill="#53A847"/>
        <path d="M167.381 190.522C165.084 191.427 162.754 191.346 160.31 190.902C160.507 190.623 160.802 190.36 161.209 189.998C161.585 189.588 161.85 189.277 162.116 188.966C162.356 187.789 162.61 186.614 162.828 185.433C162.913 184.973 162.918 184.498 163.025 183.949C164.382 183.919 165.675 183.968 167.066 183.989C167.237 186.114 167.31 188.267 167.381 190.522Z" fill="#F3A490"/>
        <path d="M66.8899 175.407C67.1882 175.742 67.5514 176.081 67.569 176.436C67.6377 177.823 67.6307 179.217 67.571 180.605C67.5577 180.914 67.2166 181.209 67.0263 181.511C66.8297 181.222 66.4745 180.939 66.4632 180.643C66.4056 179.135 66.4217 177.624 66.4534 176.115C66.4583 175.88 66.6765 175.65 66.8899 175.407Z" fill="#5CAD4F"/>
        <path d="M67.597 170.355C67.3489 170.755 67.102 171.052 66.8551 171.348C66.7151 171.015 66.4653 170.686 66.4542 170.349C66.4086 168.962 66.404 167.572 66.4595 166.186C66.4721 165.871 66.7851 165.568 66.9598 165.259C67.1724 165.575 67.5517 165.882 67.5686 166.207C67.6382 167.552 67.5979 168.903 67.597 170.355Z" fill="#5CAD4F"/>
        <path d="M66.4347 146.126C66.6245 145.64 66.8143 145.264 67.0041 144.887C67.2019 145.273 67.5497 145.651 67.5703 146.046C67.6406 147.391 67.6313 148.744 67.5686 150.09C67.5536 150.411 67.2134 150.716 67.0228 151.029C66.8269 150.701 66.4799 150.381 66.4619 150.043C66.3946 148.777 66.4348 147.505 66.4347 146.126Z" fill="#5CAD4F"/>
        <path d="M66.4357 137.652C66.4377 136.815 66.4064 136.094 66.4622 135.379C66.4784 135.171 66.7435 134.982 66.8945 134.785C67.1187 134.965 67.5317 135.139 67.5376 135.326C67.5889 136.961 67.5888 138.599 67.5376 140.233C67.5319 140.417 67.1149 140.587 66.8886 140.764C66.7395 140.565 66.4756 140.373 66.4619 140.165C66.4095 139.37 66.4377 138.569 66.4357 137.652Z" fill="#5BAC4E"/>
        <path d="M67.2935 161.037C66.955 160.882 66.4859 160.678 66.4764 160.454C66.4106 158.902 66.4196 157.345 66.463 155.792C66.4691 155.574 66.7943 155.366 66.9718 155.153C67.1734 155.358 67.5511 155.566 67.5489 155.769C67.5303 157.506 67.4427 159.242 67.2935 161.037Z" fill="#5BAC4E"/>
        <path d="M71.3895 187.871C71.4943 188.225 71.6442 188.504 71.6121 188.76C71.5838 188.986 71.3803 189.323 71.2027 189.359C71.0213 189.397 70.6173 189.158 70.5852 188.988C70.2791 187.369 69.3259 186.384 67.7888 185.874C67.6147 185.816 67.5417 185.453 67.4219 185.232C67.7287 185.134 68.0863 184.88 68.3341 184.962C69.762 185.43 70.8338 186.326 71.3895 187.871Z" fill="#54A848"/>
        <path d="M67.2236 130.721C67.3958 130.491 67.5515 130.282 67.7522 130.221C69.155 129.79 70.0568 128.892 70.5193 127.494C70.6022 127.243 70.9848 127.092 71.229 126.894C71.3193 127.189 71.5404 127.515 71.4785 127.773C71.087 129.404 70.026 130.494 68.4765 131.05C68.133 131.173 67.6479 130.901 67.2236 130.721Z" fill="#53A847"/>
        <path d="M88.724 188.948C89.5182 188.95 90.1997 188.906 90.8688 188.978C91.0996 189.003 91.2996 189.314 91.5137 189.494C91.306 189.638 91.101 189.9 90.8902 189.905C89.2989 189.94 87.7059 189.945 86.1151 189.901C85.8964 189.895 85.6866 189.568 85.4727 189.39C85.6814 189.245 85.8833 188.988 86.1002 188.974C86.933 188.923 87.7707 188.95 88.724 188.948Z" fill="#4FA543"/>
        <path d="M96.4866 189.928C96.1509 189.731 95.9256 189.534 95.7002 189.338C95.9167 189.209 96.131 188.974 96.3501 188.969C97.8947 188.937 99.4408 188.932 100.985 188.973C101.213 188.979 101.434 189.276 101.658 189.439C101.398 189.602 101.141 189.897 100.875 189.906C99.4504 189.953 98.0232 189.929 96.4866 189.928Z" fill="#4FA543"/>
        <path d="M106.192 189.885C105.6 189.368 105.819 189.005 106.385 188.984C108.016 188.924 109.651 188.943 111.283 188.977C111.482 188.982 111.674 189.269 111.869 189.425C111.643 189.592 111.42 189.898 111.19 189.904C109.558 189.941 107.924 189.917 106.192 189.885Z" fill="#4FA543"/>
        <path d="M138.168 189.929C137.478 189.755 136.902 189.58 136.326 189.406C136.886 189.253 137.439 189.002 138.006 188.969C139.156 188.9 140.314 188.912 141.464 188.973C141.77 188.989 142.059 189.305 142.356 189.484C142.072 189.632 141.794 189.894 141.503 189.908C140.432 189.96 139.356 189.929 138.168 189.929Z" fill="#4FA543"/>
        <path d="M129.485 126.138C130.238 126.143 130.879 126.108 131.509 126.176C131.7 126.197 131.86 126.504 132.034 126.68C131.864 126.82 131.697 127.079 131.525 127.082C129.854 127.113 128.182 127.118 126.512 127.079C126.335 127.075 126.165 126.749 125.992 126.572C126.202 126.429 126.406 126.175 126.623 126.163C127.536 126.115 128.453 126.14 129.485 126.138Z" fill="#4FA543"/>
        <path d="M150.111 188.948C150.787 188.95 151.351 188.912 151.903 188.975C152.115 189 152.302 189.253 152.5 189.403C152.328 189.575 152.16 189.893 151.984 189.898C150.348 189.936 148.711 189.936 147.076 189.899C146.894 189.895 146.719 189.588 146.541 189.421C146.734 189.266 146.92 188.989 147.121 188.978C148.076 188.928 149.036 188.951 150.111 188.948Z" fill="#4FA543"/>
        <path d="M78.4117 126.138C79.2451 126.143 79.963 126.122 80.6757 126.173C80.8566 126.186 81.0209 126.43 81.1929 126.569C81.0209 126.746 80.8525 127.074 80.6764 127.078C79.0068 127.117 77.3355 127.118 75.666 127.079C75.4912 127.075 75.324 126.745 75.1533 126.566C75.3649 126.425 75.5699 126.176 75.7891 126.163C76.6217 126.113 77.4588 126.14 78.4117 126.138Z" fill="#4FA543"/>
        <path d="M127.41 189.928C126.926 189.743 126.553 189.557 126.18 189.372C126.544 189.231 126.904 188.981 127.273 188.967C128.626 188.919 129.982 188.923 131.335 188.972C131.606 188.982 131.866 189.275 132.131 189.437C131.869 189.601 131.613 189.895 131.345 189.905C130.072 189.955 128.796 189.928 127.41 189.928Z" fill="#4FA543"/>
        <path d="M118.475 126.139C119.388 126.139 120.187 126.1 120.979 126.16C121.264 126.182 121.532 126.441 121.807 126.592C121.518 126.767 121.235 127.084 120.94 127.095C119.509 127.147 118.075 127.142 116.644 127.096C116.379 127.087 116.124 126.794 115.864 126.632C116.138 126.468 116.399 126.203 116.69 126.162C117.236 126.086 117.801 126.139 118.475 126.139Z" fill="#4FA543"/>
        <path d="M140.025 126.138C140.658 126.145 141.183 126.102 141.687 126.186C141.874 126.217 142.01 126.548 142.17 126.742C141.992 126.865 141.815 127.092 141.636 127.095C140.005 127.122 138.373 127.125 136.743 127.087C136.566 127.083 136.397 126.769 136.225 126.599C136.418 126.448 136.607 126.174 136.807 126.165C137.839 126.119 138.875 126.141 140.025 126.138Z" fill="#4FA543"/>
        <path d="M90.3165 126.139C90.7261 126.318 91.0258 126.497 91.3256 126.676C91.01 126.823 90.6987 127.086 90.3781 127.098C89.0654 127.147 87.7486 127.151 86.4363 127.097C86.0788 127.083 85.7317 126.81 85.3799 126.655C85.754 126.483 86.1215 126.182 86.5035 126.162C87.735 126.098 88.9719 126.138 90.3165 126.139Z" fill="#4FA543"/>
        <path d="M80.7138 189.923C79.171 189.927 77.736 189.956 76.3037 189.907C75.9792 189.895 75.6641 189.612 75.3447 189.454C75.6401 189.286 75.9307 188.982 76.2316 188.971C77.6638 188.921 79.0994 188.93 80.5324 188.969C80.7862 188.975 81.0337 189.222 81.284 189.357C81.1302 189.545 80.9764 189.732 80.7138 189.923Z" fill="#4FA543"/>
        <path d="M120.108 189.928C118.923 189.928 117.852 189.953 116.785 189.907C116.54 189.896 116.307 189.637 116.068 189.492C116.314 189.311 116.553 188.985 116.805 188.975C118.189 188.924 119.578 188.916 120.963 188.972C121.314 188.986 121.653 189.288 121.998 189.458C121.644 189.615 121.3 189.804 120.933 189.916C120.716 189.982 120.461 189.928 120.108 189.928Z" fill="#4EA442"/>
        <path d="M99.9653 127.119C98.7407 127.118 97.6284 127.16 96.5224 127.094C96.1763 127.073 95.8475 126.764 95.5107 126.587C95.8327 126.438 96.1503 126.172 96.4775 126.16C97.7837 126.11 99.0942 126.106 100.4 126.16C100.753 126.175 101.095 126.453 101.442 126.61C101.107 126.779 100.777 126.96 100.434 127.112C100.334 127.156 100.199 127.118 99.9653 127.119Z" fill="#4EA442"/>
        <path d="M110.688 127.119C109.231 127.118 107.883 127.144 106.537 127.096C106.27 127.086 106.012 126.797 105.75 126.637C106.009 126.471 106.264 126.172 106.528 126.163C107.953 126.115 109.382 126.116 110.807 126.159C111.099 126.168 111.383 126.428 111.67 126.573C111.379 126.755 111.089 126.936 110.688 127.119Z" fill="#4EA442"/>
        <path d="M147.785 127.119C147.436 127.115 147.177 127.169 146.965 127.093C146.739 127.012 146.556 126.809 146.354 126.659C146.574 126.487 146.791 126.172 147.016 126.166C148.561 126.122 150.109 126.123 151.654 126.166C151.868 126.172 152.074 126.492 152.284 126.667C152.051 126.817 151.822 127.087 151.584 127.096C150.357 127.141 149.127 127.118 147.785 127.119Z" fill="#4EA442"/>
        <path d="M162.003 188.96C161.851 189.277 161.585 189.588 161.251 189.934C159.954 189.956 158.725 189.97 157.499 189.906C157.221 189.891 156.956 189.607 156.686 189.447C156.954 189.282 157.217 188.982 157.49 188.973C158.956 188.927 160.424 188.953 162.003 188.96Z" fill="#4EA442"/>
        <path d="M32.1338 55.8762C32.1632 55.9105 32.1935 55.944 32.2238 55.9775C32.2028 55.9656 32.1819 55.9537 32.1485 55.9078C32.136 55.8738 32.1347 55.8755 32.1338 55.8762Z" fill="#CCEAFF"/>
        <path d="M225.292 78.2827C225.279 78.291 225.305 78.2743 225.292 78.2827V78.2827Z" fill="#CCEAFF"/>
        <path d="M175.827 79.7363C174.735 84.5997 173.796 89.409 172.495 94.1187C171.663 97.1323 171.901 99.8846 173.011 102.721C173.445 103.83 173.515 105.083 173.684 106.43C172.899 107.935 171.782 108.584 170.253 108.653C169.026 108.708 167.808 108.953 166.582 109.003C163.815 109.114 161.029 109.431 158.315 108.538C158.315 108.538 158.297 108.46 158.285 108.422C158.577 105.279 158.882 102.174 159.185 99.0687C159.274 98.1648 159.359 97.2607 159.456 96.257C164.644 92.1876 169.309 87.7193 172.848 82.187C174.401 79.7595 175.722 77.2111 175.762 74.2303C175.794 71.8481 174.398 70.8885 172.168 71.7431C170.275 72.4683 168.743 73.585 167.557 75.3423C164.845 79.3593 161.947 83.2509 159.061 87.2389C159.01 83.6935 159.935 80.332 161.552 77.1464C162.066 76.1344 162.598 75.1315 163.314 74.1158C166.933 74.1366 169.823 71.5812 170.011 68.3555C170.815 68.5491 171.646 68.669 172.419 68.9491C175.924 70.2194 176.752 71.4716 176.459 75.1682C176.341 76.6662 176.042 78.1499 175.827 79.7363Z" fill="#F8CA59"/>
        <path d="M169.949 68.2986C169.824 71.5813 166.933 74.1367 163.397 74.1005C163.294 73.8406 163.301 73.5874 163.385 73.2014C163.779 72.6656 164.175 72.3019 164.401 71.8525C165.033 70.5961 165.974 69.3364 166.086 68.0182C166.22 66.4289 165.627 64.7781 165.355 63.1929C164.521 63.0662 163.783 62.9539 163.044 62.8416C161.155 61.8347 160.152 60.1837 159.575 58.1848C159.434 57.6944 159.056 57.2726 158.789 56.8177C158.511 56.3431 158.15 55.8955 157.978 55.3847C157.597 54.252 157.986 53.7838 159.038 53.8038C159.362 52.6646 159.527 51.4856 160.037 50.4808C160.426 49.7122 161.154 49.0036 161.902 48.5519C163.326 47.6916 163.797 47.9336 164.763 49.27C165.693 50.5581 166.69 51.806 167.744 52.9945C168.344 53.6705 169.05 54.2615 170.155 53.8952C170.407 53.8116 171.17 54.3452 171.17 54.5949C171.171 55.4593 171.126 56.4163 170.755 57.1688C170.001 58.6964 169.019 60.1107 168.147 61.5811C168.077 61.6997 168.089 61.9017 168.13 62.0464C168.708 64.1133 169.298 66.1771 169.949 68.2986ZM167.139 58.8454C165.584 58.9198 164.027 58.9757 162.479 59.1194C162.395 59.1271 162.195 59.9947 162.366 60.2502C162.99 61.1845 163.967 61.6447 165.057 61.2908C166.143 60.9381 167.209 60.4081 167.139 58.8454Z" fill="#F5A390"/>
        <path d="M163.05 62.9399C163.782 62.9538 164.521 63.0661 165.355 63.1928C165.627 64.778 166.22 66.4289 166.085 68.0181C165.974 69.3364 165.033 70.596 164.401 71.8524C164.175 72.3018 163.779 72.6656 163.39 73.1063C163.629 71.8597 163.939 70.5751 164.225 69.2175C163.82 67.1091 163.438 65.0737 163.05 62.9399Z" fill="#D98E81"/>
        <path d="M158.305 108.644C161.029 109.431 163.815 109.114 166.583 109.003C167.809 108.953 169.027 108.708 170.253 108.653C171.783 108.584 172.9 107.935 173.661 106.534C176.05 110.27 178.179 114.161 178.986 118.621C179.119 119.358 179.11 120.121 179.172 121.088C179.176 122.937 179.155 124.57 179.173 126.202C179.237 131.934 179.184 137.671 179.457 143.393C179.558 145.514 180.437 147.598 180.962 149.698C181.485 150.858 181.929 152.061 182.546 153.168C184.968 157.516 186.171 162.202 186.81 167.108C187.318 171.007 188.149 174.862 188.778 178.747C188.872 179.327 188.647 179.959 188.446 180.687C186.854 181.116 185.385 181.424 183.917 181.732C183.515 181.218 182.998 180.757 182.732 180.18C182.055 178.713 181.49 177.194 180.838 175.62C179.375 171.895 177.954 168.246 176.532 164.598C176.043 163.343 175.549 162.091 175.012 160.671C174.6 159.684 174.233 158.863 173.867 158.042C172.57 154.664 171.246 151.295 169.985 147.904C169.126 145.593 168.355 143.25 167.481 140.871C166.385 137.725 165.397 134.612 164.312 131.534C161.969 124.89 159.53 118.277 158.731 111.21C158.638 110.384 158.442 109.57 158.305 108.644Z" fill="#1D907D"/>
        <path d="M148.728 86.2361C148.471 86.547 148.205 86.762 147.693 87.1766C147.693 85.8287 147.693 84.7466 147.685 83.5518C148.024 84.3394 148.372 85.2398 148.728 86.2361Z" fill="#CBE9FD"/>
        <path d="M181.011 149.62C180.437 147.598 179.558 145.514 179.457 143.393C179.184 137.671 179.237 131.934 179.173 126.203C179.155 124.57 179.176 122.937 179.201 121.193C179.861 121.091 180.502 121.077 181.139 121.117C182.149 121.181 182.472 121.755 182.021 122.642C181.822 123.033 181.65 123.447 181.394 123.799C179.786 126.018 179.869 128.215 181.392 130.438C182.707 132.356 182.687 134.296 181.4 136.23C181.313 136.362 181.273 136.526 181.183 136.656C179.797 138.664 179.838 140.699 181.199 142.664C182.831 145.02 182.533 147.278 181.011 149.62Z" fill="#A6DD97"/>
        <path d="M183.928 181.826C185.385 181.424 186.854 181.116 188.402 180.758C188.629 181.314 188.818 181.913 188.915 182.527C189.196 184.318 189.677 185.985 191.136 187.236C191.501 187.549 191.655 188.106 191.93 188.635C190.472 190.635 188.546 191.561 186.002 191.343C185.575 189.472 185.29 187.589 184.914 185.724C184.655 184.443 184.268 183.187 183.928 181.826Z" fill="#F6A492"/>
        <path d="M169.823 188.334C170.271 186.492 171.498 185.494 173.093 184.893C173.342 184.799 173.698 184.99 174.004 185.049C173.839 185.313 173.735 185.708 173.498 185.818C172.187 186.43 171.061 187.151 170.877 188.771C170.858 188.942 170.489 189.075 170.282 189.225C170.124 188.959 169.967 188.693 169.823 188.334Z" fill="#54A848"/>
        <path d="M173.853 175.946C174.061 175.702 174.26 175.562 174.459 175.421C174.576 175.614 174.792 175.805 174.796 176C174.825 177.593 174.835 179.188 174.794 180.782C174.788 181.006 174.469 181.222 174.295 181.442C174.145 181.199 173.87 180.959 173.864 180.712C173.824 179.159 173.844 177.604 173.853 175.946Z" fill="#4FA543"/>
        <path d="M174.82 167.876C174.819 168.828 174.852 169.666 174.798 170.498C174.782 170.745 174.52 170.976 174.372 171.215C174.195 170.966 173.874 170.721 173.866 170.467C173.818 168.957 173.823 167.444 173.865 165.933C173.871 165.708 174.163 165.491 174.323 165.271C174.487 165.503 174.764 165.722 174.794 165.971C174.865 166.559 174.819 167.162 174.82 167.876Z" fill="#4FA543"/>
        <path d="M173.856 158.152C174.233 158.863 174.599 159.684 174.99 160.583C174.741 160.844 174.467 161.027 173.845 161.444C173.845 160.157 173.845 159.209 173.856 158.152Z" fill="#51A647"/>
        <path d="M99.5261 161.098C98.7415 155.73 99.7636 150.842 102.587 146.336C105.885 141.073 110.644 137.873 116.697 136.722C128.284 134.52 139.402 142.125 141.67 153.69C143.98 165.466 135.599 177.279 123.796 178.88C112.732 180.381 102.561 173.559 99.8817 162.837C99.7468 162.297 99.6478 161.748 99.5261 161.098ZM123.108 166.923C124.567 168.69 126.422 169.349 128.645 168.8C131.609 168.069 133.231 165.095 132.371 162.066C131.592 159.323 128.474 157.743 125.693 158.594C122.418 159.595 120.821 163.74 123.108 166.923ZM116.661 161.381C114.93 163.779 113.198 166.177 111.467 168.575C112.669 168.569 113.774 169.321 114.668 168.061C118.911 162.081 123.229 156.155 127.517 150.207C128.271 149.161 129.006 148.101 129.852 146.904C128.248 146.725 127.171 146.691 126.186 148.142C123.167 152.591 119.917 156.883 116.661 161.381ZM109.099 149.801C109.026 150.967 108.701 152.185 108.929 153.289C109.482 155.969 112.191 157.59 114.999 157.042C117.643 156.525 119.392 154.367 119.331 151.644C119.275 149.095 117.497 147.183 114.971 146.612C112.706 146.1 110.394 147.295 109.099 149.801Z" fill="#A8DE96"/>
        <path d="M167.19 58.915C167.209 60.4081 166.142 60.9381 165.056 61.2908C163.966 61.6447 162.99 61.1845 162.365 60.2503C162.194 59.9948 162.394 59.1272 162.478 59.1194C164.026 58.9757 165.583 58.9198 167.19 58.915Z" fill="#F8F6F6"/>
        <path d="M123.055 166.853C120.821 163.74 122.418 159.596 125.693 158.594C128.474 157.743 131.592 159.323 132.371 162.067C133.231 165.095 131.609 168.069 128.645 168.801C126.422 169.349 124.567 168.691 123.055 166.853ZM126.493 166.503C128.287 166.89 129.843 165.921 130.179 164.207C130.484 162.654 129.371 161.022 127.8 160.716C126.483 160.46 125.034 161.315 124.575 162.619C124.019 164.197 124.649 165.586 126.493 166.503Z" fill="#50A544"/>
        <path d="M116.708 161.309C119.916 156.883 123.166 152.591 126.186 148.142C127.171 146.691 128.248 146.725 129.852 146.904C129.006 148.101 128.271 149.161 127.517 150.207C123.229 156.155 118.911 162.081 114.668 168.061C113.774 169.321 112.669 168.569 111.467 168.575C113.198 166.177 114.929 163.779 116.708 161.309Z" fill="#51A645"/>
        <path d="M109.124 149.712C110.394 147.295 112.706 146.1 114.971 146.612C117.497 147.183 119.275 149.095 119.332 151.644C119.392 154.367 117.643 156.526 114.999 157.042C112.191 157.59 109.482 155.969 108.929 153.29C108.701 152.186 109.026 150.967 109.124 149.712ZM116.713 152.898C116.747 152.425 116.815 151.951 116.808 151.479C116.792 150.311 116.143 149.514 115.121 149.104C114.12 148.702 113.088 148.75 112.213 149.509C111.272 150.326 110.84 151.308 111.173 152.582C111.517 153.896 112.376 154.668 113.661 154.819C115.019 154.978 116.012 154.288 116.713 152.898Z" fill="#50A544"/>
        <path d="M126.402 166.476C124.649 165.586 124.018 164.197 124.574 162.619C125.033 161.315 126.482 160.459 127.799 160.716C129.371 161.022 130.483 162.654 130.178 164.206C129.842 165.921 128.287 166.889 126.402 166.476Z" fill="#A6DD94"/>
        <path d="M116.672 152.986C116.011 154.288 115.018 154.978 113.66 154.819C112.375 154.668 111.516 153.896 111.172 152.582C110.839 151.308 111.271 150.326 112.213 149.509C113.088 148.75 114.119 148.702 115.12 149.104C116.142 149.514 116.791 150.311 116.807 151.479C116.814 151.951 116.746 152.425 116.672 152.986Z" fill="#A6DD94"/>
    </g>
    <defs>
        <clipPath id="clip0_2440_13034">
            <rect width="241.007" height="200" fill="white"/>
        </clipPath>
    </defs>
</svg>

