<svg width="241" height="200" viewBox="0 0 241 200" fill="none" xmlns="http://www.w3.org/2000/svg">
<path opacity="0.4" fill-rule="evenodd" clip-rule="evenodd" d="M209.629 199.942C228.57 178.72 240.082 150.725 240.082 120.041C240.082 53.7442 186.338 0 120.041 0C53.7442 0 0 53.7442 0 120.041C0 150.725 11.5124 178.72 30.4534 199.942H209.629Z" fill="#CCEAFF"/>
<rect x="57.5586" y="120.419" width="125.721" height="74.2209" rx="10" fill="#1B8158"/>
<path d="M94.6982 157.542C94.6982 156.65 94.8914 155.856 95.2776 155.16C95.6639 154.457 96.2003 153.912 96.887 153.525C97.5823 153.131 98.3676 152.933 99.2431 152.933C100.316 152.933 101.234 153.216 101.998 153.783C102.762 154.349 103.273 155.122 103.531 156.1H101.11C100.93 155.723 100.672 155.435 100.338 155.238C100.011 155.04 99.638 154.942 99.2174 154.942C98.5393 154.942 97.99 155.178 97.5694 155.65C97.1488 156.122 96.9385 156.753 96.9385 157.542C96.9385 158.332 97.1488 158.963 97.5694 159.435C97.99 159.907 98.5393 160.143 99.2174 160.143C99.638 160.143 100.011 160.044 100.338 159.847C100.672 159.65 100.93 159.362 101.11 158.984H103.531C103.273 159.963 102.762 160.735 101.998 161.302C101.234 161.86 100.316 162.139 99.2431 162.139C98.3676 162.139 97.5823 161.946 96.887 161.559C96.2003 161.165 95.6639 160.62 95.2776 159.924C94.8914 159.229 94.6982 158.435 94.6982 157.542Z" fill="white"/>
<path d="M108.149 162.177C107.445 162.177 106.81 162.027 106.244 161.727C105.686 161.426 105.244 160.997 104.917 160.439C104.6 159.881 104.441 159.229 104.441 158.482C104.441 157.744 104.604 157.096 104.93 156.538C105.256 155.972 105.703 155.538 106.269 155.238C106.836 154.937 107.471 154.787 108.175 154.787C108.879 154.787 109.514 154.937 110.08 155.238C110.647 155.538 111.093 155.972 111.419 156.538C111.745 157.096 111.909 157.744 111.909 158.482C111.909 159.22 111.741 159.873 111.406 160.439C111.08 160.997 110.63 161.426 110.055 161.727C109.488 162.027 108.853 162.177 108.149 162.177ZM108.149 160.272C108.57 160.272 108.926 160.117 109.218 159.808C109.518 159.499 109.668 159.057 109.668 158.482C109.668 157.907 109.522 157.465 109.231 157.156C108.947 156.847 108.595 156.693 108.175 156.693C107.746 156.693 107.389 156.847 107.106 157.156C106.823 157.457 106.681 157.899 106.681 158.482C106.681 159.057 106.819 159.499 107.093 159.808C107.377 160.117 107.728 160.272 108.149 160.272Z" fill="white"/>
<path d="M120.171 154.89V162.074H117.969V161.096C117.746 161.413 117.441 161.671 117.055 161.868C116.677 162.057 116.257 162.152 115.793 162.152C115.244 162.152 114.759 162.031 114.338 161.791C113.918 161.542 113.592 161.186 113.36 160.723C113.128 160.259 113.012 159.714 113.012 159.087V154.89H115.201V158.791C115.201 159.272 115.325 159.645 115.574 159.911C115.823 160.177 116.158 160.311 116.579 160.311C117.008 160.311 117.347 160.177 117.596 159.911C117.845 159.645 117.969 159.272 117.969 158.791V154.89H120.171Z" fill="white"/>
<path d="M123.954 155.907C124.168 155.572 124.465 155.302 124.842 155.096C125.22 154.89 125.662 154.787 126.168 154.787C126.761 154.787 127.297 154.937 127.778 155.238C128.258 155.538 128.636 155.967 128.911 156.525C129.194 157.083 129.336 157.731 129.336 158.469C129.336 159.208 129.194 159.86 128.911 160.426C128.636 160.984 128.258 161.418 127.778 161.727C127.297 162.027 126.761 162.177 126.168 162.177C125.67 162.177 125.228 162.074 124.842 161.868C124.465 161.662 124.168 161.396 123.954 161.07V165.499H121.752V154.89H123.954V155.907ZM127.095 158.469C127.095 157.92 126.941 157.491 126.632 157.182C126.331 156.864 125.958 156.705 125.512 156.705C125.074 156.705 124.701 156.864 124.392 157.182C124.091 157.499 123.941 157.933 123.941 158.482C123.941 159.032 124.091 159.465 124.392 159.783C124.701 160.1 125.074 160.259 125.512 160.259C125.949 160.259 126.323 160.1 126.632 159.783C126.941 159.456 127.095 159.019 127.095 158.469Z" fill="white"/>
<path d="M133.761 162.177C133.057 162.177 132.422 162.027 131.855 161.727C131.297 161.426 130.855 160.997 130.529 160.439C130.212 159.881 130.053 159.229 130.053 158.482C130.053 157.744 130.216 157.096 130.542 156.538C130.868 155.972 131.315 155.538 131.881 155.238C132.448 154.937 133.083 154.787 133.787 154.787C134.49 154.787 135.126 154.937 135.692 155.238C136.259 155.538 136.705 155.972 137.031 156.538C137.357 157.096 137.52 157.744 137.52 158.482C137.52 159.22 137.353 159.873 137.018 160.439C136.692 160.997 136.241 161.426 135.666 161.727C135.1 162.027 134.465 162.177 133.761 162.177ZM133.761 160.272C134.181 160.272 134.538 160.117 134.829 159.808C135.13 159.499 135.28 159.057 135.28 158.482C135.28 157.907 135.134 157.465 134.842 157.156C134.559 156.847 134.207 156.693 133.787 156.693C133.357 156.693 133.001 156.847 132.718 157.156C132.435 157.457 132.293 157.899 132.293 158.482C132.293 159.057 132.43 159.499 132.705 159.808C132.988 160.117 133.34 160.272 133.761 160.272Z" fill="white"/>
<path d="M143.066 154.813C143.907 154.813 144.577 155.088 145.074 155.637C145.581 156.178 145.834 156.924 145.834 157.877V162.074H143.645V158.173C143.645 157.693 143.521 157.319 143.272 157.053C143.023 156.787 142.688 156.654 142.268 156.654C141.847 156.654 141.512 156.787 141.263 157.053C141.014 157.319 140.89 157.693 140.89 158.173V162.074H138.688V154.89H140.89V155.843C141.113 155.525 141.414 155.276 141.791 155.096C142.169 154.907 142.594 154.813 143.066 154.813Z" fill="white"/>
<g clip-path="url(#clip1_4337_9959)">
<path d="M83.5329 97.5298L83.8132 100.155L86.3439 101.04L86.4507 104.003L89.4306 104.109L89.696 107.459L92.4312 107.896L93.2093 111.079L92.0155 111.37L91.4329 108.988L88.5461 108.527L88.2928 105.309L85.2577 105.2L85.1451 101.929L82.6718 101.067L82.4106 98.6308L80.6718 98.4076L80.8247 97.1766L83.5329 97.5298Z" fill="#9CDBE3"/>
</g>
<path d="M216.219 200H24.6199C23.1438 200 21.9629 198.793 21.9629 197.32C21.9629 195.848 23.1438 194.641 24.6199 194.641H216.219C217.695 194.641 218.876 195.848 218.876 197.32C218.876 198.793 217.695 200 216.219 200Z" fill="#C4C4C4"/>
<g clip-path="url(#clip3_4337_9959)">
<path d="M59.0026 110.868L57.0784 108.611C56.0255 109.451 54.8634 110.133 53.8132 110.583C52.9383 110.957 51.9282 110.579 51.5089 109.725L51.4566 109.622C50.9988 108.677 51.4276 107.524 52.3952 107.122C53.3824 106.716 54.4146 106.133 55.3375 105.324C56.6839 104.143 57.1631 102.816 56.3496 101.87C55.5791 100.969 54.3361 101.062 52.0808 101.997C48.8202 103.356 46.0828 103.681 44.1208 101.38C42.3518 99.2873 42.4247 96.3704 44.5297 93.6602L42.6055 91.4036L44.9235 89.3772L46.7068 91.4633C47.6006 90.7528 48.4045 90.2449 49.1302 89.8897C50.0155 89.453 51.0772 89.8194 51.5133 90.7092C51.963 91.6277 51.5632 92.7491 50.6392 93.178C49.9426 93.5014 49.1468 93.97 48.3108 94.7011C46.7764 96.0439 46.8462 97.146 47.4101 97.8104C48.079 98.5965 49.3289 98.368 51.9877 97.3659C55.6526 95.9039 57.8981 96.2109 59.7226 98.3477C61.5265 100.459 61.5711 103.562 59.2589 106.421L61.3206 108.841L59.0026 110.868Z" fill="#879DD1"/>
</g>
<g clip-path="url(#clip4_4337_9959)">
<path d="M109.655 38.2167L109.244 36.3582C108.394 36.5177 107.53 36.5539 106.799 36.4929C106.19 36.4417 105.732 35.9233 105.751 35.3131L105.752 35.2391C105.777 34.5652 106.368 34.0406 107.037 34.1044C107.719 34.1711 108.48 34.1515 109.246 33.9709C110.365 33.7067 111.036 33.0983 110.86 32.3171C110.694 31.5746 109.962 31.2529 108.402 31.1042C106.144 30.8933 104.494 30.253 104.075 28.3584C103.702 26.6394 104.621 25.0077 106.63 24.105L106.219 22.2465L108.143 21.7955L108.526 23.5149C109.247 23.3812 109.855 23.3353 110.373 23.3524C111.007 23.3714 111.498 23.8987 111.478 24.5343C111.456 25.1904 110.892 25.7058 110.239 25.6708C109.747 25.6444 109.155 25.6705 108.461 25.8333C107.186 26.1326 106.894 26.7784 107.014 27.3249C107.157 27.9718 107.934 28.2186 109.743 28.4508C112.261 28.7253 113.441 29.5753 113.832 31.3359C114.219 33.0759 113.31 34.8485 111.139 35.7732L111.579 37.7658L109.655 38.2167Z" fill="#879DD1"/>
</g>
<g clip-path="url(#clip5_4337_9959)">
<path d="M123.833 104.559L124.181 102.688C123.337 102.502 122.527 102.198 121.879 101.856C121.339 101.57 121.119 100.914 121.376 100.36L121.406 100.292C121.692 99.6818 122.441 99.4299 123.032 99.7504C123.633 100.079 124.341 100.358 125.117 100.492C126.25 100.686 127.106 100.389 127.249 99.6012C127.387 98.8531 126.839 98.2704 125.461 97.5233C123.466 96.4459 122.199 95.2114 122.554 93.3036C122.883 91.5757 124.368 90.4338 126.57 90.389L126.918 88.5176L128.865 88.8553L128.545 90.5875C129.261 90.7464 129.839 90.9422 130.309 91.1607C130.884 91.4259 131.13 92.1035 130.863 92.6805C130.586 93.2758 129.865 93.5294 129.278 93.2417C128.836 93.0249 128.28 92.8173 127.578 92.6956C126.288 92.4726 125.767 92.9526 125.663 93.5023C125.541 94.1535 126.16 94.6847 127.734 95.6061C129.944 96.8437 130.698 98.0877 130.369 99.861C130.044 101.614 128.514 102.89 126.154 102.891L125.78 104.897L123.833 104.559Z" fill="#1C907D"/>
</g>
<g clip-path="url(#clip6_4337_9959)">
<path d="M89.4386 85.2062L91.3435 81.893L89.7733 78.3943C89.5931 77.9967 89.9342 77.5593 90.3525 77.6587L94.0013 78.5003L96.7427 75.8829C97.0581 75.5847 97.5664 75.7835 97.6051 76.2208L97.9526 80.0575L101.222 81.9327C101.595 82.1448 101.569 82.708 101.177 82.8803L97.7466 84.411L97.0259 88.188C96.9422 88.6188 96.4145 88.7645 96.1378 88.4332L93.6666 85.5441L89.947 85.9947C89.5223 86.0477 89.2263 85.5773 89.4386 85.2062Z" fill="#0B70B7"/>
</g>
<g clip-path="url(#clip7_4337_9959)">
<path d="M77.2869 43.5413L77.6603 40.4267L75.3705 38.262C75.1089 38.0165 75.2254 37.5773 75.5705 37.5215L78.5728 37.0154L79.7945 34.1667C79.936 33.8413 80.3802 33.8327 80.5483 34.1528L82.0293 36.958L85.0759 37.3563C85.4231 37.4002 85.583 37.8362 85.3436 38.0902L83.2601 40.3296L83.9216 43.4248C83.9959 43.7783 83.6468 44.0546 83.334 43.8898L80.5629 42.4709L77.9187 43.9807C77.6173 44.1543 77.2458 43.8899 77.2869 43.5413Z" fill="#DF7F68"/>
</g>
<g clip-path="url(#clip8_4337_9959)">
<path d="M131.005 46.4205L131.417 50.1101L125.557 51.4274L125.49 56.8958L121.265 58.5999L122.13 60.7413L127.779 58.4639L127.838 53.2784L133.939 51.9096L133.32 46.3548L131.005 46.4205Z" fill="#F9CA58"/>
</g>
<g clip-path="url(#clip9_4337_9959)">
<path d="M161.844 70.806L161.064 67.2278C161.064 67.2278 158.517 68.8587 157.039 71.1954C155.549 73.5322 154.853 79.7634 154.42 79.9947C154 80.2259 149.302 72.8993 148.473 71.7431C147.452 70.3191 147.08 68.6761 146.443 67.4226C145.806 66.1812 143.572 65.7552 142.719 65.9134C141.866 66.0716 143.884 69.7106 143.884 69.7106C143.884 69.7106 148.978 78.6681 150.672 83.5728C152.366 88.4775 157.664 90.8143 158.517 90.1205C159.37 89.4147 161.844 70.806 161.844 70.806Z" fill="#F48C7F"/>
<path d="M146.395 68.1164C146.395 68.1164 146.179 67.1793 145.615 66.9846C145.038 66.7898 144.053 66.9602 143.981 66.9846C143.921 67.0089 142.815 66.4004 142.815 66.4004L143.728 68.1164C143.728 68.1164 145.506 70.2341 146.095 69.443C146.684 68.6519 146.395 68.1164 146.395 68.1164Z" fill="#F7A491"/>
<path d="M142.502 66.4731C142.502 66.4731 141.866 69.7835 142.022 70.4772C142.19 71.171 142.598 70.7937 142.67 70.6476C142.983 70.0269 143.211 67.9093 143.211 67.9093L142.502 66.4731Z" fill="#F48C7F"/>
<path d="M143.884 69.2235C143.884 69.2235 143.584 71.2803 143.26 71.5116C143.055 71.6698 142.791 71.5724 142.707 71.1586C142.623 70.7448 143.115 68.2134 143.115 68.2134L143.884 69.2235Z" fill="#F48C7F"/>
<path d="M145.746 75.0415L146.816 74.5182L142.287 65.1226C141.698 65.4147 141.458 66.1327 141.746 66.7291L145.746 75.0415Z" fill="#184655"/>
<path d="M157.123 56.0674C156.486 53.1221 155.861 50.1647 157.543 46.9395C158.901 44.3228 161.255 42.8259 163.983 42.4973C171.707 41.5601 170.049 48.8624 180.849 50.4446C184.201 50.9314 187.313 51.4061 190.124 53.0978C195.181 56.1526 197.092 61.0451 193.74 69.0168C185.535 88.5383 165.376 71.962 162.889 68.1162C161.015 65.2683 157.531 57.966 157.123 56.0674Z" fill="#13220F"/>
<path d="M187.998 179.391C187.998 179.391 188.551 185.05 189.956 186.085C191.374 187.119 193.26 190.965 192.311 193.046C192.011 193.691 191.422 194.069 190.761 194.276C188.779 194.896 186.665 193.85 185.812 191.927C185.343 190.856 184.923 189.42 184.839 187.618C184.622 183.018 183.217 180.681 183.217 180.681L187.998 179.391Z" fill="#F7A491"/>
<path d="M166.278 181.704C166.278 181.704 165.833 187.412 166.194 189.261C166.386 190.259 167.467 192.304 166.975 193.229C166.482 194.166 165.917 194.397 165.917 194.397L153.099 194.604C152.402 194.617 152.859 194.166 153.423 193.74C154.348 193.059 155.093 192.596 158.037 191.16C158.229 191.063 158.926 190.612 159.178 190.466C159.815 190.077 160.463 189.456 161.016 188.823C161.941 187.789 162.013 182.762 162.013 182.762L166.278 181.704Z" fill="#F7A491"/>
<path d="M156.258 105.845C156.258 105.845 154.648 115.107 155.705 121.18C156.763 127.253 161.856 183.566 161.856 183.566L167.515 183.882C167.515 183.882 168.704 160.356 168.488 157.095C168.271 153.821 166.602 148.344 166.602 148.344L167.166 129.358L160.03 104.409L156.258 105.845Z" fill="#035B52"/>
<path d="M172.873 103.898C172.873 103.898 177.33 110.676 178.387 116.275C179.444 121.886 177.606 139.119 179.648 146.458C180.753 150.437 184.934 156.584 185.571 161.72C186.208 166.855 188.706 180.328 188.706 180.328L183.06 181.46L169.917 147.845L159.61 117.455L156.967 101.804L172.873 103.898Z" fill="#1C907D"/>
<path d="M169.269 65.3535C169.269 65.3535 173.173 65.8038 175.504 68.3718C177.834 70.9398 171.732 91.6053 171.311 94.867C170.891 98.1408 174.783 105.772 174.783 105.772C174.783 105.772 160.211 108.498 156.258 105.857C156.258 105.857 155.838 82.3314 156.258 79.9946C156.679 77.6579 160.211 68.1527 161.064 67.2156C161.917 66.2785 169.269 65.3535 169.269 65.3535Z" fill="#F9CA58"/>
<path d="M174.783 70.3068C174.41 69.1506 173.113 68.6029 172.02 69.0776C170.518 69.7348 168.44 70.9884 167.418 73.1304C165.725 76.7085 159.79 89.0129 157.952 89.4875C156.114 89.95 148.617 76.7085 148.617 76.7085C148.617 76.7085 148.834 74.3718 148.197 73.0452C147.56 71.7186 145.65 70.319 145.374 70.7815C145.085 71.2439 146.431 72.4123 146.431 72.6557C146.431 72.887 145.866 73.0452 145.085 72.5827C144.305 72.1202 143.884 71.1709 143.884 71.1709C143.884 71.1709 142.611 73.5198 143.956 75.6253C145.302 77.7308 145.866 78.5828 145.866 78.5828C145.866 78.5828 154.564 98.1286 157.736 98.3598C160.703 98.5911 177.762 79.4225 174.783 70.3068Z" fill="#F7A491"/>
<path d="M167.311 57.3819C167.311 57.3819 167.347 57.5523 167.395 57.8566C167.659 59.2927 168.668 64.0392 169.353 65.3536C170.182 66.9358 166.53 71.9744 163.01 71.3537C161.965 71.1711 163.899 66.7289 163.803 66.2542C163.623 65.3536 163.382 64.1244 163.142 62.8586C162.998 62.1528 162.866 61.4225 162.734 60.7531C162.361 58.8302 162.049 57.248 162.049 57.248L167.311 57.3819Z" fill="#F7A491"/>
<path d="M167.395 57.8566C167.335 57.5523 167.311 57.3819 167.311 57.3819L162.037 57.248C162.037 57.248 162.349 58.818 162.722 60.7532C162.854 61.4225 162.998 62.1406 163.13 62.8465C163.947 62.7248 164.8 62.3231 165.653 61.5686C166.578 60.741 167.191 59.7552 167.563 58.6963C167.491 58.3677 167.431 58.0756 167.395 57.8566Z" fill="#F47458"/>
<path d="M164.139 44.6879C164.139 44.6879 166.289 44.9921 167.851 47.0246C169.413 49.0571 171.083 55.3614 167.214 58.7813C163.346 62.2012 159.526 58.331 158.961 54.2174C158.384 50.1159 158.505 44.5418 164.139 44.6879Z" fill="#F7A491"/>
<path d="M157.711 52.8177C158.168 53.7304 158.949 54.2294 159.441 53.9373C159.934 53.6452 159.958 52.6838 159.501 51.771C159.045 50.8582 158.264 50.3592 157.771 50.6513C157.279 50.9434 157.255 51.917 157.711 52.8177Z" fill="#F7A491"/>
<path d="M163.479 44.5908C163.479 44.5908 166.794 50.5787 169.173 50.8586C171.552 51.1385 171.864 54.315 171.864 54.315C171.864 54.315 171.011 46.9762 168.668 45.5644C166.314 44.1648 163.479 44.5908 163.479 44.5908Z" fill="#13220F"/>
<path d="M168.404 52.2946C168.212 53.3534 168.596 54.3392 169.269 54.4731C169.942 54.607 170.638 53.8646 170.831 52.8057C171.023 51.7469 170.638 50.7611 169.966 50.6272C169.293 50.4812 168.596 51.2236 168.404 52.2946Z" fill="#F7A491"/>
<path d="M185.438 190.916C188.514 191.488 190.568 189.663 191.637 188.3C192.418 189.845 192.899 191.768 192.322 193.046C191.818 194.166 190.436 194.47 189.271 194.519C188.033 194.568 186.88 193.91 186.267 192.827C185.979 192.316 185.679 191.683 185.438 190.916Z" fill="#13220F"/>
<path d="M159.165 190.478C162.553 191.354 165.064 190.758 166.47 190.186C166.83 191.221 167.31 192.523 167.058 193.277C166.746 194.19 166.301 194.397 165.917 194.409C162.817 194.494 154.576 194.604 152.21 194.64C151.885 194.64 151.693 194.251 151.909 193.995C152.486 193.29 158.913 190.636 159.165 190.478Z" fill="#13220F"/>
<path d="M165.676 55.7582L161.318 55.2871C161.318 55.2871 161.241 56.9551 163.145 57.2098C165.484 57.5281 165.676 55.7582 165.676 55.7582Z" fill="white"/>
</g>
<defs>
<clipPath id="clip0_4337_9959">
<rect width="65.1326" height="28.7795" fill="white" transform="translate(15.1475 36.353)"/>
</clipPath>
<clipPath id="clip1_4337_9959">
<rect width="7.57356" height="17.4192" fill="white" transform="translate(80.2793 97.3862) rotate(-21.0203)"/>
</clipPath>
<clipPath id="clip2_4337_9959">
<rect width="49.9855" height="31.0516" fill="white" transform="translate(187.824 58.3164)"/>
</clipPath>
<clipPath id="clip3_4337_9959">
<rect width="23.478" height="18.9339" fill="white" transform="translate(44 87.4907) rotate(19.6193)"/>
</clipPath>
<clipPath id="clip4_4337_9959">
<rect width="15.0698" height="12.1531" fill="white" transform="translate(108.187 20.4487) rotate(47.5881)"/>
</clipPath>
<clipPath id="clip5_4337_9959">
<rect width="15.0698" height="12.1531" fill="white" transform="translate(129.433 87.6328) rotate(70.618)"/>
</clipPath>
<clipPath id="clip6_4337_9959">
<rect width="12.1177" height="12.8751" fill="white" transform="translate(89.3682 75.7358)"/>
</clipPath>
<clipPath id="clip7_4337_9959">
<rect width="9.84563" height="10.603" fill="white" transform="translate(74.2207 36.3701) rotate(-22.7256)"/>
</clipPath>
<clipPath id="clip8_4337_9959">
<rect width="16.6618" height="9.08827" fill="white" transform="translate(118.147 53.3174) rotate(-28.2095)"/>
</clipPath>
<clipPath id="clip9_4337_9959">
<rect width="53.7723" height="152.229" fill="white" transform="translate(141.626 42.4121)"/>
</clipPath>
</defs>
</svg>
