<svg width="241" height="200" viewBox="0 0 241 200" fill="none" xmlns="http://www.w3.org/2000/svg">
    <g clip-path="url(#clip0_1441_10694)">
        <path opacity="0.4" fill-rule="evenodd" clip-rule="evenodd" d="M209.69 200C228.64 178.77 240.15 150.77 240.15 120.08C240.15 53.76 186.39 0 120.08 0C53.77 0 0 53.76 0 120.08C0 150.77 11.52 178.77 30.46 200H209.69Z" fill="#CCEAFF"/>
        <path d="M214.8 200H25.3497C23.8897 200 22.7197 198.8 22.7197 197.34C22.7197 195.88 23.8897 194.68 25.3497 194.68H214.8C216.26 194.68 217.43 195.88 217.43 197.34C217.43 198.8 216.26 200 214.8 200Z" fill="#C4C4C4"/>
        <path d="M94.1798 196.38C87.8998 196.38 82.7998 191.26 82.7998 184.98V33.11C82.7998 26.82 87.9098 21.71 94.1798 21.71H163.51C169.79 21.71 174.89 26.83 174.89 33.11V185C174.89 191.29 169.78 196.4 163.51 196.4H94.1798V196.37V196.38Z" fill="#13220F"/>
        <path d="M171.3 33.6699V173.37C171.3 177.49 167.94 180.85 163.83 180.85H93.8304C89.7104 180.85 86.3604 177.49 86.3604 173.37V33.6699C86.3604 29.5499 89.7204 26.1899 93.8304 26.1899H163.83C167.98 26.1899 171.3 29.5499 171.3 33.6699Z" fill="url(#paint0_linear_1441_10694)"/>
        <path d="M123.68 140.24C123.68 139.49 124.11 138.88 124.65 138.88H133.26C133.8 138.88 134.23 139.49 134.23 140.24L133.31 150.79C133.31 151.54 132.88 152.15 132.34 152.15H125.57C125.04 152.15 124.6 151.54 124.6 150.79L123.68 140.24Z" fill="#1B8158"/>
        <path d="M148.62 61.1401L139.02 137.62C139 137.77 138.93 137.91 138.82 138.01L135.76 140.79C135.64 140.9 135.49 140.95 135.33 140.95H122.35C122.19 140.95 122.03 140.9 121.92 140.79L118.86 138.01C118.74 137.91 118.67 137.77 118.65 137.62L109.05 61.1401V61.0601C109.05 61.0601 109.05 61.1101 109.06 61.1401H148.62Z" fill="white"/>
        <path d="M148.62 55.5199V61.0599C148.62 61.0599 148.61 61.1099 148.61 61.1399H109.05C109.05 61.1399 109.04 61.0799 109.04 61.0599V55.5199C109.04 55.1699 109.33 54.8799 109.68 54.8799H147.98C148.33 54.8799 148.62 55.1699 148.62 55.5199Z" fill="#1B8158"/>
        <path d="M137.74 88.0498H136.79V96.8898H137.74V88.0498Z" fill="black"/>
        <path d="M136.02 88.0498H134.479V96.8898H136.02V88.0498Z" fill="black"/>
        <path d="M134.06 88.0498H133.08V96.8898H134.06V88.0498Z" fill="black"/>
        <path d="M132.479 88.0498H130.979V96.8898H132.479V88.0498Z" fill="black"/>
        <path d="M130.54 88.0498H129.56V96.8898H130.54V88.0498Z" fill="black"/>
        <path d="M128.719 88.0498H127.199V96.8898H128.719V88.0498Z" fill="black"/>
        <path d="M126.759 88.0498H125.779V96.8898H126.759V88.0498Z" fill="black"/>
        <path d="M125.08 88.0498H123.56V96.8898H125.08V88.0498Z" fill="black"/>
        <path d="M123.119 88.0498H122.149V96.8898H123.119V88.0498Z" fill="black"/>
        <path d="M120.95 88.0498H119.93V96.8898H120.95V88.0498Z" fill="black"/>
        <path d="M136.07 190.64H121.59C120.8 190.64 120.13 190 120.13 189.18C120.13 188.36 120.77 187.72 121.59 187.72H136.07C136.86 187.72 137.53 188.36 137.53 189.18C137.5 190 136.86 190.64 136.07 190.64Z" fill="#C7DFF2"/>
        <path d="M135.13 166.93C135.13 170.42 132.31 173.24 128.83 173.24C125.35 173.24 122.53 170.42 122.53 166.93C122.53 163.44 125.35 160.62 128.83 160.62C132.31 160.62 135.13 163.44 135.13 166.93Z" fill="#DF7F68" stroke="white" stroke-width="2"/>
        <path opacity="0.3" d="M90.1504 100.76H166.67V118.03C166.67 123.55 162.19 128.03 156.67 128.03H100.15C94.6304 128.03 90.1504 123.55 90.1504 118.03V100.76Z" fill="white"/>
        <path d="M149.98 65.1499H159.12C160.99 65.1499 162.51 66.6699 162.51 68.5399V76.0499" stroke="white" stroke-width="2.4" stroke-miterlimit="10" stroke-linecap="round"/>
        <path d="M94.7002 112.53V120.02C94.7002 121.89 96.2202 123.41 98.0902 123.41H107.23" stroke="white" stroke-width="2.4" stroke-miterlimit="10" stroke-linecap="round"/>
        <path d="M94.7002 76.0599V68.5799C94.7002 66.7099 96.2202 65.1899 98.0902 65.1899H107.23" stroke="white" stroke-width="2.4" stroke-miterlimit="10" stroke-linecap="round"/>
        <path d="M162.53 112.53V120.02C162.53 121.89 161.01 123.41 159.14 123.41H150" stroke="white" stroke-width="2.4" stroke-miterlimit="10" stroke-linecap="round"/>
        <path d="M107.17 76.0098C107.57 75.7798 107.67 75.5198 107.61 75.2598C107.54 74.9998 107.31 74.7798 107.3 74.7298C107.29 74.6798 107.4 74.5898 107.4 74.5898C107.65 74.4598 107.66 74.0498 107.58 73.8598C107.5 73.6598 107.17 73.4198 107.02 73.4098C106.85 73.3898 106.83 73.3098 106.83 73.3098C106.87 73.0398 106.41 72.3598 106.09 72.3398C105.77 72.3298 104.51 72.9498 104.36 72.9398C104.2 72.9398 103.93 72.8998 103.75 72.9898C103.57 73.0698 102.01 73.2998 101.75 73.4198C101.49 73.5398 100.91 74.4098 100.49 74.7998C100.06 75.1898 99.6101 76.1498 99.4801 76.3998C99.4001 76.5398 98.8101 76.8498 98.3301 77.0698C97.9301 77.2598 86.2801 81.8998 82.8101 83.6898L78.4101 70.5298L71.4201 73.2098C71.3501 73.1398 74.4301 87.9298 78.7201 89.8498C83.4701 91.9698 98.6701 81.3298 100.2 80.2398C100.62 80.0798 101.03 79.9298 101.11 79.9298C101.28 79.9298 102.23 79.6098 102.3 79.5698C102.37 79.5298 102.77 79.5298 102.94 79.5298C103.11 79.5298 104.86 78.6198 105.15 78.4798C105.44 78.3398 105.97 77.8398 105.97 77.8398L107.11 77.1798C107.95 76.6798 107.19 75.9898 107.19 75.9898L107.17 76.0098Z" fill="#F48C7F"/>
        <path d="M82.16 58.84C82.8 55.95 83.42 53.05 81.74 49.89C80.38 47.32 78.03 45.86 75.31 45.53C67.6 44.61 69.24 51.77 58.47 53.32C55.12 53.81 52.01 54.27 49.21 55.92C44.16 58.91 42.25 63.71 45.6 71.53C53.79 90.67 73.91 74.42 76.39 70.65C78.25 67.86 81.74 60.7 82.15 58.84H82.16Z" fill="#13220F"/>
        <path d="M51.3301 179.74C51.3301 179.74 50.7801 185.29 49.3801 186.3C47.9601 187.31 46.0801 191.08 47.0301 193.12C47.3301 193.75 47.9201 194.12 48.5801 194.33C50.5601 194.94 52.6701 193.91 53.5201 192.03C53.9901 190.98 54.4101 189.57 54.4901 187.81C54.7101 183.3 56.1101 181.01 56.1101 181.01L51.3401 179.75L51.3301 179.74Z" fill="#F7A491"/>
        <path d="M73.0197 182.01C73.0197 182.01 73.4597 187.61 73.0997 189.42C72.9097 190.4 71.8297 192.4 72.3197 193.31C72.8097 194.23 73.3797 194.46 73.3797 194.46L86.1797 194.66C86.8797 194.67 86.4197 194.23 85.8597 193.81C84.9397 193.14 84.1897 192.69 81.2597 191.28C81.0697 191.18 80.3697 190.74 80.1197 190.6C79.4797 190.22 78.8397 189.61 78.2897 188.99C77.3697 187.98 77.2897 183.05 77.2897 183.05L73.0297 182.01H73.0197Z" fill="#F7A491"/>
        <path d="M83.0203 107.64C83.0203 107.64 84.6303 116.72 83.5703 122.67C82.5103 128.62 77.4303 183.83 77.4303 183.83L71.7803 184.14C71.7803 184.14 70.5903 161.08 70.8103 157.88C71.0303 154.67 72.6903 149.3 72.6903 149.3L72.1303 130.69L79.2503 106.23L83.0203 107.64Z" fill="#035B52"/>
        <path d="M66.4299 105.73C66.4299 105.73 61.9799 112.38 60.9299 117.86C59.8699 123.36 61.7099 140.26 59.6699 147.45C58.5699 151.35 54.3899 157.38 53.7599 162.41C53.1199 167.44 50.6299 180.65 50.6299 180.65L56.2699 181.76L69.3799 148.79L79.6699 119L82.3099 103.66L66.4399 105.72L66.4299 105.73Z" fill="#1C907D"/>
        <path d="M70.03 67.9399C70.03 67.9399 66.13 68.3799 63.81 70.8999C61.48 73.4199 67.58 93.6699 68.01 96.8799C68.43 100.09 64.54 107.57 64.54 107.57C64.54 107.57 79.09 110.24 83.03 107.65C83.03 107.65 83.45 84.5899 83.03 82.2999C82.61 80.0099 79.08 70.6899 78.23 69.7699C77.38 68.8499 70.03 67.9399 70.03 67.9399Z" fill="#F9CA58"/>
        <path d="M93.5302 73.6198L92.4102 73.2398L95.7102 63.5298C96.3302 63.7298 96.6601 64.3998 96.4501 65.0198L93.5201 73.6198H93.5302Z" fill="#184655"/>
        <path d="M64.1903 72.6899C64.4203 71.5199 65.6303 70.8199 66.7703 71.1499C68.3403 71.5999 70.5603 72.5599 71.8303 74.5099C73.9603 77.7799 81.3903 88.9999 83.2603 89.2099C85.1403 89.4398 90.8903 75.6099 90.8903 75.6099C90.8903 75.6099 90.3903 73.3698 90.8503 71.9898C91.3203 70.6198 93.0203 69.0199 93.3703 69.4399C93.7103 69.8599 92.5303 71.1699 92.5503 71.3999C92.5703 71.6299 93.1603 71.7099 93.8703 71.1499C94.5803 70.5999 94.8803 69.6199 94.8803 69.6199C94.8803 69.6199 96.4403 71.7398 95.3703 73.9498C94.3003 76.1698 93.8503 77.0598 93.8503 77.0598C93.8503 77.0598 87.7003 97.1699 84.5803 97.7999C81.6903 98.3999 62.4003 81.9299 64.1903 72.6799V72.6899Z" fill="#F7A491"/>
        <path d="M71.9999 60.13C71.9999 60.13 71.9599 60.3 71.9199 60.6C71.6599 62.01 70.6499 66.66 69.9699 67.95C69.1399 69.5 72.7899 74.44 76.2999 73.83C77.3399 73.65 75.4099 69.3 75.5099 68.83C75.6899 67.95 75.9299 66.74 76.1699 65.5C76.3099 64.81 76.4499 64.09 76.5799 63.44C76.9499 61.55 77.2599 60 77.2599 60L72.0099 60.13H71.9999Z" fill="#F7A491"/>
        <path d="M71.8997 60.5902C71.9597 60.2902 71.9797 60.1202 71.9797 60.1202L77.2397 59.9902C77.2397 59.9902 76.9297 61.5302 76.5597 63.4302C76.4297 64.0902 76.2797 64.7902 76.1497 65.4802C75.3297 65.3602 74.4797 64.9702 73.6297 64.2302C72.7097 63.4202 72.0997 62.4502 71.7197 61.4102C71.7897 61.0902 71.8497 60.8002 71.8897 60.5902H71.8997Z" fill="#F47458"/>
        <path d="M75.1501 47.6802C75.1501 47.6802 73.0001 47.9802 71.4401 49.9702C69.8801 51.9602 68.2101 58.1402 72.0801 61.5002C75.9401 64.8502 79.7501 61.0602 80.3201 57.0302C80.9001 53.0102 80.7901 47.5402 75.1501 47.6902V47.6802Z" fill="#F7A491"/>
        <path d="M81.5702 55.6499C81.1102 56.5399 80.3302 57.0299 79.8402 56.7499C79.3502 56.4599 79.3202 55.5199 79.7802 54.6299C80.2402 53.7399 81.0202 53.2499 81.5102 53.5299C82.0002 53.8199 82.0402 54.7699 81.5702 55.6499Z" fill="#F7A491"/>
        <path d="M75.8104 47.5899C75.8104 47.5899 72.5004 53.4599 70.1304 53.7299C67.7604 53.9999 67.4404 57.1199 67.4404 57.1199C67.4404 57.1199 68.2904 49.9399 70.6404 48.5499C72.9804 47.1699 75.8104 47.5799 75.8104 47.5799V47.5899Z" fill="#13220F"/>
        <path d="M70.9103 55.1401C71.1003 56.1801 70.7203 57.1401 70.0503 57.2801C69.3803 57.4101 68.6803 56.6801 68.4903 55.6501C68.3003 54.6101 68.6803 53.6501 69.3503 53.5101C70.0103 53.3701 70.7203 54.0901 70.9103 55.1401Z" fill="#F7A491"/>
        <path d="M53.8999 191.04C50.8299 191.6 48.7799 189.81 47.7099 188.47C46.9299 189.98 46.4499 191.87 47.0299 193.12C47.5299 194.22 48.9099 194.52 50.0799 194.56C51.3199 194.61 52.4699 193.96 53.0799 192.9C53.3699 192.4 53.6599 191.78 53.9099 191.03L53.8999 191.04Z" fill="#13220F"/>
        <path d="M80.1104 190.61C76.7304 191.47 74.2204 190.88 72.8204 190.32C72.4604 191.33 71.9804 192.61 72.2304 193.35C72.5404 194.25 72.9904 194.45 73.3704 194.46C76.4604 194.54 84.6904 194.65 87.0504 194.69C87.3704 194.69 87.5704 194.31 87.3504 194.06C86.7704 193.37 80.3604 190.77 80.1104 190.61Z" fill="#13220F"/>
        <path d="M73.75 58.1901L76.76 58.1401C76.76 58.1401 76.71 59.3001 75.38 59.3601C73.77 59.4401 73.75 58.1901 73.75 58.1901Z" fill="white"/>
        <path d="M99.9603 81.3396C100.01 81.2296 100.12 81.1696 100.2 81.1996L101.48 81.7996C101.56 81.8396 101.58 81.9596 101.53 82.0696L100.66 83.5796C100.61 83.6896 100.5 83.7496 100.42 83.7196L99.4103 83.2496C99.3303 83.2096 99.3103 83.0896 99.3603 82.9796L99.9603 81.3396Z" fill="#1B8158"/>
        <path d="M109.17 71.2698L102.42 82.0098C102.42 82.0098 102.39 82.0498 102.36 82.0498L101.71 82.2498C101.71 82.2498 101.66 82.2498 101.63 82.2498L99.6904 81.3498C99.6904 81.3498 99.6504 81.3198 99.6404 81.2998L99.3804 80.6698C99.3804 80.6698 99.3704 80.6198 99.3804 80.5998L103.26 68.5298L109.16 71.2798L109.17 71.2698Z" fill="white"/>
        <path d="M109.56 70.4399L109.18 71.2699C109.18 71.2699 109.18 71.2699 109.18 71.2799L103.28 68.5299C103.28 68.5299 103.28 68.5299 103.28 68.5199L103.66 67.6899C103.68 67.6399 103.75 67.6099 103.8 67.6399L109.51 70.2999C109.56 70.3199 109.59 70.3899 109.56 70.4399Z" fill="#1B8158"/>
        <path d="M105.837 73.8474L105.692 73.7798L105.08 75.094L105.225 75.1616L105.837 73.8474Z" fill="black"/>
        <path d="M105.57 73.7204L105.344 73.6147L104.731 74.929L104.958 75.0346L105.57 73.7204Z" fill="black"/>
        <path d="M105.289 73.5891L105.144 73.5215L104.531 74.8357L104.676 74.9033L105.289 73.5891Z" fill="black"/>
        <path d="M105.055 73.4743L104.828 73.3687L104.216 74.6829L104.442 74.7885L105.055 73.4743Z" fill="black"/>
        <path d="M104.763 73.3386L104.618 73.271L104.006 74.5852L104.151 74.6528L104.763 73.3386Z" fill="black"/>
        <path d="M104.497 73.2218L104.271 73.1162L103.658 74.4305L103.885 74.5361L104.497 73.2218Z" fill="black"/>
        <path d="M104.206 73.0764L104.061 73.0088L103.448 74.323L103.593 74.3906L104.206 73.0764Z" fill="black"/>
        <path d="M103.944 72.963L103.718 72.8574L103.105 74.1717L103.332 74.2773L103.944 72.963Z" fill="black"/>
        <path d="M103.662 72.8318L103.517 72.7642L102.904 74.0784L103.049 74.146L103.662 72.8318Z" fill="black"/>
        <path d="M103.326 72.6763L103.172 72.6045L102.559 73.9187L102.713 73.9906L103.326 72.6763Z" fill="black"/>
    </g>
    <defs>
        <linearGradient id="paint0_linear_1441_10694" x1="89.3004" y1="25.0399" x2="165.06" y2="175.42" gradientUnits="userSpaceOnUse">
            <stop stop-color="#CCEAFF"/>
            <stop offset="1" stop-color="#879DD1"/>
        </linearGradient>
        <clipPath id="clip0_1441_10694">
            <rect width="240.15" height="200" fill="white"/>
        </clipPath>
    </defs>
</svg>
