<svg width="241" height="200" viewBox="0 0 241 200" fill="none" xmlns="http://www.w3.org/2000/svg">
<path opacity="0.4" fill-rule="evenodd" clip-rule="evenodd" d="M209.689 200C228.636 178.771 240.152 150.768 240.152 120.076C240.152 53.7598 186.392 0 120.076 0C53.7598 0 0 53.7598 0 120.076C0 150.768 11.5157 178.771 30.4622 200H209.689Z" fill="#CCEAFF"/>
<g clip-path="url(#clip0_4337_9584)">
<path d="M15.2798 65.1512H77.2799C79.145 63.1768 80.4314 61.2661 80.3027 58.5911C80.1741 55.4703 77.4085 52.859 74.2571 52.2858C71.1699 51.7126 67.9542 52.859 65.3172 54.6424C66.089 48.2734 63.0662 41.968 57.4708 38.6562C51.8753 35.3443 44.3504 35.599 39.0122 39.3568C33.8027 43.0508 31.0371 49.993 32.2591 56.2983C30.8442 54.706 29.0433 53.3686 27.1139 52.3495C25.1844 51.3305 22.8691 50.8846 20.811 51.5852C18.2384 52.4132 16.4375 54.9608 15.7944 57.5721C15.0869 60.1834 15.0226 62.4762 15.2798 65.1512Z" fill="white"/>
</g>
<g clip-path="url(#clip1_4337_9584)">
<path d="M188.867 89.3941H234.361C235.508 87.7259 236.812 85.303 237.444 83.3567C238.077 81.4105 238.077 79.1465 236.97 77.4385C235.666 75.4128 233.017 74.539 230.685 74.9759C228.353 75.4128 226.298 76.9222 224.836 78.8287C226.654 73.9829 226.772 68.4222 224.124 63.9736C221.476 59.5251 215.587 56.983 210.883 59.0881C207.405 60.5975 205.191 64.2914 204.44 68.0647C203.689 71.8381 204.124 75.6909 204.559 79.5039C201.753 75.7306 195.705 74.9759 191.634 77.3591C187.602 79.7025 187.049 85.0647 188.867 89.3941Z" fill="white"/>
</g>
<path d="M214.797 200H25.3546C23.8951 200 22.7275 198.801 22.7275 197.339C22.7275 195.877 23.8951 194.679 25.3546 194.679H214.797C216.257 194.679 217.424 195.877 217.424 197.339C217.424 198.801 216.257 200 214.797 200Z" fill="#C4C4C4"/>
<path d="M94.1839 196.375C87.908 196.375 82.7998 191.258 82.7998 184.972V33.1121C82.7998 26.8261 87.908 21.7095 94.1839 21.7095H163.51C169.786 21.7095 174.894 26.8261 174.894 33.1121V185.001C174.894 191.288 169.786 196.404 163.51 196.404H94.1839V196.375Z" fill="white"/>
<path d="M163.481 22.206C169.494 22.206 174.369 27.0887 174.369 33.1116V185.001C174.369 191.024 169.494 195.907 163.481 195.907H94.184C88.1709 195.907 83.2962 191.024 83.2962 185.001V33.1116C83.2962 27.0887 88.1709 22.206 94.184 22.206H163.481ZM163.481 21.2119H94.184C87.6455 21.2119 82.3037 26.5332 82.3037 33.1116V185.001C82.3037 191.55 87.6163 196.901 94.184 196.901H163.51C170.049 196.901 175.39 191.579 175.39 185.001V33.1116C175.361 26.5332 170.049 21.2119 163.481 21.2119Z" fill="#C3DEF4"/>
<path d="M171.304 33.6674V173.365C171.304 177.487 167.947 180.849 163.831 180.849H93.834C89.7182 180.849 86.3613 177.487 86.3613 173.365V33.6674C86.3613 29.5449 89.7182 26.1826 93.834 26.1826H163.831C167.976 26.1826 171.304 29.5449 171.304 33.6674Z" fill="url(#paint0_linear_4337_9584)"/>
<path d="M136.071 190.644H121.593C120.805 190.644 120.134 190.001 120.134 189.183C120.134 188.393 120.776 187.721 121.593 187.721H136.071C136.86 187.721 137.531 188.364 137.531 189.183C137.502 190.001 136.86 190.644 136.071 190.644Z" fill="#C7DFF2"/>
<path d="M135.13 166.932C135.13 170.419 132.309 173.242 128.833 173.242C125.356 173.242 122.535 170.419 122.535 166.932C122.535 163.446 125.356 160.623 128.833 160.623C132.309 160.623 135.13 163.446 135.13 166.932Z" fill="#DF7F68" stroke="white" stroke-width="2"/>
<path fill-rule="evenodd" clip-rule="evenodd" d="M132.744 59.7285L128.745 59.7578H124.746V64.2896L128.774 64.2603H132.744V59.7285Z" fill="#1B8158"/>
<path fill-rule="evenodd" clip-rule="evenodd" d="M133.94 59.7285L128.745 59.7578H123.549V61.1904H128.774L133.94 61.1612V59.7285Z" fill="#1B8158"/>
<path fill-rule="evenodd" clip-rule="evenodd" d="M133.065 59.7283H128.745H124.395C123.928 59.7283 123.52 59.319 123.52 58.8512V55.4596C123.52 54.9626 123.928 54.5825 124.395 54.5825H128.745H133.065C133.532 54.5825 133.94 54.9626 133.94 55.4596V58.8512C133.94 59.319 133.532 59.7283 133.065 59.7283Z" fill="#074674"/>
<path fill-rule="evenodd" clip-rule="evenodd" d="M128.862 129.957C139.312 141.389 144.011 121.069 138.465 110.485C138.057 110.719 138.436 93.8488 138.436 85.3991C141.267 77.8266 139.662 68.9091 132.627 64.2896C131.314 64.2896 130.029 64.2896 128.745 64.2896C127.431 64.2896 126.147 64.2896 124.834 64.2896C117.828 68.9383 116.222 77.885 119.083 85.4283C119.083 93.878 119.521 110.748 119.112 110.514C113.683 121.098 118.412 141.418 128.862 129.957Z" fill="#1B8158"/>
<path d="M138.824 86.5818L118.369 86.6113L118.399 107.066L138.853 107.036L138.824 86.5818Z" fill="#074674"/>
<rect opacity="0.2" x="90.1514" y="60.606" width="76.5152" height="67.4242" rx="10" fill="white"/>
<path opacity="0.3" d="M90.1514 100.758H166.667V118.031C166.667 123.553 162.189 128.031 156.667 128.031H100.151C94.6285 128.031 90.1514 123.553 90.1514 118.031V100.758Z" fill="white"/>
<path d="M149.982 65.1514H159.119C160.987 65.1514 162.505 66.6717 162.505 68.5429V76.057" stroke="white" stroke-width="2.4" stroke-miterlimit="10" stroke-linecap="round"/>
<path d="M94.6973 112.533V120.018C94.6973 121.889 96.2151 123.409 98.0833 123.409H107.22" stroke="white" stroke-width="2.4" stroke-miterlimit="10" stroke-linecap="round"/>
<path d="M94.6973 76.058V68.5732C94.6973 66.702 96.2151 65.1816 98.0833 65.1816H107.22" stroke="white" stroke-width="2.4" stroke-miterlimit="10" stroke-linecap="round"/>
<path d="M162.534 112.533V120.018C162.534 121.889 161.016 123.409 159.148 123.409H150.012" stroke="white" stroke-width="2.4" stroke-miterlimit="10" stroke-linecap="round"/>
<path d="M107.169 76.0089C107.565 75.7822 107.673 75.5197 107.613 75.2572C107.541 74.9947 107.313 74.7799 107.301 74.7322C107.289 74.6845 107.397 74.589 107.397 74.589C107.649 74.4578 107.661 74.0521 107.577 73.8612C107.493 73.6583 107.169 73.4197 107.013 73.4078C106.845 73.3839 106.821 73.3123 106.821 73.3123C106.857 73.0379 106.402 72.3578 106.078 72.3459C105.754 72.3339 104.495 72.9544 104.351 72.9424C104.195 72.9424 103.919 72.9066 103.739 72.9902C103.559 73.0737 102.001 73.3004 101.737 73.4197C101.473 73.539 100.897 74.41 100.478 74.8038C100.046 75.1975 99.6022 76.1521 99.4703 76.4027C99.3863 76.5458 98.7987 76.8561 98.3191 77.0708C97.9233 77.2617 86.2673 81.9032 82.8017 83.693L78.4007 70.5322L71.4094 73.2169C71.3375 73.1453 74.4194 87.9407 78.7125 89.8617C83.4612 91.9855 98.6668 81.3424 100.19 80.2566C100.61 80.1015 101.017 79.9464 101.101 79.9464C101.269 79.9464 102.216 79.6242 102.288 79.5884C102.36 79.5526 102.756 79.5526 102.924 79.5526C103.092 79.5526 104.843 78.6458 105.13 78.5026C105.418 78.3595 105.946 77.8583 105.946 77.8583L107.085 77.2021C107.925 76.7009 107.169 76.0089 107.169 76.0089Z" fill="#F48C7F"/>
<path d="M82.1646 58.8396C82.8002 55.9521 83.4237 53.0527 81.7449 49.8908C80.3898 47.3254 78.0394 45.8578 75.3173 45.5357C67.6065 44.6169 69.2494 51.776 58.4808 53.3271C55.1351 53.8163 52.0172 54.2817 49.2231 55.9282C44.1745 58.9231 42.2678 63.7197 45.6136 71.535C53.804 90.6735 73.9262 74.4225 76.4085 70.652C78.2673 67.86 81.7569 60.7009 82.1646 58.8396Z" fill="#13220F"/>
<path d="M51.3346 179.743C51.3346 179.743 50.783 185.291 49.38 186.306C47.9649 187.32 46.0822 191.09 47.0296 193.131C47.3294 193.763 47.917 194.133 48.5765 194.336C50.5552 194.944 52.6657 193.918 53.5171 192.033C53.9848 190.983 54.4045 189.575 54.4885 187.809C54.7043 183.299 56.1074 181.008 56.1074 181.008L51.3346 179.743Z" fill="#F7A491"/>
<path d="M73.016 182.011C73.016 182.011 73.4597 187.607 73.1 189.42C72.9081 190.399 71.8289 192.403 72.3205 193.31C72.8122 194.229 73.3758 194.456 73.3758 194.456L86.1711 194.658C86.8666 194.67 86.4109 194.229 85.8473 193.811C84.9239 193.143 84.1804 192.69 81.2424 191.282C81.0506 191.186 80.355 190.745 80.1032 190.602C79.4676 190.22 78.8201 189.611 78.2685 188.991C77.3451 187.977 77.2731 183.049 77.2731 183.049L73.016 182.011Z" fill="#F7A491"/>
<path d="M83.0171 107.64C83.0171 107.64 84.624 116.72 83.5687 122.674C82.5134 128.628 77.4289 183.836 77.4289 183.836L71.7808 184.146C71.7808 184.146 70.5936 161.082 70.8094 157.884C71.0253 154.675 72.6921 149.306 72.6921 149.306L72.1285 130.692L79.2517 106.232L83.0171 107.64Z" fill="#035B52"/>
<path d="M66.4331 105.731C66.4331 105.731 61.9842 112.377 60.9289 117.866C59.8736 123.366 61.7084 140.262 59.6698 147.457C58.5665 151.358 54.3934 157.384 53.7578 162.419C53.1222 167.454 50.6279 180.663 50.6279 180.663L56.2641 181.772L69.3711 148.805L79.6601 119.011L82.2983 103.667L66.4331 105.731Z" fill="#1C907D"/>
<path d="M70.0299 67.9434C70.0299 67.9434 66.1326 68.3848 63.8061 70.9024C61.4797 73.42 67.5716 93.6682 68.0033 96.8779C68.423 100.088 64.5376 107.569 64.5376 107.569C64.5376 107.569 79.0837 110.241 83.029 107.652C83.029 107.652 83.4487 84.5882 83.029 82.2973C82.6093 80.0064 79.0837 70.6877 78.2323 69.7689C77.3809 68.8502 70.0299 67.9434 70.0299 67.9434Z" fill="#F9CA58"/>
<path d="M93.5342 73.6226L92.4189 73.2408L95.7167 63.5283C96.3403 63.7312 96.6641 64.3993 96.4602 65.0198L93.5342 73.6226Z" fill="#184655"/>
<path d="M64.1904 72.6919C64.4182 71.5226 65.6294 70.8187 66.7686 71.1527C68.3396 71.6062 70.558 72.5607 71.8292 74.5175C73.9637 77.7868 81.3867 89.0027 83.2574 89.2174C85.1401 89.4441 90.8842 75.6152 90.8842 75.6152C90.8842 75.6152 90.3805 73.3721 90.8482 71.9999C91.3159 70.6277 93.0187 69.0289 93.3665 69.4465C93.7022 69.8641 92.5271 71.1766 92.551 71.4033C92.575 71.63 93.1626 71.7135 93.8701 71.1527C94.5777 70.6039 94.8775 69.6255 94.8775 69.6255C94.8775 69.6255 96.4364 71.7493 95.3691 73.9567C94.3018 76.176 93.8462 77.0709 93.8462 77.0709C93.8462 77.0709 87.6943 97.1759 84.5765 97.8083C81.6864 98.4049 62.3916 81.9391 64.1904 72.6919Z" fill="#F7A491"/>
<path d="M71.9972 60.1278C71.9972 60.1278 71.9612 60.2949 71.9132 60.5932C71.6494 62.0011 70.6421 66.6545 69.9586 67.9431C69.1311 69.4943 72.7766 74.434 76.2902 73.8255C77.3335 73.6465 75.4029 69.2914 75.4988 68.8261C75.6787 67.9431 75.9185 66.738 76.1583 65.4971C76.3022 64.8051 76.4341 64.0892 76.5661 63.4329C76.9378 61.5477 77.2496 59.9966 77.2496 59.9966L71.9972 60.1278Z" fill="#F7A491"/>
<path d="M71.9013 60.5932C71.9612 60.2949 71.9852 60.1278 71.9852 60.1278L77.2496 59.9966C77.2496 59.9966 76.9378 61.5358 76.5661 63.4329C76.4342 64.0892 76.2903 64.7932 76.1584 65.4852C75.3429 65.3659 74.4915 64.9721 73.6401 64.2324C72.7167 63.421 72.1051 62.4545 71.7334 61.4165C71.8053 61.0943 71.8653 60.8079 71.9013 60.5932Z" fill="#F47458"/>
<path d="M75.151 47.6829C75.151 47.6829 73.0045 47.9812 71.4455 49.9738C69.8866 51.9664 68.2198 58.1471 72.0811 61.4999C75.9425 64.8527 79.7559 61.0584 80.3195 57.0255C80.8951 53.0045 80.7872 47.5398 75.151 47.6829Z" fill="#F7A491"/>
<path d="M81.5659 55.6534C81.1102 56.5483 80.3307 57.0375 79.8391 56.7511C79.3474 56.4648 79.3234 55.5222 79.7791 54.6273C80.2348 53.7324 81.0143 53.2432 81.5059 53.5296C81.9976 53.8159 82.0336 54.7705 81.5659 55.6534Z" fill="#F7A491"/>
<path d="M75.8107 47.5875C75.8107 47.5875 72.501 53.4579 70.1266 53.7323C67.7522 54.0068 67.4404 57.1209 67.4404 57.1209C67.4404 57.1209 68.2918 49.938 70.6422 48.5539C72.9806 47.1699 75.8107 47.5875 75.8107 47.5875Z" fill="#13220F"/>
<path d="M70.9053 55.1399C71.0972 56.178 70.7135 57.1445 70.0419 57.2757C69.3704 57.407 68.6749 56.6791 68.483 55.6411C68.2911 54.603 68.6749 53.6365 69.3464 53.5053C70.0059 53.3621 70.7135 54.0899 70.9053 55.1399Z" fill="#F7A491"/>
<path d="M53.9013 191.043C50.8314 191.604 48.7808 189.814 47.7135 188.478C46.9341 189.993 46.4544 191.878 47.03 193.131C47.5336 194.229 48.9127 194.527 50.0759 194.575C51.3111 194.622 52.4623 193.978 53.0739 192.916C53.3617 192.415 53.6495 191.795 53.9013 191.043Z" fill="#13220F"/>
<path d="M80.1148 190.613C76.7331 191.472 74.2268 190.887 72.8238 190.327C72.464 191.341 71.9844 192.618 72.2362 193.357C72.548 194.252 72.9917 194.455 73.3754 194.467C76.4693 194.551 84.6957 194.658 87.0581 194.694C87.3819 194.694 87.5737 194.312 87.3579 194.061C86.7823 193.369 80.3667 190.768 80.1148 190.613Z" fill="#13220F"/>
<path d="M73.748 58.1947L76.758 58.147C76.758 58.147 76.71 59.3044 75.3789 59.364C73.772 59.4475 73.748 58.1947 73.748 58.1947Z" fill="white"/>
<path fill-rule="evenodd" clip-rule="evenodd" d="M105.627 62.7128L104.196 62.5666L102.795 62.4204L102.62 63.9992L104.05 64.1454L105.452 64.2916L105.627 62.7128Z" fill="#1B8158"/>
<path fill-rule="evenodd" clip-rule="evenodd" d="M106.035 62.7419L104.196 62.5665L102.386 62.3618L102.328 62.8589L104.167 63.0635L105.977 63.2389L106.035 62.7419Z" fill="#1B8158"/>
<path fill-rule="evenodd" clip-rule="evenodd" d="M105.714 62.7126L104.196 62.5664L102.678 62.4202C102.503 62.391 102.386 62.2448 102.416 62.0694L102.532 60.8706C102.562 60.6952 102.708 60.5783 102.883 60.6075L104.401 60.7537L105.918 60.8999C106.094 60.9291 106.21 61.0753 106.181 61.2507L106.064 62.4495C106.035 62.5957 105.889 62.7419 105.714 62.7126Z" fill="#074674"/>
<path fill-rule="evenodd" clip-rule="evenodd" d="M101.686 87.2429C104.955 91.6285 107.32 84.67 105.772 80.7522C105.627 80.8106 106.385 74.9046 106.677 71.9224C107.962 69.3787 107.699 66.1626 105.422 64.2914C104.955 64.2329 104.517 64.2037 104.05 64.1452C103.583 64.0867 103.145 64.0575 102.678 63.999C100.051 65.3732 99.1463 68.4724 99.8761 71.2207C99.5842 74.2029 99.1172 80.1382 98.9712 80.0505C96.6652 83.5882 97.5993 90.8976 101.686 87.2429Z" fill="#1B8158"/>
<path d="M99.8523 71.6242L99.1191 78.7793L105.856 79.4719L106.589 72.3168L99.8523 71.6242Z" fill="#074674"/>
<defs>
<linearGradient id="paint0_linear_4337_9584" x1="86.3636" y1="26.5152" x2="162.121" y2="176.894" gradientUnits="userSpaceOnUse">
<stop stop-color="#CCEAFF"/>
<stop offset="1" stop-color="#879DD1"/>
</linearGradient>
<clipPath id="clip0_4337_9584">
<rect width="65.1515" height="28.7879" fill="white" transform="translate(15.1514 36.3638)"/>
</clipPath>
<clipPath id="clip1_4337_9584">
<rect width="50" height="31.0606" fill="white" transform="translate(187.879 58.3335)"/>
</clipPath>
</defs>
</svg>
