<svg width="24" height="24" viewBox="0 0 24 24" fill="none" xmlns="http://www.w3.org/2000/svg">
<rect x="4" y="6" width="16.8" height="12" rx="2" fill="white"/>
<mask id="mask0_4337_7377" style="mask-type:alpha" maskUnits="userSpaceOnUse" x="4" y="6" width="17" height="12">
<rect x="4" y="6" width="16.8" height="12" rx="2" fill="white"/>
</mask>
<g mask="url(#mask0_4337_7377)">
<path fill-rule="evenodd" clip-rule="evenodd" d="M20.8 6H4V6.8H20.8V6ZM20.8 7.60011H4V8.40011H20.8V7.60011ZM4 9.19989H20.8V9.99989H4V9.19989ZM20.8 10.8H4V11.6H20.8V10.8ZM4 12.4001H20.8V13.2001H4V12.4001ZM20.8 13.9999H4V14.7999H20.8V13.9999ZM4 15.6H20.8V16.4H4V15.6ZM20.8 17.2001H4V18.0001H20.8V17.2001Z" fill="#D02F44"/>
<rect x="4" y="6" width="7.2" height="5.6" fill="#46467F"/>
<g filter="url(#filter0_d_4337_7377)">
<path fill-rule="evenodd" clip-rule="evenodd" d="M5.60078 7.1998C5.60078 7.42072 5.4217 7.5998 5.20078 7.5998C4.97987 7.5998 4.80078 7.42072 4.80078 7.1998C4.80078 6.97889 4.97987 6.7998 5.20078 6.7998C5.4217 6.7998 5.60078 6.97889 5.60078 7.1998ZM7.20055 7.1998C7.20055 7.42072 7.02147 7.5998 6.80055 7.5998C6.57964 7.5998 6.40055 7.42072 6.40055 7.1998C6.40055 6.97889 6.57964 6.7998 6.80055 6.7998C7.02147 6.7998 7.20055 6.97889 7.20055 7.1998ZM8.40101 7.5998C8.62192 7.5998 8.80101 7.42072 8.80101 7.1998C8.80101 6.97889 8.62192 6.7998 8.40101 6.7998C8.1801 6.7998 8.00101 6.97889 8.00101 7.1998C8.00101 7.42072 8.1801 7.5998 8.40101 7.5998ZM10.4008 7.1998C10.4008 7.42072 10.2217 7.5998 10.0008 7.5998C9.77987 7.5998 9.60078 7.42072 9.60078 7.1998C9.60078 6.97889 9.77987 6.7998 10.0008 6.7998C10.2217 6.7998 10.4008 6.97889 10.4008 7.1998ZM6.00101 8.39969C6.22192 8.39969 6.40101 8.2206 6.40101 7.99969C6.40101 7.77878 6.22192 7.59969 6.00101 7.59969C5.7801 7.59969 5.60101 7.77878 5.60101 7.99969C5.60101 8.2206 5.7801 8.39969 6.00101 8.39969ZM8.00078 7.99969C8.00078 8.2206 7.8217 8.39969 7.60078 8.39969C7.37987 8.39969 7.20078 8.2206 7.20078 7.99969C7.20078 7.77878 7.37987 7.59969 7.60078 7.59969C7.8217 7.59969 8.00078 7.77878 8.00078 7.99969ZM9.20055 8.39969C9.42147 8.39969 9.60055 8.2206 9.60055 7.99969C9.60055 7.77878 9.42147 7.59969 9.20055 7.59969C8.97964 7.59969 8.80055 7.77878 8.80055 7.99969C8.80055 8.2206 8.97964 8.39969 9.20055 8.39969ZM10.4008 8.79992C10.4008 9.02083 10.2217 9.19992 10.0008 9.19992C9.77987 9.19992 9.60078 9.02083 9.60078 8.79992C9.60078 8.579 9.77987 8.39992 10.0008 8.39992C10.2217 8.39992 10.4008 8.579 10.4008 8.79992ZM8.40101 9.19992C8.62192 9.19992 8.80101 9.02083 8.80101 8.79992C8.80101 8.579 8.62192 8.39992 8.40101 8.39992C8.1801 8.39992 8.00101 8.579 8.00101 8.79992C8.00101 9.02083 8.1801 9.19992 8.40101 9.19992ZM7.20055 8.79992C7.20055 9.02083 7.02147 9.19992 6.80055 9.19992C6.57964 9.19992 6.40055 9.02083 6.40055 8.79992C6.40055 8.579 6.57964 8.39992 6.80055 8.39992C7.02147 8.39992 7.20055 8.579 7.20055 8.79992ZM5.20078 9.19992C5.4217 9.19992 5.60078 9.02083 5.60078 8.79992C5.60078 8.579 5.4217 8.39992 5.20078 8.39992C4.97987 8.39992 4.80078 8.579 4.80078 8.79992C4.80078 9.02083 4.97987 9.19992 5.20078 9.19992ZM6.40101 9.5998C6.40101 9.82072 6.22192 9.9998 6.00101 9.9998C5.7801 9.9998 5.60101 9.82072 5.60101 9.5998C5.60101 9.37889 5.7801 9.1998 6.00101 9.1998C6.22192 9.1998 6.40101 9.37889 6.40101 9.5998ZM7.60078 9.9998C7.8217 9.9998 8.00078 9.82072 8.00078 9.5998C8.00078 9.37889 7.8217 9.1998 7.60078 9.1998C7.37987 9.1998 7.20078 9.37889 7.20078 9.5998C7.20078 9.82072 7.37987 9.9998 7.60078 9.9998ZM9.60055 9.5998C9.60055 9.82072 9.42147 9.9998 9.20055 9.9998C8.97964 9.9998 8.80055 9.82072 8.80055 9.5998C8.80055 9.37889 8.97964 9.1998 9.20055 9.1998C9.42147 9.1998 9.60055 9.37889 9.60055 9.5998ZM10.0008 10.7997C10.2217 10.7997 10.4008 10.6206 10.4008 10.3997C10.4008 10.1788 10.2217 9.99969 10.0008 9.99969C9.77987 9.99969 9.60078 10.1788 9.60078 10.3997C9.60078 10.6206 9.77987 10.7997 10.0008 10.7997ZM8.80101 10.3997C8.80101 10.6206 8.62192 10.7997 8.40101 10.7997C8.1801 10.7997 8.00101 10.6206 8.00101 10.3997C8.00101 10.1788 8.1801 9.99969 8.40101 9.99969C8.62192 9.99969 8.80101 10.1788 8.80101 10.3997ZM6.80055 10.7997C7.02147 10.7997 7.20055 10.6206 7.20055 10.3997C7.20055 10.1788 7.02147 9.99969 6.80055 9.99969C6.57964 9.99969 6.40055 10.1788 6.40055 10.3997C6.40055 10.6206 6.57964 10.7997 6.80055 10.7997ZM5.60078 10.3997C5.60078 10.6206 5.4217 10.7997 5.20078 10.7997C4.97987 10.7997 4.80078 10.6206 4.80078 10.3997C4.80078 10.1788 4.97987 9.99969 5.20078 9.99969C5.4217 9.99969 5.60078 10.1788 5.60078 10.3997Z" fill="url(#paint0_linear_4337_7377)"/>
</g>
</g>
<defs>
<filter id="filter0_d_4337_7377" x="4.80078" y="6.7998" width="5.59961" height="5" filterUnits="userSpaceOnUse" color-interpolation-filters="sRGB">
<feFlood flood-opacity="0" result="BackgroundImageFix"/>
<feColorMatrix in="SourceAlpha" type="matrix" values="0 0 0 0 0 0 0 0 0 0 0 0 0 0 0 0 0 0 127 0" result="hardAlpha"/>
<feOffset dy="1"/>
<feColorMatrix type="matrix" values="0 0 0 0 0 0 0 0 0 0 0 0 0 0 0 0 0 0 0.06 0"/>
<feBlend mode="normal" in2="BackgroundImageFix" result="effect1_dropShadow_4337_7377"/>
<feBlend mode="normal" in="SourceGraphic" in2="effect1_dropShadow_4337_7377" result="shape"/>
</filter>
<linearGradient id="paint0_linear_4337_7377" x1="4.80078" y1="6.7998" x2="4.80078" y2="10.7997" gradientUnits="userSpaceOnUse">
<stop stop-color="white"/>
<stop offset="1" stop-color="#F0F0F0"/>
</linearGradient>
</defs>
</svg>
