<svg width="30" height="30" viewBox="0 0 30 30" fill="none" xmlns="http://www.w3.org/2000/svg">
<g opacity="0.1">
<path d="M25 0H5C2.23858 0 0 2.23858 0 5V25C0 27.7614 2.23858 30 5 30H25C27.7614 30 30 27.7614 30 25V5C30 2.23858 27.7614 0 25 0Z" fill="#005C35"/>
</g>
<path d="M15.2002 7.52002C13.1402 7.52002 11.4902 9.18002 11.4902 11.23V13.24H12.9802V11.23C12.9802 9.99002 13.9902 8.99002 15.2202 8.99002C16.4502 8.99002 17.4602 9.99002 17.4602 11.23V13.24H18.9202V11.23C18.9202 9.17002 17.2602 7.52002 15.2102 7.52002" fill="#1B8158"/>
<path d="M19.5395 13.24H10.8795C9.98953 13.24 9.26953 13.96 9.26953 14.85V20.86C9.26953 21.75 9.98953 22.47 10.8795 22.47H19.5495C20.4395 22.47 21.1595 21.75 21.1595 20.86V14.85C21.1595 13.96 20.4395 13.24 19.5495 13.24M15.9195 18.06C15.9195 18.06 15.8595 18.12 15.8595 18.17V19.47C15.8595 19.78 15.6095 20.02 15.3095 20.02H15.1295C14.8195 20.02 14.5795 19.78 14.5795 19.47V18.17C14.5795 18.17 14.5695 18.09 14.5195 18.06C13.9795 17.71 13.7795 17.03 14.0395 16.45C14.2095 16.08 14.5295 15.81 14.9295 15.73C15.6195 15.58 16.3095 16.02 16.4595 16.71C16.5695 17.23 16.3495 17.77 15.9195 18.06Z" fill="#1B8158"/>
</svg>
