<svg width="30" height="30" viewBox="0 0 30 30" fill="none" xmlns="http://www.w3.org/2000/svg">
<g clip-path="url(#clip0_5453_17416)">
<g opacity="0.1">
<mask id="mask0_5453_17416" style="mask-type:luminance" maskUnits="userSpaceOnUse" x="0" y="0" width="30" height="30">
<path d="M30 0H0V30H30V0Z" fill="white"/>
</mask>
<g mask="url(#mask0_5453_17416)">
<path d="M25 0H5C2.23858 0 0 2.23858 0 5V25C0 27.7614 2.23858 30 5 30H25C27.7614 30 30 27.7614 30 25V5C30 2.23858 27.7614 0 25 0Z" fill="#005C35"/>
</g>
</g>
<path d="M14.7817 22.9467C18.8208 22.9467 22.124 19.7985 22.3729 15.8222C21.4518 15.5799 20.7336 14.8373 20.5266 13.9024C19.0069 13.823 17.7992 12.5658 17.7992 11.0264C17.7992 10.8974 17.8078 10.7704 17.8242 10.6459C16.8105 10.2682 16.0884 9.29161 16.0884 8.14631C16.0884 8.04541 16.0942 7.94591 16.1051 7.84791C15.6753 7.77251 15.2331 7.73291 14.7817 7.73291C10.5805 7.73291 7.1748 11.1386 7.1748 15.3398C7.1748 19.541 10.5805 22.9467 14.7817 22.9467ZM18.7877 17.1806C19.2868 17.1806 19.6914 17.5852 19.6914 18.0843C19.6914 18.5834 19.2868 18.988 18.7877 18.988C18.2886 18.988 17.884 18.5834 17.884 18.0843C17.884 17.5852 18.2886 17.1806 18.7877 17.1806ZM16.0884 13.1893C16.5875 13.1893 16.9921 13.5939 16.9921 14.093C16.9921 14.5921 16.5875 14.9967 16.0884 14.9967C15.5893 14.9967 15.1847 14.5921 15.1847 14.093C15.1847 13.5939 15.5893 13.1893 16.0884 13.1893ZM14.2424 19.2465C14.2424 19.7456 13.8378 20.1502 13.3387 20.1502C12.8396 20.1502 12.435 19.7456 12.435 19.2465C12.435 18.7474 12.8396 18.3428 13.3387 18.3428C13.8378 18.3428 14.2424 18.7474 14.2424 19.2465ZM12.435 11.2708C12.9341 11.2708 13.3387 11.6754 13.3387 12.1745C13.3387 12.6736 12.9341 13.0782 12.435 13.0782C11.9359 13.0782 11.5313 12.6736 11.5313 12.1745C11.5313 11.6754 11.9359 11.2708 12.435 11.2708ZM10.6275 15.5945C11.1266 15.5945 11.5312 15.9991 11.5312 16.4982C11.5312 16.9973 11.1266 17.4019 10.6275 17.4019C10.1284 17.4019 9.7238 16.9973 9.7238 16.4982C9.7238 15.9991 10.1284 15.5945 10.6275 15.5945Z" fill="#1B8158"/>
<path d="M21.6872 10.7504C21.9367 10.7504 22.139 10.5481 22.139 10.2985C22.139 10.0489 21.9367 9.84668 21.6872 9.84668C21.4377 9.84668 21.2354 10.049 21.2354 10.2985C21.2354 10.548 21.4377 10.7504 21.6872 10.7504Z" fill="#1B8158"/>
<path d="M19.6918 12.6116C20.0968 12.6116 20.4251 12.2833 20.4251 11.8783C20.4251 11.4733 20.0967 11.145 19.6918 11.145C19.2869 11.145 18.9585 11.4733 18.9585 11.8783C18.9585 12.2833 19.2868 12.6116 19.6918 12.6116Z" fill="#1B8158"/>
<path d="M22.8251 13.9601C22.8251 13.7105 22.6228 13.5083 22.3732 13.5083C22.1236 13.5083 21.9214 13.7106 21.9214 13.9601C21.9214 14.2096 22.1237 14.4119 22.3732 14.4119C22.6227 14.4119 22.8251 14.2096 22.8251 13.9601Z" fill="#1B8158"/>
<path d="M18.2884 7.05322C17.795 7.05322 17.395 7.45322 17.395 7.94662C17.395 8.44002 17.795 8.83992 18.2884 8.83992C18.7818 8.83992 19.1817 8.43992 19.1817 7.94662C19.1817 7.45332 18.7817 7.05322 18.2884 7.05322Z" fill="#1B8158"/>
</g>
<defs>
<clipPath id="clip0_5453_17416">
<rect width="30" height="30" fill="white"/>
</clipPath>
</defs>
</svg>
