<svg width="30" height="30" viewBox="0 0 30 30" fill="none" xmlns="http://www.w3.org/2000/svg">
<g opacity="0.1">
<path d="M25 0H5C2.23858 0 0 2.23858 0 5V25C0 27.7614 2.23858 30 5 30H25C27.7614 30 30 27.7614 30 25V5C30 2.23858 27.7614 0 25 0Z" fill="#005C35"/>
</g>
<path d="M15 7.5C10.86 7.5 7.5 10.86 7.5 15C7.5 19.14 10.86 22.5 15 22.5C19.14 22.5 22.5 19.14 22.5 15C22.5 10.86 19.14 7.5 15 7.5ZM14.99 9.43C15.82 9.43 16.48 10.11 16.48 10.92C16.48 11.73 15.82 12.41 14.99 12.41C14.16 12.41 13.5 11.74 13.5 10.92C13.5 10.1 14.17 9.43 14.99 9.43ZM17 20.55H13.01V18.66H13.62V15.71H13.01V13.84H16.39V18.66H17V20.55Z" fill="#1B8158"/>
</svg>
