<svg width="30" height="30" viewBox="0 0 30 30" fill="none" xmlns="http://www.w3.org/2000/svg">
<g opacity="0.1">
<path d="M25 0H5C2.23858 0 0 2.23858 0 5V25C0 27.7614 2.23858 30 5 30H25C27.7614 30 30 27.7614 30 25V5C30 2.23858 27.7614 0 25 0Z" fill="#005C35"/>
</g>
<path d="M22.2495 16.5399L20.6395 15.7499C20.5195 15.6799 20.4496 15.5599 20.4496 15.4199C20.4696 15.1599 20.4696 14.9099 20.4496 14.6499C20.4296 14.5099 20.4995 14.3699 20.6395 14.2999L22.2495 13.4799C22.4095 13.4099 22.4795 13.2199 22.4095 13.0599L21.6395 11.2199C21.5695 11.0599 21.3795 10.9599 21.2195 11.0299L19.5196 11.5899C19.3795 11.6399 19.2395 11.5899 19.1495 11.4999C18.9895 11.3099 18.7996 11.1299 18.6096 10.9599C18.4896 10.8699 18.4495 10.7299 18.4895 10.5899L19.0495 8.88994C19.0995 8.72994 19.0296 8.53994 18.8596 8.46994L17.0396 7.69994C16.8796 7.62994 16.6896 7.69994 16.6196 7.85994L15.8295 9.46994C15.7595 9.58994 15.6395 9.65994 15.4995 9.65994C15.2395 9.63994 14.9895 9.63994 14.7295 9.65994C14.5895 9.65994 14.4695 9.58994 14.3995 9.46994L13.6095 7.85994C13.5195 7.69994 13.3295 7.62994 13.1695 7.69994L11.3295 8.46994C11.1695 8.53994 11.0696 8.72994 11.1395 8.88994L11.6995 10.5899C11.7495 10.7299 11.6795 10.8699 11.5596 10.9599C11.3695 11.1199 11.1896 11.3099 11.0196 11.4999C10.9296 11.5899 10.7895 11.6399 10.6495 11.5899L8.96955 11.0299C8.80955 10.9799 8.61955 11.0499 8.54955 11.2199L7.79955 13.0599C7.72955 13.2199 7.79955 13.4099 7.95955 13.4799L9.56955 14.2699C9.68955 14.3399 9.75955 14.4599 9.75955 14.5999C9.73955 14.8599 9.73955 15.1099 9.75955 15.3699C9.75955 15.5099 9.68955 15.6299 9.56955 15.6999L7.95955 16.4899C7.79955 16.5599 7.72955 16.7499 7.79955 16.9099L8.56955 18.7499C8.63955 18.9099 8.82955 19.0099 8.98955 18.9399L10.6895 18.3799C10.8295 18.3299 10.9696 18.3799 11.0596 18.4699C11.2196 18.6599 11.4095 18.8399 11.5996 19.0099C11.6895 19.0999 11.7395 19.2399 11.6895 19.3799L11.1295 21.0799C11.0595 21.2899 11.1295 21.4499 11.2895 21.5199L13.1295 22.2899C13.2895 22.3599 13.4795 22.2899 13.5495 22.1299L14.3395 20.5199C14.4095 20.3999 14.5295 20.3299 14.6695 20.3299C14.9295 20.3499 15.1795 20.3499 15.4395 20.3299C15.5795 20.3299 15.6995 20.3999 15.7695 20.5199L16.5595 22.1299C16.6295 22.2899 16.8195 22.3599 16.9795 22.2899L18.8195 21.5199C18.9795 21.4499 19.0795 21.2599 19.0096 21.0999L18.4695 19.4199C18.4195 19.2799 18.4695 19.1399 18.5595 19.0699C18.7495 18.9099 18.9296 18.7199 19.0996 18.5299C19.1896 18.4399 19.3295 18.3899 19.4695 18.4399L21.1695 18.9999C21.3295 19.0499 21.5196 18.9799 21.5896 18.8099L22.3596 16.9699C22.4296 16.8099 22.3595 16.6199 22.2195 16.5299M15.0795 17.4399C13.7295 17.4399 12.6295 16.3399 12.6295 14.9899C12.6295 13.6399 13.7295 12.5399 15.0795 12.5399C16.4295 12.5399 17.5296 13.6399 17.5296 14.9899C17.5296 16.3399 16.4295 17.4399 15.0795 17.4399Z" fill="#1B8158"/>
</svg>
