<svg width="30" height="30" viewBox="0 0 30 30" fill="none" xmlns="http://www.w3.org/2000/svg">
<g opacity="0.1">
<path d="M25 0H5C2.23858 0 0 2.23858 0 5V25C0 27.7614 2.23858 30 5 30H25C27.7614 30 30 27.7614 30 25V5C30 2.23858 27.7614 0 25 0Z" fill="#005C35"/>
</g>
<path d="M14.7605 7.49998C18.9205 7.49998 22.2805 10.86 22.2805 14.98C22.2805 19.1 18.9205 22.5 14.8005 22.5C11.6505 22.5 8.86047 20.58 7.77047 17.64H14.2705V19.07C14.2705 19.35 14.4805 19.56 14.7605 19.56C14.9005 19.56 15.0005 19.52 15.1105 19.42L18.9605 15.57C19.2705 15.25 19.2705 14.77 18.9605 14.45L15.1105 10.6C14.9405 10.42 14.6205 10.39 14.4105 10.6C14.3005 10.7 14.2705 10.81 14.2705 10.95V12.38H7.73047C8.81047 9.43998 11.6105 7.47998 14.7605 7.47998" fill="#1B8158"/>
</svg>
