<svg width="30" height="30" viewBox="0 0 30 30" fill="none" xmlns="http://www.w3.org/2000/svg">
<g opacity="0.1">
<path d="M25 0H5C2.23858 0 0 2.23858 0 5V25C0 27.7614 2.23858 30 5 30H25C27.7614 30 30 27.7614 30 25V5C30 2.23858 27.7614 0 25 0Z" fill="#005C35"/>
</g>
<path d="M20.78 9.37988H9.22C8.27 9.37988 7.5 10.1499 7.5 11.0999V18.9099C7.5 19.8599 8.27 20.6299 9.22 20.6299H20.78C21.73 20.6299 22.5 19.8599 22.5 18.9099V11.0999C22.5 10.1499 21.73 9.37988 20.78 9.37988ZM12.27 11.1099C13.28 11.1099 14.09 11.9299 14.09 12.9299C14.09 13.9299 13.27 14.7499 12.27 14.7499C11.27 14.7499 10.45 13.9299 10.45 12.9299C10.45 11.9299 11.27 11.1099 12.27 11.1099ZM14.94 18.4199C14.94 18.5199 14.86 18.6099 14.75 18.6099H9.83C9.73 18.6099 9.64 18.5299 9.64 18.4199V17.2299C9.64 16.1899 10.46 15.3399 11.49 15.2699H13.11C14.13 15.3299 14.96 16.1899 14.94 17.2299V18.4199Z" fill="#1B8158"/>
</svg>
