<svg width="30" height="30" viewBox="0 0 30 30" fill="none" xmlns="http://www.w3.org/2000/svg">
<g opacity="0.1">
<path d="M25 0H5C2.23858 0 0 2.23858 0 5V25C0 27.7614 2.23858 30 5 30H25C27.7614 30 30 27.7614 30 25V5C30 2.23858 27.7614 0 25 0Z" fill="#005C35"/>
</g>
<path d="M15.0001 11.01C14.3801 11.01 13.8701 11.51 13.8701 12.14V13.15H16.1301V12.14C16.1301 11.51 15.6301 11.01 15.0001 11.01Z" fill="#1B8158"/>
<path d="M14.9999 7.5L8.59993 10.14C8.42993 18.15 12.4699 21.32 14.2199 22.31C14.6899 22.58 15.2799 22.56 15.7299 22.27C19.7299 19.62 21.4899 14.79 21.4099 10.15L14.9999 7.51V7.5ZM17.1899 17.8H12.8199C12.3699 17.8 12.0099 17.44 12.0099 16.99V13.96C12.0099 13.51 12.3699 13.15 12.8199 13.15H13.1299V12.14C13.1299 11.1 13.9599 10.27 14.9999 10.27C16.0399 10.27 16.8699 11.11 16.8699 12.14V13.15H17.1899C17.6399 13.15 17.9999 13.51 17.9999 13.96V16.99C17.9999 17.44 17.6399 17.8 17.1899 17.8Z" fill="#1B8158"/>
</svg>
