<svg width="30" height="30" viewBox="0 0 30 30" fill="none" xmlns="http://www.w3.org/2000/svg">
<rect width="30" height="30" rx="5" fill="#005C35" fill-opacity="0.1"/>
<path fill-rule="evenodd" clip-rule="evenodd" d="M21.2994 12.8595L21.8396 13.3995C22.2672 13.8195 22.4998 14.3895 22.4998 14.9895C22.5073 15.5895 22.2747 16.1603 21.8546 16.587C21.8496 16.5925 21.8446 16.5973 21.8396 16.6022C21.8371 16.6046 21.8346 16.607 21.8321 16.6095L21.2994 17.142C21.0893 17.352 20.9693 17.637 20.9693 17.9378V18.7095C20.9693 19.9545 19.9564 20.9678 18.7109 20.9678H17.9382C17.6381 20.9678 17.353 21.087 17.1429 21.297L16.6027 21.837C16.16 22.2803 15.5823 22.497 15.0046 22.497C14.4269 22.497 13.8492 22.2803 13.4065 21.8453L12.8588 21.297C12.6488 21.087 12.3636 20.9678 12.0635 20.9678H11.2908C10.0453 20.9678 9.03244 19.9545 9.03244 18.7095V17.9378C9.03244 17.637 8.9124 17.352 8.70232 17.1345L8.16213 16.602C7.28431 15.7253 7.27681 14.292 8.15462 13.4078L8.70232 12.8595C8.9124 12.6495 9.03244 12.3645 9.03244 12.057V11.292C9.03244 10.047 10.0453 9.03527 11.2908 9.03527H12.0635C12.3636 9.03527 12.6488 8.91452 12.8588 8.70452L13.399 8.16452C14.2768 7.28027 15.7099 7.28027 16.5952 8.15777L17.1429 8.70452C17.353 8.91452 17.6381 9.03527 17.9382 9.03527H18.7109C19.9564 9.03527 20.9693 10.047 20.9693 11.292V12.0653C20.9693 12.3645 21.0893 12.6495 21.2994 12.8595ZM13.0689 17.5845C13.249 17.5845 13.414 17.517 13.5341 17.3895L17.3905 13.5353C17.6456 13.2803 17.6456 12.8595 17.3905 12.6045C17.1354 12.3503 16.7227 12.3503 16.4676 12.6045L12.6112 16.4595C12.3561 16.7145 12.3561 17.1345 12.6112 17.3895C12.7313 17.517 12.8963 17.5845 13.0689 17.5845ZM16.2726 16.9245C16.2726 17.292 16.5652 17.5845 16.9328 17.5845C17.2929 17.5845 17.5855 17.292 17.5855 16.9245C17.5855 16.5653 17.2929 16.272 16.9328 16.272C16.5652 16.272 16.2726 16.5653 16.2726 16.9245ZM13.0764 12.417C13.4365 12.417 13.7291 12.7095 13.7291 13.0695C13.7291 13.4378 13.4365 13.7295 13.0764 13.7295C12.7163 13.7295 12.4162 13.4378 12.4162 13.0695C12.4162 12.7095 12.7163 12.417 13.0764 12.417Z" fill="#1B8158"/>
</svg>
