<svg width="30" height="30" viewBox="0 0 30 30" fill="none" xmlns="http://www.w3.org/2000/svg">
<g opacity="0.1">
<path d="M25 0H5C2.23858 0 0 2.23858 0 5V25C0 27.7614 2.23858 30 5 30H25C27.7614 30 30 27.7614 30 25V5C30 2.23858 27.7614 0 25 0Z" fill="#005C35"/>
</g>
<path d="M18.1299 14.38H11.8799C11.5299 14.38 11.2599 14.1 11.2599 13.76C11.2599 13.42 11.5399 13.14 11.8799 13.14H18.1299C18.4799 13.14 18.7499 13.42 18.7499 13.76C18.7499 14.1 18.4699 14.38 18.1299 14.38ZM18.1299 16.88H11.8799C11.5299 16.88 11.2599 16.6 11.2599 16.26C11.2599 15.92 11.5399 15.64 11.8799 15.64H18.1299C18.4799 15.64 18.7499 15.92 18.7499 16.26C18.7499 16.6 18.4699 16.88 18.1299 16.88ZM18.1299 19.38H11.8799C11.5299 19.38 11.2599 19.1 11.2599 18.76C11.2599 18.42 11.5399 18.14 11.8799 18.14H18.1299C18.4799 18.14 18.7499 18.42 18.7499 18.76C18.7499 19.1 18.4699 19.38 18.1299 19.38ZM11.8799 10.63H15.1599C15.4999 10.63 15.7799 10.91 15.7799 11.25C15.7799 11.59 15.4999 11.87 15.1599 11.87H11.8799C11.5299 11.87 11.2599 11.59 11.2599 11.25C11.2599 10.91 11.5399 10.63 11.8799 10.63ZM18.9099 7.51H11.0999C10.1499 7.51 9.37988 8.28 9.37988 9.23V20.79C9.37988 21.74 10.1499 22.51 11.0999 22.51H18.9099C19.8599 22.51 20.6299 21.74 20.6299 20.79V9.22C20.6299 8.27 19.8599 7.5 18.9099 7.5" fill="#1B8158"/>
</svg>
