<svg width="30" height="30" viewBox="0 0 30 30" fill="none" xmlns="http://www.w3.org/2000/svg">
<g opacity="0.1">
<path d="M25 0H5C2.23858 0 0 2.23858 0 5V25C0 27.7614 2.23858 30 5 30H25C27.7614 30 30 27.7614 30 25V5C30 2.23858 27.7614 0 25 0Z" fill="#005C35"/>
</g>
<path d="M14.9805 7.5C10.8405 7.5 7.48047 10.86 7.48047 15C7.48047 19.14 10.8405 22.5 14.9805 22.5C19.1205 22.5 22.4805 19.14 22.4805 15C22.4805 10.86 19.1205 7.5 14.9805 7.5ZM18.4305 15.59L13.6305 18.38C13.5305 18.44 13.4205 18.46 13.3105 18.46C13.2005 18.46 13.0805 18.43 12.9805 18.37C12.7805 18.25 12.6605 18.04 12.6605 17.81V12.22C12.6605 11.99 12.7705 11.79 12.9605 11.67C13.1605 11.55 13.4005 11.54 13.6105 11.65L18.4705 14.47C18.6705 14.59 18.8005 14.82 18.7805 15.07C18.7705 15.31 18.6305 15.51 18.4305 15.59Z" fill="#1B8158"/>
</svg>
