<svg width="40" height="40" viewBox="0 0 40 40" fill="none" xmlns="http://www.w3.org/2000/svg">
<g clip-path="url(#clip0_4337_9713)">
<path d="M21.1722 0H18.8285C18.1807 0 17.6566 0.524141 17.6566 1.17188V5.9375H14.6262C14.1524 5.9375 13.7244 6.22242 13.5436 6.66078C13.3617 7.09906 13.4624 7.60266 13.7977 7.93797L19.1718 13.3121C19.4007 13.541 19.7006 13.6555 20.0003 13.6555C20.3002 13.6555 20.6 13.541 20.8289 13.3121L26.203 7.93797C26.5383 7.60266 26.639 7.09914 26.4571 6.66078C26.2763 6.2225 25.8482 5.9375 25.3745 5.9375H22.3441V1.17188C22.3441 0.524141 21.8199 0 21.1722 0V0Z" fill="#1B8158"/>
<path d="M39.8028 19.2038L35.9666 15.9385L21.8262 20.6261L24.6696 24.8915C24.9627 25.3311 25.5139 25.5202 26.0153 25.3532L39.1984 20.9655C39.9315 20.7211 40.2316 19.8466 39.8028 19.2038Z" fill="#1B8158"/>
<path d="M0.197443 19.2038C-0.231307 19.8467 0.0688491 20.7211 0.801974 20.9654L13.985 25.3531C14.4864 25.5202 15.0376 25.3311 15.3307 24.8915L18.1742 20.6261L4.03369 15.9385L0.197443 19.2038Z" fill="#1B8158"/>
<path d="M35.3125 34.1405V24.7386L26.7589 27.5759C25.2316 28.0833 23.5912 27.4998 22.7191 26.1911L21.1722 23.8701L21.1719 39.9999L34.5116 35.2516C34.9899 35.0922 35.3125 34.6446 35.3125 34.1405Z" fill="#1B8158"/>
<path d="M17.2809 26.1915C16.4145 27.4919 14.7776 28.0855 13.2434 27.5773L4.6875 24.7387V34.1409C4.6875 34.645 5.01008 35.0926 5.48844 35.252L18.8281 40.0002V23.8706L17.2809 26.1915Z" fill="#1B8158"/>
<path d="M19.9997 18.7651L34.14 14.0774L26.0481 11.4062L22.4853 14.9691C21.8216 15.6328 20.938 15.9991 19.9997 15.9991C19.0612 15.9991 18.1778 15.6328 17.5141 14.9691L13.9512 11.4062L5.85938 14.0774L19.9997 18.7651Z" fill="#1B8158"/>
</g>
<defs>
<clipPath id="clip0_4337_9713">
<rect width="40" height="40" fill="white"/>
</clipPath>
</defs>
</svg>
