<svg width="55" height="55" viewBox="0 0 55 55" fill="none" xmlns="http://www.w3.org/2000/svg">
<g clip-path="url(#clip0_7030_33287)">
<path d="M28.07 52.3001C27.98 52.3001 27.89 52.2801 27.8 52.2401L8.11 42.9901C7.89 42.8901 7.75 42.6701 7.75 42.4201V31.8201C7.75 31.4701 8.03 31.2001 8.37 31.2001C8.71 31.2001 8.99 31.4801 8.99 31.8201V42.0201L28.06 50.9701L45.99 42.0301V31.7201C45.99 31.3701 46.27 31.1001 46.61 31.1001C46.95 31.1001 47.23 31.3801 47.23 31.7201V42.4201C47.23 42.6601 47.1 42.8701 46.88 42.9801L28.33 52.2301C28.24 52.2701 28.15 52.3001 28.05 52.3001H28.07Z" fill="#1B8158"/>
<path d="M28.0697 30.2998C27.9897 30.2998 27.9097 30.2798 27.8297 30.2498L8.13968 22.0998C7.81968 21.9698 7.66968 21.5998 7.79968 21.2798C7.92968 20.9598 8.29968 20.8098 8.61968 20.9398L28.0697 28.9898L46.3797 20.9498C46.6997 20.8098 47.0597 20.9498 47.1997 21.2698C47.3397 21.5898 47.1997 21.9598 46.8797 22.0898L28.3297 30.2398C28.2497 30.2798 28.1597 30.2898 28.0797 30.2898L28.0697 30.2998Z" fill="#1B8158"/>
<path d="M28.0702 52.2998C27.7202 52.2998 27.4502 52.0198 27.4502 51.6798V29.6698C27.4502 29.3198 27.7302 29.0498 28.0702 29.0498C28.4102 29.0498 28.6902 29.3298 28.6902 29.6698V51.6698C28.6902 52.0198 28.4102 52.2898 28.0702 52.2898V52.2998Z" fill="#1B8158"/>
<path d="M22.32 38.9999C22.23 38.9999 22.14 38.9799 22.05 38.9399L2.36004 29.6899C2.19004 29.6099 2.06004 29.4599 2.02004 29.2699C1.98004 29.0899 2.02004 28.8899 2.13004 28.7399L7.88004 21.1399C8.09004 20.8599 8.48004 20.8099 8.76004 21.0199C9.04004 21.2299 9.09004 21.6199 8.88004 21.8999L3.59004 28.8799L22.1 37.5699L27.55 29.3199C27.74 29.0299 28.13 28.9499 28.42 29.1399C28.71 29.3299 28.79 29.7199 28.6 30.0099L22.85 38.7099C22.73 38.8899 22.53 38.9899 22.33 38.9899L22.32 38.9999Z" fill="#1B8158"/>
<path d="M46.6301 22.1502C46.5701 22.1502 46.5001 22.1502 46.4401 22.1202L35.4401 18.5202C35.1101 18.4102 34.9301 18.0602 35.0401 17.7302C35.1501 17.4002 35.5001 17.2202 35.8301 17.3302L46.8301 20.9302C47.1601 21.0402 47.3401 21.3902 47.2301 21.7202C47.1401 21.9802 46.9001 22.1502 46.6401 22.1502H46.6301Z" fill="#1B8158"/>
<path d="M8.38013 22.1502C8.12013 22.1502 7.87013 21.9802 7.79013 21.7202C7.68013 21.3902 7.86013 21.0402 8.19013 20.9302L19.1901 17.3302C19.5201 17.2202 19.8701 17.4002 19.9801 17.7302C20.0901 18.0602 19.9101 18.4102 19.5801 18.5202L8.58013 22.1202C8.52013 22.1402 8.45013 22.1502 8.39013 22.1502H8.38013Z" fill="#1B8158"/>
<path d="M34.4301 38.4C34.2401 38.4 34.0601 38.32 33.9401 38.16L27.5901 30.06C27.3801 29.79 27.4201 29.4 27.7001 29.18C27.9701 28.97 28.3701 29.02 28.5801 29.29L34.6201 36.99L50.9201 28.89L46.1301 21.88C45.9301 21.59 46.0101 21.21 46.2901 21.01C46.5701 20.81 46.9601 20.89 47.1601 21.17L52.3601 28.77C52.4601 28.92 52.4901 29.11 52.4501 29.28C52.4001 29.45 52.2801 29.6 52.1201 29.68L34.7201 38.33C34.6301 38.37 34.5401 38.4 34.4401 38.4H34.4301Z" fill="#1B8158"/>
<path d="M27.5202 22.5002C27.3502 22.5002 27.1902 22.4302 27.0802 22.3102L22.3802 17.5602C22.1402 17.3102 22.1402 16.9202 22.3802 16.6802C22.6302 16.4402 23.0202 16.4402 23.2602 16.6802L27.5102 20.9802L31.7202 16.6802C31.9602 16.4302 32.3602 16.4302 32.6002 16.6802C32.8502 16.9202 32.8502 17.3202 32.6002 17.5602L27.9502 22.3102C27.8302 22.4302 27.6702 22.5002 27.5002 22.5002H27.5202Z" fill="#1B8158"/>
<path d="M27.5204 22.4999C27.1704 22.4999 26.9004 22.2199 26.9004 21.8799V10.2699C26.9004 9.9199 27.1804 9.6499 27.5204 9.6499C27.8604 9.6499 28.1404 9.9299 28.1404 10.2699V21.8699C28.1404 22.2199 27.8604 22.4899 27.5204 22.4899V22.4999Z" fill="#1B8158"/>
<path d="M27.5204 7.80002C27.1704 7.80002 26.9004 7.52002 26.9004 7.18002V6.94002C26.9004 6.59002 27.1804 6.32002 27.5204 6.32002C27.8604 6.32002 28.1404 6.60002 28.1404 6.94002V7.18002C28.1404 7.53002 27.8604 7.80002 27.5204 7.80002ZM27.5204 4.50002C27.1704 4.50002 26.9004 4.22002 26.9004 3.88002V3.64002C26.9004 3.29002 27.1804 3.02002 27.5204 3.02002C27.8604 3.02002 28.1404 3.30002 28.1404 3.64002V3.88002C28.1404 4.23002 27.8604 4.50002 27.5204 4.50002Z" fill="#1B8158"/>
<path d="M31.8202 14.2999C31.4702 14.2999 31.2002 14.0199 31.2002 13.6799V9.72986C31.2002 9.37986 31.4802 9.10986 31.8202 9.10986C32.1602 9.10986 32.4402 9.38986 32.4402 9.72986V13.6799C32.4402 14.0299 32.1602 14.2999 31.8202 14.2999Z" fill="#1B8158"/>
<path d="M31.8202 6.5002C31.4702 6.5002 31.2002 6.2202 31.2002 5.8802V5.5702C31.2002 5.2202 31.4802 4.9502 31.8202 4.9502C32.1602 4.9502 32.4402 5.2302 32.4402 5.5702V5.8802C32.4402 6.2302 32.1602 6.5002 31.8202 6.5002Z" fill="#1B8158"/>
<path d="M23.1698 14.3C22.8198 14.3 22.5498 14.02 22.5498 13.68V11.58C22.5498 11.23 22.8298 10.96 23.1698 10.96C23.5098 10.96 23.7898 11.24 23.7898 11.58V13.68C23.7898 14.03 23.5098 14.3 23.1698 14.3Z" fill="#1B8158"/>
<path d="M23.1698 8.3498C22.8198 8.3498 22.5498 8.0698 22.5498 7.7298V7.4198C22.5498 7.0698 22.8298 6.7998 23.1698 6.7998C23.5098 6.7998 23.7898 7.0798 23.7898 7.4198V7.7298C23.7898 8.0798 23.5098 8.3498 23.1698 8.3498Z" fill="#1B8158"/>
</g>
<defs>
<clipPath id="clip0_7030_33287">
<rect width="50.45" height="49.3" fill="white" transform="translate(2 3)"/>
</clipPath>
</defs>
</svg>
