<svg xmlns="http://www.w3.org/2000/svg" width="33" height="33" viewBox="0 0 33 33" fill="none">
    <g clip-path="url(#clip0_5906_13804)">
        <path d="M32.7665 16.6688L29.5236 11.999L29.4847 11.9601C29.4847 11.9601 29.4198 11.8952 29.4198 11.8693L29.3939 11.8433L29.3679 11.8044H29.329C29.329 11.8044 29.2642 11.7785 29.2382 11.7395C29.2123 11.7395 29.2123 11.7006 29.1733 11.7006H29.1085C29.1085 11.7006 29.0436 11.6747 29.0177 11.6747C28.9917 11.6358 28.9269 11.6358 28.888 11.6098H28.8491L22.013 9.33978C21.3903 9.14521 20.7158 9.4695 20.5212 10.1181C20.3267 10.7278 20.6509 11.4153 21.2736 11.6098L25.1651 12.907L17.0189 16.4094L8.23703 12.7773L12.0377 11.519C12.6474 11.3245 13.0106 10.637 12.816 10.0273C12.6215 9.41761 11.934 9.05441 11.3243 9.24898H11.2854L4.44929 11.519C4.44929 11.519 4.42335 11.519 4.42335 11.545C4.38443 11.545 4.35849 11.5839 4.31958 11.5839C4.28066 11.5839 4.25472 11.6098 4.25472 11.6098L4.2158 11.6358C4.2158 11.6358 4.15094 11.6747 4.125 11.7006L4.06014 11.7655L4.0342 11.7914C4.0342 11.7914 3.96934 11.8563 3.96934 11.8952L3.90448 11.9601L0.233491 16.6039C-0.15566 17.1487 -0.0518863 17.9011 0.466982 18.2903C0.53184 18.3551 0.596699 18.394 0.700472 18.42L3.6191 19.782V25.5803C3.6191 26.0344 3.87854 26.4624 4.29363 26.657L16.5259 32.3905H16.5649C16.5649 32.3905 16.6946 32.4294 16.7594 32.4554C16.7594 32.4554 16.7811 32.4683 16.8243 32.4943C16.98 32.5202 17.1745 32.5202 17.3432 32.4943C17.3432 32.4943 17.3648 32.4813 17.408 32.4554C17.4729 32.4294 17.5377 32.4294 17.6026 32.3905H17.6415L29.1604 26.657C29.5755 26.4624 29.809 26.0344 29.809 25.5803V19.7171L32.3644 18.42C32.9481 18.1216 33.2076 17.4212 32.8833 16.7985C32.8443 16.7726 32.8184 16.7077 32.7925 16.6688" fill="#1B8158"/>
        <path d="M20.4044 4.60495C19.9115 4.15094 19.1721 4.15094 18.7181 4.60495L17.875 5.48703V1.1934C17.875 0.544811 17.3302 0 16.6816 0C16.033 0 15.4752 0.544811 15.4752 1.1934V5.47406L14.5931 4.59198C14.1391 4.09906 13.3608 4.09906 12.9068 4.59198C12.4139 5.04599 12.4139 5.82429 12.9068 6.2783L15.7995 9.23585C16.1238 9.58608 16.6427 9.68986 17.0967 9.49528H17.1226L17.3172 9.40448C17.3172 9.40448 17.4469 9.30071 17.4728 9.27476L20.3526 6.33019C20.8714 5.83726 20.8455 5.05896 20.3915 4.60495" fill="#1B8158"/>
    </g>
    <defs>
        <clipPath id="clip0_5906_13804">
            <rect width="33" height="32.52" fill="white"/>
        </clipPath>
    </defs>
</svg>
