<svg width="24" height="24" viewBox="0 0 24 24" fill="none" xmlns="http://www.w3.org/2000/svg">
<path d="M19.6337 6.13415C20.1218 5.64598 20.1218 4.8545 19.6337 4.36633C19.1455 3.87816 18.354 3.87816 17.8658 4.36633L12.0005 10.2317L6.13498 4.36613C5.64681 3.87796 4.85533 3.87796 4.36716 4.36613C3.87899 4.8543 3.87899 5.64578 4.36716 6.13395L10.2327 11.9995L4.36613 17.8661C3.87796 18.3542 3.87796 19.1457 4.36613 19.6339C4.8543 20.122 5.64578 20.122 6.13395 19.6339L12.0005 13.7673L17.8669 19.6337C18.355 20.1218 19.1465 20.1218 19.6347 19.6337C20.1229 19.1455 20.1229 18.354 19.6347 17.8658L13.7683 11.9995L19.6337 6.13415Z" fill="#A6A6A6"/>
</svg>
