<svg width="55" height="55" viewBox="0 0 55 55" fill="none" xmlns="http://www.w3.org/2000/svg">
<g clip-path="url(#clip0_7030_33339)">
<path d="M3.62037 33.6599C3.52037 33.6599 3.41037 33.6299 3.31037 33.5799C3.01037 33.4099 2.90037 33.0299 3.07037 32.7299L6.87037 26.0299C6.97037 25.8599 7.15037 25.7399 7.35037 25.7199C7.56037 25.6999 7.75037 25.7699 7.88037 25.9199L12.9804 31.5699C13.2104 31.8299 13.1904 32.2199 12.9404 32.4499C12.6804 32.6799 12.2904 32.6599 12.0604 32.4099L7.54037 27.3999L4.17037 33.3499C4.05037 33.5499 3.84037 33.6699 3.63037 33.6699L3.62037 33.6599Z" fill="#1B8158"/>
<path d="M29.6497 50.14C26.5597 50.14 23.4797 49.49 20.5797 48.21C16.5797 46.44 13.2097 43.61 10.8597 40.03C7.95972 35.63 6.55972 30.9 6.80972 26.35C6.82972 26.01 7.12972 25.74 7.46972 25.76C7.80972 25.78 8.07972 26.07 8.05972 26.42C7.82972 30.69 9.15972 35.16 11.9097 39.34C14.1297 42.72 17.3097 45.39 21.0897 47.06C26.2797 49.36 32.0697 49.49 37.3797 47.43C42.6997 45.36 46.8797 41.35 49.1597 36.14C51.4397 30.92 51.5597 25.12 49.5097 19.82C47.4497 14.51 43.4397 10.34 38.2397 8.05997C33.0197 5.77997 27.2197 5.65997 21.9197 7.70997C16.6097 9.76997 12.4397 13.77 10.1597 18.98C10.0197 19.3 9.64972 19.44 9.33972 19.3C9.01972 19.16 8.87972 18.79 9.01972 18.48C11.4097 12.97 15.8397 8.72997 21.4597 6.53997C27.0697 4.35997 33.1997 4.48997 38.7297 6.90997C44.2497 9.31997 48.4897 13.74 50.6697 19.36C52.8497 24.97 52.7197 31.1 50.2997 36.63C47.8897 42.15 43.4597 46.4 37.8197 48.59C35.1697 49.62 32.3997 50.14 29.6497 50.14Z" fill="#1B8158"/>
</g>
<defs>
<clipPath id="clip0_7030_33339">
<rect width="49.21" height="45.14" fill="white" transform="translate(3 5)"/>
</clipPath>
</defs>
</svg>
