<svg width="40" height="36" viewBox="0 0 40 36" fill="none" xmlns="http://www.w3.org/2000/svg">
<path d="M1.72615 7.94057C2.77733 6.34269 4.123 5.20763 5.46837 4.32449C8.15941 2.60046 10.9346 1.80149 13.6256 1.2129C19.0077 0.0775402 24.2216 -0.0904996 29.4775 0.0355678C30.739 0.0775094 31.7902 1.08675 31.8743 2.39015C31.9163 3.73582 30.8651 4.91315 29.5198 4.95505H29.4778C24.5583 5.16534 19.5967 5.75402 15.0976 7.05742C12.8691 7.73025 10.7248 8.6131 9.21108 9.74846C7.6554 10.9677 7.15068 12.0611 7.23485 13.3226C7.40291 14.626 8.03383 15.383 9.58943 16.3501C11.1031 17.2332 13.2475 17.9057 15.434 18.3263C17.7044 18.7469 20.0594 18.9991 22.4979 19.1253L21.5728 15.5511C21.1103 13.7009 23.1285 12.2295 24.7684 13.2384L39.0225 22.1945C40.3259 23.0354 40.3259 24.9697 39.0225 25.7687L24.7263 34.8089C23.0865 35.8181 21.0682 34.3464 21.5308 32.4962L22.4978 28.7121C19.4284 28.2915 16.3587 27.7451 13.2473 26.82C10.5144 25.9792 7.73919 24.928 5.04808 22.9517C3.70241 21.9847 2.39901 20.6813 1.43199 18.9991C0.464977 17.3174 -0.039818 15.2569 0.00245478 13.4068C0.0863395 11.5145 0.674989 9.49625 1.72618 7.94057H1.72615Z" fill="#1B8158"/>
</svg>
