<svg width="25" height="25" viewBox="0 0 25 25" fill="none" xmlns="http://www.w3.org/2000/svg">
<g clip-path="url(#clip0_6521_6621)">
<path d="M14.8811 14.2903H10.1201V18.5503H14.8811V14.2903Z" fill="#1B8158"/>
<path d="M15.3139 6.98382V3.93627H13.2328V2.23177C13.4177 2.13148 13.6039 2.0077 13.7899 1.85511C14.2303 1.49369 14.7137 1.38246 15.268 1.51546C15.7321 1.62674 16.0666 1.87186 16.07 1.8743L16.066 1.87128L16.9544 0.706529C16.224 0.1494 14.4285 -0.564076 12.8605 0.722691C12.4301 1.07591 12.0007 1.18973 11.5475 1.07025C11.1724 0.97147 10.9147 0.747056 10.9122 0.74481L10.9176 0.749791L9.92603 1.82806C10.2849 2.15814 10.9599 2.54276 11.7679 2.57875V3.93636H9.68672V6.98387C7.5626 7.60111 6.00586 9.56459 6.00586 11.885V24.9999H18.9949V11.8849C18.9948 9.56454 17.4381 7.60106 15.3139 6.98382ZM16.3457 20.0153H8.65488V12.8254H16.3458V20.0153H16.3457Z" fill="#1B8158"/>
</g>
<defs>
<clipPath id="clip0_6521_6621">
<rect width="25" height="25" fill="white"/>
</clipPath>
</defs>
</svg>
