<svg width="228" height="201" viewBox="0 0 228 201" fill="none" xmlns="http://www.w3.org/2000/svg">
    <g clip-path="url(#clip0_4804_14315)">
        <path d="M161.52 12.6964C161.52 12.6964 168.575 11.2144 175.314 14.2984C182.093 17.3824 187.999 24.2312 187.999 24.2312L179.04 31.04C179.04 31 179.556 19.9858 161.52 12.6964Z" fill="#FBE5A8"/>
        <path d="M161.52 18.2636L160.093 12.2558L164.176 7.68991C164.652 7.16924 164.295 6.32815 163.621 6.2881L157.517 5.80748L154.504 0.440555C154.147 -0.160221 153.275 -0.120169 152.998 0.520658L150.659 6.208L144.673 7.48965C143.999 7.64986 143.762 8.49094 144.317 8.97156L148.954 12.9767L148.32 19.1046C148.241 19.7855 148.994 20.2661 149.589 19.9057L154.821 16.7015L160.371 19.2248C161.005 19.5452 161.679 18.9444 161.52 18.2636Z" fill="#F9CA58"/>
    </g>
    <g clip-path="url(#clip1_4804_14315)">
        <path d="M79.7065 9.34938C77.169 14.9339 81.8695 21.4285 87.402 22.6695C93.5168 24.076 100.089 20.7253 102.751 15.1407C105.663 9.10118 103.375 2.85478 97.5933 0.620963C91.9777 -1.57148 86.6948 2.44111 86.8196 8.06701C86.9028 12.121 89.8562 14.5202 91.8945 14.0238C93.4752 13.6102 94.0159 11.5832 92.4768 10.7559C91.8529 10.4249 91.1041 10.5904 90.605 10.9627C89.357 9.96988 88.8163 7.03283 90.5634 4.55082C92.8096 1.36557 97.3437 2.52384 99.6316 5.00586C102.543 8.14974 101.711 12.8242 99.3404 16.0508C96.8446 19.4015 92.1857 21.263 88.0675 20.3116C83.367 19.2361 80.4136 14.5202 81.4119 9.88715C81.5783 8.77024 80.164 8.35658 79.7065 9.34938Z" fill="#9CDBE3"/>
    </g>
    <g clip-path="url(#clip2_4804_14315)">
        <path d="M12.9036 119.528L8.60252 113.329H1.07564C0.201983 113.329 -0.268447 112.318 0.269187 111.644L4.83908 105.647L2.41972 98.4367C2.15091 97.6281 2.95736 96.8194 3.76381 97.1564L10.8875 99.6496L17.0031 95.2022C17.6751 94.6631 18.6832 95.2022 18.6832 96.0782L18.4816 103.625L24.5971 108.073C25.2692 108.545 25.1348 109.69 24.2611 109.892L17.0031 112.049L14.7181 119.259C14.4493 120.067 13.374 120.27 12.9036 119.528Z" fill="#A9DE98"/>
    </g>
    <g clip-path="url(#clip3_4804_14315)">
        <path d="M212.35 74.7263L206.762 72.4436L201.713 75.7256C201.127 76.1065 200.371 75.6337 200.438 74.9473L200.888 68.9321L196.121 65.1509C195.588 64.7258 195.777 63.8318 196.465 63.7061L202.33 62.2723L204.492 56.6226C204.708 55.968 205.619 55.8901 206.001 56.4776L209.157 61.6276L215.198 61.944C215.854 61.9674 216.264 62.7943 215.766 63.3109L211.838 67.9219L213.449 73.7544C213.622 74.4139 212.989 75.0184 212.35 74.7263Z" fill="#A9DE98"/>
    </g>
    <g clip-path="url(#clip4_4804_14315)">
        <path d="M203.698 115.351C201.189 120.943 205.858 127.42 211.386 128.684C217.517 130.074 224.092 126.725 226.729 121.133C229.619 115.067 227.332 108.843 221.551 106.6C215.928 104.42 210.687 108.401 210.782 114.056C210.846 118.1 213.832 120.501 215.833 119.995C217.421 119.616 217.93 117.563 216.436 116.741C215.833 116.394 215.071 116.552 214.562 116.962C213.323 115.983 212.752 113.013 214.499 110.549C216.722 107.39 221.265 108.527 223.552 111.023C226.443 114.182 225.649 118.858 223.234 122.049C220.725 125.398 216.087 127.262 211.957 126.314C207.32 125.24 204.334 120.532 205.35 115.857C205.604 114.751 204.143 114.372 203.698 115.351Z" fill="#9CDBE3"/>
    </g>
    <g clip-path="url(#clip5_4804_14315)">
        <path d="M104.698 187.351C102.189 192.943 106.858 199.42 112.386 200.684C118.517 202.074 125.092 198.725 127.729 193.133C130.619 187.067 128.332 180.843 122.551 178.6C116.928 176.42 111.687 180.401 111.782 186.056C111.846 190.1 114.832 192.501 116.833 191.995C118.421 191.616 118.93 189.563 117.436 188.741C116.833 188.394 116.071 188.552 115.562 188.962C114.323 187.983 113.752 185.013 115.499 182.549C117.722 179.39 122.265 180.527 124.552 183.023C127.443 186.182 126.649 190.858 124.234 194.049C121.725 197.398 117.087 199.262 112.957 198.314C108.32 197.24 105.334 192.532 106.35 187.857C106.604 186.751 105.143 186.372 104.698 187.351Z" fill="#9CDBE3"/>
    </g>
    <g clip-path="url(#clip6_4804_14315)">
        <path d="M192.339 172.708L186.186 174.294L182.576 164.575L173.322 165.803L169.407 159L166 160.995L171.186 170.049L179.983 168.923L183.746 179L193 176.596L192.339 172.708Z" fill="#FBE5A8"/>
    </g>
    <g clip-path="url(#clip7_4804_14315)">
        <path d="M14.4591 38.1201L19.486 35.8907L23.9514 43.6739L31.6772 41.3087L35.988 46.5594L38.6126 44.3714L32.8961 37.3802L25.5464 39.593L20.8999 31.5258L13.3415 34.8953L14.4591 38.1201Z" fill="#879DD1"/>
    </g>
    <path d="M42.8067 167.044C42.8067 167.044 45.7463 164.067 50.6065 164.727C54.951 165.349 57.4544 169.216 56.9119 173.197C56.2715 177.82 51.4288 182.738 40.2081 185.942C30.2859 179.643 26.9568 173.625 27.618 168.959C28.1606 164.978 31.6575 161.953 36.002 162.576C40.8205 163.322 42.8067 167.044 42.8067 167.044Z" fill="#F48C7F"/>
    <circle cx="111" cy="97" r="66" fill="#E6FFD4"/>
    <rect x="33" y="63.3299" width="142" height="90" rx="10" transform="rotate(-10 33 63.3299)" fill="#1B8158"/>
    <path d="M83.3739 93.0037C83.552 93.9877 82.9952 94.6169 81.8734 94.82L79.3937 95.2688L78.8416 92.2184L81.2819 91.7766C82.4037 91.5736 83.1958 92.0197 83.3739 93.0037ZM82.0526 87.6128C82.2236 88.5575 81.7026 89.1599 80.6005 89.3594L78.3963 89.7583L77.8727 86.8653L80.0769 86.4664C81.1789 86.2669 81.8817 86.6682 82.0526 87.6128ZM86.8605 92.8401C86.5756 91.2656 85.276 90.0375 83.6017 89.995C84.8687 89.3592 85.6765 88.0951 85.3737 86.4223C84.9783 84.2378 83.0526 83.1432 80.2383 83.6526L74.0193 84.7783L76.52 98.5938L82.9554 97.429C85.8681 96.9018 87.2737 95.123 86.8605 92.8401ZM99.2443 88.81C98.6138 85.3266 95.7423 83.6106 92.5147 84.1948C89.3069 84.7754 87.1993 87.3926 87.8298 90.876C88.4603 94.3594 91.2925 96.0825 94.52 95.4983C97.7476 94.9141 99.8748 92.2934 99.2443 88.81ZM91.2542 90.2562C90.9158 88.3866 91.8218 87.3283 93.0419 87.1074C94.2227 86.8937 95.4816 87.5602 95.82 89.4298C96.1548 91.2797 95.1933 92.3684 93.9928 92.5857C92.7727 92.8065 91.589 92.1061 91.2542 90.2562ZM109.6 92.6062L112.946 92.0006L111.785 85.5848C111.25 82.6328 109.245 81.2073 106.706 81.6668C105.23 81.934 104.166 82.7971 103.665 83.8432L103.401 82.3869L100.036 82.996L102.024 93.9776L105.389 93.3685L104.31 87.4054C104.039 85.9097 104.716 84.9335 105.995 84.7019C107.274 84.4704 108.25 85.1474 108.521 86.643L109.6 92.6062ZM117.789 85.4331C118.416 88.8968 120.96 90.7127 123.656 90.2247C125.27 89.9326 126.299 88.9943 126.727 87.8801L127.012 89.4546L130.378 88.8454L127.742 74.2821L124.376 74.8912L125.299 79.9884C124.448 79.1058 123.067 78.6646 121.611 78.9282C118.915 79.4163 117.162 81.9694 117.789 85.4331ZM126.018 83.9638C126.336 85.7153 125.388 86.8827 124.109 87.1142C122.85 87.3422 121.53 86.5648 121.213 84.8133C120.896 83.0617 121.866 81.9105 123.126 81.6825C124.405 81.451 125.701 82.2122 126.018 83.9638ZM136.125 79.0856C137.247 78.8826 138.317 79.4004 138.534 80.6009L134.322 81.3632C134.298 80.1074 135.023 79.2851 136.125 79.0856ZM142.249 82.9365L138.667 83.5848C138.499 84.2251 138.053 84.7936 137.108 84.9646C136.026 85.1605 135.019 84.6517 134.641 83.2364L142.257 81.8578C142.236 81.5162 142.195 81.178 142.138 80.8631C141.533 77.5175 138.885 75.8017 135.677 76.3823C132.41 76.9736 130.519 79.5517 131.149 83.0351C131.78 86.5185 134.494 88.263 137.722 87.6788C140.457 87.1836 142.106 85.1778 142.249 82.9365ZM68.2901 120.225C67.9481 118.336 68.7733 117.618 70.3674 117.329L71.2924 117.162L70.6477 113.6C69.1716 113.867 68.1136 114.871 67.5563 116.171L67.225 114.341L63.8597 114.95L65.8474 125.932L69.2127 125.323L68.2901 120.225ZM77.5784 115.089C78.7002 114.886 79.7695 115.404 79.9868 116.604L75.7753 117.367C75.7512 116.111 76.4763 115.288 77.5784 115.089ZM83.7022 118.94L80.1204 119.588C79.9518 120.228 79.5059 120.797 78.5612 120.968C77.4788 121.164 76.4721 120.655 76.094 119.24L83.7102 117.861C83.689 117.52 83.6481 117.181 83.5912 116.867C82.9856 113.521 80.3376 111.805 77.1298 112.386C73.8629 112.977 71.9718 115.555 72.6023 119.038C73.2328 122.522 75.9469 124.266 79.1745 123.682C81.91 123.187 83.5591 121.181 83.7022 118.94ZM74.1086 109.843L74.529 112.165L78.9121 109.319L78.4383 106.702L74.1086 109.843ZM84.7259 116.824C85.3528 120.287 87.8969 122.103 90.5931 121.615C92.2069 121.323 93.2362 120.385 93.6647 119.271L93.9496 120.845L97.315 120.236L94.6789 105.673L91.3136 106.282L92.2362 111.379C91.3854 110.496 90.0048 110.055 88.5485 110.319C85.8523 110.807 84.099 113.36 84.7259 116.824ZM92.9558 115.354C93.2728 117.106 92.3256 118.273 91.0464 118.505C89.7868 118.733 88.4673 117.955 88.1503 116.204C87.8332 114.452 88.8037 113.301 90.0632 113.073C91.3424 112.842 92.6388 113.603 92.9558 115.354ZM108.606 106.851L105.24 107.46L106.32 113.423C106.59 114.919 105.914 115.895 104.615 116.13C103.355 116.358 102.359 115.685 102.088 114.189L101.009 108.226L97.6635 108.832L98.8248 115.247C99.3555 118.18 101.385 119.621 103.924 119.162C105.4 118.895 106.459 118.012 106.957 116.946L107.228 118.442L110.593 117.833L108.606 106.851ZM111.348 112.025C111.978 115.509 114.653 117.26 117.881 116.676C120.636 116.178 122.296 114.231 122.407 111.589L118.825 112.237C118.676 113.097 118.226 113.646 117.301 113.814C116.101 114.031 115.103 113.236 114.772 111.406C114.441 109.575 115.096 108.481 116.297 108.264C117.222 108.096 117.862 108.489 118.276 109.206L121.858 108.558C120.814 106.044 118.591 104.881 115.836 105.38C112.608 105.964 110.721 108.562 111.348 112.025ZM124.767 111.324C125.283 114.178 127.052 114.854 129.335 114.44L131.047 114.13L130.53 111.277L129.33 111.494C128.582 111.63 128.257 111.404 128.139 110.754L127.341 106.346L129.545 105.947L129.04 103.152L126.835 103.551L126.351 100.875L122.986 101.484L123.47 104.161L122.132 104.403L122.638 107.197L123.976 106.955L124.767 111.324ZM132.922 113.791L136.287 113.182L134.299 102.201L130.934 102.81L132.922 113.791ZM132.42 101.362C133.601 101.148 134.261 100.195 134.08 99.1915C133.894 98.1681 132.942 97.5073 131.761 97.721C130.56 97.9383 129.899 98.8912 130.085 99.9146C130.266 100.918 131.219 101.579 132.42 101.362ZM148.477 105.305C147.847 101.822 144.975 100.106 141.748 100.69C138.54 101.27 136.432 103.888 137.063 107.371C137.693 110.854 140.525 112.577 143.753 111.993C146.98 111.409 149.108 108.788 148.477 105.305ZM140.487 106.751C140.149 104.882 141.055 103.823 142.275 103.602C143.456 103.389 144.714 104.055 145.053 105.925C145.388 107.775 144.426 108.863 143.226 109.081C142.006 109.301 140.822 108.601 140.487 106.751ZM158.833 109.101L162.179 108.496L161.018 102.08C160.483 99.1278 158.477 97.7022 155.939 98.1618C154.463 98.4289 153.399 99.2921 152.898 100.338L152.634 98.8819L149.269 99.491L151.256 110.473L154.622 109.863L153.542 103.9C153.272 102.405 153.949 101.428 155.228 101.197C156.507 100.965 157.483 101.642 157.754 103.138L158.833 109.101Z" fill="white"/>
    <path d="M68.7423 75.9931L68.8658 76.6933C68.8604 76.738 68.8584 76.7829 68.8599 76.8276C68.9086 77.3229 68.8812 77.8238 68.7784 78.3149C68.4124 80.0578 67.417 81.3963 65.7875 82.3123C64.9429 82.7906 63.9862 83.0584 63.01 83.0897C62.0448 83.114 61.092 82.926 60.2273 82.5407C59.2622 82.1289 58.4298 81.5425 57.6466 80.8786C56.4548 79.8669 55.2369 78.8887 54.0378 77.8894C53.6204 77.5387 53.2082 77.1771 52.7054 76.927C51.5551 76.3523 50.4209 76.3667 49.3326 77.1118C48.1293 77.9371 47.723 79.4106 48.3313 80.7029C48.773 81.6413 50.0678 82.6593 51.7482 82.2875C51.8344 82.2723 51.918 82.242 52.0278 82.2126L51.4338 81.6809L56.1833 80.2025C55.8246 81.7575 55.4747 83.2754 55.1204 84.8152C54.8753 84.5952 54.653 84.3967 54.4327 84.1956C54.4239 84.1839 54.4127 84.174 54.3997 84.1665C54.3868 84.159 54.3723 84.154 54.3572 84.1518C54.342 84.1496 54.3265 84.1503 54.3115 84.1538C54.2965 84.1573 54.2823 84.1635 54.2697 84.1721C53.868 84.354 53.4662 84.536 53.0569 84.6881C51.9532 85.1051 50.7449 85.1835 49.6069 84.9121C48.4183 84.6475 47.3514 84.0471 46.548 83.1906C45.7445 82.3342 45.2424 81.2622 45.1084 80.1171C44.9187 78.7407 45.2984 77.3366 46.1695 76.1933C47.2155 74.7982 48.6586 73.9883 50.4482 73.745C52.2022 73.509 53.7721 73.8953 55.1015 74.9816C55.9752 75.695 56.8269 76.4313 57.6876 77.1581C58.6316 77.9547 59.5675 78.7583 60.5185 79.547C60.8932 79.8819 61.3529 80.1217 61.8559 80.2449C62.359 80.3681 62.8895 80.3707 63.3995 80.2525C63.9096 80.1343 64.3831 79.899 64.7773 79.5679C65.1715 79.2368 65.474 78.8203 65.6574 78.356C65.8407 77.8918 65.8992 77.3944 65.8276 76.9089C65.7559 76.4233 65.5564 75.965 65.247 75.5752C64.9376 75.1853 64.528 74.8764 64.0554 74.6762C63.5828 74.476 63.062 74.3909 62.5401 74.4286C62.3701 74.4502 62.2013 74.48 62.0343 74.5178L62.6554 75.0892L57.852 76.5849C58.2251 75.0306 58.5936 73.5039 58.9671 71.9518C59.2016 72.1526 59.4149 72.3338 59.625 72.5167C59.6751 72.559 59.711 72.5815 59.7866 72.5393C61.3094 71.7043 62.9156 71.4633 64.5883 71.9148C66.4868 72.4309 67.7938 73.5711 68.506 75.3116C68.5961 75.5335 68.663 75.7649 68.7423 75.9931Z" fill="white"/>
    <defs>
        <clipPath id="clip0_4804_14315">
            <rect width="44" height="31" fill="white" transform="translate(144)"/>
        </clipPath>
        <clipPath id="clip1_4804_14315">
            <rect width="25" height="23" fill="white" transform="translate(79)"/>
        </clipPath>
        <clipPath id="clip2_4804_14315">
            <rect width="25" height="25" fill="white" transform="translate(0 95)"/>
        </clipPath>
        <clipPath id="clip3_4804_14315">
            <rect width="20" height="20" fill="white" transform="translate(193 63.9008) rotate(-33.0276)"/>
        </clipPath>
        <clipPath id="clip4_4804_14315">
            <rect width="25" height="23" fill="white" transform="translate(203 106)"/>
        </clipPath>
        <clipPath id="clip5_4804_14315">
            <rect width="25" height="23" fill="white" transform="translate(104 178)"/>
        </clipPath>
        <clipPath id="clip6_4804_14315">
            <rect width="27" height="20" fill="white" transform="translate(166 159)"/>
        </clipPath>
        <clipPath id="clip7_4804_14315">
            <rect width="23.3687" height="17.3102" fill="white" transform="translate(38.8965 46.0745) rotate(170.535)"/>
        </clipPath>
    </defs>
</svg>
