<svg width="137" height="137" viewBox="0 0 137 137" fill="none" xmlns="http://www.w3.org/2000/svg">
<circle cx="68.5" cy="68.5" r="68.5" fill="white"/>
<rect x="17.916" y="1" width="100" height="65" rx="10" transform="rotate(16 17.916 1)" fill="#C1C1C1"/>
<path d="M26.8731 34.6264C26.6081 34.5504 26.3589 34.4061 26.1537 34.1934C25.5303 33.5479 25.5482 32.5193 26.1938 31.8959L39.9861 18.5769C40.6317 17.9536 41.6601 17.9713 42.2836 18.617C42.907 19.2626 42.8891 20.2911 42.2435 20.9146L28.4512 34.2335C28.0183 34.6517 27.4129 34.7812 26.8731 34.6264Z" fill="white"/>
<path d="M26.5194 24.9284C25.7249 24.7007 24.9785 24.2682 24.3642 23.632C22.4971 21.6985 22.5512 18.6065 24.4845 16.7393C26.4181 14.8721 29.5102 14.9262 31.3772 16.8596C32.2817 17.7962 32.7673 19.029 32.7446 20.3308C32.7219 21.6326 32.1936 22.8478 31.257 23.7522C29.9595 25.0052 28.14 25.393 26.5194 24.9284ZM28.3211 18.6849C27.7809 18.53 27.1745 18.6592 26.7419 19.0769C26.0975 19.6993 26.0795 20.73 26.7019 21.3745C27.3241 22.0191 28.3548 22.0371 28.9994 21.4146C29.3116 21.1131 29.4877 20.7081 29.4952 20.2741C29.5028 19.8402 29.3409 19.4293 29.0394 19.117C28.8348 18.9051 28.5859 18.7608 28.3211 18.6849Z" fill="white"/>
<path d="M39.8101 37.5325C38.9981 37.2997 38.2579 36.857 37.6553 36.233C36.751 35.2964 36.2653 34.0636 36.288 32.7618C36.3107 31.46 36.839 30.2448 37.7756 29.3404C39.7091 27.4734 42.8013 27.5273 44.6683 29.4607C45.5728 30.3974 46.0584 31.6302 46.0357 32.932C46.013 34.2338 45.4847 35.4489 44.5481 36.3533C43.6115 37.2578 42.3787 37.7434 41.0768 37.7208C40.6422 37.7132 40.2171 37.6492 39.8101 37.5325ZM41.6123 31.286C41.0721 31.1311 40.4657 31.2603 40.0331 31.678C39.7209 31.9795 39.5448 32.3845 39.5373 32.8185C39.5297 33.2524 39.6916 33.6633 39.9931 33.9755C40.2946 34.2878 40.6998 34.4638 41.1335 34.4715C41.5674 34.479 41.9783 34.3171 42.2906 34.0157C42.6028 33.7142 42.7789 33.3091 42.7864 32.8752C42.794 32.4413 42.6321 32.0304 42.3306 31.7181C42.126 31.5062 41.8771 31.3619 41.6123 31.286Z" fill="white"/>
<path d="M46.0358 32.932C46.0586 31.6302 45.5729 30.3974 44.6684 29.4607C44.0787 28.85 43.3666 28.4273 42.6074 28.1929L41.7113 31.3179C41.939 31.3993 42.1518 31.5328 42.3307 31.7182C42.6323 32.0305 42.7941 32.4414 42.7865 32.8753C42.779 33.3092 42.6029 33.7142 42.2907 34.0158C41.9784 34.3172 41.5676 34.4791 41.1336 34.4716C41.0261 34.4697 40.9204 34.4573 40.8176 34.4352L39.9214 37.5605C40.2946 37.658 40.6815 37.7138 41.077 37.7207C42.3788 37.7435 43.6116 37.2578 44.5482 36.3533C45.4848 35.4489 46.0132 34.2338 46.0358 32.932Z" fill="white"/>
<rect x="37" y="58.5228" width="100" height="65" rx="10" fill="#D9D9D9"/>
<path d="M54.8785 88.3778C54.6028 88.3778 54.3235 88.3077 54.0676 88.1598C53.2904 87.7111 53.0241 86.7175 53.4729 85.9403L63.0597 69.3356C63.5084 68.5585 64.5019 68.292 65.2792 68.7409C66.0565 69.1896 66.3227 70.1832 65.8739 70.9605L56.2872 87.5651C55.9863 88.0864 55.4401 88.3778 54.8785 88.3778Z" fill="white"/>
<path d="M51.8653 79.1529C51.0388 79.1531 50.2021 78.943 49.4362 78.5008C47.1086 77.1568 46.3083 74.1697 47.652 71.8419C48.996 69.5141 51.9833 68.7138 54.3109 70.0577C55.4385 70.7087 56.2451 71.7599 56.5821 73.0175C56.9191 74.2752 56.7462 75.5888 56.0952 76.7164C55.1933 78.2785 53.5512 79.1528 51.8653 79.1529ZM51.8763 72.6547C51.3143 72.6547 50.767 72.9461 50.4663 73.4668C50.0184 74.2427 50.2852 75.2384 51.0611 75.6864C51.8369 76.1345 52.8327 75.8677 53.2807 75.0916C53.4977 74.7158 53.5553 74.2779 53.443 73.8587C53.3306 73.4395 53.0618 73.0891 52.6859 72.8721C52.4308 72.7247 52.1517 72.6547 51.8763 72.6547Z" fill="white"/>
<path d="M68.115 87.6054C67.2702 87.6054 66.4367 87.3838 65.6854 86.9501C64.558 86.2991 63.7513 85.2479 63.4143 83.9902C63.0773 82.7326 63.2502 81.4189 63.9012 80.2914C65.2452 77.9637 68.2325 77.1632 70.5601 78.5072C71.6877 79.1582 72.4943 80.2094 72.8313 81.467C73.1683 82.7247 72.9954 84.0383 72.3444 85.1659C71.6934 86.2935 70.6422 87.1 69.3845 87.4371C68.9646 87.5497 68.5384 87.6054 68.115 87.6054ZM68.1256 81.104C67.5636 81.104 67.0163 81.3954 66.7156 81.9162C66.4986 82.292 66.441 82.7299 66.5533 83.1491C66.6657 83.5683 66.9345 83.9186 67.3104 84.1357C67.6863 84.3528 68.1244 84.4102 68.5434 84.2981C68.9626 84.1858 69.3129 83.9168 69.53 83.541C69.747 83.1651 69.8046 82.7273 69.6923 82.3081C69.5799 81.8889 69.3111 81.5385 68.9352 81.3214C68.6801 81.1741 68.401 81.104 68.1256 81.104Z" fill="white"/>
<path d="M72.8313 81.467C72.4944 80.2094 71.6878 79.1582 70.5601 78.5072C69.8249 78.0826 69.0238 77.8726 68.2295 77.8566V81.1075C68.4707 81.123 68.7121 81.1926 68.9352 81.3216C69.3112 81.5386 69.58 81.889 69.6923 82.3082C69.8046 82.7274 69.747 83.1652 69.53 83.5411C69.313 83.917 68.9626 84.1859 68.5434 84.2982C68.4395 84.326 68.3346 84.3433 68.2296 84.3503V87.6016C68.6152 87.5925 69.0025 87.5395 69.3846 87.4371C70.6422 87.1001 71.6934 86.2934 72.3444 85.1659C72.9954 84.0383 73.1684 82.7247 72.8313 81.467Z" fill="white"/>
</svg>
