<svg width="24" height="22" viewBox="0 0 24 22" fill="none" xmlns="http://www.w3.org/2000/svg">
    <g clip-path="url(#clip0_6098_18)">
        <path d="M21.3 4.13428H2.7C2.6 5.63428 1.5 6.73428 0 6.73428V13.4343V16.6343C1.4 16.6343 2.6 17.7343 2.7 19.1343H21.3C21.4 17.6343 22.6 16.6343 24 16.6343V9.93428V6.73428C22.6 6.73428 21.4 5.53428 21.3 4.13428ZM17.2 16.6343C16.1 17.4343 14.8 17.8343 13.5 17.8343C10.8 17.8343 8.5 16.1343 7.6 13.7343H6.8C6.3 13.7343 5.9 13.3343 5.9 12.9343C5.9 12.4343 6.3 12.0343 6.8 12.0343H7.2C7.2 11.9343 7.2 11.7343 7.2 11.6343C7.2 11.5343 7.2 11.4343 7.2 11.3343H6.8C6.3 11.3343 5.9 10.9343 5.9 10.4343C5.9 9.93428 6.3 9.53428 6.8 9.53428H7.5C8.3 7.03428 10.7 5.33428 13.4 5.33428C14.5 5.33428 15.6 5.63428 16.5 6.13428C16.9 6.33428 17 6.93428 16.8 7.33428C16.6 7.73428 16 7.83428 15.6 7.63428C14.9 7.23428 14.1 7.03428 13.3 7.03428C11.5 7.03428 10 8.03428 9.2 9.53428H14C14.5 9.53428 14.8 9.93428 14.8 10.4343C14.8 10.9343 14.4 11.3343 14 11.3343H9C9 11.4343 9 11.5343 9 11.6343C9 11.8343 9 11.9343 9 12.0343H13.3C13.8 12.0343 14.1 12.4343 14.1 12.9343C14.1 13.4343 13.7 13.7343 13.3 13.7343H9.5C10.3 15.1343 11.8 16.1343 13.5 16.1343C14.5 16.1343 15.4 15.8343 16.2 15.2343C16.6 14.9343 17.1 15.0343 17.4 15.4343C17.7 15.8343 17.6 16.3343 17.2 16.6343Z" fill="#AEAEAE"/>
    </g>
    <defs>
        <clipPath id="clip0_6098_18">
            <rect width="24" height="21.5126" fill="white" transform="translate(0 0.134277)"/>
        </clipPath>
    </defs>
</svg>
