<svg width="228" height="201" viewBox="0 0 228 201" fill="none" xmlns="http://www.w3.org/2000/svg">
    <g clip-path="url(#clip0_2615_12000)">
        <path d="M161.52 12.6964C161.52 12.6964 168.575 11.2144 175.314 14.2984C182.093 17.3824 187.999 24.2312 187.999 24.2312L179.04 31.04C179.04 31 179.556 19.9858 161.52 12.6964Z" fill="#FBE5A8"/>
        <path d="M161.52 18.2636L160.093 12.2558L164.176 7.68991C164.652 7.16924 164.295 6.32815 163.621 6.2881L157.517 5.80748L154.504 0.440555C154.147 -0.160221 153.275 -0.120169 152.998 0.520658L150.659 6.208L144.673 7.48965C143.999 7.64986 143.762 8.49094 144.317 8.97156L148.954 12.9767L148.32 19.1046C148.241 19.7855 148.994 20.2661 149.589 19.9057L154.821 16.7015L160.371 19.2248C161.005 19.5452 161.679 18.9444 161.52 18.2636Z" fill="#F9CA58"/>
    </g>
    <g clip-path="url(#clip1_2615_12000)">
        <path d="M79.7065 9.34944C77.169 14.934 81.8695 21.4286 87.402 22.6696C93.5168 24.0761 100.089 20.7253 102.751 15.1408C105.663 9.10124 103.375 2.85484 97.5933 0.621024C91.9777 -1.57142 86.6948 2.44117 86.8196 8.06707C86.9028 12.121 89.8562 14.5203 91.8945 14.0239C93.4752 13.6102 94.0159 11.5833 92.4768 10.7559C91.8529 10.425 91.1041 10.5904 90.605 10.9628C89.357 9.96995 88.8163 7.0329 90.5634 4.55088C92.8096 1.36563 97.3437 2.5239 99.6316 5.00592C102.543 8.1498 101.711 12.8243 99.3404 16.0509C96.8446 19.4016 92.1857 21.2631 88.0675 20.3117C83.367 19.2361 80.4136 14.5203 81.4119 9.88721C81.5783 8.77031 80.164 8.35664 79.7065 9.34944Z" fill="#9CDBE3"/>
    </g>
    <g clip-path="url(#clip2_2615_12000)">
        <path d="M12.9036 119.528L8.60252 113.329H1.07564C0.201983 113.329 -0.268447 112.318 0.269187 111.644L4.83908 105.647L2.41972 98.4366C2.15091 97.628 2.95736 96.8194 3.76381 97.1563L10.8875 99.6496L17.0031 95.2021C17.6751 94.663 18.6832 95.2021 18.6832 96.0781L18.4816 103.625L24.5971 108.073C25.2692 108.544 25.1348 109.69 24.2611 109.892L17.0031 112.048L14.7181 119.259C14.4493 120.067 13.374 120.27 12.9036 119.528Z" fill="#A9DE98"/>
    </g>
    <g clip-path="url(#clip3_2615_12000)">
        <path d="M212.35 74.7264L206.762 72.4437L201.713 75.7256C201.127 76.1066 200.371 75.6338 200.438 74.9474L200.888 68.9322L196.121 65.151C195.588 64.7258 195.777 63.8318 196.465 63.7062L202.33 62.2723L204.492 56.6227C204.708 55.9681 205.619 55.8901 206.001 56.4777L209.157 61.6277L215.198 61.9441C215.854 61.9674 216.264 62.7944 215.766 63.3109L211.838 67.922L213.449 73.7544C213.622 74.414 212.989 75.0185 212.35 74.7264Z" fill="#A9DE98"/>
    </g>
    <g clip-path="url(#clip4_2615_12000)">
        <path d="M203.698 115.351C201.189 120.943 205.858 127.42 211.386 128.684C217.517 130.074 224.092 126.725 226.729 121.133C229.619 115.067 227.332 108.843 221.551 106.6C215.928 104.42 210.687 108.401 210.782 114.056C210.846 118.1 213.832 120.501 215.833 119.995C217.421 119.616 217.93 117.563 216.436 116.741C215.833 116.394 215.071 116.552 214.562 116.962C213.323 115.983 212.752 113.013 214.499 110.549C216.722 107.39 221.265 108.527 223.552 111.023C226.443 114.182 225.649 118.858 223.234 122.049C220.725 125.398 216.087 127.262 211.957 126.314C207.32 125.24 204.334 120.532 205.35 115.857C205.604 114.751 204.143 114.372 203.698 115.351Z" fill="#9CDBE3"/>
    </g>
    <g clip-path="url(#clip5_2615_12000)">
        <path d="M104.698 187.351C102.189 192.943 106.858 199.42 112.386 200.684C118.517 202.074 125.092 198.725 127.729 193.133C130.619 187.067 128.332 180.843 122.551 178.6C116.928 176.42 111.687 180.401 111.782 186.056C111.846 190.1 114.832 192.501 116.833 191.995C118.421 191.616 118.93 189.563 117.436 188.741C116.833 188.394 116.071 188.552 115.562 188.962C114.323 187.983 113.752 185.013 115.499 182.549C117.722 179.39 122.265 180.527 124.552 183.023C127.443 186.182 126.649 190.858 124.234 194.049C121.725 197.398 117.087 199.262 112.957 198.314C108.32 197.24 105.334 192.532 106.35 187.857C106.604 186.751 105.143 186.372 104.698 187.351Z" fill="#9CDBE3"/>
    </g>
    <g clip-path="url(#clip6_2615_12000)">
        <path d="M192.339 172.708L186.186 174.294L182.576 164.575L173.322 165.803L169.407 159L166 160.995L171.186 170.049L179.983 168.923L183.746 179L193 176.596L192.339 172.708Z" fill="#FBE5A8"/>
    </g>
    <g clip-path="url(#clip7_2615_12000)">
        <path d="M14.4611 38.12L19.488 35.8906L23.9533 43.6739L31.6792 41.3087L35.99 46.5593L38.6145 44.3714L32.8981 37.3802L25.5484 39.5929L20.9018 31.5257L13.3434 34.8953L14.4611 38.12Z" fill="#879DD1"/>
    </g>
    <path d="M42.8087 167.044C42.8087 167.044 45.7482 164.067 50.6084 164.727C54.9529 165.349 57.4564 169.216 56.9138 173.197C56.2734 177.82 51.4307 182.738 40.21 185.942C30.2879 179.643 26.9587 173.625 27.62 168.959C28.1625 164.978 31.6594 161.953 36.0039 162.576C40.8224 163.322 42.8087 167.044 42.8087 167.044Z" fill="#F48C7F"/>
    <circle cx="111" cy="97" r="66" fill="#E6FFD4"/>
    <rect x="33" y="63.33" width="142" height="90" rx="10" transform="rotate(-10 33 63.33)" fill="#1B8158"/>
    <path d="M63.137 99.9834C63.2782 100.784 63.2241 101.552 62.9745 102.287C62.7226 103.008 62.2517 103.639 61.5619 104.181C60.8721 104.722 59.9626 105.092 58.8333 105.291L56.7455 105.66L57.6207 110.623L54.2527 111.217L51.8147 97.3901L57.2705 96.4281C58.3735 96.2336 59.3393 96.2596 60.1681 96.5062C60.9968 96.7527 61.6606 97.1772 62.1595 97.7797C62.6584 98.3822 62.9842 99.1168 63.137 99.9834ZM58.105 102.658C58.7484 102.544 59.201 102.309 59.4629 101.951C59.7248 101.594 59.8071 101.139 59.7099 100.588C59.6126 100.036 59.3798 99.6373 59.0114 99.3908C58.643 99.1444 58.1371 99.0779 57.4937 99.1913L55.662 99.5143L56.2732 102.981L58.105 102.658ZM68.2967 99.297C68.5841 98.6236 68.9931 98.064 69.5238 97.6184C70.0522 97.1597 70.6775 96.8667 71.3997 96.7394L72.0283 100.304L71.1026 100.468C70.2622 100.616 69.6643 100.911 69.309 101.352C68.9513 101.781 68.8523 102.448 69.0121 103.354L69.9116 108.456L66.5436 109.05L64.6056 98.0592L67.9737 97.4653L68.2967 99.297ZM79.9989 106.84C78.9222 107.029 77.91 106.971 76.9623 106.664C76.0278 106.355 75.2358 105.818 74.5863 105.052C73.95 104.284 73.5311 103.329 73.3296 102.187C73.1305 101.058 73.2052 100.022 73.5537 99.0809C73.8998 98.1263 74.4657 97.3428 75.2513 96.7304C76.0369 96.118 76.9681 95.7169 78.0448 95.527C79.1215 95.3372 80.1337 95.3956 81.0814 95.7024C82.029 96.0092 82.8288 96.5519 83.4805 97.3305C84.13 98.096 84.5543 99.0434 84.7534 100.173C84.9525 101.302 84.8724 102.345 84.5132 103.302C84.1647 104.243 83.5911 105.021 82.7924 105.636C82.0068 106.249 81.0756 106.65 79.9989 106.84ZM79.4849 103.925C80.1283 103.811 80.6315 103.479 80.9946 102.927C81.3709 102.373 81.4814 101.657 81.3263 100.777C81.1712 99.8972 80.8287 99.2603 80.2989 98.8663C79.7822 98.47 79.2022 98.3286 78.5588 98.442C77.9023 98.5578 77.399 98.8903 77.049 99.4394C76.6968 99.9753 76.5993 100.69 76.7568 101.583C76.9119 102.462 77.2412 103.102 77.7448 103.5C78.2614 103.897 78.8415 104.038 79.4849 103.925ZM99.5741 91.7714C100.94 91.5306 102.096 91.7533 103.043 92.4393C104.003 93.1229 104.612 94.2001 104.872 95.6708L106.004 102.092L102.656 102.682L101.603 96.7142C101.478 96.0051 101.192 95.4938 100.744 95.1801C100.307 94.851 99.7598 94.7444 99.1033 94.8601C98.4467 94.9759 97.9628 95.2643 97.6515 95.7254C97.351 96.171 97.2632 96.7483 97.3882 97.4574L98.4406 103.425L95.0922 104.016L94.0399 98.0478C93.9149 97.3387 93.6284 96.8274 93.1805 96.5137C92.7433 96.1846 92.1965 96.078 91.54 96.1937C90.8834 96.3095 90.3995 96.5979 90.0882 97.059C89.7876 97.5046 89.6999 98.0819 89.8249 98.791L90.8772 104.759L87.5092 105.353L85.5713 94.3624L88.9393 93.7685L89.1824 95.1472C89.4428 94.6274 89.8256 94.1876 90.3307 93.8278C90.8336 93.4548 91.433 93.2069 92.129 93.0842C92.9562 92.9384 93.7228 92.986 94.4287 93.227C95.1477 93.4658 95.749 93.881 96.2324 94.4728C96.5067 93.8016 96.9385 93.2177 97.5279 92.7212C98.1173 92.2246 98.7994 91.908 99.5741 91.7714ZM113.39 100.952C112.313 101.142 111.301 101.083 110.353 100.776C109.419 100.467 108.627 99.9301 107.977 99.1645C107.341 98.3967 106.922 97.4416 106.721 96.2992C106.522 95.17 106.596 94.1346 106.945 93.1931C107.291 92.2385 107.857 91.455 108.642 90.8426C109.428 90.2302 110.359 89.8291 111.436 89.6393C112.513 89.4494 113.525 89.5079 114.473 89.8146C115.42 90.1214 116.22 90.6641 116.872 91.4428C117.521 92.2083 117.945 93.1557 118.145 94.2849C118.344 95.4141 118.264 96.4572 117.904 97.4142C117.556 98.3556 116.982 99.1337 116.183 99.7484C115.398 100.361 114.467 100.762 113.39 100.952ZM112.876 98.0368C113.519 97.9233 114.023 97.5909 114.386 97.0395C114.762 96.4857 114.873 95.769 114.717 94.8892C114.562 94.0094 114.22 93.3726 113.69 92.9786C113.173 92.5823 112.593 92.4408 111.95 92.5543C111.293 92.6701 110.79 93.0025 110.44 93.5516C110.088 94.0876 109.99 94.802 110.148 95.6949C110.303 96.5747 110.632 97.2139 111.136 97.6125C111.653 98.0088 112.233 98.1502 112.876 98.0368ZM126.522 95.529L127.026 98.385L125.312 98.6871C124.091 98.9024 123.087 98.7749 122.3 98.3044C121.511 97.8208 120.997 96.9027 120.758 95.5502L119.987 91.1777L118.648 91.4139L118.155 88.617L119.494 88.3808L119.022 85.7022L122.39 85.1083L122.862 87.787L125.068 87.398L125.561 90.1948L123.355 90.5838L124.133 94.9958C124.191 95.324 124.312 95.5465 124.495 95.6631C124.678 95.7798 124.953 95.8057 125.321 95.7409L126.522 95.529ZM128.456 85.6227C127.866 85.7269 127.35 85.6418 126.909 85.3676C126.478 85.0779 126.218 84.677 126.128 84.1649C126.035 83.6396 126.143 83.1739 126.45 82.7677C126.768 82.346 127.223 82.0831 127.814 81.9789C128.392 81.877 128.896 81.9709 129.326 82.2606C129.767 82.5349 130.034 82.9346 130.126 83.4598C130.217 83.9719 130.103 84.4388 129.784 84.8605C129.477 85.2667 129.034 85.5208 128.456 85.6227ZM130.332 86.4698L132.27 97.4603L128.902 98.0542L126.964 87.0637L130.332 86.4698ZM139.741 96.3054C138.665 96.4952 137.652 96.4368 136.705 96.13C135.77 95.8209 134.978 95.2836 134.329 94.5181C133.692 93.7503 133.274 92.7951 133.072 91.6528C132.873 90.5235 132.948 89.4882 133.296 88.5467C133.642 87.5921 134.208 86.8086 134.994 86.1962C135.779 85.5838 136.711 85.1827 137.787 84.9928C138.864 84.803 139.876 84.8614 140.824 85.1682C141.771 85.4749 142.571 86.0177 143.223 86.7963C143.872 87.5618 144.297 88.5092 144.496 89.6385C144.695 90.7677 144.615 91.8108 144.256 92.7677C143.907 93.7092 143.334 94.4873 142.535 95.102C141.749 95.7144 140.818 96.1155 139.741 96.3054ZM139.227 93.3903C139.871 93.2769 140.374 92.9444 140.737 92.393C141.113 91.8393 141.224 91.1225 141.069 90.2427C140.914 89.363 140.571 88.7261 140.041 88.3321C139.525 87.9358 138.945 87.7944 138.301 87.9078C137.645 88.0236 137.141 88.3561 136.791 88.9052C136.439 89.4411 136.342 90.1556 136.499 91.0485C136.654 91.9282 136.984 92.5674 137.487 92.966C138.004 93.3623 138.584 93.5038 139.227 93.3903ZM151.99 82.5292C153.276 82.3023 154.375 82.5419 155.284 83.2479C156.205 83.9386 156.794 85.0127 157.051 86.4702L158.183 92.8911L154.835 93.4815L153.782 87.5136C153.653 86.7783 153.362 86.2407 152.909 85.9007C152.456 85.5608 151.908 85.4476 151.265 85.5611C150.622 85.6745 150.145 85.9683 149.836 86.4425C149.527 86.9167 149.438 87.5215 149.567 88.2568L150.62 94.2247L147.252 94.8186L145.314 83.8282L148.682 83.2343L148.939 84.6918C149.194 84.1458 149.587 83.6839 150.116 83.3063C150.643 82.9156 151.267 82.6565 151.99 82.5292ZM165.022 91.8476C164.064 92.0167 163.181 92.003 162.375 91.8067C161.569 91.6104 160.899 91.2682 160.366 90.78C159.831 90.2786 159.475 89.678 159.297 88.9782L162.626 88.3913C162.732 88.7651 162.964 89.0425 163.321 89.2232C163.677 89.404 164.086 89.4539 164.545 89.3729C164.965 89.2988 165.273 89.1633 165.469 88.9663C165.675 88.754 165.755 88.5165 165.709 88.2539C165.653 87.9387 165.448 87.7379 165.095 87.6513C164.739 87.5516 164.177 87.4747 163.409 87.4205C162.589 87.3756 161.899 87.301 161.339 87.1966C160.776 87.0792 160.267 86.8373 159.809 86.4712C159.35 86.0919 159.054 85.528 158.922 84.7795C158.811 84.1492 158.881 83.548 159.132 82.9757C159.394 82.3879 159.833 81.884 160.45 81.4639C161.079 81.0415 161.86 80.7481 162.792 80.5837C164.171 80.3406 165.315 80.491 166.223 81.0349C167.144 81.5765 167.764 82.4014 168.081 83.5098L164.969 84.0586C164.849 83.687 164.625 83.4151 164.297 83.2428C163.982 83.0682 163.595 83.0215 163.135 83.1025C162.741 83.172 162.453 83.304 162.271 83.4986C162.086 83.6801 162.017 83.9021 162.063 84.1648C162.119 84.4799 162.325 84.6873 162.681 84.787C163.05 84.8844 163.603 84.9493 164.34 84.9819C165.191 85.0484 165.891 85.1416 166.44 85.2614C166.987 85.368 167.491 85.6176 167.953 86.01C168.426 86.387 168.736 86.9551 168.883 87.7144C168.997 88.3578 168.915 88.968 168.637 89.5449C168.371 90.1064 167.922 90.5918 167.29 91.001C166.671 91.408 165.915 91.6902 165.022 91.8476Z" fill="white"/>
    <defs>
        <clipPath id="clip0_2615_12000">
            <rect width="44" height="31" fill="white" transform="translate(144)"/>
        </clipPath>
        <clipPath id="clip1_2615_12000">
            <rect width="25" height="23" fill="white" transform="translate(79)"/>
        </clipPath>
        <clipPath id="clip2_2615_12000">
            <rect width="25" height="25" fill="white" transform="translate(0 95)"/>
        </clipPath>
        <clipPath id="clip3_2615_12000">
            <rect width="20" height="20" fill="white" transform="translate(193 63.9009) rotate(-33.0276)"/>
        </clipPath>
        <clipPath id="clip4_2615_12000">
            <rect width="25" height="23" fill="white" transform="translate(203 106)"/>
        </clipPath>
        <clipPath id="clip5_2615_12000">
            <rect width="25" height="23" fill="white" transform="translate(104 178)"/>
        </clipPath>
        <clipPath id="clip6_2615_12000">
            <rect width="27" height="20" fill="white" transform="translate(166 159)"/>
        </clipPath>
        <clipPath id="clip7_2615_12000">
            <rect width="23.3687" height="17.3102" fill="white" transform="translate(38.8984 46.0745) rotate(170.535)"/>
        </clipPath>
    </defs>
</svg>
