<svg width="228" height="201" viewBox="0 0 228 201" fill="none" xmlns="http://www.w3.org/2000/svg">
<g clip-path="url(#clip0_2_1680)">
<path d="M161.521 12.6965C161.521 12.6965 168.577 11.2146 175.315 14.2985C182.094 17.3825 188 24.2314 188 24.2314L179.041 31.0402C179.041 31.0001 179.557 19.9859 161.521 12.6965Z" fill="#FBE5A8"/>
<path d="M161.521 18.2636L160.094 12.2558L164.177 7.68991C164.652 7.16924 164.295 6.32815 163.622 6.2881L157.517 5.80748L154.504 0.440555C154.148 -0.160221 153.276 -0.120169 152.998 0.520658L150.659 6.208L144.674 7.48965C144 7.64986 143.762 8.49094 144.317 8.97156L148.955 12.9767L148.321 19.1046C148.241 19.7855 148.995 20.2661 149.589 19.9057L154.822 16.7015L160.371 19.2248C161.005 19.5452 161.679 18.9444 161.521 18.2636Z" fill="#F9CA58"/>
</g>
<g clip-path="url(#clip1_2_1680)">
<path d="M79.7072 9.34944C77.1697 14.934 81.8702 21.4286 87.4027 22.6696C93.5175 24.0761 100.09 20.7253 102.752 15.1408C105.664 9.10124 103.376 2.85484 97.594 0.621024C91.9784 -1.57142 86.6955 2.44117 86.8203 8.06707C86.9035 12.121 89.8569 14.5203 91.8952 14.0239C93.4759 13.6102 94.0167 11.5833 92.4776 10.7559C91.8536 10.425 91.1049 10.5904 90.6057 10.9628C89.3578 9.96995 88.817 7.0329 90.5641 4.55088C92.8103 1.36563 97.3445 2.5239 99.6323 5.00592C102.544 8.1498 101.712 12.8243 99.3411 16.0509C96.8453 19.4016 92.1864 21.2631 88.0682 20.3117C83.3677 19.2361 80.4143 14.5203 81.4127 9.88721C81.5791 8.77031 80.1648 8.35664 79.7072 9.34944Z" fill="#9CDBE3"/>
</g>
<g clip-path="url(#clip2_2_1680)">
<path d="M12.9034 119.528L8.60228 113.329H1.07539C0.201739 113.329 -0.268691 112.318 0.268943 111.644L4.83884 105.647L2.41948 98.4366C2.15066 97.628 2.95712 96.8194 3.76357 97.1563L10.8872 99.6496L17.0028 95.2021C17.6749 94.663 18.6829 95.2021 18.6829 96.0781L18.4813 103.625L24.5969 108.073C25.2689 108.544 25.1345 109.69 24.2609 109.892L17.0028 112.048L14.7179 119.259C14.4491 120.067 13.3738 120.27 12.9034 119.528Z" fill="#A9DE98"/>
</g>
<g clip-path="url(#clip3_2_1680)">
<path d="M212.35 74.7265L206.762 72.4438L201.713 75.7258C201.127 76.1067 200.371 75.6339 200.438 74.9475L200.888 68.9323L196.121 65.1511C195.588 64.726 195.777 63.832 196.465 63.7063L202.33 62.2724L204.492 56.6228C204.708 55.9682 205.619 55.8902 206.001 56.4778L209.157 61.6278L215.198 61.9442C215.854 61.9676 216.264 62.7945 215.766 63.3111L211.838 67.9221L213.449 73.7545C213.622 74.4141 212.989 75.0186 212.35 74.7265Z" fill="#A9DE98"/>
</g>
<g clip-path="url(#clip4_2_1680)">
<path d="M203.699 115.351C201.189 120.943 205.859 127.42 211.386 128.684C217.517 130.074 224.093 126.725 226.729 121.133C229.62 115.067 227.333 108.843 221.552 106.6C215.929 104.42 210.688 108.401 210.783 114.056C210.846 118.1 213.832 120.501 215.834 119.995C217.422 119.616 217.93 117.563 216.437 116.741C215.834 116.394 215.071 116.552 214.563 116.962C213.324 115.983 212.752 113.013 214.499 110.549C216.723 107.39 221.266 108.527 223.553 111.023C226.444 114.182 225.649 118.858 223.235 122.049C220.726 125.398 216.088 127.262 211.958 126.314C207.32 125.24 204.334 120.532 205.351 115.857C205.605 114.751 204.144 114.372 203.699 115.351Z" fill="#9CDBE3"/>
</g>
<g clip-path="url(#clip5_2_1680)">
<path d="M104.699 187.351C102.189 192.943 106.859 199.42 112.386 200.684C118.517 202.074 125.093 198.725 127.729 193.133C130.62 187.067 128.333 180.843 122.552 178.6C116.929 176.42 111.688 180.401 111.783 186.056C111.846 190.1 114.832 192.501 116.834 191.995C118.422 191.616 118.93 189.563 117.437 188.741C116.834 188.394 116.071 188.552 115.563 188.962C114.324 187.983 113.752 185.013 115.499 182.549C117.723 179.39 122.266 180.527 124.553 183.023C127.444 186.182 126.649 190.858 124.235 194.049C121.726 197.398 117.088 199.262 112.958 198.314C108.32 197.24 105.334 192.532 106.351 187.857C106.605 186.751 105.144 186.372 104.699 187.351Z" fill="#9CDBE3"/>
</g>
<g clip-path="url(#clip6_2_1680)">
<path d="M192.339 172.708L186.186 174.294L182.576 164.575L173.322 165.803L169.407 159L166 160.995L171.186 170.049L179.983 168.923L183.746 179L193 176.596L192.339 172.708Z" fill="#FBE5A8"/>
</g>
<g clip-path="url(#clip7_2_1680)">
<path d="M14.4598 38.12L19.4867 35.8906L23.9521 43.6739L31.6779 41.3087L35.9888 46.5593L38.6133 44.3714L32.8969 37.3802L25.5472 39.5929L20.9006 31.5257L13.3422 34.8953L14.4598 38.12Z" fill="#879DD1"/>
</g>
<path d="M42.8074 167.044C42.8074 167.044 45.747 164.067 50.6072 164.727C54.9517 165.349 57.4552 169.216 56.9126 173.197C56.2722 177.82 51.4295 182.738 40.2088 185.942C30.2866 179.643 26.9575 173.625 27.6188 168.959C28.1613 164.978 31.6582 161.953 36.0027 162.576C40.8212 163.322 42.8074 167.044 42.8074 167.044Z" fill="#F48C7F"/>
<circle cx="111" cy="97" r="66" fill="#E6FFD4"/>
<rect x="33" y="63.3298" width="142" height="90" rx="10" transform="rotate(-10 33 63.3298)" fill="#1B8158"/>
<path d="M75.8355 107.411L72.0395 102.699L71.2319 102.841L72.1523 108.06L68.7842 108.654L66.3462 94.8276L71.999 93.8308C73.0889 93.6386 74.0482 93.6658 74.8769 93.9123C75.7187 94.1565 76.3891 94.5799 76.888 95.1824C77.3845 95.7718 77.7046 96.4735 77.8481 97.2876C78.0102 98.2068 77.8923 99.0738 77.4944 99.8886C77.1097 100.701 76.4384 101.347 75.4806 101.828L79.6368 106.741L75.8355 107.411ZM70.8117 100.458L72.8995 100.09C73.5166 99.9807 73.9496 99.7487 74.1984 99.3934C74.4602 99.0358 74.5426 98.5813 74.4453 98.0298C74.3527 97.5046 74.1222 97.1187 73.7538 96.8723C73.3986 96.6235 72.9124 96.5536 72.2952 96.6624L70.2074 97.0305L70.8117 100.458ZM90.9929 98.8894C91.0484 99.2046 91.0866 99.5363 91.1074 99.8846L83.485 101.229C83.6579 101.902 83.9672 102.389 84.4128 102.69C84.8693 102.975 85.3798 103.068 85.9444 102.968C86.7848 102.82 87.3066 102.362 87.5098 101.595L91.0945 100.963C91.038 101.718 90.8178 102.427 90.4338 103.09C90.063 103.751 89.5454 104.31 88.8811 104.765C88.2168 105.221 87.4382 105.528 86.5453 105.685C85.4686 105.875 84.4695 105.814 83.5481 105.503C82.6267 105.191 81.8544 104.65 81.2312 103.88C80.608 103.11 80.1957 102.154 79.9943 101.012C79.7928 99.8692 79.8467 98.8307 80.1557 97.8962C80.478 96.9593 81.0187 96.187 81.7781 95.5793C82.5374 94.9715 83.462 94.5715 84.5518 94.3794C85.6154 94.1918 86.6002 94.2483 87.5062 94.5489C88.4121 94.8495 89.1678 95.3729 89.7733 96.1191C90.3918 96.863 90.7984 97.7864 90.9929 98.8894ZM87.3897 98.6109C87.2879 98.0331 87.0099 97.6083 86.5558 97.3363C86.1016 97.0644 85.5791 96.9805 84.9882 97.0847C84.4236 97.1842 83.9733 97.4329 83.6373 97.8306C83.3143 98.226 83.1602 98.7338 83.1748 99.3541L87.3897 98.6109ZM107.609 90.4763L106.572 101.991L102.85 102.648L99.8593 95.8232L99.3242 103.269L95.6213 103.922L90.6896 93.4596L94.0576 92.8657L96.9993 100.45L97.4651 92.2649L101.03 91.6363L104.28 99.1257L104.438 91.0355L107.609 90.4763ZM109.189 95.8434C108.99 94.7142 109.025 93.6858 109.295 92.7582C109.577 91.8283 110.046 91.0687 110.7 90.4795C111.355 89.8902 112.135 89.5158 113.041 89.356C113.816 89.2194 114.52 89.2577 115.153 89.471C115.799 89.6819 116.325 90.0157 116.731 90.4722L116.456 88.9162L119.824 88.3223L121.762 99.3128L118.394 99.9067L118.12 98.3507C117.882 98.9207 117.495 99.4153 116.96 99.8346C116.438 100.252 115.789 100.528 115.015 100.665C114.122 100.823 113.267 100.736 112.451 100.406C111.632 100.063 110.931 99.5032 110.347 98.7261C109.774 97.9336 109.388 96.9727 109.189 95.8434ZM117.425 94.4114C117.277 93.5711 116.924 92.9496 116.365 92.5472C115.82 92.1424 115.213 91.999 114.543 92.1171C113.873 92.2352 113.345 92.5788 112.958 93.148C112.582 93.7017 112.468 94.3988 112.616 95.2392C112.764 96.0795 113.112 96.7087 113.66 97.1266C114.218 97.5291 114.832 97.6713 115.502 97.5532C116.171 97.4351 116.693 97.0927 117.067 96.5258C117.454 95.9566 117.573 95.2518 117.425 94.4114ZM125.952 89.1306C126.239 88.4571 126.648 87.8976 127.179 87.452C127.708 86.9932 128.333 86.7002 129.055 86.5729L129.684 90.1379L128.758 90.3011C127.918 90.4493 127.32 90.7443 126.964 91.186C126.607 91.6146 126.508 92.2819 126.667 93.188L127.567 98.2893L124.199 98.8832L122.261 87.8927L125.629 87.2988L125.952 89.1306ZM130.982 92.0008C130.782 90.8716 130.818 89.8431 131.087 88.9155C131.37 87.9856 131.839 87.2261 132.493 86.6368C133.147 86.0476 133.927 85.6731 134.834 85.5134C135.556 85.386 136.239 85.4212 136.883 85.6191C137.54 85.8146 138.085 86.1383 138.516 86.5902L137.617 81.4889L140.985 80.895L143.555 95.4701L140.187 96.064L139.909 94.4883C139.687 95.0691 139.308 95.5692 138.772 95.9885C138.25 96.4055 137.602 96.6823 136.827 96.8189C135.921 96.9787 135.06 96.8936 134.243 96.5637C133.425 96.2207 132.724 95.6606 132.14 94.8835C131.567 94.0909 131.181 93.13 130.982 92.0008ZM139.218 90.5688C139.07 89.7284 138.717 89.107 138.158 88.7045C137.613 88.2997 137.005 88.1564 136.336 88.2744C135.666 88.3925 135.138 88.7361 134.751 89.3053C134.374 89.8591 134.26 90.5561 134.409 91.3965C134.557 92.2369 134.905 92.866 135.452 93.284C136.011 93.6864 136.625 93.8287 137.294 93.7106C137.964 93.5925 138.486 93.25 138.86 92.6831C139.247 92.1139 139.366 91.4092 139.218 90.5688ZM150.49 94.4097C149.532 94.5787 148.649 94.5651 147.843 94.3688C147.037 94.1725 146.367 93.8302 145.834 93.342C145.299 92.8407 144.943 92.2401 144.765 91.5403L148.094 90.9534C148.2 91.3272 148.432 91.6045 148.789 91.7853C149.146 91.9661 149.554 92.016 150.013 91.9349C150.434 91.8609 150.741 91.7253 150.937 91.5284C151.143 91.316 151.223 91.0785 151.177 90.8159C151.121 90.5008 150.917 90.2999 150.563 90.2134C150.207 90.1137 149.645 90.0368 148.877 89.9826C148.057 89.9377 147.367 89.8631 146.807 89.7587C146.245 89.6412 145.735 89.3994 145.278 89.0332C144.818 88.6539 144.522 88.09 144.39 87.3416C144.279 86.7113 144.349 86.11 144.6 85.5377C144.862 84.95 145.301 84.4461 145.918 84.026C146.547 83.6036 147.328 83.3102 148.261 83.1458C149.639 82.9027 150.783 83.0531 151.691 83.597C152.612 84.1385 153.232 84.9635 153.549 86.0719L150.437 86.6206C150.317 86.2491 150.093 85.9772 149.765 85.8049C149.45 85.6303 149.063 85.5835 148.603 85.6646C148.209 85.734 147.921 85.8661 147.739 86.0607C147.554 86.2422 147.485 86.4642 147.531 86.7268C147.587 87.042 147.793 87.2494 148.149 87.3491C148.518 87.4464 149.071 87.5114 149.808 87.5439C150.659 87.6105 151.359 87.7037 151.908 87.8234C152.455 87.9301 152.959 88.1797 153.421 88.5721C153.894 88.9491 154.204 89.5172 154.351 90.2765C154.465 90.9199 154.383 91.5301 154.105 92.107C153.839 92.6685 153.39 93.1538 152.758 93.5631C152.139 93.9701 151.383 94.2523 150.49 94.4097Z" fill="white"/>
<path d="M68.7418 75.9931L68.8653 76.6933C68.8599 76.738 68.8579 76.7829 68.8594 76.8276C68.9081 77.3229 68.8807 77.8238 68.7779 78.3149C68.412 80.0578 67.4165 81.3963 65.787 82.3123C64.9424 82.7906 63.9857 83.0584 63.0095 83.0897C62.0443 83.114 61.0915 82.926 60.2268 82.5407C59.2617 82.1289 58.4293 81.5425 57.6462 80.8786C56.4544 79.8669 55.2364 78.8887 54.0373 77.8894C53.6199 77.5387 53.2077 77.1771 52.7049 76.927C51.5546 76.3523 50.4204 76.3667 49.3321 77.1118C48.1288 77.9371 47.7225 79.4106 48.3308 80.7029C48.7725 81.6413 50.0673 82.6593 51.7477 82.2875C51.8339 82.2723 51.9175 82.242 52.0273 82.2126L51.4333 81.6809L56.1828 80.2025C55.8241 81.7575 55.4742 83.2754 55.1199 84.8152C54.8748 84.5952 54.6526 84.3967 54.4322 84.1956C54.4234 84.1839 54.4122 84.174 54.3993 84.1665C54.3863 84.159 54.3718 84.154 54.3567 84.1518C54.3415 84.1496 54.326 84.1503 54.311 84.1538C54.296 84.1573 54.2818 84.1635 54.2692 84.1721C53.8675 84.354 53.4658 84.536 53.0564 84.6881C51.9527 85.1051 50.7444 85.1835 49.6064 84.9121C48.4178 84.6475 47.3509 84.0471 46.5475 83.1906C45.744 82.3342 45.2419 81.2622 45.1079 80.1171C44.9182 78.7407 45.2979 77.3366 46.1691 76.1933C47.215 74.7982 48.6581 73.9883 50.4477 73.745C52.2018 73.509 53.7716 73.8953 55.101 74.9816C55.9748 75.695 56.8264 76.4313 57.6871 77.1581C58.6312 77.9547 59.567 78.7583 60.518 79.547C60.8928 79.8819 61.3524 80.1217 61.8555 80.2449C62.3585 80.3681 62.889 80.3707 63.399 80.2525C63.9091 80.1343 64.3826 79.899 64.7768 79.5679C65.1711 79.2368 65.4735 78.8203 65.6569 78.356C65.8402 77.8918 65.8987 77.3944 65.8271 76.9089C65.7554 76.4233 65.5559 75.965 65.2465 75.5752C64.9371 75.1853 64.5276 74.8764 64.0549 74.6762C63.5823 74.476 63.0615 74.3909 62.5396 74.4286C62.3696 74.4502 62.2008 74.48 62.0338 74.5178L62.6549 75.0892L57.8515 76.5849C58.2246 75.0306 58.5931 73.5039 58.9666 71.9518C59.2011 72.1526 59.4144 72.3338 59.6245 72.5167C59.6746 72.559 59.7106 72.5815 59.7861 72.5393C61.3089 71.7043 62.9152 71.4633 64.5878 71.9148C66.4863 72.4309 67.7933 73.5711 68.5055 75.3116C68.5956 75.5335 68.6625 75.7649 68.7418 75.9931Z" fill="white"/>
<defs>
<clipPath id="clip0_2_1680">
<rect width="44" height="31" fill="white" transform="translate(144)"/>
</clipPath>
<clipPath id="clip1_2_1680">
<rect width="25" height="23" fill="white" transform="translate(79)"/>
</clipPath>
<clipPath id="clip2_2_1680">
<rect width="25" height="25" fill="white" transform="translate(0 95)"/>
</clipPath>
<clipPath id="clip3_2_1680">
<rect width="20" height="20" fill="white" transform="translate(193 63.9009) rotate(-33.0276)"/>
</clipPath>
<clipPath id="clip4_2_1680">
<rect width="25" height="23" fill="white" transform="translate(203 106)"/>
</clipPath>
<clipPath id="clip5_2_1680">
<rect width="25" height="23" fill="white" transform="translate(104 178)"/>
</clipPath>
<clipPath id="clip6_2_1680">
<rect width="27" height="20" fill="white" transform="translate(166 159)"/>
</clipPath>
<clipPath id="clip7_2_1680">
<rect width="23.3687" height="17.3102" fill="white" transform="translate(38.8972 46.0745) rotate(170.535)"/>
</clipPath>
</defs>
</svg>
