<svg width="24" height="24" viewBox="0 0 24 24" fill="none" xmlns="http://www.w3.org/2000/svg">
<path d="M15.9375 15C15.9375 15.1854 15.8825 15.3667 15.7795 15.5208C15.6765 15.675 15.5301 15.7952 15.3588 15.8661C15.1875 15.9371 14.999 15.9557 14.8171 15.9195C14.6353 15.8833 14.4682 15.794 14.3371 15.6629C14.206 15.5318 14.1167 15.3648 14.0805 15.1829C14.0444 15.001 14.0629 14.8125 14.1339 14.6412C14.2048 14.4699 14.325 14.3235 14.4792 14.2205C14.6333 14.1175 14.8146 14.0625 15 14.0625C15.2487 14.0625 15.4871 14.1613 15.6629 14.3371C15.8388 14.5129 15.9375 14.7514 15.9375 15ZM9.93752 9C9.93752 8.81458 9.88254 8.63332 9.77953 8.47915C9.67651 8.32498 9.5301 8.20482 9.35879 8.13386C9.18748 8.06291 8.99898 8.04434 8.81713 8.08051C8.63527 8.11669 8.46822 8.20598 8.33711 8.33709C8.206 8.4682 8.11671 8.63525 8.08054 8.8171C8.04436 8.99896 8.06293 9.18746 8.13389 9.35877C8.20484 9.53007 8.32501 9.67649 8.47918 9.7795C8.63335 9.88252 8.8146 9.9375 9.00002 9.9375C9.24866 9.9375 9.48712 9.83873 9.66294 9.66291C9.83875 9.4871 9.93752 9.24864 9.93752 9ZM20.25 12C20.2507 12.6073 20.4616 13.1957 20.8468 13.6652C21.2321 14.1347 21.768 14.4563 22.3635 14.5755C22.6153 14.6279 22.8411 14.7658 23.0027 14.9658C23.1643 15.1658 23.2517 15.4156 23.25 15.6727V18C23.2494 18.4971 23.0517 18.9737 22.7002 19.3252C22.3487 19.6767 21.8721 19.8744 21.375 19.875H2.62502C2.12793 19.8744 1.65136 19.6767 1.29986 19.3252C0.948354 18.9737 0.750619 18.4971 0.750023 18V15.6727C0.748354 15.4156 0.835738 15.1658 0.997335 14.9658C1.15893 14.7658 1.38478 14.6279 1.63652 14.5755C2.23319 14.458 2.77054 14.1369 3.15677 13.6671C3.543 13.1974 3.75415 12.6081 3.75415 12C3.75415 11.3919 3.543 10.8026 3.15677 10.3328C2.77054 9.86311 2.23319 9.54204 1.63652 9.4245C1.38478 9.37211 1.15893 9.23419 0.997335 9.03418C0.835738 8.83416 0.748354 8.58438 0.750023 8.32725V6C0.750619 5.5029 0.948354 5.02633 1.29986 4.67483C1.65136 4.32333 2.12793 4.1256 2.62502 4.125H21.375C21.8721 4.1256 22.3487 4.32333 22.7002 4.67483C23.0517 5.02633 23.2494 5.5029 23.25 6V8.32725C23.2517 8.58438 23.1643 8.83416 23.0027 9.03418C22.8411 9.23419 22.6153 9.37211 22.3635 9.4245C21.768 9.54368 21.2321 9.86533 20.8468 10.3348C20.4616 10.8043 20.2507 11.3927 20.25 12ZM9.00002 11.0625C9.40795 11.0625 9.80671 10.9415 10.1459 10.7149C10.4851 10.4883 10.7494 10.1662 10.9055 9.78928C11.0616 9.41241 11.1025 8.99771 11.0229 8.59763C10.9433 8.19754 10.7469 7.83004 10.4584 7.54159C10.17 7.25315 9.80248 7.05671 9.4024 6.97713C9.00231 6.89755 8.58761 6.93839 8.21074 7.0945C7.83387 7.2506 7.51175 7.51496 7.28512 7.85414C7.05849 8.19331 6.93752 8.59208 6.93752 9C6.93812 9.54683 7.15561 10.0711 7.54227 10.4577C7.92894 10.8444 8.4532 11.0619 9.00002 11.0625ZM9.0229 15.7729L15.7729 9.02288C15.8251 8.97063 15.8666 8.9086 15.8949 8.84033C15.9231 8.77206 15.9377 8.69889 15.9377 8.625C15.9377 8.55111 15.9231 8.47794 15.8949 8.40967C15.8666 8.3414 15.8251 8.27937 15.7729 8.22712C15.7206 8.17487 15.6586 8.13343 15.5904 8.10515C15.5221 8.07687 15.4489 8.06232 15.375 8.06232C15.3011 8.06232 15.228 8.07687 15.1597 8.10515C15.0914 8.13343 15.0294 8.17487 14.9771 8.22712L8.22715 14.9771C8.1749 15.0294 8.13345 15.0914 8.10518 15.1597C8.0769 15.2279 8.06234 15.3011 8.06234 15.375C8.06234 15.4489 8.0769 15.5221 8.10518 15.5903C8.13345 15.6586 8.1749 15.7206 8.22715 15.7729C8.33267 15.8784 8.47579 15.9377 8.62502 15.9377C8.69892 15.9377 8.77208 15.9231 8.84035 15.8948C8.90862 15.8666 8.97065 15.8251 9.0229 15.7729ZM17.0625 15C17.0625 14.5921 16.9416 14.1933 16.7149 13.8541C16.4883 13.515 16.1662 13.2506 15.7893 13.0945C15.4124 12.9384 14.9977 12.8975 14.5976 12.9771C14.1976 13.0567 13.8301 13.2531 13.5416 13.5416C13.2532 13.83 13.0567 14.1975 12.9772 14.5976C12.8976 14.9977 12.9384 15.4124 13.0945 15.7893C13.2506 16.1662 13.515 16.4883 13.8542 16.7149C14.1933 16.9415 14.5921 17.0625 15 17.0625C15.5468 17.0619 16.0711 16.8444 16.4578 16.4578C16.8444 16.0711 17.0619 15.5468 17.0625 15Z" fill="#AEAEAE"/>
</svg>
