<svg width="228" height="201" viewBox="0 0 228 201" fill="none" xmlns="http://www.w3.org/2000/svg">
<g clip-path="url(#clip0_4804_14315)">
<path d="M161.52 12.6964C161.52 12.6964 168.575 11.2144 175.314 14.2984C182.093 17.3824 187.999 24.2312 187.999 24.2312L179.04 31.04C179.04 31 179.556 19.9858 161.52 12.6964Z" fill="#FBE5A8"/>
<path d="M161.52 18.2636L160.093 12.2558L164.176 7.68991C164.652 7.16924 164.295 6.32815 163.621 6.2881L157.517 5.80748L154.504 0.440555C154.147 -0.160221 153.275 -0.120169 152.998 0.520658L150.659 6.208L144.673 7.48965C143.999 7.64986 143.762 8.49094 144.317 8.97156L148.954 12.9767L148.32 19.1046C148.241 19.7855 148.994 20.2661 149.589 19.9057L154.821 16.7015L160.371 19.2248C161.005 19.5452 161.679 18.9444 161.52 18.2636Z" fill="#F9CA58"/>
</g>
<g clip-path="url(#clip1_4804_14315)">
<path d="M79.7065 9.34938C77.169 14.9339 81.8695 21.4285 87.402 22.6695C93.5168 24.076 100.089 20.7253 102.751 15.1407C105.663 9.10118 103.375 2.85478 97.5933 0.620963C91.9777 -1.57148 86.6948 2.44111 86.8196 8.06701C86.9028 12.121 89.8562 14.5202 91.8945 14.0238C93.4752 13.6102 94.0159 11.5832 92.4768 10.7559C91.8529 10.4249 91.1041 10.5904 90.605 10.9627C89.357 9.96988 88.8163 7.03283 90.5634 4.55082C92.8096 1.36557 97.3437 2.52384 99.6316 5.00586C102.543 8.14974 101.711 12.8242 99.3404 16.0508C96.8446 19.4015 92.1857 21.263 88.0675 20.3116C83.367 19.2361 80.4136 14.5202 81.4119 9.88715C81.5783 8.77024 80.164 8.35658 79.7065 9.34938Z" fill="#9CDBE3"/>
</g>
<g clip-path="url(#clip2_4804_14315)">
<path d="M12.9036 119.528L8.60252 113.329H1.07564C0.201983 113.329 -0.268447 112.318 0.269187 111.644L4.83908 105.647L2.41972 98.4367C2.15091 97.6281 2.95736 96.8194 3.76381 97.1564L10.8875 99.6496L17.0031 95.2022C17.6751 94.6631 18.6832 95.2022 18.6832 96.0782L18.4816 103.625L24.5971 108.073C25.2692 108.545 25.1348 109.69 24.2611 109.892L17.0031 112.049L14.7181 119.259C14.4493 120.067 13.374 120.27 12.9036 119.528Z" fill="#A9DE98"/>
</g>
<g clip-path="url(#clip3_4804_14315)">
<path d="M212.35 74.7263L206.762 72.4436L201.713 75.7256C201.127 76.1065 200.371 75.6337 200.438 74.9473L200.888 68.9321L196.121 65.1509C195.588 64.7258 195.777 63.8318 196.465 63.7061L202.33 62.2723L204.492 56.6226C204.708 55.968 205.619 55.8901 206.001 56.4776L209.157 61.6276L215.198 61.944C215.854 61.9674 216.264 62.7943 215.766 63.3109L211.838 67.9219L213.449 73.7544C213.622 74.4139 212.989 75.0184 212.35 74.7263Z" fill="#A9DE98"/>
</g>
<g clip-path="url(#clip4_4804_14315)">
<path d="M203.698 115.351C201.189 120.943 205.858 127.42 211.386 128.684C217.517 130.074 224.092 126.725 226.729 121.133C229.619 115.067 227.332 108.843 221.551 106.6C215.928 104.42 210.687 108.401 210.782 114.056C210.846 118.1 213.832 120.501 215.833 119.995C217.421 119.616 217.93 117.563 216.436 116.741C215.833 116.394 215.071 116.552 214.562 116.962C213.323 115.983 212.752 113.013 214.499 110.549C216.722 107.39 221.265 108.527 223.552 111.023C226.443 114.182 225.649 118.858 223.234 122.049C220.725 125.398 216.087 127.262 211.957 126.314C207.32 125.24 204.334 120.532 205.35 115.857C205.604 114.751 204.143 114.372 203.698 115.351Z" fill="#9CDBE3"/>
</g>
<g clip-path="url(#clip5_4804_14315)">
<path d="M104.698 187.351C102.189 192.943 106.858 199.42 112.386 200.684C118.517 202.074 125.092 198.725 127.729 193.133C130.619 187.067 128.332 180.843 122.551 178.6C116.928 176.42 111.687 180.401 111.782 186.056C111.846 190.1 114.832 192.501 116.833 191.995C118.421 191.616 118.93 189.563 117.436 188.741C116.833 188.394 116.071 188.552 115.562 188.962C114.323 187.983 113.752 185.013 115.499 182.549C117.722 179.39 122.265 180.527 124.552 183.023C127.443 186.182 126.649 190.858 124.234 194.049C121.725 197.398 117.087 199.262 112.957 198.314C108.32 197.24 105.334 192.532 106.35 187.857C106.604 186.751 105.143 186.372 104.698 187.351Z" fill="#9CDBE3"/>
</g>
<path d="M192.339 172.708L186.186 174.294L182.576 164.575L173.322 165.803L169.407 159L166 160.995L171.186 170.049L179.983 168.923L183.746 179L193 176.596L192.339 172.708Z" fill="#FBE5A8"/>
<g clip-path="url(#clip6_4804_14315)">
<path d="M14.4591 38.1201L19.486 35.8907L23.9514 43.6739L31.6772 41.3087L35.988 46.5594L38.6126 44.3714L32.8961 37.3802L25.5464 39.593L20.8999 31.5258L13.3415 34.8953L14.4591 38.1201Z" fill="#879DD1"/>
</g>
<path d="M42.8067 167.044C42.8067 167.044 45.7463 164.067 50.6065 164.727C54.951 165.349 57.4544 169.216 56.9119 173.197C56.2715 177.82 51.4288 182.738 40.2081 185.942C30.2859 179.643 26.9568 173.625 27.618 168.959C28.1606 164.978 31.6575 161.953 36.002 162.576C40.8205 163.322 42.8067 167.044 42.8067 167.044Z" fill="#F48C7F"/>
<circle cx="111" cy="97" r="66" fill="#E6FFD4"/>
<rect x="33" y="63.3299" width="142" height="90" rx="10" transform="rotate(-10 33 63.3299)" fill="#1B8158"/>
<path d="M66.0884 101.981C65.8476 100.616 65.9289 99.3489 66.3322 98.1811C66.7333 97.0002 67.4069 96.0217 68.3532 95.2456C69.3103 94.454 70.4585 93.9401 71.7978 93.704C73.4392 93.4146 74.9206 93.6001 76.242 94.2607C77.5635 94.9213 78.5531 95.9653 79.211 97.3927L75.5081 98.0457C75.1305 97.5165 74.659 97.1461 74.0937 96.9344C73.5414 96.7204 72.9436 96.6701 72.3002 96.7835C71.2629 96.9664 70.4862 97.4757 69.9701 98.3114C69.4541 99.147 69.3025 100.169 69.5155 101.377C69.7285 102.585 70.2204 103.493 70.9912 104.102C71.7619 104.711 72.666 104.924 73.7033 104.741C74.3467 104.627 74.8913 104.376 75.337 103.986C75.7958 103.593 76.1122 103.084 76.2861 102.458L79.9889 101.805C79.859 103.371 79.2861 104.691 78.2702 105.763C77.2521 106.823 75.9223 107.497 74.281 107.787C72.9417 108.023 71.6881 107.939 70.5203 107.536C69.3634 107.117 68.3957 106.428 67.6172 105.469C66.8388 104.509 66.3292 103.347 66.0884 101.981ZM87.9156 105.444C86.8389 105.633 85.8267 105.575 84.879 105.268C83.9445 104.959 83.1525 104.422 82.503 103.656C81.8667 102.888 81.4478 101.933 81.2464 100.791C81.0473 99.6617 81.1219 98.6263 81.4704 97.6848C81.8166 96.7302 82.3825 95.9467 83.168 95.3343C83.9536 94.7219 84.8848 94.3208 85.9615 94.131C87.0382 93.9411 88.0504 93.9996 88.9981 94.3063C89.9458 94.6131 90.7455 95.1558 91.3973 95.9345C92.0467 96.7 92.471 97.6474 92.6702 98.7766C92.8693 99.9059 92.7892 100.949 92.4299 101.906C92.0814 102.847 91.5078 103.625 90.7091 104.24C89.9235 104.853 88.9923 105.254 87.9156 105.444ZM87.4016 102.528C88.045 102.415 88.5483 102.083 88.9114 101.531C89.2876 100.977 89.3981 100.261 89.243 99.3809C89.0879 98.5011 88.7454 97.8643 88.2156 97.4703C87.699 97.074 87.1189 96.9326 86.4755 97.046C85.819 97.1618 85.3157 97.4942 84.9658 98.0433C84.6135 98.5793 84.5161 99.2937 84.6735 100.187C84.8286 101.066 85.158 101.706 85.6615 102.104C86.1782 102.501 86.7582 102.642 87.4016 102.528ZM104.341 91.0527L106.278 102.043L102.91 102.637L102.647 101.14C102.391 101.686 101.994 102.162 101.456 102.568C100.93 102.959 100.312 103.217 99.6026 103.342C98.7623 103.49 97.988 103.437 97.2797 103.183C96.5692 102.916 95.9741 102.459 95.4946 101.812C95.015 101.166 94.6907 100.363 94.5217 99.4046L93.3895 92.9837L96.7379 92.3933L97.7902 98.3612C97.9198 99.0965 98.2109 99.6342 98.6635 99.9741C99.1161 100.314 99.6641 100.427 100.307 100.314C100.964 100.198 101.447 99.903 101.756 99.4288C102.065 98.9546 102.155 98.3499 102.025 97.6145L100.973 91.6466L104.341 91.0527ZM110.402 91.5883C110.64 91.0183 111.02 90.5248 111.542 90.1078C112.065 89.6908 112.713 89.4139 113.488 89.2773C114.394 89.1176 115.255 89.2027 116.071 89.5326C116.888 89.8625 117.581 90.4172 118.152 91.1966C118.736 91.9737 119.127 92.9268 119.326 94.0561C119.525 95.1853 119.485 96.2215 119.204 97.1645C118.935 98.0921 118.474 98.8571 117.822 99.4595C117.167 100.049 116.387 100.423 115.481 100.583C114.72 100.717 114.016 100.679 113.369 100.468C112.736 100.255 112.211 99.9275 111.795 99.4864L112.99 106.262L109.622 106.856L106.76 90.6261L110.128 90.0323L110.402 91.5883ZM115.899 94.6604C115.751 93.82 115.399 93.2052 114.843 92.8158C114.298 92.411 113.684 92.2688 113.001 92.3892C112.331 92.5073 111.803 92.8509 111.416 93.4201C111.042 93.987 110.929 94.6906 111.077 95.531C111.225 96.3713 111.572 96.9939 112.117 97.3987C112.676 97.8012 113.29 97.9434 113.959 97.8253C114.629 97.7072 115.157 97.3636 115.544 96.7944C115.929 96.2121 116.047 95.5008 115.899 94.6604ZM127.096 98.5349C126.02 98.7247 125.007 98.6663 124.06 98.3595C123.125 98.0504 122.333 97.5131 121.684 96.7476C121.047 95.9798 120.629 95.0247 120.427 93.8823C120.228 92.7531 120.303 91.7177 120.651 90.7762C120.997 89.8216 121.563 89.0381 122.349 88.4257C123.134 87.8133 124.066 87.4122 125.142 87.2224C126.219 87.0325 127.231 87.091 128.179 87.3977C129.127 87.7045 129.926 88.2472 130.578 89.0258C131.227 89.7914 131.652 90.7387 131.851 91.868C132.05 92.9972 131.97 94.0403 131.611 94.9973C131.262 95.9387 130.689 96.7168 129.89 97.3315C129.104 97.9439 128.173 98.345 127.096 98.5349ZM126.582 95.6199C127.226 95.5064 127.729 95.174 128.092 94.6225C128.468 94.0688 128.579 93.352 128.424 92.4723C128.269 91.5925 127.926 90.9556 127.396 90.5617C126.88 90.1654 126.3 90.0239 125.656 90.1374C125 90.2531 124.496 90.5856 124.146 91.1347C123.794 91.6707 123.697 92.3851 123.854 93.278C124.009 94.1578 124.339 94.797 124.842 95.1956C125.359 95.5919 125.939 95.7333 126.582 95.6199ZM139.345 84.7587C140.631 84.5318 141.73 84.7714 142.639 85.4775C143.56 86.1681 144.149 87.2422 144.406 88.6997L145.538 95.1207L142.19 95.7111L141.137 89.7431C141.008 89.0078 140.717 88.4702 140.264 88.1303C139.811 87.7904 139.263 87.6771 138.62 87.7906C137.977 87.904 137.5 88.1979 137.191 88.6721C136.882 89.1463 136.793 89.751 136.922 90.4863L137.975 96.4543L134.607 97.0482L132.669 86.0577L136.037 85.4638L136.294 86.9213C136.55 86.3753 136.942 85.9135 137.471 85.5359C137.998 85.1451 138.622 84.8861 139.345 84.7587ZM152.377 94.0772C151.419 94.2462 150.536 94.2326 149.73 94.0363C148.924 93.84 148.254 93.4977 147.721 93.0095C147.186 92.5081 146.83 91.9076 146.652 91.2078L149.981 90.6208C150.087 90.9947 150.319 91.272 150.676 91.4528C151.033 91.6336 151.441 91.6834 151.9 91.6024C152.32 91.5283 152.628 91.3928 152.824 91.1959C153.03 90.9835 153.11 90.746 153.064 90.4834C153.008 90.1683 152.803 89.9674 152.45 89.8809C152.094 89.7812 151.532 89.7042 150.764 89.6501C149.944 89.6052 149.254 89.5305 148.694 89.4262C148.131 89.3087 147.622 89.0669 147.164 88.7007C146.705 88.3214 146.409 87.7575 146.277 87.0091C146.166 86.3788 146.236 85.7775 146.487 85.2052C146.749 84.6175 147.188 84.1135 147.805 83.6934C148.434 83.271 149.215 82.9776 150.147 82.8133C151.526 82.5702 152.67 82.7205 153.578 83.2644C154.499 83.806 155.119 84.631 155.436 85.7394L152.324 86.2881C152.204 85.9166 151.98 85.6447 151.652 85.4724C151.337 85.2978 150.95 85.251 150.49 85.332C150.096 85.4015 149.808 85.5335 149.626 85.7281C149.441 85.9096 149.372 86.1317 149.418 86.3943C149.474 86.7094 149.68 86.9168 150.036 87.0165C150.405 87.1139 150.958 87.1789 151.695 87.2114C152.546 87.2779 153.246 87.3711 153.795 87.4909C154.342 87.5976 154.846 87.8471 155.308 88.2396C155.781 88.6165 156.091 89.1847 156.238 89.9439C156.352 90.5874 156.27 91.1975 155.992 91.7744C155.726 92.3359 155.277 92.8213 154.645 93.2306C154.026 93.6375 153.27 93.9197 152.377 94.0772Z" fill="white"/>
<path d="M68.7423 75.9931L68.8658 76.6933C68.8604 76.738 68.8584 76.7829 68.8599 76.8276C68.9086 77.3229 68.8812 77.8238 68.7784 78.3149C68.4124 80.0578 67.417 81.3963 65.7875 82.3123C64.9429 82.7906 63.9862 83.0584 63.01 83.0897C62.0448 83.114 61.092 82.926 60.2273 82.5407C59.2622 82.1289 58.4298 81.5425 57.6466 80.8786C56.4548 79.8669 55.2369 78.8887 54.0378 77.8894C53.6204 77.5387 53.2082 77.1771 52.7054 76.927C51.5551 76.3523 50.4209 76.3667 49.3326 77.1118C48.1293 77.9371 47.723 79.4106 48.3313 80.7029C48.773 81.6413 50.0678 82.6593 51.7482 82.2875C51.8344 82.2723 51.918 82.242 52.0278 82.2126L51.4338 81.6809L56.1833 80.2025C55.8246 81.7575 55.4747 83.2754 55.1204 84.8152C54.8753 84.5952 54.653 84.3967 54.4327 84.1956C54.4239 84.1839 54.4127 84.174 54.3997 84.1665C54.3868 84.159 54.3723 84.154 54.3572 84.1518C54.342 84.1496 54.3265 84.1503 54.3115 84.1538C54.2965 84.1573 54.2823 84.1635 54.2697 84.1721C53.868 84.354 53.4662 84.536 53.0569 84.6881C51.9532 85.1051 50.7449 85.1835 49.6069 84.9121C48.4183 84.6475 47.3514 84.0471 46.548 83.1906C45.7445 82.3342 45.2424 81.2622 45.1084 80.1171C44.9187 78.7407 45.2984 77.3366 46.1695 76.1933C47.2155 74.7982 48.6586 73.9883 50.4482 73.745C52.2022 73.509 53.7721 73.8953 55.1015 74.9816C55.9752 75.695 56.8269 76.4313 57.6876 77.1581C58.6316 77.9547 59.5675 78.7583 60.5185 79.547C60.8932 79.8819 61.3529 80.1217 61.8559 80.2449C62.359 80.3681 62.8895 80.3707 63.3995 80.2525C63.9096 80.1343 64.3831 79.899 64.7773 79.5679C65.1715 79.2368 65.474 78.8203 65.6574 78.356C65.8407 77.8918 65.8992 77.3944 65.8276 76.9089C65.7559 76.4233 65.5564 75.965 65.247 75.5752C64.9376 75.1853 64.528 74.8764 64.0554 74.6762C63.5828 74.476 63.062 74.3909 62.5401 74.4286C62.3701 74.4502 62.2013 74.48 62.0343 74.5178L62.6554 75.0892L57.852 76.5849C58.2251 75.0306 58.5936 73.5039 58.9671 71.9518C59.2016 72.1526 59.4149 72.3338 59.625 72.5167C59.6751 72.559 59.711 72.5815 59.7866 72.5393C61.3094 71.7043 62.9156 71.4633 64.5883 71.9148C66.4868 72.4309 67.7938 73.5711 68.506 75.3116C68.5961 75.5335 68.663 75.7649 68.7423 75.9931Z" fill="white"/>
<defs>
<clipPath id="clip0_4804_14315">
<rect width="44" height="31" fill="white" transform="translate(144)"/>
</clipPath>
<clipPath id="clip1_4804_14315">
<rect width="25" height="23" fill="white" transform="translate(79)"/>
</clipPath>
<clipPath id="clip2_4804_14315">
<rect width="25" height="25" fill="white" transform="translate(0 95)"/>
</clipPath>
<clipPath id="clip3_4804_14315">
<rect width="20" height="20" fill="white" transform="translate(193 63.9008) rotate(-33.0276)"/>
</clipPath>
<clipPath id="clip4_4804_14315">
<rect width="25" height="23" fill="white" transform="translate(203 106)"/>
</clipPath>
<clipPath id="clip5_4804_14315">
<rect width="25" height="23" fill="white" transform="translate(104 178)"/>
</clipPath>
<clipPath id="clip6_4804_14315">
<rect width="23.3687" height="17.3102" fill="white" transform="translate(38.8965 46.0745) rotate(170.535)"/>
</clipPath>
</defs>
</svg>
