<svg width="24" height="24" viewBox="0 0 24 24" fill="none" xmlns="http://www.w3.org/2000/svg">
<g clip-path="url(#clip0_7888_6539)">
<path d="M8.75822 9.10924C9.22881 9.10924 9.60336 8.72509 9.60336 8.26411C9.60336 7.76471 9.25762 7.43818 8.72941 7.41897C8.29724 7.41897 7.91309 7.80312 7.91309 8.26411C7.91309 8.72509 8.29724 9.10924 8.75822 9.10924Z" fill="#AEAEAE"/>
<path d="M15.3088 13.9016C14.8287 13.9016 14.3965 14.2857 14.3965 14.7467C14.3965 15.2077 14.7902 15.5918 15.2416 15.5918C15.693 15.5918 16.0868 15.2077 16.0868 14.7467C16.0868 14.497 15.9907 14.2665 15.8275 14.1128C15.7314 14.0168 15.5585 13.9016 15.3088 13.9016Z" fill="#AEAEAE"/>
<path d="M21.2821 4L2.71789 4.01921C2.62185 5.46939 1.45018 6.56423 0.0192077 6.56423V13.2773L0 16.4754C1.43097 16.4754 2.64106 17.6086 2.69868 19.0204H21.2821C21.3782 17.5702 22.5498 16.4754 23.9808 16.4754V9.76231L24 6.56423C22.569 6.56423 21.3974 5.43097 21.2821 4ZM8.7587 5.68067C10.2665 5.7383 11.3325 6.81393 11.3325 8.2545C11.3325 9.69508 10.1801 10.8283 8.7587 10.8283C7.33734 10.8283 6.18487 9.67587 6.18487 8.2545C6.18487 6.83313 7.33734 5.68067 8.7587 5.68067ZM7.57743 16.8211C7.35654 16.8211 7.13565 16.7347 6.96279 16.5714C6.62665 16.2353 6.62665 15.6879 6.96279 15.3517L15.8848 6.43938C16.2209 6.10324 16.7683 6.10324 17.1044 6.43938C17.4406 6.77551 17.4406 7.32293 17.1044 7.65906L8.19208 16.5714C8.01921 16.7443 7.79832 16.8211 7.57743 16.8211ZM15.2413 17.3205C13.8487 17.3205 12.6675 16.1393 12.6675 14.7467C12.6675 13.3541 13.8487 12.1729 15.2413 12.1729C15.9136 12.1537 16.5378 12.3938 17.0276 12.8643C17.527 13.3445 17.8151 14.036 17.8151 14.7467C17.8151 16.1681 16.6627 17.3205 15.2413 17.3205Z" fill="#AEAEAE"/>
</g>
<defs>
<clipPath id="clip0_7888_6539">
<rect width="24" height="15.0108" fill="white" transform="translate(0 4)"/>
</clipPath>
</defs>
</svg>
