<svg width="25" height="40" viewBox="0 0 25 40" fill="none" xmlns="http://www.w3.org/2000/svg">
<path d="M21.1748 8.82471C21.1748 13.6985 17.2239 17.6494 12.3501 17.6494C7.47634 17.6494 3.52539 13.6985 3.52539 8.82471C3.52539 3.95095 7.47634 0 12.3501 0C17.2239 0 21.1748 3.95127 21.1748 8.82471Z" fill="#1B8158"/>
<path d="M24.6997 26.4749V38.2375C24.7004 38.7048 24.5148 39.1534 24.1843 39.4843C23.8535 39.8148 23.4049 40.0003 22.9372 40H1.76254C1.29484 40.0003 0.846321 39.8148 0.515415 39.4843C0.184886 39.1534 -0.000625195 38.7049 1.5831e-06 38.2375V26.4749C-0.000312288 24.7598 0.679887 23.1144 1.8915 21.9006C3.10311 20.6865 4.74696 20.0028 6.4624 20H18.2378H18.2375C19.9529 20.0028 21.5968 20.6865 22.8084 21.9006C24.02 23.1144 24.7002 24.7598 24.6999 26.4749H24.6997Z" fill="#1B8158"/>
</svg>
