<svg width="55" height="55" viewBox="0 0 55 55" fill="none" xmlns="http://www.w3.org/2000/svg">
<g clip-path="url(#clip0_7030_33335)">
<path d="M27.3292 27.75C20.2292 27.75 14.4492 21.97 14.4492 14.87C14.4492 7.77 20.2292 2 27.3292 2C34.4292 2 40.2092 7.78 40.2092 14.88C40.2092 21.98 34.4292 27.76 27.3292 27.76V27.75ZM27.3292 3.25C20.9192 3.25 15.6992 8.46 15.6992 14.88C15.6992 21.3 20.9092 26.5 27.3192 26.5C33.7292 26.5 38.9392 21.29 38.9392 14.88C38.9392 8.47 33.7392 3.25 27.3292 3.25Z" fill="#1B8158"/>
<path d="M43.92 53.5999H10.92C9.84 53.5999 9 52.7499 9 51.6799V43.6799C9 36.4299 14.7 30.3799 21.98 29.9099H32.96C40.29 30.3399 45.95 36.3899 45.85 43.6899V51.6799C45.85 52.7599 45 53.5999 43.93 53.5999H43.92ZM22.03 31.1499C15.45 31.5799 10.25 37.0799 10.25 43.6699V51.6699C10.25 52.0899 10.59 52.3399 10.92 52.3399H43.92C44.34 52.3399 44.59 51.9999 44.59 51.6699V43.6699C44.69 37.0399 39.55 31.5399 32.9 31.1499H22.03Z" fill="#1B8158"/>
</g>
<defs>
<clipPath id="clip0_7030_33335">
<rect width="36.85" height="51.6" fill="white" transform="translate(9 2)"/>
</clipPath>
</defs>
</svg>
