<svg width="20" height="20" viewBox="0 0 20 20" fill="none" xmlns="http://www.w3.org/2000/svg">
<path d="M16.362 5.11171C16.7689 4.7049 16.7689 4.04533 16.362 3.63853C15.9552 3.23172 15.2957 3.23172 14.8889 3.63853L10.0011 8.5263L5.11313 3.63836C4.70633 3.23155 4.04676 3.23155 3.63995 3.63836C3.23314 4.04517 3.23314 4.70473 3.63995 5.11154L8.5279 9.99949L3.63909 14.8883C3.23228 15.2951 3.23228 15.9547 3.63909 16.3615C4.0459 16.7683 4.70546 16.7683 5.11227 16.3615L10.0011 11.4727L14.8897 16.3613C15.2965 16.7681 15.9561 16.7681 16.3629 16.3613C16.7697 15.9545 16.7697 15.2949 16.3629 14.8881L11.4743 9.99949L16.362 5.11171Z" fill="white"/>
</svg>
