<svg width="24" height="24" viewBox="0 0 24 24" fill="none" xmlns="http://www.w3.org/2000/svg">
<g id="Icon/ Product Category">
<g id="Vector">
<path d="M7.8201 2.13228L10.6418 0.96207C10.7463 0.918728 10.8646 0.967661 10.9079 1.07217L11.2633 1.92912C11.272 1.95002 11.2806 1.97092 11.2684 2.00049L11.2598 2.98391L13.0368 7.26868C13.0802 7.37319 13.0312 7.49146 12.9267 7.5348L10.4813 8.54899C10.3767 8.59233 10.2585 8.5434 10.2151 8.43889L7.70134 2.37751C7.66667 2.2939 7.7156 2.17562 7.8201 2.13228Z" stroke="#1B8158" stroke-width="0.675725" stroke-miterlimit="10"/>
<path d="M6.6455 1.95802C7.06353 1.78465 7.51574 1.98905 7.68044 2.38618L10.1942 8.44756C10.4629 9.0955 11.32 9.74442 12.1352 10.4107C13.1834 11.2253 14.2699 12.073 14.738 13.2017L17.7892 20.5589C17.9626 20.9769 17.7668 21.4501 17.3488 21.6234C16.9308 21.7968 16.4577 21.6011 16.2843 21.183L13.2331 13.8258C12.921 13.0733 12.0171 12.3704 11.1218 11.6883C10.1414 10.9191 9.10184 10.1254 8.6771 9.10124L6.15464 3.01896C6.05265 2.59583 6.24838 2.12271 6.6455 1.95802Z" stroke="#1B8158" stroke-width="0.675725" stroke-miterlimit="10"/>
</g>
</g>
</svg>
