<svg width="34" height="33" viewBox="0 0 34 33" fill="none" xmlns="http://www.w3.org/2000/svg">
<g clip-path="url(#clip0_7030_20196)">
<path d="M17.0777 23.208H9.87774C9.00774 23.208 8.55174 22.47 8.53374 22.44C6.57174 19.452 8.23374 15.024 8.24574 14.982C8.67774 13.848 10.1477 14.016 10.2077 14.028L12.5117 14.016C12.5117 14.016 12.5417 14.016 12.5597 14.016H13.4417C13.4417 14.016 13.4717 14.016 13.4837 14.016H16.7957C16.7957 14.016 18.2777 13.848 18.7097 14.982C18.7277 15.024 20.3837 19.452 18.4157 22.452C18.4037 22.47 17.9417 23.208 17.0777 23.208ZM9.95574 14.76C9.65574 14.76 9.10974 14.82 8.94774 15.246C8.92974 15.288 7.40574 19.356 9.16974 22.038C9.18774 22.062 9.43974 22.458 9.88374 22.458H17.0837C17.5217 22.458 17.7797 22.062 17.7917 22.044C19.5557 19.356 18.0317 15.288 18.0197 15.246C17.7977 14.664 16.8617 14.766 16.8497 14.766H13.4537C13.4537 14.766 13.4297 14.76 13.4117 14.76H12.6137C12.6137 14.76 12.5837 14.76 12.5717 14.76H10.1717C10.1717 14.76 10.0757 14.76 9.96774 14.76H9.95574Z" fill="#1B8158"/>
<path d="M17.4809 30.618H9.5429C9.3389 30.618 9.1709 30.45 9.1709 30.246V27.372C9.1709 27.162 9.3389 27 9.5429 27H17.4809C17.6849 27 17.8529 27.168 17.8529 27.372V30.246C17.8529 30.456 17.6849 30.618 17.4809 30.618ZM9.9209 29.868H17.1089V27.744H9.9209V29.868Z" fill="#1B8158"/>
<path d="M17.1743 30.618H6.35027C6.30227 30.618 5.40227 30.582 4.83827 29.946C4.50226 29.568 4.35826 29.07 4.41226 28.464C4.58626 26.538 4.84427 22.326 4.84427 18.606C4.84427 14.886 4.40626 10.272 4.40026 10.224C4.40026 10.152 4.35226 9.55801 4.74826 9.12601C4.91026 8.94601 5.21627 8.73601 5.73226 8.73601H21.2723C21.7883 8.73601 22.0943 8.95201 22.2563 9.12601C22.6463 9.55201 22.6103 10.152 22.6043 10.218C22.6043 10.266 22.1603 14.766 22.1603 18.606C22.1603 22.446 22.4183 26.544 22.5923 28.464C22.6463 29.064 22.5023 29.568 22.1663 29.946C21.6023 30.582 20.7023 30.618 20.6663 30.618H17.1683H17.1743ZM5.73827 9.48601C5.54027 9.48601 5.39627 9.53401 5.30626 9.63601C5.15627 9.79801 5.14426 10.086 5.15027 10.158C5.15027 10.2 5.60027 14.73 5.60027 18.606C5.60027 22.482 5.33627 26.592 5.16227 28.53C5.12626 28.914 5.20426 29.226 5.39626 29.442C5.74426 29.838 6.35627 29.862 6.36226 29.862H20.6603C20.6603 29.862 21.2663 29.832 21.6143 29.442C21.8063 29.22 21.8843 28.92 21.8483 28.53C21.6743 26.598 21.4103 22.362 21.4103 18.606C21.4103 14.85 21.8543 10.194 21.8603 10.152C21.8603 10.068 21.8543 9.79201 21.7043 9.63601C21.6143 9.54001 21.4703 9.49201 21.2723 9.49201H5.73827V9.48601Z" fill="#1B8158"/>
<path d="M21.0204 9.48599H5.97845C5.77445 9.48599 5.60645 9.31799 5.60645 9.11399V6.21599C5.60645 6.00599 5.77445 5.84399 5.97845 5.84399H21.0204C21.2244 5.84399 21.3924 6.01199 21.3924 6.21599V9.11399C21.3924 9.32399 21.2244 9.48599 21.0204 9.48599ZM6.35645 8.73599H20.6424V6.58799H6.35645V8.73599Z" fill="#1B8158"/>
<path d="M20.2035 6.588H6.70955C6.59555 6.588 6.48155 6.534 6.41555 6.444C6.34355 6.354 6.31955 6.234 6.34955 6.12C7.36355 2.094 11.7615 1.8 11.8035 1.8H15.1095C15.1515 1.8 19.5495 2.094 20.5695 6.12C20.5995 6.234 20.5695 6.354 20.5035 6.444C20.4315 6.534 20.3235 6.588 20.2095 6.588H20.2035ZM7.21355 5.838H19.6995C18.6375 2.844 15.3255 2.568 15.0735 2.55H11.8215C11.6895 2.556 8.28755 2.796 7.20755 5.838H7.21355Z" fill="#1B8158"/>
<path d="M30.2121 30.618H19.8261C19.6221 30.618 19.4541 30.45 19.4541 30.246C19.4541 30.042 19.6221 29.874 19.8261 29.874H29.8341V26.916C29.8041 26.706 29.0301 20.676 23.5161 20.676C23.3121 20.676 23.1441 20.508 23.1441 20.304C23.1441 20.1 23.3121 19.932 23.5161 19.932C29.7021 19.932 30.5721 26.808 30.5841 26.88V30.258C30.5841 30.468 30.4161 30.63 30.2121 30.63V30.618Z" fill="#1B8158"/>
</g>
<defs>
<clipPath id="clip0_7030_20196">
<rect width="26.19" height="28.818" fill="white" transform="translate(4.40039 1.8)"/>
</clipPath>
</defs>
</svg>
