<svg xmlns="http://www.w3.org/2000/svg" width="33" height="33" viewBox="0 0 33 33" fill="none">
    <path d="M29.2875 5.5H3.7125C3.575 7.5625 2.0625 9.075 0 9.075V18.2875V22.6875C1.925 22.6875 3.575 24.2 3.7125 26.125H29.2875C29.425 24.0625 31.075 22.6875 33 22.6875V13.475V9.075C31.075 9.075 29.425 7.425 29.2875 5.5ZM23.65 22.6875C22.1375 23.7875 20.35 24.3375 18.5625 24.3375C14.85 24.3375 11.6875 22 10.45 18.7H9.35C8.6625 18.7 8.1125 18.15 8.1125 17.6C8.1125 16.9125 8.6625 16.3625 9.35 16.3625H9.9C9.9 16.225 9.9 15.95 9.9 15.8125C9.9 15.675 9.9 15.5375 9.9 15.4H9.35C8.6625 15.4 8.1125 14.85 8.1125 14.1625C8.1125 13.475 8.6625 12.925 9.35 12.925H10.3125C11.4125 9.4875 14.7125 7.15 18.425 7.15C19.9375 7.15 21.45 7.5625 22.6875 8.25C23.2375 8.525 23.375 9.35 23.1 9.9C22.825 10.45 22 10.5875 21.45 10.3125C20.4875 9.7625 19.3875 9.4875 18.2875 9.4875C15.8125 9.4875 13.75 10.8625 12.65 12.925H19.25C19.9375 12.925 20.35 13.475 20.35 14.1625C20.35 14.85 19.8 15.4 19.25 15.4H12.375C12.375 15.5375 12.375 15.675 12.375 15.8125C12.375 16.0875 12.375 16.225 12.375 16.3625H18.2875C18.975 16.3625 19.3875 16.9125 19.3875 17.6C19.3875 18.2875 18.8375 18.7 18.2875 18.7H13.0625C14.1625 20.625 16.225 22 18.5625 22C19.9375 22 21.175 21.5875 22.275 20.7625C22.825 20.35 23.5125 20.4875 23.925 21.0375C24.3375 21.5875 24.2 22.275 23.65 22.6875Z"
          fill="#1B8158"/>
</svg>
