<svg width="40" height="40" viewBox="0 0 40 40" fill="none" xmlns="http://www.w3.org/2000/svg">
<g clip-path="url(#clip0_4337_9728)">
<path d="M24.6875 28.1201C25.3347 28.1201 25.8594 27.5955 25.8594 26.9482C25.8594 26.301 25.3347 25.7764 24.6875 25.7764C24.0403 25.7764 23.5156 26.301 23.5156 26.9482C23.5156 27.5955 24.0403 28.1201 24.6875 28.1201Z" fill="#1B8158"/>
<path d="M15.3125 14.0576C15.9597 14.0576 16.4844 13.533 16.4844 12.8857C16.4844 12.2385 15.9597 11.7139 15.3125 11.7139C14.6653 11.7139 14.1406 12.2385 14.1406 12.8857C14.1406 13.533 14.6653 14.0576 15.3125 14.0576Z" fill="#1B8158"/>
<path d="M38.1709 17.2736C36.8412 16.4038 36.3422 14.5396 37.0574 13.1194C37.6834 11.88 37.7498 10.8157 37.2531 9.95625C36.7565 9.0968 35.802 8.62187 34.415 8.54289C32.8277 8.45359 31.4636 7.08945 31.3743 5.50101C31.2953 4.11516 30.8204 3.1607 29.9609 2.66406C29.1015 2.17086 28.0372 2.23492 26.7978 2.85977C25.3776 3.5693 23.5122 3.07609 22.6425 1.74625C21.1205 -0.576875 18.8797 -0.576875 17.3577 1.74625C16.4868 3.07492 14.6237 3.57273 13.2023 2.85977C11.9618 2.23492 10.8975 2.17086 10.0392 2.66406C9.17977 3.1607 8.70484 4.11516 8.62586 5.50219C8.53656 7.08945 7.17242 8.45359 5.58398 8.54289C4.19812 8.62187 3.24367 9.0968 2.74703 9.95625C2.25039 10.8157 2.31672 11.88 2.94273 13.1194C3.65797 14.5396 3.15906 16.4038 1.82805 17.2747C0.6675 18.037 0 18.925 0 19.9172C0 20.9094 0.6675 21.7986 1.82906 22.5596C3.15883 23.4305 3.65781 25.2948 2.94258 26.7149C2.31656 27.9543 2.25023 29.0186 2.74688 29.878C3.24352 30.7375 4.19797 31.2124 5.585 31.2914C7.17227 31.3807 8.53641 32.7448 8.6257 34.3333C8.70469 35.7191 9.17961 36.6736 10.0391 37.1702C10.8997 37.6658 11.9616 37.5994 13.2022 36.9745C14.6224 36.2604 16.4855 36.7571 17.3575 38.0892C18.1197 39.2497 19.0077 39.9952 19.9999 39.9952C20.9921 39.9952 21.8802 39.2496 22.6435 38.088C23.5121 36.7559 25.373 36.2547 26.7977 36.9745C28.0371 37.5994 29.1048 37.6658 29.9609 37.1702C30.8203 36.6736 31.2952 35.7191 31.3742 34.3321C31.4635 32.7448 32.8277 31.3807 34.4161 31.2914C35.802 31.2124 36.7564 30.7375 37.253 29.878C37.7497 29.0186 37.6834 27.9543 37.0573 26.7149C36.3421 25.2947 36.841 23.4305 38.1709 22.5596C39.3325 21.7986 40 20.9094 40 19.9172C40 18.925 39.3325 18.0369 38.1709 17.2736ZM15.3125 9.37031C17.2511 9.37031 18.8281 10.9473 18.8281 12.8859C18.8281 14.8245 17.2511 16.4016 15.3125 16.4016C13.3739 16.4016 11.7969 14.8245 11.7969 12.8859C11.7969 10.9473 13.3739 9.37031 15.3125 9.37031ZM13.906 29.9948L12.0315 28.5895L26.094 9.83953L27.9685 11.2448L13.906 29.9948ZM24.6875 30.4641C22.7489 30.4641 21.1719 28.887 21.1719 26.9484C21.1719 25.0098 22.7489 23.4328 24.6875 23.4328C26.6261 23.4328 28.2031 25.0098 28.2031 26.9484C28.2031 28.887 26.6261 30.4641 24.6875 30.4641Z" fill="#1B8158"/>
</g>
<defs>
<clipPath id="clip0_4337_9728">
<rect width="40" height="40" fill="white"/>
</clipPath>
</defs>
</svg>
