<svg width="55" height="55" viewBox="0 0 55 55" fill="none" xmlns="http://www.w3.org/2000/svg">
<g clip-path="url(#clip0_7030_33323)">
<path d="M19.91 35.9201C19.75 35.9201 19.59 35.8601 19.47 35.7401C19.23 35.5001 19.23 35.1001 19.47 34.8601L35.34 18.9901C35.58 18.7501 35.98 18.7501 36.22 18.9901C36.46 19.2301 36.46 19.6301 36.22 19.8701L20.35 35.7401C20.23 35.8601 20.07 35.9201 19.91 35.9201Z" fill="#1B8158"/>
<path d="M22.0001 25.2502C19.9801 25.2502 18.3301 23.6002 18.3301 21.5802C18.3301 19.5602 19.9801 17.9102 22.0001 17.9102C24.1401 17.9902 25.6701 19.5302 25.6701 21.5802C25.6701 23.6302 24.0201 25.2502 22.0001 25.2502ZM21.9801 19.1502C20.6701 19.1502 19.5801 20.2402 19.5801 21.5702C19.5801 22.9002 20.6701 23.9902 22.0001 23.9902C23.3301 23.9902 24.4201 22.9002 24.4201 21.5702C24.4201 20.2402 23.4101 19.2002 21.9701 19.1502H21.9801Z" fill="#1B8158"/>
<path d="M33.5596 36.8104C31.5696 36.8104 29.8896 35.1304 29.8896 33.1404C29.8896 31.1504 31.5696 29.4704 33.5596 29.4704C34.4996 29.4304 35.4196 29.7804 36.1096 30.4504C36.8296 31.1404 37.2397 32.1204 37.2397 33.1404C37.2397 35.1704 35.5896 36.8104 33.5696 36.8104H33.5596ZM33.6696 30.7104C33.6696 30.7104 33.6096 30.7104 33.5796 30.7104C32.2396 30.7104 31.1396 31.8204 31.1396 33.1304C31.1396 34.4404 32.2496 35.5504 33.5596 35.5504C34.8696 35.5504 35.9796 34.4604 35.9796 33.1304C35.9796 32.4504 35.7097 31.7904 35.2397 31.3404C34.8197 30.9304 34.2596 30.7104 33.6696 30.7104Z" fill="#1B8158"/>
<path d="M47.24 43.71H8.29C7.96 43.71 7.68 43.45 7.67 43.11C7.56 40.5 5.3 38.38 2.63 38.38C2.46 38.38 2.3 38.31 2.19 38.2C2.08 38.09 2 37.92 2 37.75L2.04 16.99C2.04 16.64 2.32 16.37 2.66 16.37C5.35 16.37 7.52 14.33 7.7 11.62C7.72 11.29 7.99 11.04 8.32 11.04L47.23 11C47.56 11 47.83 11.25 47.85 11.57C48.07 14.26 50.31 16.36 52.93 16.36C53.1 16.36 53.26 16.43 53.37 16.54C53.49 16.66 53.55 16.82 53.55 16.98L53.51 37.74C53.51 38.09 53.23 38.36 52.89 38.36C50.2 38.36 48.04 40.4 47.85 43.11C47.83 43.44 47.55 43.69 47.23 43.69L47.24 43.71ZM8.86 42.46H46.68C47.13 39.59 49.41 37.44 52.27 37.16L52.31 17.58C49.51 17.29 47.18 15.09 46.69 12.24L8.89 12.28C8.44 15.15 6.16 17.3 3.3 17.58L3.26 37.16C6.11 37.45 8.46 39.67 8.86 42.46Z" fill="#1B8158"/>
</g>
<defs>
<clipPath id="clip0_7030_33323">
<rect width="51.56" height="32.71" fill="white" transform="translate(2 11)"/>
</clipPath>
</defs>
</svg>
