<svg width="40" height="40" viewBox="0 0 40 40" fill="none" xmlns="http://www.w3.org/2000/svg">
<g clip-path="url(#clip0_2_4790)">
<path d="M24.6875 28.1205C25.3347 28.1205 25.8594 27.5958 25.8594 26.9486C25.8594 26.3014 25.3347 25.7767 24.6875 25.7767C24.0403 25.7767 23.5156 26.3014 23.5156 26.9486C23.5156 27.5958 24.0403 28.1205 24.6875 28.1205Z" fill="#1B8158"/>
<path d="M15.3125 14.058C15.9597 14.058 16.4844 13.5333 16.4844 12.8861C16.4844 12.2389 15.9597 11.7142 15.3125 11.7142C14.6653 11.7142 14.1406 12.2389 14.1406 12.8861C14.1406 13.5333 14.6653 14.058 15.3125 14.058Z" fill="#1B8158"/>
<path d="M38.1709 17.2738C36.8412 16.4041 36.3422 14.5399 37.0574 13.1196C37.6834 11.8802 37.7498 10.8159 37.2531 9.95649C36.7565 9.09704 35.802 8.62212 34.415 8.54313C32.8277 8.45384 31.4636 7.0897 31.3743 5.50126C31.2953 4.1154 30.8204 3.16095 29.9609 2.66431C29.1015 2.1711 28.0372 2.23517 26.7978 2.86001C25.3776 3.56954 23.5122 3.07634 22.6425 1.74649C21.1205 -0.576631 18.8797 -0.576631 17.3577 1.74649C16.4868 3.07517 14.6237 3.57298 13.2023 2.86001C11.9618 2.23517 10.8975 2.1711 10.0392 2.66431C9.17977 3.16095 8.70484 4.1154 8.62586 5.50243C8.53656 7.0897 7.17242 8.45384 5.58398 8.54313C4.19812 8.62212 3.24367 9.09704 2.74703 9.95649C2.25039 10.8159 2.31672 11.8802 2.94273 13.1196C3.65797 14.5399 3.15906 16.4041 1.82805 17.2749C0.6675 18.0372 0 18.9252 0 19.9174C0 20.9096 0.6675 21.7988 1.82906 22.5599C3.15883 23.4307 3.65781 25.295 2.94258 26.7152C2.31656 27.9545 2.25023 29.0188 2.74688 29.8783C3.24352 30.7377 4.19797 31.2127 5.585 31.2916C7.17227 31.3809 8.53641 32.7451 8.6257 34.3335C8.70469 35.7194 9.17961 36.6738 10.0391 37.1705C10.8997 37.666 11.9616 37.5996 13.2022 36.9748C14.6224 36.2606 16.4855 36.7573 17.3575 38.0895C18.1197 39.2499 19.0077 39.9955 19.9999 39.9955C20.9921 39.9955 21.8802 39.2498 22.6435 38.0883C23.5121 36.7562 25.373 36.2549 26.7977 36.9748C28.0371 37.5996 29.1048 37.666 29.9609 37.1705C30.8203 36.6738 31.2952 35.7194 31.3742 34.3323C31.4635 32.7451 32.8277 31.3809 34.4161 31.2916C35.802 31.2127 36.7564 30.7377 37.253 29.8783C37.7497 29.0188 37.6834 27.9545 37.0573 26.7152C36.3421 25.2949 36.841 23.4307 38.1709 22.5599C39.3325 21.7988 40 20.9096 40 19.9174C40 18.9252 39.3325 18.0372 38.1709 17.2738ZM15.3125 9.37055C17.2511 9.37055 18.8281 10.9476 18.8281 12.8862C18.8281 14.8248 17.2511 16.4018 15.3125 16.4018C13.3739 16.4018 11.7969 14.8248 11.7969 12.8862C11.7969 10.9476 13.3739 9.37055 15.3125 9.37055ZM13.906 29.9951L12.0315 28.5898L26.094 9.83977L27.9685 11.2451L13.906 29.9951ZM24.6875 30.4643C22.7489 30.4643 21.1719 28.8873 21.1719 26.9487C21.1719 25.0101 22.7489 23.4331 24.6875 23.4331C26.6261 23.4331 28.2031 25.0101 28.2031 26.9487C28.2031 28.8873 26.6261 30.4643 24.6875 30.4643Z" fill="#1B8158"/>
</g>
<defs>
<clipPath id="clip0_2_4790">
<rect width="40" height="40" fill="white"/>
</clipPath>
</defs>
</svg>
