<svg width="31" height="40" viewBox="0 0 31 40" fill="none" xmlns="http://www.w3.org/2000/svg">
<path d="M24.7059 9.41182H18.8236V2.66351C18.8222 1.95743 18.5413 1.28091 18.042 0.781579C17.5427 0.282302 16.8662 0.00131092 16.16 0H14.4282C13.7221 0.00131302 13.0456 0.282302 12.5463 0.781579C12.047 1.28086 11.766 1.95737 11.7647 2.66351V9.41182H5.88234C4.32252 9.41313 2.82731 10.0332 1.72437 11.1362C0.621427 12.2392 0.00134454 13.7343 0 15.2942V34.1177C0.00131302 35.6775 0.621385 37.1727 1.72437 38.2756C2.82735 39.3786 4.32252 39.9987 5.88234 40H24.7058C26.2651 39.9974 27.76 39.377 28.8626 38.2744C29.9652 37.1718 30.5856 35.6769 30.5882 34.1177V15.2942C30.5856 13.7349 29.9652 12.24 28.8626 11.1374C27.76 10.0348 26.2651 9.41442 24.7058 9.41182H24.7059ZM28.2353 34.1177C28.234 35.0532 27.8617 35.9503 27.2003 36.6121C26.5386 37.2735 25.6414 37.6458 24.7059 37.6471H5.88239C4.94618 37.6471 4.04878 37.2751 3.38668 36.6134C2.72492 35.9513 2.35299 35.0538 2.35299 34.1177V15.2942C2.35299 14.3579 2.7249 13.4605 3.38668 12.7984C4.04878 12.1367 4.94626 11.7648 5.88239 11.7648H11.7647V14.1177H9.77878C9.29624 14.1216 8.83205 14.3048 8.47693 14.6314C8.12143 14.958 7.89985 15.4051 7.85554 15.8857C7.8109 16.3663 7.94614 16.8465 8.23533 17.2328L14.3531 25.4116C14.5753 25.7081 14.9239 25.8824 15.2941 25.8824C15.6644 25.8824 16.013 25.7081 16.2352 25.4116L22.353 17.2328C22.6431 16.8452 22.7784 16.3633 22.7324 15.8811C22.6865 15.3989 22.4626 14.9512 22.1045 14.6252C21.7463 14.2992 21.2796 14.1184 20.7954 14.1177H18.8235V11.7648H24.7059C25.6414 11.7661 26.5386 12.1383 27.2003 12.7997C27.8618 13.4615 28.234 14.3586 28.2353 15.2942L28.2353 34.1177Z" fill="#1B8158"/>
</svg>
