<svg width="55" height="55" viewBox="0 0 55 55" fill="none" xmlns="http://www.w3.org/2000/svg">
<g clip-path="url(#clip0_7030_33330)">
<path d="M45.5298 45.9501H37.6298C37.2898 45.9501 37.0098 45.6701 37.0098 45.3301C37.0098 44.9901 37.2898 44.7101 37.6298 44.7101H45.5298C48.4898 44.7101 50.9098 42.3001 50.9098 39.3301V35.4801C50.9098 35.1301 51.1898 34.8601 51.5298 34.8601C51.8698 34.8601 52.1498 35.1401 52.1498 35.4801V39.3301C52.1498 42.9801 49.1798 45.9501 45.5298 45.9501Z" fill="#1B8158"/>
<path d="M16.53 45.9501H8.62C4.97 45.9501 2 42.9801 2 39.3301V35.4801C2 35.1301 2.28 34.8601 2.62 34.8601C2.96 34.8601 3.24 35.1401 3.24 35.4801V39.3301C3.24 42.2901 5.65 44.7101 8.62 44.7101H16.52C16.86 44.7101 17.14 44.9901 17.14 45.3301C17.14 45.6701 16.86 45.9501 16.52 45.9501H16.53Z" fill="#1B8158"/>
<path d="M27.0803 48.66H27.0503C25.8003 48.66 24.6403 48.16 23.7703 47.26L8.38031 31.61C7.72031 30.95 7.39031 30.12 7.45031 29.28C7.45031 27.52 8.86031 26.1 10.6703 26.1H18.8503V9.52C18.8503 7.58 20.4303 6 22.3703 6H31.7703C33.7103 6 35.2903 7.58 35.2903 9.52V26.1H43.4703C44.3503 26.1 45.1603 26.43 45.7603 27.03C46.9903 28.26 47.0003 30.31 45.7603 31.6L30.4003 47.26C29.4503 48.18 28.2903 48.65 27.0603 48.65L27.0803 48.66ZM10.6703 27.35C9.56031 27.35 8.70031 28.22 8.70031 29.32C8.66031 29.84 8.87031 30.33 9.27031 30.73L24.6703 46.38C25.3003 47.03 26.1503 47.39 27.0603 47.4H27.0803C27.9803 47.4 28.8303 47.05 29.4903 46.42L44.8803 30.73C45.6403 29.94 45.6403 28.67 44.8803 27.91C44.5103 27.54 44.0203 27.34 43.4703 27.34H34.9203C34.4203 27.34 34.0403 26.96 34.0403 26.46V9.52C34.0403 8.27 33.0203 7.25 31.7703 7.25H22.3703C21.1203 7.25 20.1003 8.27 20.1003 9.52V26.48C20.1003 26.98 19.7203 27.36 19.2203 27.36H10.6703V27.35Z" fill="#1B8158"/>
</g>
<defs>
<clipPath id="clip0_7030_33330">
<rect width="50.15" height="42.66" fill="white" transform="translate(2 6)"/>
</clipPath>
</defs>
</svg>
