<svg width="40" height="39" viewBox="0 0 40 39" fill="none" xmlns="http://www.w3.org/2000/svg">
<g clip-path="url(#clip0_1046_11001)">
<path d="M24.6875 27.3744C25.3347 27.3744 25.8594 26.8637 25.8594 26.2336C25.8594 25.6036 25.3347 25.0928 24.6875 25.0928C24.0403 25.0928 23.5156 25.6036 23.5156 26.2336C23.5156 26.8637 24.0403 27.3744 24.6875 27.3744Z" fill="#1B8158"/>
<path d="M15.3125 13.685C15.9597 13.685 16.4844 13.1743 16.4844 12.5442C16.4844 11.9142 15.9597 11.4034 15.3125 11.4034C14.6653 11.4034 14.1406 11.9142 14.1406 12.5442C14.1406 13.1743 14.6653 13.685 15.3125 13.685Z" fill="#1B8158"/>
<path d="M38.1709 16.8154C36.8412 15.9687 36.3422 14.1539 37.0574 12.7714C37.6834 11.5649 37.7498 10.5288 37.2531 9.69216C36.7565 8.85551 35.802 8.39319 34.415 8.3163C32.8277 8.22937 31.4636 6.90142 31.3743 5.35512C31.2953 4.00603 30.8204 3.07689 29.9609 2.59343C29.1015 2.11331 28.0372 2.17567 26.7978 2.78394C25.3776 3.47465 23.5122 2.99453 22.6425 1.69997C21.1205 -0.561528 18.8797 -0.561528 17.3577 1.69997C16.4868 2.99339 14.6237 3.478 13.2023 2.78394C11.9618 2.17567 10.8975 2.11331 10.0392 2.59343C9.17977 3.07689 8.70484 4.00603 8.62586 5.35626C8.53656 6.90142 7.17242 8.22937 5.58398 8.3163C4.19812 8.39319 3.24367 8.85551 2.74703 9.69216C2.25039 10.5288 2.31672 11.5649 2.94273 12.7714C3.65797 14.1539 3.15906 15.9687 1.82805 16.8164C0.6675 17.5585 0 18.423 0 19.3888C0 20.3547 0.6675 21.2203 1.82906 21.9612C3.15883 22.8089 3.65781 24.6238 2.94258 26.0062C2.31656 27.2127 2.25023 28.2488 2.74688 29.0854C3.24352 29.9221 4.19797 30.3844 5.585 30.4613C7.17227 30.5482 8.53641 31.8762 8.6257 33.4225C8.70469 34.7716 9.17961 35.7007 10.0391 36.1842C10.8997 36.6666 11.9616 36.6019 13.2022 35.9937C14.6224 35.2985 16.4855 35.782 17.3575 37.0788C18.1197 38.2085 19.0077 38.9342 19.9999 38.9342C20.9921 38.9342 21.8802 38.2084 22.6435 37.0776C23.5121 35.7809 25.373 35.2929 26.7977 35.9937C28.0371 36.6019 29.1048 36.6666 29.9609 36.1842C30.8203 35.7007 31.2952 34.7716 31.3742 33.4213C31.4635 31.8762 32.8277 30.5482 34.4161 30.4613C35.802 30.3844 36.7564 29.9221 37.253 29.0854C37.7497 28.2488 37.6834 27.2127 37.0573 26.0062C36.3421 24.6237 36.841 22.8089 38.1709 21.9612C39.3325 21.2203 40 20.3547 40 19.3888C40 18.423 39.3325 17.5585 38.1709 16.8154ZM15.3125 9.12177C17.2511 9.12177 18.8281 10.657 18.8281 12.5441C18.8281 14.4313 17.2511 15.9665 15.3125 15.9665C13.3739 15.9665 11.7969 14.4313 11.7969 12.5441C11.7969 10.657 13.3739 9.12177 15.3125 9.12177ZM13.906 29.1991L12.0315 27.8311L26.094 9.57854L27.9685 10.9466L13.906 29.1991ZM24.6875 29.6559C22.7489 29.6559 21.1719 28.1207 21.1719 26.2336C21.1719 24.3464 22.7489 22.8112 24.6875 22.8112C26.6261 22.8112 28.2031 24.3464 28.2031 26.2336C28.2031 28.1207 26.6261 29.6559 24.6875 29.6559Z" fill="#1B8158"/>
</g>
<defs>
<clipPath id="clip0_1046_11001">
<rect width="40" height="38.9388" fill="white"/>
</clipPath>
</defs>
</svg>
