<svg width="25" height="24" viewBox="0 0 25 24" fill="none" xmlns="http://www.w3.org/2000/svg">
<g clip-path="url(#clip0_5939_3084)">
<path d="M24.1262 12.2842L21.7416 8.84011L21.7387 8.83682C21.7344 8.83071 21.7293 8.8256 21.7249 8.81961C21.7074 8.7959 21.687 8.77471 21.6671 8.75274C21.6623 8.74745 21.658 8.74169 21.6531 8.73655C21.6431 8.72603 21.6349 8.7134 21.6245 8.70347C21.62 8.69918 21.6147 8.69594 21.6101 8.69171C21.5902 8.67356 21.5678 8.65831 21.5462 8.64194C21.5313 8.63069 21.5176 8.61785 21.5021 8.6076C21.4975 8.60466 21.4937 8.60043 21.4891 8.59749C21.4838 8.59411 21.4777 8.59214 21.4722 8.58885C21.4517 8.57651 21.4295 8.56696 21.4078 8.55621C21.3771 8.54019 21.3455 8.52598 21.3132 8.51367C21.307 8.51149 21.3018 8.50779 21.2955 8.50582L16.2537 6.82499C16.0327 6.75373 15.7925 6.77257 15.5852 6.87743C15.378 6.98229 15.2206 7.16468 15.1471 7.38497C15.0736 7.60527 15.09 7.84566 15.1928 8.05391C15.2956 8.26217 15.4764 8.42145 15.6959 8.49715L18.5638 9.45311L12.5286 12.0934L6.05703 9.42858L8.85157 8.49701C8.96295 8.46169 9.06619 8.40459 9.1553 8.32901C9.24441 8.25343 9.31761 8.16089 9.37062 8.05676C9.42364 7.95264 9.45543 7.83902 9.46414 7.7225C9.47285 7.60598 9.4583 7.48889 9.42135 7.37804C9.38439 7.2672 9.32577 7.16481 9.24889 7.07682C9.172 6.98884 9.07839 6.91702 8.97349 6.86554C8.8686 6.81406 8.75452 6.78396 8.63788 6.77697C8.52125 6.76998 8.40439 6.78625 8.2941 6.82484L3.25427 8.505C3.24234 8.50894 3.23132 8.51549 3.21951 8.51992C3.19574 8.52894 3.17306 8.5397 3.15014 8.55072C3.13081 8.55997 3.11059 8.5669 3.09191 8.57766C3.08259 8.583 3.07484 8.59006 3.06576 8.59567C3.04355 8.60951 3.02286 8.62534 3.00189 8.64115C2.98532 8.65364 2.96748 8.66377 2.95167 8.67758C2.94398 8.68431 2.93778 8.69227 2.93032 8.69926C2.91004 8.71819 2.89194 8.73925 2.87338 8.7602C2.85983 8.77551 2.844 8.78896 2.8316 8.80512L0.182698 12.2485C0.102377 12.353 0.0464971 12.4742 0.0191679 12.6031C-0.00816132 12.732 -0.00624444 12.8654 0.0247774 12.9935C0.0557993 13.1215 0.115137 13.241 0.198426 13.3431C0.281716 13.4453 0.386838 13.5274 0.506061 13.5836L2.64935 14.5921V18.8797C2.64937 19.0469 2.69697 19.2107 2.78659 19.352C2.87621 19.4932 3.00416 19.606 3.15549 19.6773L12.1636 23.9163C12.1683 23.9185 12.1734 23.9192 12.1781 23.9212C12.221 23.9398 12.2653 23.9549 12.3106 23.9664C12.325 23.9703 12.3389 23.9766 12.3535 23.9797C12.4775 24.0074 12.6062 24.0068 12.73 23.978C12.7467 23.9743 12.7626 23.9674 12.7792 23.9627C12.8243 23.9504 12.8684 23.9345 12.9109 23.9151C12.9181 23.9117 12.926 23.9106 12.9331 23.9071L21.411 19.6681C21.5574 19.5949 21.6806 19.4823 21.7666 19.3431C21.8527 19.2038 21.8982 19.0434 21.8982 18.8797V14.5232L23.7956 13.5745C23.9086 13.518 24.008 13.4379 24.0873 13.3396C24.1666 13.2413 24.2239 13.1271 24.2552 13.0048C24.2866 12.8824 24.2913 12.7548 24.269 12.6305C24.2467 12.5061 24.198 12.3881 24.1261 12.2842H24.1262Z" fill="#AEAEAE"/>
<path d="M15.0275 3.39913C14.8608 3.23526 14.6358 3.14427 14.402 3.14616C14.1683 3.14804 13.9448 3.24264 13.7808 3.40918L13.155 4.0451V0.881419C13.155 0.647652 13.0621 0.42346 12.8968 0.258162C12.7315 0.0928637 12.5073 0 12.2736 0C12.0398 0 11.8156 0.0928637 11.6503 0.258162C11.485 0.42346 11.3921 0.647652 11.3921 0.881419V4.04501L10.7665 3.40918C10.6853 3.32668 10.5887 3.26098 10.4821 3.21584C10.3755 3.17069 10.261 3.14698 10.1453 3.14606C10.0295 3.14515 9.91475 3.16703 9.80745 3.21048C9.70016 3.25393 9.60248 3.31808 9.51998 3.39928C9.43748 3.48048 9.37178 3.57713 9.32664 3.68372C9.28149 3.79031 9.25778 3.90474 9.25686 4.0205C9.25594 4.13625 9.27783 4.25105 9.32128 4.35834C9.36473 4.46563 9.42888 4.56331 9.51008 4.64581L11.6454 6.81578L11.6479 6.81789C11.7688 6.94168 11.9238 7.02658 12.0932 7.06174C12.2626 7.0969 12.4386 7.08071 12.5987 7.01524C12.6038 7.01321 12.6094 7.01248 12.6144 7.01036C12.6678 6.98804 12.7189 6.96049 12.7669 6.9281L12.7716 6.92428C12.8172 6.89308 12.8599 6.85767 12.899 6.81851L12.9019 6.81601L15.0375 4.64605C15.2015 4.47937 15.2926 4.25436 15.2907 4.02052C15.2888 3.78668 15.1941 3.56316 15.0275 3.39913Z" fill="#AEAEAE"/>
</g>
<defs>
<clipPath id="clip0_5939_3084">
<rect width="24.2829" height="24" fill="white"/>
</clipPath>
</defs>
</svg>
