<svg width="17" height="24" viewBox="0 0 17 24" fill="none" xmlns="http://www.w3.org/2000/svg">
<g clip-path="url(#clip0_5939_3104)">
<path d="M9.50083 0.11695L9.54022 0.116763C8.59876 -0.0433983 7.63664 -0.0387586 6.69677 0.130474L6.65495 0.130692C4.78672 0.473512 3.09776 1.46038 1.88187 2.91963C0.665974 4.37888 7.59668e-05 6.21819 0 8.11761C0 16.7693 8.11775 23.9999 8.11775 23.9999C8.11775 23.9999 16.2355 16.7583 16.2355 8.1177C16.2353 6.20444 15.5596 4.35267 14.3275 2.88893C13.0954 1.42519 11.386 0.443495 9.50083 0.11695ZM8.11772 12.4267C7.26249 12.4267 6.42647 12.1731 5.71537 11.6979C5.00427 11.2228 4.45003 10.5475 4.12275 9.75735C3.79546 8.96722 3.70983 8.09779 3.87667 7.25899C4.04351 6.4202 4.45534 5.64971 5.06007 5.04498C5.66481 4.44024 6.43529 4.0284 7.27408 3.86156C8.11288 3.69471 8.98231 3.78034 9.77244 4.10762C10.5626 4.4349 11.2379 4.98913 11.713 5.70022C12.1882 6.41132 12.4418 7.24734 12.4418 8.10256C12.4418 9.24938 11.9862 10.3492 11.1753 11.1601C10.3644 11.9711 9.26453 12.4266 8.11772 12.4267Z" fill="#AEAEAE"/>
</g>
<defs>
<clipPath id="clip0_5939_3104">
<rect width="16.2355" height="24" fill="white"/>
</clipPath>
</defs>
</svg>
