<svg width="25" height="24" viewBox="0 0 25 24" fill="none" xmlns="http://www.w3.org/2000/svg">
<path d="M13.5682 13.6504H17.6063C16.8975 15.5893 14.9777 16.9793 12.7303 16.9633C10.0033 16.9438 7.74842 14.8332 7.64255 12.1968C7.52907 9.3707 9.87253 7.03657 12.7688 7.03657C14.0931 7.03657 15.3015 7.52474 16.2126 8.32467C16.4284 8.51419 16.7569 8.51539 16.9691 8.3221L18.4523 6.97158C18.6842 6.76034 18.6851 6.40363 18.4538 6.19168C17.009 4.86735 15.0707 4.04189 12.9334 4.00151C8.3746 3.9154 4.53196 7.53162 4.50021 11.943C4.46817 16.3874 8.18244 20 12.7688 20C17.1794 20 20.7825 16.6588 21.0239 12.45C21.0303 12.3972 21.0345 10.6138 21.0345 10.6138H13.5682C13.2621 10.6138 13.0141 10.8538 13.0141 11.1499V13.1143C13.0141 13.4104 13.2622 13.6504 13.5682 13.6504Z" fill="white"/>
</svg>
