<svg width="26" height="26" viewBox="0 0 26 26" fill="none" xmlns="http://www.w3.org/2000/svg">
<path d="M21.2705 6.64549C21.7993 6.11664 21.7993 5.2592 21.2705 4.73035C20.7416 4.2015 19.8842 4.2015 19.3553 4.73035L13.0012 11.0845L6.64688 4.73013C6.11803 4.20128 5.26059 4.20128 4.73174 4.73013C4.20289 5.25899 4.20289 6.11642 4.73174 6.64527L11.0861 12.9996L4.73062 19.3551C4.20177 19.8839 4.20177 20.7413 4.73062 21.2702C5.25947 21.799 6.11691 21.799 6.64576 21.2702L13.0012 14.9147L19.3564 21.27C19.8853 21.7988 20.7427 21.7988 21.2716 21.27C21.8004 20.7411 21.8004 19.8837 21.2716 19.3548L14.9163 12.9996L21.2705 6.64549Z" fill="#1B8158"/>
</svg>
