<svg width="25" height="25" viewBox="0 0 25 25" fill="none" xmlns="http://www.w3.org/2000/svg">
<g clip-path="url(#clip0_6521_3793)">
<path d="M16.2803 13.3152L16.6157 15.0874H20.2624L20.5978 13.3152H16.2803Z" fill="#1B8158"/>
<path d="M16.6533 16.7891H20.2233V25.8333H16.6533V16.7891Z" fill="#1B8158"/>
<path d="M9.99735 10.8159L11.0348 1.04737C10.166 0.905779 9.28139 0.833252 8.39088 0.833252C7.63918 0.833252 6.89168 0.88492 6.1543 0.986037L7.22681 10.8159H9.99735V10.8159Z" fill="#1B8158"/>
<path d="M15.6576 6.28838L16.7822 3.15162L16.1307 2.79342C15.0535 2.2012 13.9029 1.73825 12.7074 1.41113L12.1895 6.28838H15.6576Z" fill="#1B8158"/>
<path d="M4.47789 1.3064C3.13784 1.63612 1.84922 2.13478 0.651554 2.79327L0 3.15153L2.95817 10.8159H5.51545L4.47789 1.3064Z" fill="#1B8158"/>
<path d="M2.37564 19.6622C2.37564 21.419 3.09501 23.0066 4.24738 24.1316H2.09082V25.8332H14.6913V24.1316H12.5348C13.6872 23.0066 14.4065 21.419 14.4065 19.6622L12.9755 16.7888H3.8067L2.37564 19.6622Z" fill="#1B8158"/>
<path d="M10.4396 13.3152V12.5176H2.86133L3.94742 15.0874H12.8344L13.5835 13.3152H10.4396Z" fill="#1B8158"/>
<path d="M12.0879 7.93652H24.3839V11.6666H12.0879V7.93652Z" fill="#1B8158"/>
</g>
<defs>
<clipPath id="clip0_6521_3793">
<rect width="25" height="25" fill="white"/>
</clipPath>
</defs>
</svg>
