<svg width="34" height="33" viewBox="0 0 34 33" fill="none" xmlns="http://www.w3.org/2000/svg">
<g clip-path="url(#clip0_7030_20194)">
<path d="M18.3216 30.63H14.8716C14.7696 30.63 14.6796 30.588 14.6076 30.522C13.8996 29.814 13.8996 29.01 13.8996 28.158C13.8996 27.642 13.9236 20.604 13.9416 15.456C13.9536 12.486 13.9596 10.14 13.9596 10.038C14.0016 9.61201 14.1216 9.25801 14.3196 8.95801C14.4756 8.69401 14.7096 8.46601 15.1056 8.19601C14.0016 8.02201 11.7336 7.86001 10.5096 7.77001C9.08555 7.66601 8.33355 7.54401 8.25355 7.40401C8.21155 7.33801 8.19955 7.25401 8.20555 7.17601L8.64955 2.73601C8.66755 2.54401 8.82955 2.40001 9.02155 2.40001H24.2316C24.4235 2.40001 24.5856 2.54401 24.6036 2.73601L25.0536 7.14601C25.0596 7.21801 25.0536 7.28401 25.0176 7.35001C24.9456 7.49801 24.2896 7.61601 23.0496 7.70401C21.8376 7.78801 19.3176 7.96801 18.1416 8.16001C18.5556 8.44201 18.7776 8.66401 18.9456 8.94001C19.2036 9.33001 19.3295 9.67201 19.3295 10.002C19.3056 10.812 19.3236 22.77 19.3295 26.7V28.152C19.3295 28.95 19.3296 29.778 18.5916 30.516C18.5196 30.588 18.4236 30.624 18.3275 30.624L18.3216 30.63ZM15.0336 29.88H18.1536C18.5736 29.394 18.5736 28.866 18.5736 28.152V26.706C18.5676 22.356 18.5496 10.806 18.5736 9.99001C18.5736 9.82801 18.4836 9.61201 18.3036 9.34201C18.1596 9.10201 17.9436 8.89801 17.1636 8.43601C16.9416 8.30401 16.8996 8.10001 16.9356 7.95001C17.0376 7.52401 17.3555 7.35601 22.9896 6.95401C23.4696 6.91801 23.9556 6.88201 24.2676 6.85801L23.8896 3.14401H9.36355L8.98555 6.89401C9.34555 6.93001 9.96355 6.97201 10.5636 7.01401C15.9276 7.39801 16.2156 7.55401 16.3176 7.97401C16.3535 8.12401 16.3116 8.32801 16.0896 8.46001C15.3336 8.89801 15.0936 9.13201 14.9616 9.34801C14.8236 9.55801 14.7396 9.79801 14.7156 10.062C14.7156 10.122 14.7096 12.468 14.6976 15.444C14.6796 20.592 14.6556 27.63 14.6556 28.146C14.6556 28.872 14.6556 29.406 15.0456 29.874L15.0336 29.88Z" fill="#1B8158"/>
<path d="M24.3821 4.05H8.87207V4.8H24.3821V4.05Z" fill="#1B8158"/>
<path d="M24.5622 5.25H8.99219V6H24.5622V5.25Z" fill="#1B8158"/>
</g>
<defs>
<clipPath id="clip0_7030_20194">
<rect width="16.86" height="28.23" fill="white" transform="translate(8.2002 2.40001)"/>
</clipPath>
</defs>
</svg>
