<svg xmlns="http://www.w3.org/2000/svg" width="33" height="33" viewBox="0 0 33 33" fill="none">
  <path d="M16.1049 4.97189L3.27885 4.88164M16.0933 6.07147L3 5.97811M5.58645 7.1575C6.11348 8.28816 7.76532 9.12112 9.73085 9.13564C11.6953 9.15016 13.3619 8.3421 13.9069 7.22078M12.5561 8.54747C12.5561 8.54747 13.2669 11.3109 11.1894 13.8097M6.9944 8.50602C6.9944 8.50602 6.2572 11.6615 8.27448 13.7859L8.14985 29.5571C8.14351 30.3444 8.79517 30.9938 9.59679 31C10.3984 31.0062 11.0596 30.3662 11.0659 29.5799L11.1905 13.8108M24.0369 10.451L15.9456 10.3857H15.9361M16.0132 11.5163L23.8943 11.6076M17.8201 13.9208C17.8201 13.9208 18.1264 14.4104 18.4042 15.0743M21.5768 15.0556C21.8609 14.4062 22.1598 13.955 22.1598 13.955M19.9926 15.0463L21.5758 15.0566H21.6803C21.9581 15.0577 22.1535 15.2765 22.0658 15.4871C21.7944 16.1416 21.0783 17.459 21.2325 18.764C21.3497 19.7556 24.0208 30.6535 20.0454 31C16.0657 30.6795 18.6672 19.7639 18.7781 18.7712C18.9238 17.4652 18.1983 16.153 17.9237 15.4995C17.8349 15.29 18.0293 15.0701 18.307 15.0659L19.9937 15.0441M28.5348 2.96467L20.4435 2.90035H20.4329M20.51 4.03105L28.3922 4.12234M15.6707 7.2301L3.75086 7.13881C3.35163 7.1357 3.0295 6.86082 3.03267 6.52473L3.04957 4.3495C3.05274 4.01341 3.37804 3.74371 3.77727 3.74683L15.6971 3.83811C16.0964 3.84122 16.4185 4.11611 16.4153 4.45219L16.3984 6.62742C16.3953 6.96351 16.07 7.23321 15.6707 7.2301ZM14.0828 11.2185L14.0832 11.1625C14.0945 9.68453 15.3236 8.49536 16.8285 8.50645L23.1801 8.55327C24.685 8.56436 25.8958 9.77151 25.8845 11.2495L25.884 11.3055C25.8727 12.7835 24.6436 13.9727 23.1388 13.9616L16.7872 13.9148C15.2823 13.9037 14.0715 12.6966 14.0828 11.2185ZM22.4357 12.8285L17.5034 12.7922C16.5486 12.7849 15.7808 12.0111 15.7882 11.062L15.7903 10.7612C15.7935 10.3027 15.9783 9.88671 16.2751 9.5807C16.5919 9.25395 17.0387 9.05272 17.5309 9.05583L22.4632 9.09213C23.4179 9.09939 24.1858 9.87426 24.1784 10.8224L24.1763 11.1232C24.1689 12.0713 23.3894 12.8347 22.4346 12.8285H22.4357ZM18.5809 3.7322L18.5813 3.67618C18.5926 2.19817 19.8217 1.009 21.3266 1.0201L27.6782 1.06691C29.1831 1.07801 30.3939 2.28516 30.3826 3.76317L30.3822 3.81918C30.3709 5.29719 29.1418 6.48636 27.6369 6.47527L21.2853 6.42845C19.7804 6.41736 18.5696 5.2102 18.5809 3.7322ZM26.9336 5.3432L22.0013 5.3069C21.0465 5.29964 20.2787 4.52581 20.2861 3.57667L20.2882 3.27586C20.2913 2.81737 20.4762 2.40141 20.773 2.0954C21.0898 1.76865 21.5366 1.56741 22.0287 1.57053L26.961 1.60683C27.9158 1.61409 28.6836 2.38896 28.6762 3.33706L28.6741 3.63787C28.6667 4.58597 27.8873 5.34943 26.9325 5.3432H26.9336Z" stroke="#1B8158" stroke-width="0.6" stroke-miterlimit="10"/>
</svg>
