<svg width="33" height="33" viewBox="0 0 34 33" fill="none" xmlns="http://www.w3.org/2000/svg">
    <path fill-rule="evenodd" clip-rule="evenodd" d="M11.493 5.17429L11.9668 5.95438C12.9261 7.53371 14.6493 8.51165 16.4848 8.51165C18.3203 8.51165 20.0435 7.53371 21.0028 5.95438L21.4766 5.17429L21.6916 6.06493C22.9654 11.3431 23.8172 16.3459 24.0913 20.7043C24.3648 25.0545 24.0656 28.7996 23.0072 31.54L22.9129 31.784H10.0581L9.96312 31.5418C8.88876 28.8004 8.58965 25.0542 8.86701 20.704C9.14491 16.3454 10.0043 11.3427 11.278 6.06493L11.493 5.17429ZM11.8196 7.05899C10.6592 12.0085 9.88158 16.6764 9.62161 20.7538C9.35543 24.9285 9.63447 28.449 10.5737 31.0145H22.3945C23.3203 28.4481 23.5991 24.9272 23.3366 20.7535C23.0802 16.676 22.3096 12.0082 21.15 7.05905C20.0092 8.44954 18.2954 9.28124 16.4848 9.28124C14.6742 9.28124 12.9603 8.44952 11.8196 7.05899Z" fill="#1B8158"/>
    <path fill-rule="evenodd" clip-rule="evenodd" d="M12.7781 1.51042C13.0987 1.2697 13.4927 1.18517 13.944 1.18517H19.0558C19.5069 1.18517 19.903 1.26963 20.2249 1.51669C20.5453 1.76263 20.7367 2.12716 20.869 2.56501L20.871 2.57136L20.8727 2.57777C21.0606 3.28538 21.2274 4.00203 21.3909 4.70422C21.4909 5.13369 21.5896 5.55776 21.6911 5.97104L20.9575 6.15769C20.851 5.72395 20.7505 5.29219 20.65 4.8603C20.4898 4.17172 20.3295 3.48283 20.1444 2.78513C20.0352 2.42664 19.9096 2.23862 19.7696 2.13116C19.6302 2.02421 19.4214 1.95475 19.0558 1.95475H13.944C13.5785 1.95475 13.3676 2.02414 13.227 2.12973C13.0869 2.2349 12.9628 2.41626 12.8548 2.75651C12.6699 3.45347 12.5097 4.14165 12.3497 4.82951C12.2492 5.2614 12.1487 5.69317 12.0422 6.12691L11.3086 5.94025C11.4101 5.52698 11.5088 5.10292 11.6088 4.67345C11.7723 3.97126 11.9392 3.2546 12.1271 2.54699L12.1293 2.53849L12.132 2.53011C12.2653 2.10603 12.458 1.75074 12.7781 1.51042Z" fill="#1B8158"/>
    <path fill-rule="evenodd" clip-rule="evenodd" d="M14.8569 3.4284C14.4496 3.00514 14.1599 2.45957 13.9805 1.9449L14.6931 1.68755C14.8464 2.12717 15.0861 2.56667 15.3971 2.88992C15.7046 3.20945 16.0663 3.40158 16.4844 3.40158C16.9024 3.40158 17.2641 3.20945 17.5716 2.88992C17.8827 2.56667 18.1223 2.12717 18.2756 1.68755L18.9883 1.9449C18.8088 2.45957 18.5192 3.00514 18.1118 3.4284C17.701 3.85537 17.1552 4.17117 16.4844 4.17117C15.8135 4.17117 15.2678 3.85537 14.8569 3.4284Z" fill="#1B8158"/>
</svg>

