<svg width="34" height="33" viewBox="0 0 34 33" fill="none" xmlns="http://www.w3.org/2000/svg">
<g clip-path="url(#clip0_7030_20195)">
<path d="M18.8282 31.71H8.8082C7.9202 31.71 7.2002 30.99 7.2002 30.102V12.708C7.2422 11.82 7.9442 11.136 8.8082 11.136H18.8282C19.7162 11.136 20.4362 11.856 20.4362 12.744V30.114C20.4362 31.002 19.7162 31.722 18.8282 31.722V31.71ZM8.8082 11.88C8.3582 11.88 7.9742 12.258 7.9502 12.72V30.102C7.9502 30.576 8.3342 30.96 8.8082 30.96H18.8282C19.3022 30.96 19.6862 30.576 19.6862 30.102V12.738C19.6862 12.264 19.3022 11.88 18.8282 11.88H8.8082Z" fill="#1B8158"/>
<path d="M18.8452 10.83H8.7832L9.1492 10.254C10.0912 8.778 11.8792 7.86 13.8172 7.86C15.7552 7.86 17.5432 8.778 18.4852 10.254L18.8512 10.83H18.8452ZM10.2292 10.08H17.3992C16.5352 9.162 15.2272 8.61 13.8112 8.61C12.3952 8.61 11.0872 9.162 10.2232 10.08H10.2292Z" fill="#1B8158"/>
<path d="M14.4723 7.5H13.1823C12.7743 7.5 12.4443 7.17 12.4443 6.762V4.902C12.4443 4.482 12.7623 4.164 13.1823 4.164H14.4723C14.8803 4.164 15.2103 4.494 15.2103 4.902V6.762C15.2103 7.17 14.8803 7.5 14.4723 7.5ZM14.4603 4.902L13.1883 4.914H13.1823L13.2063 6.762L14.4783 6.75L14.4663 4.902H14.4603Z" fill="#1B8158"/>
<path d="M25.5425 9.99C25.5065 9.99 25.4765 9.99 25.4405 9.978L24.6905 9.768C24.4925 9.714 24.3725 9.504 24.4325 9.306C24.4865 9.108 24.6965 8.994 24.8945 9.048L25.6445 9.258C25.8425 9.312 25.9625 9.522 25.9025 9.72C25.8545 9.888 25.7045 9.996 25.5425 9.996V9.99Z" fill="#1B8158"/>
<path d="M23.358 9.39C23.322 9.39 23.292 9.39 23.256 9.378L19.776 8.418C19.578 8.364 19.458 8.154 19.512 7.956C19.566 7.758 19.77 7.638 19.974 7.692L23.454 8.652C23.652 8.706 23.772 8.916 23.718 9.114C23.67 9.282 23.52 9.39 23.358 9.39Z" fill="#1B8158"/>
<path d="M18.1685 7.95C18.1385 7.95 18.1025 7.95 18.0665 7.938L16.0865 7.398C15.8885 7.344 15.7685 7.14 15.8225 6.936C15.8765 6.738 16.0805 6.618 16.2845 6.672L18.2645 7.212C18.4625 7.266 18.5825 7.47 18.5285 7.674C18.4805 7.842 18.3305 7.95 18.1685 7.95Z" fill="#1B8158"/>
<path d="M25.0926 6.21H22.7226C22.5126 6.21 22.3506 6.042 22.3506 5.838C22.3506 5.634 22.5186 5.466 22.7226 5.466H25.0926C25.2966 5.466 25.4646 5.634 25.4646 5.838C25.4646 6.042 25.2966 6.21 25.0926 6.21Z" fill="#1B8158"/>
<path d="M16.2118 6.27C16.0078 6.27 15.8398 6.102 15.8398 5.898C15.8398 5.688 16.0078 5.52 16.2118 5.52L20.9218 5.49C21.1198 5.466 21.2998 5.658 21.2998 5.862C21.2998 6.072 21.1318 6.24 20.9278 6.24L16.2178 6.27H16.2118Z" fill="#1B8158"/>
<path d="M23.6822 3.18C23.5142 3.18 23.3642 3.066 23.3162 2.898C23.2682 2.7 23.3882 2.496 23.5862 2.442L26.0822 1.812C26.2862 1.758 26.4842 1.884 26.5382 2.082C26.5862 2.28 26.4662 2.484 26.2682 2.538L23.7782 3.168C23.7482 3.174 23.7182 3.18 23.6882 3.18H23.6822Z" fill="#1B8158"/>
<path d="M16.0927 5.16C15.9247 5.16 15.7747 5.046 15.7327 4.878C15.6787 4.68 15.7987 4.47 16.0027 4.422L22.0927 2.832C22.2907 2.778 22.5007 2.898 22.5487 3.096C22.6027 3.294 22.4827 3.504 22.2847 3.552L16.1947 5.142C16.1647 5.148 16.1287 5.154 16.0987 5.154L16.0927 5.16Z" fill="#1B8158"/>
<path d="M16.8477 27.72H10.8117C10.2177 27.72 9.71973 27.216 9.71973 26.628V16.218C9.71973 15.6 10.2117 15.09 10.8117 15.09H16.8417C17.4357 15.09 17.9337 15.594 17.9337 16.188V26.628C17.9337 27.222 17.4297 27.72 16.8417 27.72H16.8477ZM10.8117 15.84C10.6197 15.84 10.4697 16.008 10.4697 16.212V26.622C10.4697 26.808 10.6317 26.964 10.8117 26.964H16.8417C17.0277 26.964 17.1837 26.802 17.1837 26.622V16.188C17.1837 16.002 17.0217 15.84 16.8417 15.84H10.8117Z" fill="#1B8158"/>
</g>
<defs>
<clipPath id="clip0_7030_20195">
<rect width="19.35" height="29.91" fill="white" transform="translate(7.2002 1.8)"/>
</clipPath>
</defs>
</svg>
