<svg width="230" height="201" viewBox="0 0 230 201" fill="none" xmlns="http://www.w3.org/2000/svg">
<g clip-path="url(#clip0_4636_12458)">
<path d="M184.804 14.3077C182.252 3.57695 169.884 9.53848 169.884 9.53848C169.884 9.53848 166.154 -3.97434 156.534 1.19233C146.915 6.359 160.068 31 160.068 31C160.068 31 187.16 25.0385 184.804 14.3077Z" fill="#FA7267"/>
</g>
<g clip-path="url(#clip1_4636_12458)">
<path d="M133.291 9.38961C129.283 5.33395 125.225 11.3488 125.225 11.3488C125.225 11.3488 119.943 6.38259 116.928 11.2955C113.913 16.2084 126.441 23.5314 126.441 23.5314C126.441 23.5314 137.209 13.4988 133.291 9.38961Z" fill="#FA7267"/>
</g>
<g clip-path="url(#clip2_4636_12458)">
<path d="M63.0508 14.8344C55.992 12.812 55.2346 22.1243 55.2346 22.1243C55.2346 22.1243 46.1706 19.8843 45.8873 27.3019C45.6041 34.7195 64.2883 35.0316 64.2883 35.0316C64.2883 35.0316 70.0429 16.9734 63.0508 14.8344Z" fill="#FA7267"/>
</g>
<path d="M176.72 116.861C207.844 114.329 227.573 66.5381 203.94 36.5768C166.908 45.9661 153.509 95.8665 176.72 116.861Z" fill="#A9DE98"/>
<path d="M212.381 53.2454C212.381 53.0344 212.276 52.8234 212.276 52.7179L196.45 59.4698L204.152 36.8932C204.046 36.7877 204.046 36.6822 203.941 36.5768C203.835 36.5768 203.73 36.6822 203.624 36.6822L192.124 70.4415L180.73 50.186C180.624 50.2915 180.413 50.5025 180.308 50.608L191.913 71.18L179.464 107.893L165.537 83.2068C165.537 83.5233 165.432 83.8397 165.432 84.1562L179.147 108.632L176.404 116.544C176.51 116.65 176.51 116.65 176.615 116.755C176.721 116.755 176.826 116.755 176.932 116.755L183.156 98.3984L211.01 86.4772C211.115 86.2662 211.221 85.9497 211.221 85.7387L183.473 97.5545L192.441 71.2855L214.175 62.0017C214.175 61.7907 214.175 61.5797 214.175 61.3687L192.757 70.547L196.344 60.1028L212.381 53.2454Z" fill="white"/>
<path d="M150.028 146.083C177.67 166.339 228.207 140.703 230.001 98.8204C192.546 80.1473 145.597 112.113 150.028 146.083Z" fill="#074674"/>
<path d="M225.147 118.76C225.252 118.549 225.358 118.338 225.463 118.232L207.527 112.535L230 99.2424C230 99.1369 230 99.0314 230 98.8205C229.894 98.715 229.789 98.715 229.683 98.6095L195.922 118.549L200.986 93.5456C200.775 93.5456 200.564 93.6511 200.353 93.6511L195.289 118.971L158.679 140.598L164.798 110.109C164.481 110.32 164.27 110.636 163.954 110.847L157.835 141.02L149.922 145.661C149.922 145.767 149.922 145.872 149.922 145.978C150.027 146.083 150.133 146.083 150.238 146.189L168.596 135.323L200.142 145.345C200.353 145.239 200.67 145.028 200.881 144.923L169.335 134.901L195.5 119.498L220.188 127.305C220.293 127.094 220.504 126.988 220.61 126.777L196.344 119.076L206.789 112.957L225.147 118.76Z" fill="white"/>
<path d="M53.2795 116.861C22.1557 114.329 2.4263 66.5381 26.0593 36.5768C63.0914 45.9661 76.4905 95.8665 53.2795 116.861Z" fill="#0B70B7"/>
<path d="M17.6198 53.2454C17.6198 53.0344 17.7253 52.8234 17.7253 52.7179L33.5509 59.4698L25.8491 36.8932C25.9546 36.7877 25.9546 36.6822 26.0601 36.5768C26.1656 36.5768 26.2711 36.6822 26.3766 36.6822L37.8766 70.4415L49.2711 50.186C49.3766 50.2915 49.5876 50.5025 49.6931 50.608L38.0876 71.18L50.5372 107.893L64.4638 83.2068C64.4638 83.5233 64.5693 83.8397 64.5693 84.1562L50.8537 108.632L53.5968 116.544C53.4913 116.65 53.4913 116.65 53.3858 116.755C53.2803 116.755 53.1748 116.755 53.0693 116.755L46.8445 98.3984L18.9913 86.4772C18.8858 86.2662 18.7803 85.9497 18.7803 85.7387L46.528 97.5545L37.5601 71.391L15.8262 62.1072C15.8262 61.8962 15.8262 61.6852 15.8262 61.4742L37.2436 70.6525L33.762 60.2083L17.6198 53.2454Z" fill="white"/>
<path d="M79.9725 146.083C52.3303 166.234 1.79358 140.703 0 98.8204C37.4541 80.1473 84.4037 112.113 79.9725 146.083Z" fill="#1B8158"/>
<path d="M4.85321 118.76C4.74771 118.549 4.6422 118.338 4.5367 118.232L22.4725 112.535L0 99.2424C0 99.1369 0 99.0314 0 98.8205C0.105505 98.715 0.211009 98.715 0.316514 98.6095L34.078 118.549L29.0138 93.5456C29.2248 93.5456 29.4358 93.6511 29.6468 93.6511L34.711 118.971L71.3211 140.598L65.2018 110.109C65.5184 110.32 65.7294 110.636 66.0459 110.847L72.1651 141.02L80.078 145.661C80.078 145.767 80.078 145.872 80.078 145.978C79.9725 146.083 79.867 146.083 79.7615 146.189L61.4037 135.428L29.8578 145.45C29.6468 145.345 29.3303 145.134 29.1193 145.028L60.6651 135.006L34.5 119.604L9.81193 127.305C9.70642 127.094 9.49541 126.988 9.38991 126.777L33.656 119.076L23.211 112.957L4.85321 118.76Z" fill="white"/>
<path d="M144.332 173.276C180.036 158.369 196.894 117.344 181.987 81.6426C167.08 45.9415 126.051 29.084 90.348 43.9905C54.6445 58.8969 37.786 99.9224 52.6934 135.624C67.6008 171.325 108.629 188.182 144.332 173.276Z" fill="#CCEAFF"/>
<path d="M184.846 126.988C181.681 128.571 179.254 132.052 177.566 134.795C175.35 138.277 172.185 140.598 169.337 143.657C166.277 147.033 167.332 150.409 165.644 154.629C164.8 156.739 161.529 160.115 161.318 163.174C172.607 153.996 180.942 141.442 184.846 126.988Z" fill="#1B8158"/>
<path d="M150.028 46.7045C148.129 48.498 146.23 50.397 143.804 51.0299C139.794 52.1904 133.57 48.8145 131.249 53.9839C130.299 56.1993 131.565 57.6763 131.565 59.9972C131.565 61.7907 129.666 64.8501 130.615 66.4326C132.198 69.0701 142.749 65.6941 141.377 71.2855C140.955 73.079 139.9 71.602 138.95 72.7625C138.001 73.8175 137.895 73.6065 137.262 75.0834C136.524 76.7714 135.891 80.9913 136.207 82.8903C139.056 84.1562 153.932 85.1057 145.914 90.5916C141.166 93.862 133.253 89.5366 131.249 97.027C130.51 99.7699 130.721 106.1 131.987 108.632C134.203 112.957 140.005 112.746 142.96 116.122C146.863 120.764 143.593 129.837 144.12 135.323C144.226 136.8 144.437 141.758 145.597 142.813C148.973 145.767 152.455 140.598 154.354 139.121C157.308 136.8 161.634 135.639 163.955 132.369C166.065 129.415 166.065 125.617 167.331 122.241C168.914 118.021 169.652 114.856 168.914 110.003C168.492 107.155 167.964 103.568 167.226 100.825C166.171 96.9215 153.51 91.9631 161.317 89.5366C166.909 87.8487 169.23 90.3806 171.551 94.8115C173.556 98.5039 175.56 106.944 179.781 107.26C182.629 107.471 185.056 105.678 187.166 103.04C185.056 78.3539 170.602 57.5708 150.028 46.7045Z" fill="#1B8158"/>
<path d="M105.612 43.4341C103.185 43.9616 99.7036 43.7506 99.1761 46.81C98.6486 50.186 101.181 49.2365 103.291 50.5025C106.772 52.5069 105.295 59.4698 108.038 59.6808C111.098 59.8918 114.791 52.2959 114.263 49.8695C113.419 45.7551 109.094 44.3836 105.612 43.4341Z" fill="#1B8158"/>
<path d="M62.6707 64.7447C62.7762 66.7491 62.8817 68.7536 62.6707 70.336C61.8267 75.6109 62.3542 80.6748 62.3542 85.9497C62.2487 90.8026 65.3084 94.706 66.8909 99.1369C68.157 102.829 68.0515 108.421 73.4322 107.788C77.7579 107.26 76.0698 103.04 76.2808 99.4534C76.4918 94.917 77.0194 94.1785 80.1845 91.7521C87.3588 86.1607 86.1983 76.6659 93.9001 72.3405C96.4322 70.8635 99.5973 67.8041 97.8038 64.3227C95.3772 59.5753 89.0469 64.0062 85.6707 63.3732C85.0377 60.3138 102.129 54.9334 92.212 51.03C89.0469 49.764 85.2487 52.8234 82.1891 53.3509C80.29 53.6674 78.0744 52.7179 76.0698 52.0849C71.1111 55.5664 66.5744 59.8918 62.6707 64.7447Z" fill="#1B8158"/>
<path d="M101.813 149.143C102.341 146.505 102.024 143.657 102.552 141.02C103.079 138.804 104.134 136.694 105.084 134.69C106.139 132.263 106.033 130.997 106.35 128.043C106.772 124.456 106.877 124.034 103.607 121.291C100.969 119.076 101.602 118.654 100.125 115.911C98.4369 112.852 94.5333 112.324 92.2122 109.898C91.1571 108.737 88.414 103.673 85.5654 106.522C83.8773 110.953 75.7534 113.907 75.4369 118.971C75.3314 120.658 77.758 123.296 78.2856 125.089C78.9186 127.199 78.3911 130.153 80.1846 131.736C81.7672 133.213 84.0883 132.263 85.5654 133.529C87.6755 135.217 86.5149 138.171 86.9369 140.598C87.4645 143.34 89.1525 145.661 89.9966 148.299C90.7351 150.62 90.4186 152.624 90.7351 155.051C91.2626 158.743 96.0103 164.862 100.125 165.284C103.712 165.706 102.657 163.807 101.286 161.486C99.914 159.271 98.0149 158.321 99.07 155.051C100.02 152.413 101.286 151.886 101.813 149.143Z" fill="#1B8158"/>
<path d="M169.231 133.002C167.543 134.057 164.589 137.222 164.8 139.332C168.809 140.07 170.392 136.694 170.708 133.424C170.286 133.318 169.97 133.424 169.653 133.318" fill="#1B8158"/>
<path d="M104.978 83.3123C104.661 84.3672 101.602 83.9453 101.496 82.8903C101.391 81.3078 98.9642 81.3078 99.0697 82.8903C99.2808 86.6882 106.139 87.7432 107.299 83.9453C107.721 82.4683 105.4 81.8353 104.978 83.3123Z" fill="#13220F"/>
<path d="M127.134 86.6882C126.818 87.7432 123.758 87.3212 123.653 86.2662C123.547 84.6837 121.12 84.6837 121.226 86.2662C121.437 90.0641 128.295 91.1191 129.455 87.3212C129.877 85.8442 127.556 85.2112 127.134 86.6882Z" fill="#13220F"/>
<path d="M111.835 104.834C108.248 104.834 105.61 102.829 104.977 99.7699C104.872 99.1369 105.294 98.5039 105.927 98.3984C106.56 98.293 107.193 98.7149 107.298 99.3479C107.826 101.669 110.041 102.513 111.729 102.513C113.523 102.513 115.528 101.669 115.95 99.8754C116.055 99.2424 116.688 98.8204 117.321 98.9259C117.954 99.0314 118.376 99.6644 118.271 100.297C117.849 103.04 115.106 104.834 111.835 104.834Z" fill="#13220F"/>
<defs>
<clipPath id="clip0_4636_12458">
<rect width="32" height="31" fill="white" transform="translate(153)"/>
</clipPath>
<clipPath id="clip1_4636_12458">
<rect width="17" height="16" fill="white" transform="translate(115 11.7318) rotate(-30.9062)"/>
</clipPath>
<clipPath id="clip2_4636_12458">
<rect width="21.8918" height="20.604" fill="white" transform="translate(44 29.0078) rotate(-60.2571)"/>
</clipPath>
</defs>
</svg>
