<svg width="137" height="178" viewBox="0 0 137 178" fill="none" xmlns="http://www.w3.org/2000/svg">
    <circle cx="68.5" cy="109.5" r="68.5" fill="white"/>
    <path d="M86.6458 14.1543C85.3329 12.0689 82.5785 11.4427 80.4931 12.7556L20.0722 50.7918C17.9867 52.1047 17.3606 54.859 18.6735 56.9444L23.4269 64.4979L91.3997 21.7057L86.6458 14.1543Z" fill="#DBDBDB"/>
    <path d="M77.2997 24.0536L20.864 59.8611L23.8157 64.5865L91.3995 21.7058L86.6887 14.1643C85.3878 12.0816 82.6528 11.4598 80.5793 12.7754L79.7457 13.3044C82.0177 16.9418 80.9237 21.7542 77.2997 24.0536Z" fill="#CCCCCC"/>
    <path d="M35.1196 40.9437L31.5807 35.3225C29.6281 32.2239 30.5627 28.1125 33.6635 26.1605L52.4036 14.363C55.5023 12.4104 59.6121 13.3424 61.5659 16.4459L65.1048 22.067L61.3573 24.4262L57.8184 18.805C57.1677 17.7714 55.796 17.4619 54.7629 18.1104L36.0228 29.9079C34.9892 30.5586 34.678 31.9276 35.3282 32.9634L38.8671 38.5845L35.1196 40.9437Z" fill="#DBDBDB"/>
    <path d="M110.571 68.838L103.301 150.299L102.364 160.78C102.227 162.278 100.971 163.43 99.464 163.43H40.2086C38.7047 163.43 37.4443 162.278 37.3109 160.78L36.3739 150.299L29.1038 68.838C28.9532 67.137 30.2945 65.6704 32.0016 65.6704H107.673C109.38 65.6704 110.721 67.137 110.571 68.838Z" fill="#DBDBDB"/>
    <path d="M110.571 68.838L103.301 150.299L102.364 160.78C102.227 162.278 100.97 163.43 99.4638 163.43H91.8824C93.3894 163.43 94.6457 162.278 94.7822 160.78L95.7191 150.299L102.989 68.839C103.14 67.137 101.799 65.6704 100.091 65.6704H107.673C109.38 65.6704 110.721 67.137 110.571 68.838Z" fill="#CCCCCC"/>
    <path d="M103.301 150.299L102.364 160.78C102.227 162.278 100.97 163.431 99.4628 163.431H40.2084C38.7045 163.431 37.4441 162.278 37.3107 160.78L36.3738 150.299H103.301Z" fill="#CCCCCC"/>
    <path d="M103.301 150.299L102.364 160.78C102.227 162.278 100.97 163.431 99.4638 163.431H91.8824C93.3894 163.431 94.6458 162.278 94.7822 160.78L95.7191 150.299H103.301Z" fill="#B3B3B3"/>
    <path d="M110.177 71.636H29.4968C26.8457 71.636 24.6959 69.4862 24.6959 66.8351C24.6959 64.184 26.8457 62.0342 29.4968 62.0342H110.177C112.829 62.0342 114.978 64.184 114.978 66.8351C114.978 69.4862 112.829 71.636 110.177 71.636Z" fill="#CCCCCC"/>
    <path d="M65.1597 105.699C66.7089 102.847 68.4369 100.113 70.2841 97.4973C71.2971 96.0114 72.5484 94.5255 74.2765 94.1095C71.7738 92.2075 68.0198 92.0886 65.398 93.8717C64.0871 94.7633 63.0145 96.0709 62.2399 97.4973C61.4653 98.9238 60.929 100.41 60.3927 101.955C61.942 103.263 63.3125 104.808 65.1597 105.699Z" fill="white"/>
    <path d="M70.5226 98.2107C71.1185 99.2212 71.7143 100.172 72.3698 101.183C71.7739 101.717 71.2376 102.312 70.5822 102.847C72.7869 102.847 75.1108 103.322 77.1367 104.273C77.7922 101.955 78.4476 99.5778 79.1031 97.2598C78.4476 97.6758 77.7922 98.0919 77.1367 98.5079C76.4217 97.022 75.5279 95.5361 74.4553 94.2285C72.9061 95.1201 71.476 96.7248 70.5226 98.2107Z" fill="white"/>
    <path d="M75.2297 106.769C76.7194 109.622 78.0899 112.534 79.2817 115.565C79.9371 117.23 80.533 119.072 79.9371 120.796C82.9165 119.726 85.0616 116.695 85.002 113.545C85.002 111.94 84.4657 110.395 83.6911 108.968C82.9165 107.542 81.9631 106.234 81.0097 104.986C79.0433 105.461 76.9578 105.759 75.2297 106.769Z" fill="white"/>
    <path d="M78.5666 115.328C77.3748 115.269 76.2427 115.269 75.0509 115.209C74.9317 114.377 74.753 113.664 74.6338 112.832C73.4421 114.675 71.714 116.339 69.8073 117.527C71.3565 119.37 73.025 121.153 74.5742 123.055C74.5742 122.282 74.5742 121.51 74.5742 120.737C76.2427 120.975 77.9707 121.034 79.5795 120.856C79.8775 119.073 79.2816 116.993 78.5666 115.328Z" fill="white"/>
    <path d="M69.0922 114.912C65.8745 114.971 62.6568 114.793 59.4391 114.496C57.6515 114.318 55.6851 114.02 54.4934 112.653C54.0763 115.803 55.8043 119.072 58.6049 120.499C60.035 121.212 61.7034 121.45 63.3122 121.45C64.9211 121.45 66.5299 121.153 68.0792 120.915C68.4963 118.894 69.1518 116.933 69.0922 114.912Z" fill="white"/>
    <path d="M59.9158 113.902C60.5117 112.891 61.048 111.881 61.6438 110.87C62.4185 111.108 63.1931 111.346 63.9677 111.584C62.8356 109.682 62.1205 107.423 62.0014 105.165C59.6179 105.699 57.294 106.353 54.9105 106.888C55.6255 107.245 56.281 107.601 56.996 107.958C56.0426 109.325 55.2084 110.811 54.553 112.356C55.9831 113.367 58.1282 113.783 59.9158 113.902Z" fill="white"/>
    <path d="M94.0359 55.146L91.4679 51.8049C97.0864 47.4862 104.295 45.8051 111.256 47.1955L110.43 51.3266C104.67 50.1785 98.6938 51.5689 94.0359 55.146Z" fill="#DBDBDB"/>
    <path d="M83.7022 48.8663H79.4889C79.4889 43.0583 84.2141 38.333 90.0222 38.333V42.5463C86.5378 42.5463 83.7022 45.3819 83.7022 48.8663Z" fill="#DBDBDB"/>
</svg>
