<svg width="137" height="178" viewBox="0 0 137 178" fill="none" xmlns="http://www.w3.org/2000/svg">
<circle cx="68.5" cy="109.5" r="68.5" fill="white"/>
<path d="M86.6455 14.1543C85.3326 12.0689 82.5783 11.4427 80.4929 12.7556L20.0719 50.7918C17.9865 52.1047 17.3604 54.859 18.6732 56.9444L23.4267 64.4979L91.3995 21.7057L86.6455 14.1543Z" fill="#DBDBDB"/>
<path d="M77.3001 24.0538L20.8644 59.8613L23.8161 64.5868L91.3998 21.7061L86.6891 14.1645C85.3882 12.0818 82.6532 11.4601 80.5797 12.7757L79.746 13.3046C82.0181 16.942 80.9241 21.7545 77.3001 24.0538Z" fill="#CCCCCC"/>
<path d="M35.1198 40.9437L31.5809 35.3225C29.6283 32.2239 30.5629 28.1125 33.6638 26.1605L52.4039 14.363C55.5025 12.4104 59.6124 13.3424 61.5662 16.4459L65.1051 22.067L61.3576 24.4262L57.8187 18.805C57.168 17.7714 55.7963 17.4619 54.7631 18.1104L36.023 29.9079C34.9894 30.5586 34.6782 31.9276 35.3284 32.9634L38.8673 38.5845L35.1198 40.9437Z" fill="#DBDBDB"/>
<path d="M110.571 68.8382L103.301 150.299L102.364 160.78C102.228 162.278 100.971 163.43 99.4645 163.43H40.2091C38.7051 163.43 37.4448 162.278 37.3114 160.78L36.3744 150.299L29.1043 68.8382C28.9537 67.1372 30.295 65.6707 32.0021 65.6707H107.674C109.381 65.6707 110.722 67.1372 110.571 68.8382Z" fill="#DBDBDB"/>
<path d="M110.571 68.8382L103.301 150.299L102.364 160.78C102.228 162.278 100.97 163.43 99.4642 163.43H91.8828C93.3898 163.43 94.6461 162.278 94.7826 160.78L95.7195 150.299L102.99 68.8393C103.14 67.1372 101.799 65.6707 100.092 65.6707H107.673C109.38 65.6707 110.722 67.1372 110.571 68.8382Z" fill="#CCCCCC"/>
<path d="M103.301 150.299L102.364 160.78C102.227 162.278 100.97 163.43 99.4631 163.43H40.2087C38.7047 163.43 37.4444 162.278 37.311 160.78L36.374 150.299H103.301Z" fill="#CCCCCC"/>
<path d="M103.301 150.299L102.364 160.78C102.228 162.278 100.97 163.43 99.4642 163.43H91.8828C93.3898 163.43 94.6461 162.278 94.7826 160.78L95.7195 150.299H103.301Z" fill="#B3B3B3"/>
<path d="M110.178 71.636H29.4972C26.8461 71.636 24.6963 69.4862 24.6963 66.8351C24.6963 64.184 26.8461 62.0342 29.4972 62.0342H110.178C112.829 62.0342 114.979 64.184 114.979 66.8351C114.979 69.4862 112.829 71.636 110.178 71.636Z" fill="#CCCCCC"/>
<path d="M94.0358 55.146L91.4678 51.8049C97.0863 47.4862 104.295 45.8051 111.256 47.1955L110.43 51.3266C104.67 50.1785 98.6936 51.5689 94.0358 55.146Z" fill="#DBDBDB"/>
<path d="M83.7026 48.8663H79.4893C79.4893 43.0583 84.2145 38.333 90.0226 38.333V42.5463C86.5382 42.5463 83.7026 45.3819 83.7026 48.8663Z" fill="#DBDBDB"/>
</svg>
