<svg width="18" height="10" viewBox="0 0 18 10" fill="none" xmlns="http://www.w3.org/2000/svg">
<path d="M13.2278 2.4072L13.6295 2.94653L9.87505 3.45418L11.3054 0L11.7716 0.599307C11.7716 0.599307 12.3182 0.294166 13.4347 0.276209C15.9468 0.235682 18 2.2714 18 4.76278C18.0013 5.35207 17.8847 5.93584 17.6566 6.48071C17.4286 7.02558 17.0936 7.52086 16.671 7.93822C16.2483 8.35559 15.7462 8.68685 15.1934 8.91306C14.6405 9.13928 14.0478 9.25601 13.4491 9.25658C10.9406 9.25658 9.33902 6.9666 9.13188 6.70398C8.74674 6.21603 6.88122 3.93565 6.77391 3.79848C6.6666 3.66131 5.8497 2.45895 4.55175 2.45895C4.247 2.45921 3.9453 2.51872 3.66398 2.63405C3.38265 2.74939 3.12724 2.91827 2.91241 3.13103C2.69758 3.34378 2.52755 3.59621 2.4121 3.87381C2.29665 4.15141 2.23804 4.44873 2.23964 4.74869C2.24374 5.16545 2.35997 5.5737 2.57651 5.93187C2.79305 6.29003 3.10215 6.58532 3.47235 6.78765C4.00445 7.09628 4.74597 7.04454 4.85201 7.0282L4.4694 6.52728L8.18145 6.0311L6.79291 9.47368L6.31656 8.82961C6.31656 8.82961 5.68386 9.13662 4.55669 9.17453C2.02959 9.25932 1.79907e-06 7.16101 1.79907e-06 4.67287C-0.000529994 4.08658 0.11684 3.50599 0.345343 2.96455C0.573847 2.42312 0.908967 1.93156 1.33139 1.51821C1.7538 1.10485 2.25516 0.777874 2.80657 0.556129C3.35797 0.334384 3.94851 0.222255 4.54415 0.226205C7.04934 0.226205 8.11088 1.91663 8.21996 2.03435C8.32904 2.15207 11.1957 5.78881 11.3414 5.968C11.5691 6.29166 11.8732 6.55612 12.2276 6.73869C12.582 6.92126 12.976 7.0165 13.376 7.01623C13.6893 7.01512 13.9992 6.95219 14.2874 6.83116C14.5756 6.71013 14.8362 6.53346 15.0538 6.31159C15.2714 6.08972 15.4416 5.82715 15.5544 5.53942C15.6671 5.25169 15.7201 4.94462 15.7102 4.63638C15.7003 4.32814 15.6277 4.02499 15.4967 3.74484C15.3657 3.4647 15.179 3.21324 14.9476 3.00535C14.7162 2.79745 14.4448 2.63734 14.1494 2.53447C13.854 2.43161 13.5407 2.38808 13.2279 2.40645" fill="white"/>
</svg>
