<svg width="24" height="24" viewBox="0 0 24 24" fill="none" xmlns="http://www.w3.org/2000/svg">
<g clip-path="url(#clip0_7888_6562)">
<path d="M23.7467 12.8475L21.4235 10.6328C21.4235 10.6328 21.3693 10.5333 21.3331 10.4972L12.6009 2.22599C12.6009 2.22599 12.5286 2.18079 12.4924 2.15367C12.4382 2.11752 12.393 2.08136 12.3387 2.05424C12.3297 2.05424 12.3207 2.05424 12.3026 2.05424C12.2122 2.02712 12.1308 2.00904 12.0404 2.00904C12.0404 2.00904 12.0224 2.00904 12.0133 2.00904C11.9229 2.00904 11.8325 2.02712 11.7421 2.06328C11.715 2.07232 11.6879 2.09944 11.6608 2.11752C11.5975 2.15367 11.5342 2.18079 11.48 2.22599L0.252873 12.7751C-0.0725505 13.0825 -0.0906296 13.5977 0.216715 13.9232C0.52406 14.2486 1.03931 14.2667 1.36474 13.9593L2.50372 12.8927V22.0678C2.50372 22.5198 2.8653 22.8814 3.31728 22.8814H20.7726C21.2246 22.8814 21.5862 22.5198 21.5862 22.0678V13.0282L22.6258 14.0226C22.7794 14.1763 22.9873 14.2486 23.1862 14.2486C23.4032 14.2486 23.6111 14.1672 23.7738 13.9955C24.0811 13.6701 24.0721 13.1548 23.7467 12.8475Z" fill="#AEAEAE"/>
</g>
<defs>
<clipPath id="clip0_7888_6562">
<rect width="24" height="24" fill="white"/>
</clipPath>
</defs>
</svg>
