<svg width="241" height="200" viewBox="0 0 241 200" fill="none" xmlns="http://www.w3.org/2000/svg">
<path opacity="0.4" fill-rule="evenodd" clip-rule="evenodd" d="M209.689 199.494C228.636 178.319 240.152 150.387 240.152 119.772C240.152 53.6236 186.392 0 120.076 0C53.7598 0 0 53.6236 0 119.772C0 150.387 11.5157 178.319 30.4622 199.494H209.689Z" fill="#CCEAFF"/>
<g clip-path="url(#clip0_4337_9167)">
<path d="M15.2808 64.9857H77.2809C79.146 63.0163 80.4323 61.1105 80.3037 58.4423C80.1751 55.3294 77.4095 52.7247 74.2581 52.1529C71.1709 51.5812 67.9551 52.7247 65.3182 54.5035C66.09 48.1506 63.0672 41.8613 57.4717 38.5578C51.8763 35.2543 44.3514 35.5084 39.0132 39.2566C33.8037 42.9413 31.0381 49.8659 32.2601 56.1552C30.8452 54.567 29.0443 53.2329 27.1149 52.2165C25.1854 51.2 22.87 50.7553 20.812 51.4541C18.2393 52.28 16.4385 54.8211 15.7953 57.4258C15.0879 60.0305 15.0236 62.3175 15.2808 64.9857Z" fill="white"/>
</g>
<g clip-path="url(#clip1_4337_9167)">
<path d="M188.867 89.168H234.361C235.508 87.504 236.812 85.0872 237.444 83.1459C238.077 81.2046 238.077 78.9463 236.97 77.2427C235.666 75.2221 233.017 74.3505 230.685 74.7863C228.353 75.2221 226.298 76.7277 224.836 78.6294C226.654 73.7959 226.772 68.2492 224.124 63.8119C221.476 59.3746 215.587 56.839 210.883 58.9388C207.405 60.4443 205.191 64.1289 204.44 67.8926C203.689 71.6564 204.124 75.4995 204.559 79.3029C201.753 75.5391 195.705 74.7863 191.634 77.1635C187.602 79.501 187.049 84.8495 188.867 89.168Z" fill="white"/>
</g>
<g clip-path="url(#clip2_4337_9167)">
<g clip-path="url(#clip3_4337_9167)">
<path d="M108.461 77.558C109.483 77.6472 110.57 77.0995 110.57 76.883C110.583 76.6027 109.969 76.1824 109.752 76.0678C109.535 75.9659 109.279 75.8131 109.049 75.7112C108.831 75.6093 108.716 75.3546 108.831 75.0616C108.946 74.7814 109.918 74.9979 110.25 75.1508C111.26 75.6093 113.702 77.3542 113.97 77.5325C114.29 77.7363 120.912 77.2141 123.2 77.2141C126.945 77.0995 130.78 76.8065 131.176 76.7938L146.376 71.7246L150.402 76.5645C150.402 76.5645 133.618 82.4234 132.736 82.6272C132.327 82.7163 123.634 82.3088 123.634 82.296C119.365 81.8248 115.607 81.3917 114.891 81.328C114.891 81.328 112.679 81.7229 111.286 82.0668C110.391 82.2833 109.65 81.0861 108.998 81.0478C108.946 79.2902 109.241 80.2964 108.768 78.6151C108.729 78.4496 108.486 77.7363 108.461 77.558Z" fill="#F7A491"/>
<path d="M149.457 188.965C149.624 187.755 149.253 185.679 148.294 182.419C150.173 182.419 151.746 181.591 153.663 181.616C154.187 184.673 154.993 189.704 154.993 189.704L155.082 193.678L141.736 193.78C141.736 193.78 141.851 193.831 145.789 191.347C146.083 191.169 149.304 190.124 149.457 188.965Z" fill="#F7A491"/>
<path d="M155.159 194.697H141.379C140.867 194.646 140.74 194.238 140.918 193.984C141.276 193.461 143.974 192.188 145.776 191.347C148.946 191.678 154.52 190.379 155.018 189.64C155.888 192.073 155.44 194.633 155.159 194.697Z" fill="#13220F"/>
<path d="M166.089 188.965C166.255 187.755 166.549 186.24 166.128 182.215C168.007 182.215 169.784 181.871 171.701 181.896C171.701 185.042 171.637 189.717 171.637 189.717L171.727 193.69L158.381 193.792C158.381 193.792 158.496 193.843 162.433 191.36C162.714 191.169 165.923 190.124 166.089 188.965Z" fill="#F7A491"/>
<path d="M171.79 194.697H158.01C157.498 194.646 157.37 194.238 157.549 193.984C157.907 193.461 160.605 192.188 162.407 191.347C165.577 191.678 171.151 190.379 171.649 189.64C172.518 192.073 172.071 194.633 171.79 194.697Z" fill="#13220F"/>
<path d="M153.151 102.331L157.229 104.598L165.5 117.245L150.697 152.054C150.697 152.054 152.359 157.289 152.909 159.9C153.471 162.639 154.864 186.125 154.864 186.125L148.55 186.227C148.55 186.227 142.554 161.225 141.532 153.112C140.304 143.253 147.808 119.78 147.808 119.78C149.214 114.991 152.231 105.133 152.231 105.133C152.231 105.133 152.972 102.751 153.151 102.331Z" fill="#035B52"/>
<path d="M167.314 97.5798C167.314 97.5798 166.892 100.56 168.58 103.948C169.602 106.011 171.379 107.642 172.645 110.176C175.048 114.965 176.352 121.779 175.457 126.161C175.457 126.161 170.484 145.113 170.689 152.042C170.766 154.602 171.635 159.2 172.197 162.307C172.696 165.059 172.517 185.463 172.517 185.463L165.806 185.59L160.411 152.118L158.123 122.365L153.138 102.318L167.314 97.5798Z" fill="#1C907D"/>
<path d="M151.643 53.3592C152.295 50.2897 152.972 47.2074 156.027 44.9912C158.494 43.1954 161.153 42.6859 163.966 43.7048C171.942 46.5961 167.66 52.9262 177.554 59.6766C180.635 61.7781 181.798 62.5041 184.01 65.2935C187.103 69.2036 188.803 74.4511 187.244 78.7688C184.035 87.6972 174.064 90.2828 168.862 88.385C159.159 84.8569 151.08 72.5661 150.543 69.2163C149.968 65.6246 151.221 55.3334 151.643 53.3592Z" fill="#13220F"/>
<path d="M150.902 77.0994C148.652 78.1311 144.587 79.6977 144.587 79.6977L142.273 72.3741C155.363 64.9359 154.328 66.1332 164.158 66.286C172.007 66.4006 175.292 64.8977 182.055 83.1239C182.055 83.1239 176.916 85.4292 175.075 86.1679C174.283 83.9135 172.851 79.4175 172.02 81.9776C170.754 85.8495 169.834 89.7597 169.22 93.7717C168.824 96.1535 167.968 99.2103 168.415 101.643C168.415 101.643 163.072 102.738 158.994 102.917C158.981 102.917 158.968 102.917 158.955 102.917C156.987 102.866 154.967 102.687 153.165 102.305C153.165 102.305 152.359 85.391 151.938 84.6905C151.465 83.9135 149.47 81.3789 151.171 77.6089C151.452 76.9721 151.362 76.8829 150.902 77.0994Z" fill="#F9CA58"/>
<path d="M162.917 58.7584C162.917 58.7584 163.543 63.8022 163.914 65.5471C164.298 67.3812 164.886 73.1509 161.076 74.0806C157.28 75.0231 158.456 67.8015 158.392 65.9419C158.328 64.0824 157.254 57.5867 157.254 57.5867L162.917 58.7584Z" fill="#F7A491"/>
<path d="M163.135 60.3762C163.096 60.4016 163.058 60.4271 163.02 60.4526C160.923 61.6498 159.095 61.4715 157.715 60.529C157.472 58.9114 157.255 57.6123 157.255 57.6123L162.93 58.7841C162.917 58.7586 163.007 59.4336 163.135 60.3762Z" fill="#F47458"/>
<path d="M161.78 45.627C161.78 45.627 164.004 46.2511 165.296 48.4672C166.574 50.6834 167.226 57.0263 162.496 59.7392C157.766 62.4521 154.417 58.1089 154.558 54.0459C154.686 49.9829 155.823 44.608 161.78 45.627Z" fill="#F7A491"/>
<path d="M153.495 52.301C153.444 53.3582 153.892 54.237 154.505 54.2625C155.119 54.288 155.656 53.4601 155.707 52.4029C155.758 51.3458 155.311 50.467 154.697 50.4415C154.096 50.416 153.559 51.2439 153.495 52.301Z" fill="#F7A491"/>
<path d="M161.114 45.4617C161.114 45.4617 163.658 52.0975 166.164 52.8107C168.657 53.524 168.465 56.7845 168.465 56.7845C168.465 56.7845 168.772 49.2317 166.483 47.3849C164.208 45.5381 161.114 45.4617 161.114 45.4617Z" fill="#13220F"/>
<path d="M165.079 54.1098C164.695 55.1415 164.951 56.1986 165.641 56.4661C166.331 56.7336 167.213 56.0967 167.597 55.0651C167.98 54.0334 167.725 52.9763 167.034 52.7088C166.344 52.4413 165.475 53.0782 165.079 54.1098Z" fill="#F7A491"/>
<path d="M161.242 56.3133L156.883 55.842C156.883 55.842 156.806 57.5105 158.711 57.7653C161.05 58.0837 161.242 56.3133 161.242 56.3133Z" fill="white"/>
<path opacity="0.6" d="M106.446 74.3675L106.403 74.261C105.612 72.4509 106.232 70.3852 107.793 69.2779C108.049 69.0862 108.135 68.7455 108.006 68.4473L107.301 66.8075L108.968 66.0835L109.673 67.7233C109.802 68.0214 110.122 68.1918 110.422 68.1066C112.281 67.7233 114.247 68.6603 115.038 70.4704L115.081 70.5769C115.209 70.8963 115.102 71.2584 114.803 71.4287L117.282 77.1147C117.646 77.0721 117.988 77.2637 118.159 77.6045L121.749 85.8033C122.327 87.145 121.728 88.6995 120.382 89.2958L118.501 90.1264L116.62 90.9569C115.273 91.5532 113.713 90.9356 113.115 89.594L109.524 81.3951C109.374 81.0544 109.481 80.6498 109.759 80.4368L107.28 74.7509C106.938 74.836 106.574 74.687 106.446 74.3675Z" fill="#879DD1"/>
<path d="M107.599 67.8928L109.544 67.041C109.694 66.9771 109.758 66.8067 109.694 66.6577L109.438 66.0827C109.373 65.9336 109.202 65.8697 109.053 65.9336L107.108 66.7854C106.958 66.8493 106.894 67.0197 106.958 67.1687L107.215 67.7437C107.279 67.8928 107.45 67.9567 107.599 67.8928Z" fill="#CA4B2B"/>
<path opacity="0.3" d="M109.737 80.4147L107.258 74.7287L111.041 73.0676C111.041 73.0676 108.348 74.6648 108.69 75.9638C109.032 77.2629 109.459 80.6489 113.584 78.9027C113.584 78.9027 110.357 80.6702 110.87 82.4803C111.404 84.2905 113.584 92.1486 118.5 90.1255L116.619 90.956C115.273 91.5523 113.712 90.9348 113.114 89.5931L109.523 81.3943C109.352 81.0322 109.459 80.6489 109.737 80.4147Z" fill="#CFE9FA"/>
<path d="M107.784 78.6661C107.579 78.1439 107.426 77.6981 107.911 77.5962C108.397 77.4943 111.094 77.1759 111.555 77.2651C112.028 77.3542 112.143 77.6344 111.989 77.7873C111.849 77.9146 109.126 78.5387 109.126 78.5387C109.126 78.5387 108.781 78.6152 108.985 78.7425C109.19 78.8699 111.67 78.2967 112.079 78.2967C112.488 78.284 112.846 78.4751 112.718 78.7935C112.564 79.1756 109.829 79.5959 109.829 79.5959C109.829 79.5959 109.484 79.6596 109.612 79.7997C109.739 79.9398 111.823 79.4176 112.066 79.4813C112.309 79.5449 112.577 79.8124 112.385 80.0544C112.168 80.3346 109.701 80.6912 109.701 80.6912C109.701 80.6912 109.548 80.7804 109.663 80.8441C109.778 80.9205 111.644 80.6148 111.925 80.7549C112.168 80.8695 112.13 81.0479 112.13 81.0479C112.155 81.4809 109.957 81.8248 109.816 81.8375C109.266 81.9012 108.704 80.946 108.487 80.3601L107.784 78.6661Z" fill="#F7A491"/>
<g clip-path="url(#clip4_4337_9167)">
<path fill-rule="evenodd" clip-rule="evenodd" d="M162.657 114.897C161.734 115.309 160.789 115.729 159.866 116.14C159.537 116.286 159.149 116.133 159 115.798C157.08 111.485 155.15 107.151 153.221 102.817C153.007 101.508 153.102 100.286 153.677 99.2021C154.231 98.9554 154.786 98.7087 155.34 98.4619C155.894 98.2152 156.448 97.9685 157.002 97.7217C158.185 97.9478 159.166 98.7151 159.994 99.8015C161.924 104.135 163.844 108.448 165.773 112.782C165.923 113.117 165.777 113.508 165.449 113.655C164.525 114.066 163.601 114.477 162.657 114.897Z" fill="#9CDBE3"/>
<path fill-rule="evenodd" clip-rule="evenodd" d="M155.35 98.4828L153.708 99.2139L153.596 98.9626L155.238 98.2316L156.9 97.4914L157.012 97.7426L155.35 98.4828Z" fill="#313130"/>
<path fill-rule="evenodd" clip-rule="evenodd" d="M155.238 98.2315L153.698 98.9168L152.98 97.3047L154.52 96.6193L156.08 95.9248L156.798 97.537L155.238 98.2315Z" fill="#141515"/>
<path fill-rule="evenodd" clip-rule="evenodd" d="M154.52 96.6193L153.144 97.2316L153.328 96.3723L154.231 95.9703L155.154 95.559L155.915 95.9979L154.52 96.6193Z" fill="#313130"/>
<path fill-rule="evenodd" clip-rule="evenodd" d="M154.231 95.9704L153.431 96.3268L153.375 96.2012L154.175 95.8448L154.996 95.4793L155.052 95.6049L154.231 95.9704Z" fill="#141515"/>
<path fill-rule="evenodd" clip-rule="evenodd" d="M153.663 94.6931L152.76 95.0952L153.272 96.2467L154.176 95.8447L155.099 95.4334L154.587 94.2819L153.663 94.6931Z" fill="#313130"/>
<path fill-rule="evenodd" clip-rule="evenodd" d="M154.587 94.2819C153.848 94.6109 153.109 94.9399 152.37 95.2689C151.962 95.4006 151.621 94.5239 152.675 94.4058C153.501 94.1633 154.272 93.7951 155.035 93.3549C155.737 92.9422 156.42 92.7636 157.199 92.9683C157.158 93.2626 157.143 93.3947 157.113 93.6589C156.11 93.2277 155.391 93.8235 154.587 94.2819Z" fill="#141515"/>
</g>
<path d="M158.073 105.502C158.009 105.298 157.779 105.031 157.869 104.865C157.869 104.865 158.06 104.7 158.227 104.712C158.406 104.725 158.597 105.069 158.712 105.094C158.815 105.12 159.096 105.247 159.237 105.145C159.377 105.044 160.221 104.509 160.374 104.381C160.528 104.241 161.077 103.897 161.154 103.808C161.231 103.719 161.755 103.12 161.614 102.827C161.614 102.827 161.474 102.94 161.154 102.584C160.949 102.711 161.388 102.291 161.154 102.584C161.371 102.456 160.705 101.821 160.884 101.808C161.063 101.796 161.768 101.579 161.768 101.579C161.768 101.579 162.407 101.477 162.854 101.808C163.302 102.14 163.877 102.318 164.26 102.496C164.478 102.598 165.194 102.369 165.756 102.14L167.226 101.299C167.967 100.815 167.801 100.917 168.466 100.497C168.709 100.331 168.952 100.178 169.182 100.025C178.514 93.9244 178.68 93.6824 178.731 93.555C178.91 93.0583 177.197 88.9699 175.74 85.8876C177.325 85.2253 180.163 83.9643 181.505 83.3657C183.231 88.2566 185.353 94.7141 185.199 95.542C184.918 97.0322 166.497 105.273 166.191 105.451L166.178 105.413L165.36 105.808C165.36 105.808 165.104 106.062 164.899 106.253C164.695 106.432 163.992 106.725 163.992 106.725C163.992 106.725 162.471 107.463 162.33 107.476C162.189 107.489 161.167 107.858 161.001 107.82C160.834 107.782 160.438 107.629 160.285 107.629C160.131 107.629 159.812 107.629 159.594 107.463C159.377 107.298 159.058 107.132 159.019 106.916C159.019 106.916 158.61 106.661 158.47 106.508C158.329 106.368 158.227 106.126 158.239 105.948L158.303 105.833C158.316 105.846 158.137 105.706 158.073 105.502Z" fill="#F7A491"/>
</g>
<path opacity="0.6" d="M69.0304 103.995L69.0383 103.881C69.1143 101.907 70.5715 100.317 72.4582 99.9992C72.7725 99.9383 72.9978 99.6688 73.0121 99.3445L73.0909 97.5612L74.907 97.6351L74.8282 99.4184C74.8139 99.7426 75.0284 100.036 75.3348 100.089C77.1758 100.553 78.5382 102.253 78.4622 104.227L78.4544 104.341C78.4308 104.685 78.177 104.964 77.8334 104.987L77.5905 111.185C77.9361 111.305 78.1606 111.627 78.1662 112.008L77.83 120.952C77.7655 122.411 76.55 123.55 75.0782 123.501L73.0234 123.43L70.9685 123.359C69.4967 123.31 68.3608 122.075 68.406 120.606L68.7422 111.662C68.7559 111.29 69.0282 110.972 69.3711 110.901L69.614 104.703C69.2691 104.631 69.0068 104.339 69.0304 103.995Z" fill="#FDB73E"/>
<path d="M72.8886 98.6687L75.0104 98.7484C75.1729 98.756 75.3048 98.6306 75.312 98.4685L75.3313 97.8392C75.3385 97.6771 75.2124 97.5451 75.0499 97.5375L72.928 97.4577C72.7655 97.4501 72.6336 97.5756 72.6265 97.7377L72.6071 98.367C72.5999 98.5291 72.726 98.6611 72.8886 98.6687Z" fill="#DF7F68"/>
<path opacity="0.3" d="M69.3617 110.872L69.6047 104.674L73.7336 104.825C73.7336 104.825 70.6139 105.091 70.3563 106.409C70.0987 107.728 69.0096 110.962 73.4835 111.186C73.4835 111.186 69.8085 111.372 69.4824 113.225C69.1755 115.087 67.7176 123.111 73.024 123.429L70.9692 123.358C69.4973 123.309 68.3615 122.074 68.4067 120.605L68.7429 111.661C68.7465 111.261 69.0096 110.962 69.3617 110.872Z" fill="#CFE9FA"/>
<path fill-rule="evenodd" clip-rule="evenodd" d="M84.6245 105.261L83.1 105.227L81.5755 105.192C81.3987 105.176 81.2715 105.039 81.2877 104.861L81.3163 103.657C81.3326 103.48 81.4695 103.353 81.6464 103.369L83.1709 103.404L84.6954 103.438C84.8722 103.455 84.9993 103.592 84.9831 103.769L84.9545 104.973C84.9361 105.121 84.8013 105.277 84.6245 105.261Z" fill="#074674"/>
<path fill-rule="evenodd" clip-rule="evenodd" d="M84.9469 105.267L83.1096 105.227L83.1 105.227L83.0926 105.226L81.2801 105.155L81.2584 105.655L81.6739 105.671L81.633 106.771L81.6822 106.772C79.1704 108.337 78.4979 111.49 79.4261 114.174C79.4051 115.043 79.3876 116.161 79.3696 117.308C79.3256 120.116 79.2789 123.101 79.171 123.047C77.1305 126.744 78.598 133.965 82.4056 130.021C85.9877 134.155 87.8355 127.042 86.0054 123.248C85.9169 123.291 86.011 120.972 86.1115 118.498C86.1713 117.024 86.2334 115.494 86.2605 114.375C87.3549 111.744 86.8571 108.556 84.4492 106.857C84.364 106.853 84.2797 106.849 84.1961 106.846L84.4783 106.855L84.519 105.757L84.9251 105.767L84.9469 105.267ZM84.0068 106.84L83.071 106.812C83.3058 106.824 83.5328 106.829 83.7598 106.834C83.842 106.836 83.9242 106.838 84.0068 106.84Z" fill="#1B8158" fill-opacity="0.6"/>
<path opacity="0.6" d="M79.4312 114.579L79.2246 121.768L85.9941 121.965L86.2007 114.775L79.4312 114.579Z" fill="#074674"/>
<path opacity="0.6" d="M59.6049 108.315L59.5882 108.201C59.2419 106.257 60.3269 104.393 62.1026 103.68C62.3968 103.554 62.5594 103.242 62.5044 102.923L62.2014 101.163L63.9915 100.849L64.2945 102.608C64.3496 102.928 64.6215 103.168 64.9324 103.155C66.83 103.217 68.5232 104.587 68.8695 106.532L68.8862 106.645C68.9364 106.986 68.7479 107.313 68.4172 107.408L69.5004 113.516C69.8637 113.56 70.1514 113.826 70.2381 114.197L71.8154 123.008C72.0633 124.447 71.1184 125.819 69.6698 126.084L67.647 126.453L65.6242 126.821C64.1757 127.086 62.8027 126.122 62.5341 124.677L60.9569 115.867C60.8909 115.501 61.0893 115.132 61.4092 114.99L60.326 108.882C59.9736 108.885 59.6551 108.655 59.6049 108.315Z" fill="#05A4B9"/>
<path d="M62.2397 102.289L64.3298 101.915C64.4902 101.887 64.5923 101.737 64.5648 101.577L64.4496 100.958C64.4221 100.798 64.2707 100.696 64.1104 100.723L62.0202 101.097C61.8598 101.124 61.7577 101.275 61.7853 101.435L61.9004 102.054C61.9279 102.214 62.0793 102.316 62.2397 102.289Z" fill="#074674"/>
<path opacity="0.3" d="M61.3945 114.963L60.3113 108.856L64.3777 108.124C64.3777 108.124 61.3861 109.048 61.4153 110.391C61.4446 111.734 61.0696 115.126 65.4884 114.391C65.4884 114.391 61.9375 115.357 62.0137 117.236C62.1106 119.121 62.3957 127.271 67.6481 126.452L65.6253 126.82C64.1768 127.086 62.8038 126.121 62.5352 124.677L60.958 115.866C60.8762 115.474 61.0696 115.126 61.3945 114.963Z" fill="#CFE9FA"/>
<path opacity="0.6" d="M71.3944 111.156L71.4149 111.043C71.7082 109.089 73.3319 107.67 75.2422 107.562C75.5613 107.536 75.815 107.293 75.865 106.973L76.1401 105.209L77.9369 105.483L77.6619 107.247C77.6118 107.567 77.7927 107.882 78.0914 107.969C79.8698 108.634 81.0364 110.473 80.7431 112.427L80.7226 112.54C80.6613 112.878 80.3782 113.128 80.0342 113.113L79.1088 119.247C79.4391 119.404 79.6267 119.748 79.5902 120.128L78.2691 128.98C78.044 130.423 76.7102 131.421 75.2528 131.21L73.2184 130.912L71.1839 130.615C69.7265 130.404 68.7339 129.051 68.9409 127.596L70.262 118.744C70.3166 118.376 70.6223 118.09 70.9709 118.057L71.8963 111.924C71.5614 111.814 71.3331 111.494 71.3944 111.156Z" fill="#60D695"/>
<path d="M75.8141 106.287L77.9142 106.601C78.0749 106.626 78.2198 106.516 78.2448 106.356L78.3335 105.732C78.3585 105.572 78.2477 105.427 78.087 105.401L75.9869 105.088C75.8263 105.063 75.6813 105.173 75.6563 105.333L75.5676 105.956C75.5426 106.117 75.6534 106.262 75.8141 106.287Z" fill="#CA4B2B"/>
<path opacity="0.3" d="M70.9642 118.027L71.8897 111.894L75.9767 112.5C75.9767 112.5 72.8467 112.419 72.4452 113.701C72.0437 114.983 70.6043 118.078 75.0263 118.793C75.0263 118.793 71.3531 118.573 70.8245 120.379C70.314 122.196 67.9797 130.01 73.2185 130.912L71.184 130.614C69.7266 130.403 68.734 129.05 68.941 127.596L70.2621 118.743C70.3099 118.345 70.6043 118.078 70.9642 118.027Z" fill="#CFE9FA"/>
<path d="M216.281 200H24.6265C23.15 200 21.9688 198.792 21.9688 197.319C21.9688 195.847 23.15 194.639 24.6265 194.639H216.281C217.757 194.639 218.938 195.847 218.938 197.319C218.938 198.792 217.757 200 216.281 200Z" fill="#C4C4C4"/>
<path d="M105.762 121.47L104.758 150.838L103.193 196.848H59.6649L57.2138 124.446L57.0957 121.47H105.762Z" fill="#1B8158"/>
<path d="M69.2033 121.47V196.848H59.6649L57.2138 124.446L57.0957 121.47H69.2033Z" fill="#33916B"/>
<path d="M93.6836 121.47V196.848H103.192L105.673 124.446L105.762 121.47H93.6836Z" fill="#005C35"/>
<path opacity="0.2" d="M105.762 121.47L104.758 150.838C103.282 146.626 101.008 142.708 98.0252 139.38C92.7688 133.488 85.5337 129.541 77.9444 127.303C71.2409 125.329 64.2126 124.622 57.1843 124.475L57.0957 121.47H105.762Z" fill="#13220F"/>
<path d="M106.825 123.385H56.032C54.2011 123.385 52.7246 121.912 52.7246 120.086C52.7246 118.26 54.2011 116.787 56.032 116.787H106.825C108.656 116.787 110.132 118.26 110.132 120.086C110.162 121.912 108.656 123.385 106.825 123.385Z" fill="#005C35"/>
<path d="M79.1847 151.545C79.9525 150.131 80.8089 148.776 81.7244 147.48C82.2264 146.744 82.8465 146.007 83.7029 145.801C82.4626 144.858 80.6022 144.8 79.3028 145.683C78.6532 146.125 78.1216 146.773 77.7377 147.48C77.3538 148.187 77.088 148.923 76.8223 149.689C77.5901 150.337 78.2693 151.103 79.1847 151.545Z" fill="white"/>
<path d="M81.8418 147.833C82.1371 148.334 82.4324 148.805 82.7572 149.306C82.4619 149.571 82.1962 149.866 81.8713 150.131C82.964 150.131 84.1157 150.367 85.1197 150.838C85.4445 149.689 85.7694 148.511 86.0942 147.362C85.7694 147.568 85.4445 147.774 85.1197 147.981C84.7653 147.244 84.3224 146.508 83.7908 145.86C83.023 146.302 82.3143 147.097 81.8418 147.833Z" fill="white"/>
<path d="M84.1738 152.075C84.9121 153.489 85.5913 154.932 86.1819 156.435C86.5068 157.259 86.8021 158.172 86.5068 159.027C87.9833 158.496 89.0464 156.994 89.0169 155.433C89.0169 154.638 88.7511 153.872 88.3672 153.165C87.9833 152.458 87.5108 151.81 87.0383 151.191C86.0638 151.427 85.0302 151.574 84.1738 152.075Z" fill="white"/>
<path d="M85.8273 156.317C85.2367 156.287 84.6756 156.287 84.085 156.258C84.026 155.845 83.9374 155.492 83.8783 155.08C83.2877 155.993 82.4313 156.817 81.4863 157.407C82.2541 158.32 83.081 159.203 83.8488 160.146C83.8488 159.763 83.8488 159.38 83.8488 158.997C84.6756 159.115 85.532 159.145 86.3294 159.056C86.477 158.172 86.1817 157.142 85.8273 156.317Z" fill="white"/>
<path d="M81.1329 156.111C79.5382 156.14 77.9435 156.052 76.3489 155.904C75.463 155.816 74.4885 155.669 73.8978 154.991C73.6911 156.552 74.5475 158.172 75.9355 158.879C76.6442 159.233 77.4711 159.351 78.2684 159.351C79.0657 159.351 79.863 159.203 80.6308 159.086C80.8375 158.084 81.1624 157.112 81.1329 156.111Z" fill="white"/>
<path d="M76.5855 155.61C76.8808 155.109 77.1466 154.608 77.4419 154.108C77.8258 154.225 78.2097 154.343 78.5936 154.461C78.0325 153.518 77.6781 152.399 77.6191 151.28C76.4378 151.545 75.2861 151.869 74.1049 152.134C74.4593 152.311 74.7841 152.487 75.1385 152.664C74.666 153.342 74.2526 154.078 73.9277 154.844C74.6365 155.345 75.6996 155.551 76.5855 155.61Z" fill="white"/>
</g>
<defs>
<clipPath id="clip0_4337_9167">
<rect width="65.1515" height="28.715" fill="white" transform="translate(15.1523 36.2715)"/>
</clipPath>
<clipPath id="clip1_4337_9167">
<rect width="50" height="30.982" fill="white" transform="translate(187.879 58.1858)"/>
</clipPath>
<clipPath id="clip2_4337_9167">
<rect width="196.97" height="188.665" fill="white" transform="translate(21.9688 11.3347)"/>
</clipPath>
<clipPath id="clip3_4337_9167">
<rect width="102.227" height="151.515" fill="white" transform="matrix(-1 0 0 1 187.832 43.1816)"/>
</clipPath>
<clipPath id="clip4_4337_9167">
<rect width="7.61648" height="22.8494" fill="white" transform="translate(149.998 95.522) rotate(-23.9995)"/>
</clipPath>
</defs>
</svg>
