<svg width="40" height="40" viewBox="0 0 40 40" fill="none" xmlns="http://www.w3.org/2000/svg">
<path d="M7.6845 0.680115C4.90622 0.680115 2.65356 2.93285 2.65356 5.71097C2.65356 8.48933 4.90622 10.742 7.6845 10.742C10.4669 10.742 12.7196 8.48941 12.7196 5.71097C12.7196 2.93277 10.4669 0.680115 7.6845 0.680115ZM9.98192 4.78105L7.25021 7.51277C7.12981 7.63316 6.972 7.6934 6.81427 7.6934C6.65653 7.6934 6.49872 7.63316 6.37833 7.51277L5.39122 6.52566C5.15036 6.2848 5.15036 5.89465 5.39122 5.65379C5.63208 5.41293 6.02224 5.41293 6.2631 5.65379L6.81427 6.20496L9.11005 3.90918C9.35091 3.66832 9.74106 3.66832 9.98192 3.90918C10.2228 4.15004 10.2228 4.54019 9.98192 4.78105Z" fill="#1B8158"/>
<path d="M7.6845 14.969C4.90622 14.969 2.65356 17.2217 2.65356 20C2.65356 22.7783 4.90622 25.0309 7.6845 25.0309C10.4669 25.0309 12.7196 22.7783 12.7196 20C12.7196 17.2217 10.4669 14.969 7.6845 14.969ZM9.98192 19.0699L7.25021 21.802C7.13458 21.9177 6.97786 21.9827 6.81427 21.9827C6.65067 21.9827 6.49395 21.9177 6.37833 21.802L5.39122 20.8149C5.15036 20.5741 5.15036 20.1839 5.39122 19.9431C5.63208 19.7022 6.02224 19.7022 6.2631 19.9431L6.81427 20.4942L9.11005 18.1981C9.35052 17.9572 9.74106 17.9572 9.98192 18.1981C10.2228 18.4389 10.2228 18.8291 9.98192 19.0699Z" fill="#1B8158"/>
<path d="M7.6845 29.2578C4.90622 29.2578 2.65356 31.5106 2.65356 34.2888C2.65356 37.0672 4.90622 39.3198 7.6845 39.3198C10.4669 39.3198 12.7196 37.0673 12.7196 34.2888C12.7196 31.5106 10.4669 29.2578 7.6845 29.2578ZM9.98192 33.359L7.25021 36.0907C7.12981 36.2111 6.972 36.2713 6.81427 36.2713C6.65653 36.2713 6.49872 36.2111 6.37833 36.0907L5.39122 35.1036C5.15036 34.8627 5.15036 34.4726 5.39122 34.2317C5.63208 33.9909 6.02224 33.9909 6.2631 34.2317L6.81427 34.7829L9.11005 32.4871C9.35091 32.2463 9.74106 32.2463 9.98192 32.4871C10.2228 32.728 10.2228 33.1181 9.98192 33.359Z" fill="#1B8158"/>
<rect x="15" y="2" width="23" height="8" rx="2" fill="#1B8158"/>
<rect x="15" y="16" width="23" height="8" rx="2" fill="#1B8158"/>
<rect x="15" y="30" width="23" height="8" rx="2" fill="#1B8158"/>
</svg>
