<svg width="55" height="55" viewBox="0 0 55 55" fill="none" xmlns="http://www.w3.org/2000/svg">
<g clip-path="url(#clip0_7030_33363)">
<path d="M39.62 31H31.41C31.06 31 30.79 30.72 30.79 30.38C30.79 30.04 31.07 29.76 31.41 29.76H39.62C39.97 29.76 40.24 30.04 40.24 30.38C40.24 30.72 39.96 31 39.62 31Z" fill="#1B8158"/>
<path d="M43.2 26.13H31.41C31.06 26.13 30.79 25.85 30.79 25.51C30.79 25.17 31.07 24.89 31.41 24.89H43.2C43.55 24.89 43.82 25.17 43.82 25.51C43.82 25.85 43.54 26.13 43.2 26.13Z" fill="#1B8158"/>
<path d="M17 33.53C16.49 33.53 15.99 33.32 15.62 32.95L11.35 28.61C11.13 28.39 11 28.09 11 27.79C11 27.49 11.13 27.2 11.36 26.97L13.35 25.13C13.8 24.68 14.51 24.68 14.98 25.15L17.05 27.22L21.55 22.72C22 22.27 22.71 22.23 23.12 22.64L25.03 24.63C25.25 24.85 25.38 25.14 25.38 25.44C25.38 25.74 25.25 26.03 25.03 26.26L18.34 32.95C18.05 33.29 17.59 33.51 17.09 33.53C17.07 33.53 17.04 33.53 17.02 33.53H17ZM12.3 27.79L16.5 32.06C16.64 32.2 16.82 32.27 17.02 32.27C17.13 32.27 17.28 32.23 17.4 32.09L24.06 25.42L22.36 23.65L17.86 28.15C17.39 28.62 16.69 28.62 16.22 28.15L14.15 26.08L12.3 27.79Z" fill="#1B8158"/>
<path d="M39.62 47.42H31.41C31.06 47.42 30.79 47.14 30.79 46.8C30.79 46.46 31.07 46.18 31.41 46.18H39.62C39.97 46.18 40.24 46.46 40.24 46.8C40.24 47.14 39.96 47.42 39.62 47.42Z" fill="#1B8158"/>
<path d="M43.2 42.56H31.41C31.06 42.56 30.79 42.28 30.79 41.94C30.79 41.6 31.07 41.32 31.41 41.32H43.2C43.55 41.32 43.82 41.6 43.82 41.94C43.82 42.28 43.54 42.56 43.2 42.56Z" fill="#1B8158"/>
<path d="M17 49.95C16.49 49.95 15.99 49.74 15.62 49.37L11.35 45.03C11.13 44.81 11 44.51 11 44.21C11 43.91 11.13 43.62 11.36 43.39L13.35 41.55C13.8 41.1 14.51 41.1 14.98 41.57L17.05 43.64L21.55 39.14C21.79 38.9 22.09 38.77 22.4 38.77C22.68 38.77 22.93 38.87 23.12 39.06L25.03 41.04C25.49 41.5 25.49 42.21 25.03 42.68L18.34 49.37C18.05 49.71 17.59 49.93 17.09 49.95C17.07 49.95 17.04 49.95 17.02 49.95H17ZM12.31 44.22L16.51 48.49C16.65 48.63 16.84 48.7 17.03 48.7C17.14 48.7 17.29 48.66 17.42 48.52L24.08 41.85L22.37 40.08L17.87 44.58C17.4 45.05 16.7 45.05 16.23 44.58L14.16 42.51L12.31 44.22Z" fill="#1B8158"/>
<path d="M39.62 13.59H31.41C31.06 13.59 30.79 13.31 30.79 12.97C30.79 12.63 31.07 12.35 31.41 12.35H39.62C39.97 12.35 40.24 12.63 40.24 12.97C40.24 13.31 39.96 13.59 39.62 13.59Z" fill="#1B8158"/>
<path d="M43.2 8.72H31.41C31.06 8.72 30.79 8.44 30.79 8.1C30.79 7.76 31.07 7.48 31.41 7.48H43.2C43.55 7.48 43.82 7.76 43.82 8.1C43.82 8.44 43.54 8.72 43.2 8.72Z" fill="#1B8158"/>
<path d="M17 16.19C16.49 16.19 15.99 15.98 15.62 15.61L11.35 11.27C11.13 11.05 11 10.75 11 10.45C11 10.15 11.13 9.86001 11.36 9.63001L13.34 7.72001C13.8 7.26001 14.51 7.26001 14.98 7.72001L17.05 9.79001L21.54 5.30001C21.54 5.30001 21.6 5.24001 21.64 5.22001C21.93 5.02001 22.31 4.95001 22.62 5.04001C22.81 5.09001 22.97 5.20001 23.09 5.35001L25.02 7.28001C25.49 7.75001 25.49 8.46001 25.02 8.92001L18.33 15.61C18.04 15.95 17.58 16.17 17.08 16.19C17.06 16.19 17.03 16.19 17.01 16.19H17ZM12.3 10.45L16.5 14.72C16.64 14.86 16.82 14.93 17.02 14.93C17.13 14.93 17.28 14.89 17.4 14.75L24.07 8.10001L22.29 6.32001L17.86 10.74C17.39 11.21 16.69 11.21 16.22 10.74L14.15 8.67001L12.3 10.45Z" fill="#1B8158"/>
</g>
<defs>
<clipPath id="clip0_7030_33363">
<rect width="32.82" height="44.95" fill="white" transform="translate(11 5)"/>
</clipPath>
</defs>
</svg>
