<svg width="40" height="41" viewBox="0 0 40 41" fill="none" xmlns="http://www.w3.org/2000/svg">
    <path d="M7.68426 1.06323C4.90598 1.06323 2.65332 3.30435 2.65332 6.06815C2.65332 8.83218 4.90598 11.0732 7.68426 11.0732C10.4667 11.0732 12.7193 8.83226 12.7193 6.06815C12.7193 3.30427 10.4667 1.06323 7.68426 1.06323ZM9.98168 5.14302L7.24996 7.86065C7.12957 7.98042 6.97176 8.04035 6.81402 8.04035C6.65629 8.04035 6.49848 7.98042 6.37809 7.86065L5.39098 6.87863C5.15012 6.63902 5.15012 6.25087 5.39098 6.01126C5.63184 5.77164 6.02199 5.77164 6.26285 6.01126L6.81402 6.55959L9.10981 4.27564C9.35066 4.03603 9.74082 4.03603 9.98168 4.27564C10.2225 4.51526 10.2225 4.9034 9.98168 5.14302Z" fill="#1B8158"/>
    <path d="M7.68426 15.2784C4.90598 15.2784 2.65332 17.5195 2.65332 20.2835C2.65332 23.0474 4.90598 25.2884 7.68426 25.2884C10.4667 25.2884 12.7193 23.0474 12.7193 20.2835C12.7193 17.5195 10.4667 15.2784 7.68426 15.2784ZM9.98168 19.3582L7.24996 22.0762C7.13434 22.1912 6.97762 22.2559 6.81402 22.2559C6.65043 22.2559 6.49371 22.1912 6.37809 22.0762L5.39098 21.0942C5.15012 20.8546 5.15012 20.4664 5.39098 20.2268C5.63184 19.9872 6.02199 19.9872 6.26285 20.2268L6.81402 20.7751L9.10981 18.4908C9.35027 18.2512 9.74082 18.2512 9.98168 18.4908C10.2225 18.7304 10.2225 19.1186 9.98168 19.3582Z" fill="#1B8158"/>
    <path d="M7.68426 29.4936C4.90598 29.4936 2.65332 31.7348 2.65332 34.4987C2.65332 37.2627 4.90598 39.5037 7.68426 39.5037C10.4667 39.5037 12.7193 37.2628 12.7193 34.4987C12.7193 31.7348 10.4667 29.4936 7.68426 29.4936ZM9.98168 33.5736L7.24996 36.2912C7.12957 36.411 6.97176 36.4709 6.81402 36.4709C6.65629 36.4709 6.49848 36.411 6.37809 36.2912L5.39098 35.3092C5.15012 35.0696 5.15012 34.6815 5.39098 34.4418C5.63184 34.2022 6.02199 34.2022 6.26285 34.4418L6.81402 34.9902L9.10981 32.7062C9.35066 32.4666 9.74082 32.4666 9.98168 32.7062C10.2225 32.9459 10.2225 33.334 9.98168 33.5736Z" fill="#1B8158"/>
    <rect x="15" y="2.37634" width="23" height="7.95875" rx="2" fill="#1B8158"/>
    <rect x="15" y="16.3041" width="23" height="7.95875" rx="2" fill="#1B8158"/>
    <rect x="15" y="30.2319" width="23" height="7.95875" rx="2" fill="#1B8158"/>
</svg>

