<svg width="15" height="15" viewBox="0 0 15 15" fill="none" xmlns="http://www.w3.org/2000/svg">
<path d="M7.50027 0.2136C3.47427 0.2136 0.213867 3.474 0.213867 7.5C0.213867 11.526 3.47427 14.7864 7.50027 14.7864C11.5263 14.7864 14.7867 11.526 14.7867 7.5C14.7867 3.474 11.5263 0.2136 7.50027 0.2136ZM7.48707 2.0946C8.29227 2.0946 8.93247 2.748 8.93247 3.54C8.93247 4.332 8.29227 4.9854 7.48707 4.9854C6.68187 4.9854 6.04167 4.332 6.04167 3.54C6.04167 2.748 6.69507 2.0946 7.48707 2.0946ZM9.44067 12.8988H5.56647V11.064H6.16047V8.1996H5.56647V6.378H8.84667V11.0574H9.44067V12.8922V12.8988Z" fill="white"/>
</svg>
