<svg width="13" height="17" viewBox="0 0 13 17" fill="none" xmlns="http://www.w3.org/2000/svg">
<path d="M6.35988 0C4.15988 0 2.37988 1.55 2.37988 3.75H3.97988C3.97988 2.42 5.06988 1.58 6.37988 1.58C7.68988 1.58 8.77988 2.65 8.77988 3.98V6.13H10.3399V3.98C10.3399 1.78 8.55988 0 6.35988 0Z" fill="white"/>
<path d="M11.02 6.14001H1.73C0.780001 6.14001 0 6.91001 0 7.87001V14.32C0 15.27 0.770001 16.05 1.73 16.05H11.02C11.97 16.05 12.75 15.28 12.75 14.32V7.87001C12.75 6.92001 11.98 6.14001 11.02 6.14001ZM7.12 11.3C7.12 11.3 7.05 11.37 7.05 11.42V12.82C7.05 13.15 6.79 13.41 6.46 13.41H6.26C5.93 13.41 5.67 13.15 5.67 12.82V11.42C5.67 11.42 5.65 11.34 5.6 11.3C5.02 10.92 4.81 10.2 5.09 9.57001C5.27 9.18001 5.62 8.88001 6.04 8.80001C6.78 8.64001 7.52 9.11001 7.69 9.85001C7.8 10.41 7.58 10.99 7.11 11.3" fill="white"/>
</svg>
