<svg width="25" height="24" viewBox="0 0 25 24" fill="none" xmlns="http://www.w3.org/2000/svg">
<g id="Lock/Locked">
<g id="Vector">
<path d="M12.1401 3C9.6598 3 7.67317 4.99867 7.67317 7.4669V9.88697H9.46716V7.4669C9.46716 5.97392 10.6832 4.7699 12.1642 4.7699C13.6451 4.7699 14.8611 5.97392 14.8611 7.4669V9.88697H16.619V7.4669C16.619 4.98663 14.6203 3 12.1521 3" fill="#13220F" fill-opacity="0.3"/>
<path d="M17.3652 9.88693H6.93846C5.86689 9.88693 5 10.7538 5 11.8254V19.0615C5 20.1331 5.86689 21 6.93846 21H17.3773C18.4489 21 19.3157 20.1331 19.3157 19.0615V11.8254C19.3157 10.7538 18.4489 9.88693 17.3773 9.88693M13.0067 15.6903C13.0067 15.6903 12.9345 15.7625 12.9345 15.8227V17.388C12.9345 17.7612 12.6335 18.0502 12.2723 18.0502H12.0555C11.6823 18.0502 11.3933 17.7612 11.3933 17.388V15.8227C11.3933 15.8227 11.3813 15.7264 11.3211 15.6903C10.6709 15.2689 10.4301 14.4502 10.7432 13.7518C10.9478 13.3063 11.3331 12.9813 11.8147 12.8849C12.6455 12.7043 13.4763 13.2341 13.6569 14.0649C13.7893 14.691 13.5244 15.3411 13.0067 15.6903Z" fill="#13220F" fill-opacity="0.3"/>
</g>
</g>
</svg>
