<svg width="20" height="20" viewBox="0 0 20 20" fill="none" xmlns="http://www.w3.org/2000/svg">
<g clip-path="url(#clip0_7260_2370)">
<path d="M19.5264 17.3388L14.9282 12.6773C15.7095 11.4165 16.1629 9.9263 16.1629 8.32702C16.1629 3.80245 12.5446 0.13504 8.08129 0.13504C3.61803 0.13504 0 3.80245 0 8.32702C0 12.8518 3.61786 16.5188 8.08129 16.5188C9.7982 16.5188 11.3885 15.9747 12.6971 15.0501L17.2405 19.6561C17.5562 19.9758 17.9701 20.135 18.3834 20.135C18.7973 20.135 19.2107 19.9758 19.5269 19.6561C20.1578 19.0159 20.1578 17.9788 19.5264 17.3388ZM8.08129 13.8647C5.06453 13.8647 2.61873 11.3856 2.61873 8.32736C2.61873 5.26911 5.06453 2.7898 8.08129 2.7898C11.0982 2.7898 13.5439 5.26911 13.5439 8.32736C13.5439 11.3856 11.0982 13.8647 8.08129 13.8647Z" fill="#1B8158"/>
</g>
<defs>
<clipPath id="clip0_7260_2370">
<rect width="20" height="20" fill="white"/>
</clipPath>
</defs>
</svg>
