<svg xmlns="http://www.w3.org/2000/svg" width="33" height="34" viewBox="0 0 33 34" fill="none">
  <path d="M23.4493 32.6745H15.1434C14.644 32.6745 14.2379 32.2683 14.2379 31.7692V27.4269C14.2379 26.9278 14.644 26.5216 15.1434 26.5216H23.4493C23.9484 26.5216 24.3546 26.9278 24.3546 27.4269V31.7692C24.3546 32.2683 23.9484 32.6745 23.4493 32.6745ZM15.1434 27.1806C15.0075 27.1806 14.8968 27.291 14.8968 27.4269V31.7692C14.8968 31.9051 15.0075 32.0155 15.1434 32.0155H23.4493C23.5852 32.0155 23.6957 31.9051 23.6957 31.7692V27.4269C23.6957 27.291 23.5852 27.1806 23.4493 27.1806H15.1434Z" fill="#1B8158"/>
  <path d="M23.8187 27.1806H14.774V10.8388C14.774 10.3397 15.1802 9.93349 15.6793 9.93349H22.9134C23.4125 9.93349 23.8187 10.3397 23.8187 10.8388L23.8187 27.1806ZM15.433 26.5216H23.1597V10.8388C23.1597 10.7029 23.0493 10.5925 22.9134 10.5925H15.6794C15.5434 10.5925 15.433 10.7029 15.433 10.8388L15.433 26.5216Z" fill="#1B8158"/>
  <path d="M22.4907 10.5925H16.3847V6.265C16.3847 4.28589 17.9948 2.67578 19.974 2.67578H21.5841C22.084 2.67578 22.4907 3.08249 22.4907 3.58239L22.4907 10.5925ZM17.0436 9.93349H21.8317V3.58239C21.8317 3.44584 21.7205 3.33476 21.5841 3.33476H19.974C18.3582 3.33476 17.0436 4.64922 17.0436 6.265L17.0436 9.93349Z" fill="#1B8158"/>
  <path d="M17.1281 32.6758H8.98846C8.44352 32.6758 8 32.2323 8 31.6873V9.1583C8 8.61323 8.44352 8.16985 8.98846 8.16985H15.2037C15.3856 8.16985 15.5331 8.31734 15.5331 8.49933C15.5331 8.68131 15.3856 8.82881 15.2037 8.82881H8.98846C8.80672 8.82881 8.65897 8.97657 8.65897 9.15829V31.6873C8.65897 31.869 8.80673 32.0168 8.98846 32.0168H17.1281C17.31 32.0168 17.4575 32.1643 17.4575 32.3463C17.4575 32.5283 17.31 32.6758 17.1281 32.6758Z" fill="#1B8158"/>
</svg>