<svg width="33" height="33" viewBox="0 0 33 33" fill="none" xmlns="http://www.w3.org/2000/svg">
<g clip-path="url(#clip0_7030_20192)">
<path d="M21.6663 31.416H4.71632C2.82032 31.416 1.27832 29.874 1.27832 27.978V20.958C1.27832 20.748 1.44632 20.586 1.65032 20.586C2.23832 20.586 2.71232 20.106 2.71232 19.518V18.228C2.71232 18.018 2.88032 17.856 3.08432 17.856H23.1963C23.4063 17.856 23.5683 18.024 23.5683 18.228V19.518C23.5683 20.106 24.0483 20.586 24.6363 20.586C24.8463 20.586 25.0083 20.754 25.0083 20.958V27.978C25.0383 28.884 24.7143 29.748 24.0843 30.396C23.4483 31.05 22.5903 31.416 21.6603 31.416H21.6663ZM2.03432 21.3V27.984C2.03432 29.466 3.24032 30.672 4.72232 30.672H21.6723C22.3923 30.672 23.0643 30.39 23.5563 29.88C24.0423 29.376 24.2943 28.71 24.2703 27.996V21.3C23.4483 21.126 22.8303 20.394 22.8303 19.524V18.612H3.47432V19.524C3.47432 20.394 2.85632 21.126 2.03432 21.3Z" fill="#1B8158"/>
<path d="M0.966223 12.0059C0.900223 12.0059 0.834223 11.9879 0.774223 11.9519C0.690223 11.9039 0.624223 11.8199 0.600223 11.7239L0.0902235 9.71389C-0.0897765 9.04189 0.000223482 8.33989 0.354223 7.73389C0.714224 7.12789 1.29022 6.69589 1.98622 6.52789L19.9202 1.87789C20.6042 1.70989 21.3062 1.81189 21.9062 2.16589C22.5122 2.52589 22.9382 3.09589 23.1062 3.76789L23.6162 5.77789C23.6642 5.97589 23.5442 6.17989 23.3462 6.23389L1.06222 11.9939C1.03222 11.9999 1.00222 12.0059 0.966223 12.0059ZM20.5682 2.54989C20.4182 2.54989 20.2622 2.56789 20.1062 2.60989L2.17222 7.25389C1.67422 7.37389 1.26022 7.67989 1.00822 8.11189C0.756223 8.53789 0.690223 9.04189 0.822223 9.52189L1.24222 11.1719L22.8002 5.60389L22.3802 3.95389C22.1702 3.10789 21.4082 2.54989 20.5682 2.54989Z" fill="#1B8158"/>
<path d="M21.9957 21.486H4.38567C4.17567 21.486 4.01367 21.318 4.01367 21.114C4.01367 20.91 4.18167 20.742 4.38567 20.742H21.9957C22.2057 20.742 22.3677 20.91 22.3677 21.114C22.3677 21.318 22.1997 21.486 21.9957 21.486Z" fill="#1B8158"/>
<path d="M3.12605 18.606H3.11405C2.91005 18.6 2.74805 18.432 2.74805 18.222C2.74805 18.156 2.80205 16.644 4.41005 15.342C6.06005 14.004 9.66605 12.714 17.442 14.172C17.646 14.208 17.778 14.406 17.742 14.61C17.706 14.814 17.508 14.946 17.304 14.91C9.83405 13.512 6.43805 14.676 4.90205 15.906C3.55805 16.98 3.49805 18.192 3.49205 18.246C3.48605 18.45 3.31805 18.606 3.12005 18.606H3.12605Z" fill="#1B8158"/>
<path d="M23.2564 18.606C23.0584 18.606 22.8904 18.45 22.8844 18.252C22.8724 17.988 22.4524 11.946 15.2644 11.382C15.4264 11.898 15.3124 12.312 15.1624 12.588C14.4784 13.86 12.0784 14.316 10.0624 14.316C9.85243 14.316 9.69043 14.148 9.69043 13.944C9.69043 13.74 9.85843 13.572 10.0624 13.572C12.2524 13.572 14.0824 13.026 14.5024 12.24C14.6644 11.94 14.6104 11.592 14.3404 11.184C14.2624 11.07 14.2564 10.914 14.3284 10.794C14.3944 10.674 14.5324 10.596 14.6704 10.602C23.1664 10.878 23.6404 18.144 23.6404 18.216C23.6524 18.42 23.4904 18.6 23.2864 18.612H23.2684L23.2564 18.606Z" fill="#1B8158"/>
</g>
<defs>
<clipPath id="clip0_7030_20192">
<rect width="25.014" height="29.616" fill="white" transform="translate(0 1.8)"/>
</clipPath>
</defs>
</svg>
