<svg width="21" height="30" viewBox="0 0 21 30" fill="none" xmlns="http://www.w3.org/2000/svg">
<path d="M11.876 0.146218L11.9253 0.145985C10.7485 -0.0542174 9.54579 -0.0484177 8.37096 0.163123L8.31869 0.163395C5.9834 0.591921 3.8722 1.8255 2.35234 3.64957C0.832468 5.47363 9.49585e-05 7.77277 0 10.147C0 20.9616 10.1472 29.9999 10.1472 29.9999C10.1472 29.9999 20.2943 20.9479 20.2943 10.1472C20.2941 7.75558 19.4495 5.44086 17.9094 3.61119C16.3692 1.78152 14.2325 0.554399 11.876 0.146218ZM10.1471 15.5334C9.07811 15.5334 8.03308 15.2164 7.14421 14.6225C6.25533 14.0285 5.56254 13.1844 5.15343 12.1967C4.74433 11.2091 4.63728 10.1223 4.84583 9.07378C5.05439 8.02528 5.56917 7.06218 6.32509 6.30625C7.08101 5.55033 8.04411 5.03554 9.0926 4.82698C10.1411 4.61841 11.2279 4.72545 12.2155 5.13455C13.2032 5.54365 14.0474 6.23644 14.6413 7.12531C15.2352 8.01418 15.5522 9.0592 15.5522 10.1282C15.5522 11.5618 14.9828 12.9366 13.9691 13.9502C12.9555 14.9639 11.5807 15.5333 10.1471 15.5334Z" fill="#1B8158"/>
</svg>
