<svg width="38" height="55" viewBox="0 0 38 55" fill="none" xmlns="http://www.w3.org/2000/svg">
<path d="M21.7727 0.268041L21.863 0.267613C19.7055 -0.0994239 17.5006 -0.0887913 15.3468 0.299034L15.2509 0.299533C10.9696 1.08516 7.09904 3.34673 4.31262 6.69085C1.52619 10.035 0.000174091 14.25 0 18.6029C0 38.4297 18.6032 54.9998 18.6032 54.9998C18.6032 54.9998 37.2063 38.4044 37.2063 18.6031C37.2059 14.2185 35.6574 9.97489 32.8338 6.62049C30.0103 3.26609 26.093 1.01637 21.7727 0.268041ZM18.6031 28.4778C16.6432 28.4778 14.7273 27.8967 13.0977 26.8078C11.4681 25.719 10.198 24.1713 9.44796 22.3606C8.69793 20.5499 8.50168 18.5575 8.88403 16.6352C9.26638 14.713 10.2102 12.9473 11.596 11.5614C12.9819 10.1756 14.7475 9.23179 16.6698 8.84943C18.592 8.46707 20.5845 8.6633 22.3952 9.41332C24.2059 10.1633 25.7535 11.4334 26.8424 13.063C27.9312 14.6926 28.5124 16.6085 28.5124 18.5684C28.5124 21.1965 27.4684 23.717 25.61 25.5754C23.7517 27.4337 21.2312 28.4778 18.6031 28.4778Z" fill="#E02C3A"/>
</svg>
