<svg width="25" height="25" viewBox="0 0 25 25" fill="none" xmlns="http://www.w3.org/2000/svg">
<g clip-path="url(#clip0_6521_6148)">
<path fill-rule="evenodd" clip-rule="evenodd" d="M20.6185 6.61765L21.3232 24.2353C21.3399 24.6526 21.0061 25 20.5885 25H13.2356C12.8179 25 12.4841 24.6526 12.5009 24.2353L13.2056 6.61765H20.6185ZM14.8516 3.67648H18.9725L19.7604 5.51472H14.0637L14.8516 3.67648ZM15.0738 2.57351V0.735312C15.0738 0.329201 15.403 0 15.8091 0H18.015C18.421 0 18.7503 0.329201 18.7503 0.735312V2.57355H15.0738V2.57351ZM8.45268 25H7.7243C7.5162 25 7.3532 24.8353 7.3532 24.6321V0.367902C7.3532 0.166241 7.51936 0 7.7243 0H8.45268C8.66078 0 8.82378 0.164724 8.82378 0.367902V24.6321C8.82382 24.8338 8.65766 25 8.45268 25ZM3.67676 6.61765V1.47058C3.67676 1.06451 4.00596 0.735271 4.41207 0.735271H6.25031V7.35292H4.41207C4.00596 7.35296 3.67676 7.02372 3.67676 6.61765Z" fill="#1B8158"/>
</g>
<defs>
<clipPath id="clip0_6521_6148">
<rect width="25" height="25" fill="white"/>
</clipPath>
</defs>
</svg>
