<svg width="34" height="33" viewBox="0 0 34 33" fill="none" xmlns="http://www.w3.org/2000/svg">
<g clip-path="url(#clip0_7030_20193)">
<path d="M12.5721 11.97H9.06206C8.70806 11.97 8.41406 11.682 8.41406 11.322V2.62801C8.41406 2.29201 8.70806 2.01601 9.06206 2.01601H13.1121C13.4661 2.01601 13.7541 2.30401 13.7541 2.66401V3.89401C13.7541 3.93601 13.7541 4.05601 13.6761 4.17601L13.2141 5.26201V11.334C13.2141 11.688 12.9261 11.982 12.5721 11.982V11.97ZM9.16406 11.22H12.4641L12.4941 5.02801L13.0041 3.82801V2.76001H9.17006V11.22H9.16406Z" fill="#1B8158"/>
<path d="M10.8322 31.47C10.0282 31.47 9.3802 30.816 9.3802 30.018V19.458C9.3802 18.45 8.6122 17.124 7.9282 15.954L7.8562 15.822C7.0402 14.376 6.2002 12.882 6.2002 11.358V2.628C6.3262 1.788 6.9742 1.2 7.7122 1.2C8.4982 1.2 9.1402 1.842 9.1402 2.628V11.328C9.1402 12.072 9.7222 13.146 10.2802 14.184L10.4722 14.544C11.3602 16.11 12.2842 17.736 12.2842 19.464V30.024C12.2842 30.828 11.6302 31.476 10.8262 31.476L10.8322 31.47ZM7.7122 1.95C7.3462 1.95 7.0102 2.274 6.9442 2.682V11.352C6.9442 12.678 7.7422 14.088 8.5102 15.45L8.5822 15.576C9.3082 16.824 10.1302 18.24 10.1302 19.452V30.012C10.1302 30.408 10.4422 30.714 10.8322 30.714C11.2222 30.714 11.5402 30.402 11.5402 30.012V19.458C11.5402 17.928 10.6642 16.392 9.8182 14.904L9.6202 14.538C8.9842 13.368 8.3902 12.264 8.3902 11.328V2.628C8.3902 2.25 8.0962 1.956 7.7182 1.956L7.7122 1.95Z" fill="#1B8158"/>
<path d="M26.8878 31.47H14.9658L16.0578 5.778H25.7958L26.8878 31.47ZM15.7458 30.72H26.1078L25.0758 6.528H16.7718L15.7458 30.72Z" fill="#1B8158"/>
<path d="M23.7199 6H22.9699V2.826C22.9699 2.346 22.5799 1.95 22.0939 1.95H19.7539C19.2739 1.95 18.8779 2.34 18.8779 2.826V6H18.1279V2.826C18.1339 1.926 18.8599 1.2 19.7599 1.2H22.0999C22.9939 1.2 23.7199 1.926 23.7199 2.826V6Z" fill="#1B8158"/>
</g>
<defs>
<clipPath id="clip0_7030_20193">
<rect width="20.688" height="30.27" fill="white" transform="translate(6.2002 1.2)"/>
</clipPath>
</defs>
</svg>
