<svg width="33" height="33" viewBox="0 0 33 33" fill="none" xmlns="http://www.w3.org/2000/svg">
<path d="M10.7304 3.01474L14.7199 1.3602C14.8676 1.29892 15.0349 1.36811 15.0962 1.51587L15.5986 2.7275C15.6109 2.75705 15.6232 2.7866 15.6059 2.82841L15.5937 4.21884L18.1062 10.277C18.1674 10.4248 18.0983 10.592 17.9505 10.6533L14.4929 12.0872C14.3452 12.1485 14.1779 12.0793 14.1166 11.9315L10.5624 3.36146C10.5134 3.24326 10.5826 3.07602 10.7304 3.01474Z" stroke="#1B8158" stroke-width="0.675725" stroke-miterlimit="10"/>
<path d="M9.06961 2.76836C9.66065 2.52324 10.3 2.81223 10.5329 3.37372L14.0871 11.9438C14.467 12.8599 15.6788 13.7774 16.8314 14.7194C18.3135 15.8711 19.8496 17.0697 20.5114 18.6655L24.8255 29.0678C25.0706 29.6589 24.7938 30.3278 24.2028 30.5729C23.6118 30.818 22.9428 30.5413 22.6977 29.9503L18.3837 19.548C17.9424 18.4841 16.6644 17.4902 15.3986 16.5258C14.0124 15.4383 12.5426 14.3161 11.9421 12.868L8.3756 4.2684C8.23139 3.67014 8.50813 3.00122 9.06961 2.76836Z" stroke="#1B8158" stroke-width="0.675725" stroke-miterlimit="10"/>
</svg>
