<svg width="33" height="33" viewBox="0 0 33 33" fill="none" xmlns="http://www.w3.org/2000/svg">
<path d="M32.2954 14.9936C31.9388 14.7887 31.5039 14.7448 31.0714 14.87C30.4977 15.0358 29.9241 15.2017 29.3504 15.3675C27.7558 15.8285 26.1075 16.3057 24.4832 16.7651C23.8105 16.9553 23.4317 17.3586 23.3235 17.9976C23.2996 18.1374 23.227 18.2163 23.0867 18.2537L22.8828 18.3073C22.5485 18.3951 22.2027 18.4862 21.8684 18.5894C21.5416 18.6903 21.1949 18.7366 20.7847 18.7366C18.3672 18.7325 15.9084 18.7325 13.5313 18.7333H9.74774C9.01811 18.7333 8.28848 18.7342 7.55884 18.735C5.62498 18.7374 3.6251 18.739 1.65822 18.726C1.65575 18.726 1.65327 18.726 1.65079 18.726C1.38832 18.726 1.18611 18.8155 1.07963 18.9781C0.978937 19.1333 0.973159 19.3415 1.0656 19.535C1.1176 19.6439 1.15474 19.7569 1.19023 19.8667C1.21499 19.9431 1.23893 20.0154 1.26699 20.0854C1.32972 20.2431 1.38832 20.4057 1.44445 20.5626C1.57403 20.9235 1.70857 21.2967 1.90088 21.6235C2.66601 22.9186 3.85538 23.5796 5.43762 23.5885C8.37762 23.604 11.3671 23.6007 14.2593 23.5967C15.2679 23.5959 16.2765 23.5942 17.2859 23.5942H17.2975C17.5145 23.5942 17.7382 23.5942 17.9512 23.565C19.5994 23.3406 20.7302 22.491 21.3121 21.0382C21.4087 20.7983 21.497 20.5496 21.582 20.3081C21.653 20.1073 21.7273 19.8992 21.8057 19.6959C21.8453 19.5943 21.9542 19.4935 22.0607 19.4618C22.4891 19.3333 22.9381 19.2106 23.3945 19.0959C23.4985 19.0699 23.6446 19.1081 23.7214 19.1813C24.1332 19.5764 24.6285 19.6951 25.1922 19.5341C27.2713 18.9423 29.4842 18.3065 31.957 17.5911C32.6957 17.3773 33.1373 16.6317 32.9615 15.8936C32.869 15.5058 32.6338 15.1862 32.2995 14.9936H32.2954ZM20.7946 19.7805C20.7657 19.8642 20.7368 19.948 20.7087 20.0325C20.4785 20.7138 20.2408 21.4179 19.6259 21.9284C19.0035 22.4447 18.2599 22.7064 17.4171 22.7073C15.5113 22.7073 13.6047 22.7081 11.6989 22.7081C9.63714 22.7081 7.57618 22.7081 5.51438 22.7081C4.57015 22.7081 3.77036 22.3951 3.1373 21.7788C3.06879 21.7122 3.00689 21.6398 2.94664 21.5699C2.61236 21.1821 2.45058 20.7162 2.29459 20.265C2.24011 20.1073 2.18316 19.9447 2.12043 19.7862L2.05936 19.6341H20.8466L20.7954 19.7813L20.7946 19.7805ZM32.0767 16.3131C32.0321 16.5383 31.8852 16.683 31.6277 16.757C30.9979 16.9374 30.3681 17.1187 29.7384 17.3008L28.8379 17.561C27.566 17.9269 26.2949 18.2935 25.023 18.6585C24.9644 18.6756 24.905 18.6886 24.862 18.6984C24.8464 18.7016 24.8323 18.7049 24.8216 18.7073L24.7968 18.7106C24.7968 18.7106 24.7894 18.7106 24.7861 18.7106C24.4956 18.7106 24.2678 18.5342 24.2191 18.2699C24.1712 18.0106 24.3247 17.7602 24.5855 17.6748C24.8365 17.5927 25.094 17.5195 25.3424 17.4496C25.4258 17.426 25.51 17.4025 25.5933 17.3781C26.1141 17.2277 26.6341 17.0781 27.1549 16.9285C28.5242 16.535 29.9406 16.1277 31.3305 15.7188C31.5451 15.6553 31.763 15.6984 31.9141 15.8326C32.0519 15.9562 32.1138 16.1358 32.0783 16.3139L32.0767 16.3131Z" fill="#1B8158"/>
<path d="M11.1444 13.9675C11.3176 13.8983 11.4064 13.7607 11.4079 13.5588C11.4101 13.2307 11.5137 12.9263 11.7254 12.6275C11.7802 12.551 11.8275 12.4744 11.8675 12.4004C12.3145 11.5724 12.3108 10.7697 11.8571 9.94832C11.8209 9.8832 11.7802 9.82132 11.7372 9.7562C11.6995 9.69921 11.6603 9.63978 11.6247 9.57791C11.3302 9.06911 11.3309 8.55379 11.6262 8.04661C11.6706 7.97009 11.7187 7.89601 11.7654 7.82437C11.8016 7.76901 11.8371 7.71365 11.8719 7.65748C12.091 7.29847 12.1968 6.88736 12.1865 6.43717C12.1813 6.1905 12.0148 6.00733 11.7905 6C11.7868 6 11.7831 6 11.7794 6C11.6721 6 11.5641 6.04803 11.4871 6.13025C11.4412 6.1791 11.3872 6.26051 11.3864 6.37529C11.3857 6.84177 11.191 7.18857 10.9816 7.49466C10.6515 7.97579 10.5375 8.55054 10.6323 9.25065C10.6907 9.68212 10.9002 10.0314 11.117 10.344C11.3257 10.6452 11.4094 10.9993 11.365 11.3974C11.3302 11.7092 11.1725 11.9437 11.0208 12.1708L11.0105 12.1854C10.7411 12.5868 10.6086 12.9938 10.6056 13.4294V13.4367C10.5916 13.6467 10.6234 13.7705 10.7144 13.8649C10.8439 13.9984 10.9846 14.0326 11.1444 13.9691V13.9675Z" fill="#1B8158"/>
<path d="M8.63453 9.89433C8.6181 9.86908 8.60167 9.84301 8.58598 9.81776C8.54789 9.7583 8.51205 9.70128 8.47396 9.64671C8.27157 9.36243 8.19166 9.02928 8.2275 8.62771C8.25588 8.31656 8.40525 8.0779 8.55611 7.86042C8.86081 7.42138 9.0057 6.97175 8.99973 6.4871C8.99599 6.19875 8.83542 6.00326 8.60017 6C8.59793 6 8.59569 6 8.59345 6C8.35745 6 8.18867 6.19223 8.18344 6.46999C8.17746 6.7673 8.09457 7.0304 7.92877 7.27394C7.87575 7.35133 7.82421 7.43278 7.77343 7.51098L7.74729 7.5517C7.44184 8.02821 7.33952 8.58454 7.43362 9.25247C7.48217 9.59621 7.62108 9.91469 7.88471 10.2861C8.10801 10.6005 8.2051 10.9345 8.18045 11.3059C8.1573 11.6554 7.99673 11.9234 7.85932 12.118C7.53594 12.5758 7.38583 13.0466 7.40151 13.5557C7.40898 13.8115 7.56731 13.9899 7.79434 13.9996C7.90861 14.0045 8.01914 13.9613 8.09681 13.8807C8.14535 13.831 8.2036 13.7439 8.20659 13.6119C8.21705 13.137 8.42317 12.7819 8.60241 12.5261C8.87724 12.1327 9.01018 11.6839 8.99823 11.1919V11.1886V11.1854C9.01167 10.7219 8.88919 10.2878 8.63453 9.89352V9.89433Z" fill="#1B8158"/>
<path d="M15.8049 12.5186C16.0606 12.1547 16.1899 11.7345 16.1996 11.2354C16.21 10.6948 16.0658 10.216 15.7574 9.77226C15.611 9.56138 15.4653 9.32933 15.4318 9.02644C15.3865 8.61282 15.4712 8.26271 15.692 7.95737C16.0398 7.47536 16.2055 6.99253 16.1988 6.48202C16.1951 6.206 16.0346 6.00814 15.8079 6C15.8027 6 15.7982 6 15.793 6C15.6875 6 15.5894 6.04071 15.5173 6.11562C15.4363 6.19948 15.3895 6.32243 15.3865 6.46085C15.3798 6.75966 15.301 7.01858 15.1464 7.25064C15.0677 7.3687 15 7.47454 14.9383 7.57306C14.6909 7.97284 14.5824 8.42799 14.6076 8.96537C14.6277 9.39528 14.7659 9.80239 15.0312 10.2111C15.1457 10.3878 15.2728 10.5946 15.3375 10.825C15.4586 11.259 15.3716 11.6865 15.0788 12.096C14.7726 12.5235 14.6203 12.9461 14.6128 13.3874V13.398C14.6106 13.4118 14.6091 13.4265 14.6069 13.4403C14.6032 13.4664 14.6002 13.4908 14.6002 13.5128C14.5957 13.7806 14.757 13.9801 14.9919 13.9989C15.0996 14.0078 15.2133 13.9638 15.2951 13.8832C15.3627 13.8157 15.4014 13.7293 15.4036 13.6398C15.4125 13.253 15.5403 12.8972 15.8064 12.5186H15.8049Z" fill="#1B8158"/>
</svg>
