<svg width="33" height="33" viewBox="0 0 33 33" fill="none" xmlns="http://www.w3.org/2000/svg">
<path d="M28.5369 4.77472C28.4786 4.73395 28.4317 4.68344 28.391 4.63824C28.3733 4.61874 28.3565 4.60013 28.338 4.58241C28.231 4.47695 28.1293 4.35908 28.0311 4.24476C27.8119 3.98952 27.6049 3.74936 27.3529 3.64567C27.108 3.54552 26.8065 3.56325 26.4873 3.58275C26.3131 3.59338 26.1336 3.60402 25.9585 3.59427C25.9444 3.59427 25.9293 3.59338 25.9161 3.59338C25.7419 3.59338 25.6137 3.65542 25.458 3.81316C21.5489 7.76041 17.3957 11.9478 12.7615 16.6138C11.8304 17.5514 10.8816 18.5023 9.96377 19.4222C9.03268 20.3563 8.06976 21.3214 7.12453 22.2732C7.01311 22.3858 6.92292 22.516 6.87075 22.641C6.24295 24.1511 5.60278 25.7162 5.03864 27.0969C4.88832 27.4656 4.73977 27.8378 4.58238 28.2313C4.54171 28.3323 4.50103 28.436 4.45947 28.5406L5.42063 28.1471C7.02284 27.4913 8.67899 26.8133 10.3051 26.1398C10.4483 26.0804 10.5969 25.9776 10.7224 25.8509C12.4785 24.0829 14.2337 22.314 15.9889 20.5442C17.8829 18.6344 19.8415 16.659 21.7699 14.719C23.0211 13.4606 24.3006 12.1889 25.5385 10.9588C26.0257 10.474 26.5129 9.99015 27.0001 9.50538C27.0461 9.4593 27.0974 9.42031 27.1381 9.38929C27.154 9.37688 27.1681 9.36625 27.1814 9.35561L27.2734 9.28028L28.1991 10.1709L22.9044 15.4892L23.4906 16.0927C23.5455 16.0413 23.5976 15.9925 23.6463 15.9429C23.8797 15.7019 24.1123 15.4599 24.3457 15.2189C24.786 14.7616 25.2405 14.2892 25.6941 13.8302C26.3838 13.1318 27.0886 12.4255 27.7712 11.7431C28.093 11.4205 28.4149 11.0988 28.7368 10.7753C28.8862 10.6256 28.9711 10.404 28.9702 10.1674C28.9693 9.94141 28.8871 9.73137 28.7456 9.59223C28.5626 9.41233 28.3769 9.23775 28.1788 9.05252C28.0877 8.96745 27.9958 8.8806 27.9012 8.79109L27.8004 8.69538L27.8985 8.597C28.032 8.46407 28.162 8.33557 28.2893 8.20972C28.6227 7.88005 28.9366 7.56987 29.2372 7.24817C29.3035 7.17727 29.3557 7.04877 29.3867 6.87773C29.5511 5.97201 29.2735 5.28518 28.5378 4.77649L28.5369 4.77472ZM6.2235 26.9684L6.03162 26.7859L7.62588 22.9255L9.9956 25.3803L6.2235 26.9684ZM26.6509 8.81059C26.6022 8.84426 26.5571 8.87351 26.5156 8.90009C26.4431 8.94618 26.3856 8.9834 26.3423 9.02594L25.8011 9.56742C24.2378 11.1307 22.6206 12.7481 21.0369 14.3442C20.0652 15.3243 19.0792 16.324 18.1261 17.29C16.9288 18.5041 15.69 19.759 14.4671 20.9891C13.7005 21.7601 12.9109 22.5338 12.1478 23.2817C11.7402 23.6814 11.3317 24.082 10.9249 24.4835L10.9081 24.5003C10.833 24.5747 10.7392 24.6687 10.6101 24.6687H10.6066C10.5235 24.6678 10.443 24.6279 10.3687 24.5499C9.86916 24.0279 9.37046 23.5042 8.86026 22.9689L8.22185 22.2998L8.30762 22.2068C8.31646 22.197 8.32884 22.1837 8.3421 22.1678C8.38366 22.1208 8.44644 22.0508 8.51364 21.9834C9.2281 21.2665 9.94432 20.5495 10.6597 19.8334C12.0337 18.4571 13.4547 17.0347 14.8473 15.631C16.874 13.5891 18.9316 11.51 20.9211 9.50007C21.8911 8.5199 22.8611 7.53974 23.832 6.55957C24.0008 6.38942 24.0937 6.29548 24.2246 6.29459C24.3537 6.29459 24.4465 6.38676 24.6136 6.55337L26.7835 8.71842L26.6509 8.81059ZM28.3848 6.94774C28.1558 7.19145 27.9082 7.42276 27.6686 7.6452C27.5643 7.7418 27.4608 7.83928 27.3582 7.93677L27.2628 8.02805L24.8877 5.64854L24.9744 5.55371C25.0725 5.44648 25.1698 5.3357 25.2688 5.22403C25.5093 4.95196 25.7569 4.67103 26.0293 4.41403C26.3096 4.14904 26.81 4.2421 27.0709 4.50176C27.4962 4.92626 27.9206 5.35165 28.3442 5.77704C28.6837 6.11823 28.7005 6.61009 28.3831 6.94774H28.3848Z" fill="#1B8158"/>
</svg>
