<svg width="33" height="33" viewBox="0 0 33 33" fill="none" xmlns="http://www.w3.org/2000/svg">
<path d="M15.6708 7.23012L3.75093 7.13884C3.3517 7.13573 3.02957 6.86084 3.03274 6.52476L3.04964 4.34953C3.0528 4.01344 3.3781 3.74374 3.77733 3.74685L15.6972 3.83814C16.0964 3.84125 16.4186 4.11613 16.4154 4.45222L16.3985 6.62745C16.3953 6.96354 16.07 7.23324 15.6708 7.23012V7.23012Z" stroke="#1B8158" stroke-width="0.6" stroke-miterlimit="10"/>
<path d="M16.1049 4.97184L3.27881 4.88159" stroke="#1B8158" stroke-width="0.6" stroke-miterlimit="10"/>
<path d="M16.0933 6.07151L3 5.97815" stroke="#1B8158" stroke-width="0.6" stroke-miterlimit="10"/>
<path d="M5.58643 7.15747C6.11345 8.28813 7.7653 9.12109 9.73082 9.13561C11.6953 9.15013 13.3619 8.34207 13.9069 7.22075" stroke="#1B8158" stroke-width="0.6" stroke-miterlimit="10"/>
<path d="M12.5561 8.54749C12.5561 8.54749 13.2669 11.3109 11.1895 13.8097" stroke="#1B8158" stroke-width="0.6" stroke-miterlimit="10"/>
<path d="M8.27456 13.7859C6.25728 11.6615 6.99448 8.50598 6.99448 8.50598M8.27456 13.7859L8.14993 29.557C8.14359 30.3444 8.79525 30.9937 9.59687 30.9999C10.3985 31.0062 11.0597 30.3661 11.066 29.5799L11.1906 13.8108" stroke="#1B8158" stroke-width="0.6" stroke-miterlimit="10"/>
<path d="M14.0831 11.1625L14.0827 11.2185C14.0714 12.6965 15.2822 13.9036 16.7871 13.9147L23.1387 13.9616C24.6436 13.9726 25.8727 12.7835 25.884 11.3055L25.8844 11.2495C25.8957 9.77145 24.6849 8.56429 23.18 8.5532L16.8284 8.50638C15.3235 8.49529 14.0944 9.68446 14.0831 11.1625Z" stroke="#1B8158" stroke-width="0.6" stroke-miterlimit="10"/>
<path d="M22.4356 12.8285L17.5034 12.7922C16.5486 12.7849 15.7807 12.0111 15.7881 11.062L15.7903 10.7612C15.7934 10.3027 15.9782 9.8867 16.275 9.5807C16.5919 9.25395 17.0386 9.05271 17.5308 9.05582L22.4631 9.09213C23.4179 9.09939 24.1857 9.87426 24.1783 10.8224L24.1762 11.1232C24.1688 12.0713 23.3894 12.8347 22.4346 12.8285H22.4356Z" stroke="#1B8158" stroke-width="0.6" stroke-miterlimit="10"/>
<path d="M24.0371 10.451L15.9458 10.3856H15.9363" stroke="#1B8158" stroke-width="0.6" stroke-miterlimit="10"/>
<path d="M16.0132 11.5162L23.8943 11.6075" stroke="#1B8158" stroke-width="0.6" stroke-miterlimit="10"/>
<path d="M17.8201 13.9208C17.8201 13.9208 18.1264 14.4104 18.4041 15.0743" stroke="#1B8158" stroke-width="0.6" stroke-miterlimit="10"/>
<path d="M21.5767 15.0555C21.8608 14.4062 22.1597 13.955 22.1597 13.955" stroke="#1B8158" stroke-width="0.6" stroke-miterlimit="10"/>
<path d="M20.0455 31C24.0209 30.6536 21.3499 19.7556 21.2326 18.764C21.0784 17.459 21.7945 16.1417 22.0659 15.4871C22.1536 15.2765 21.9582 15.0577 21.6804 15.0566H21.5759L19.9927 15.0463" stroke="#1B8158" stroke-width="0.6" stroke-miterlimit="10"/>
<path d="M20.0456 31C16.0659 30.6795 18.6673 19.7639 18.7782 18.7712C18.9239 17.4653 18.1983 16.1531 17.9237 15.4996C17.835 15.29 18.0293 15.0701 18.3071 15.066L19.9938 15.0442" stroke="#1B8158" stroke-width="0.6" stroke-miterlimit="10"/>
<path d="M18.5814 3.67614L18.581 3.73215C18.5697 5.21016 19.7805 6.41732 21.2854 6.42841L27.637 6.47523C29.1419 6.48632 30.371 5.29715 30.3823 3.81914L30.3827 3.76313C30.394 2.28512 29.1832 1.07797 27.6783 1.06687L21.3267 1.02006C19.8218 1.00896 18.5927 2.19813 18.5814 3.67614Z" stroke="#1B8158" stroke-width="0.6" stroke-miterlimit="10"/>
<path d="M26.9337 5.34315L22.0014 5.30684C21.0466 5.29958 20.2788 4.52575 20.2862 3.57662L20.2883 3.2758C20.2915 2.81731 20.4763 2.40135 20.7731 2.09535C21.0899 1.7686 21.5367 1.56736 22.0289 1.57047L26.9612 1.60678C27.9159 1.61404 28.6838 2.3889 28.6764 3.337L28.6743 3.63782C28.6669 4.58592 27.8874 5.34937 26.9326 5.34315H26.9337Z" stroke="#1B8158" stroke-width="0.6" stroke-miterlimit="10"/>
<path d="M28.5349 2.9647L20.4437 2.90039H20.4331" stroke="#1B8158" stroke-width="0.6" stroke-miterlimit="10"/>
<path d="M20.51 4.03101L28.3922 4.12229" stroke="#1B8158" stroke-width="0.6" stroke-miterlimit="10"/>
</svg>
