<svg width="55" height="55" viewBox="0 0 55 55" fill="none" xmlns="http://www.w3.org/2000/svg">
<g clip-path="url(#clip0_7030_33303)">
<path d="M9.61985 40.25C9.41986 40.25 9.22986 40.16 9.10986 39.99C1.99986 29.96 4.34985 16 14.3599 8.87C18.0899 6.22 22.6699 4.75 27.2699 4.75C32.3499 4.75 37.1499 6.23 40.7899 8.92C41.0699 9.13 41.1299 9.52 40.9199 9.79C40.7099 10.07 40.3199 10.13 40.0499 9.92C36.6299 7.39 32.0899 5.99 27.2699 5.99C22.9299 5.99 18.5999 7.37 15.0799 9.87C5.63986 16.62 3.40986 29.8 10.1299 39.26C10.3299 39.54 10.2599 39.93 9.97986 40.13C9.86985 40.21 9.73985 40.25 9.61985 40.25Z" fill="#1B8158"/>
<path d="M27.0196 49.3502C22.2596 49.3502 17.7096 47.8802 13.8496 45.0802C13.5696 44.8802 13.5096 44.4902 13.7096 44.2102C13.9096 43.9302 14.2996 43.8702 14.5796 44.0702C18.2896 46.7602 22.6996 48.1602 27.2596 48.1002C31.8696 48.1002 36.2296 46.6602 39.8896 43.9202C49.1296 36.9502 51.0296 23.7302 44.1096 14.4402C43.8996 14.1602 43.9596 13.7702 44.2396 13.5602C44.5196 13.3502 44.9096 13.4102 45.1196 13.6902C52.4396 23.5202 50.4396 37.5302 40.6396 44.9102C36.6996 47.8602 31.9896 49.3602 27.0196 49.3402V49.3502Z" fill="#1B8158"/>
<path d="M32.9696 11.1499C32.6696 11.1499 32.3996 10.9299 32.3496 10.6199C32.2996 10.2799 32.5296 9.95985 32.8696 9.90985L39.4696 8.88985L36.4096 2.90985C36.2496 2.59985 36.3696 2.22985 36.6796 2.06985C36.9896 1.90985 37.3596 2.02985 37.5196 2.33985L40.9696 9.08985C41.0596 9.26985 41.0596 9.47985 40.9696 9.65985C40.8796 9.83985 40.7096 9.95985 40.5096 9.98985L33.0596 11.1399C33.0596 11.1399 32.9996 11.1399 32.9596 11.1399L32.9696 11.1499Z" fill="#1B8158"/>
<path d="M18.1199 52.6499C17.8899 52.6499 17.6799 52.5299 17.5699 52.3199L13.6699 44.8699C13.5799 44.6899 13.5699 44.4799 13.6699 44.2999C13.7699 44.1199 13.9299 43.9899 14.1299 43.9599L21.8299 42.7099C22.1599 42.6499 22.4899 42.8899 22.5499 43.2299C22.6099 43.5699 22.3699 43.8899 22.0299 43.9499L15.1899 45.0599L18.6899 51.7399C18.8499 52.0499 18.7299 52.4199 18.4299 52.5799C18.3399 52.6299 18.2399 52.6499 18.1399 52.6499H18.1199Z" fill="#1B8158"/>
</g>
<defs>
<clipPath id="clip0_7030_33303">
<rect width="44.53" height="50.65" fill="white" transform="translate(5 2)"/>
</clipPath>
</defs>
</svg>
