<svg xmlns="http://www.w3.org/2000/svg" width="23" height="33" viewBox="0 0 23 33" fill="none">
    <path d="M13.0867 0.158231H13.1526C11.8347 -0.0789892 10.5168 -0.0394524 9.22524 0.184589H9.15934C3.86142 1.17301 0 5.78563 0 11.1626C0 23.0632 11.1757 33.0133 11.1757 33.0133C11.1757 33.0133 22.3383 23.0632 22.3383 11.1626C22.3383 5.71973 18.4241 1.08076 13.0867 0.158231ZM11.1757 17.0931C7.88099 17.0931 5.24521 14.431 5.24521 11.1626C5.24521 7.89425 7.90735 5.23211 11.1757 5.23211C14.4441 5.23211 17.1062 7.90743 17.1062 11.1626C17.1062 14.4178 14.4704 17.0931 11.1757 17.0931Z" fill="#1B8158"/>
</svg>
