<svg width="40" height="40" viewBox="0 0 40 40" fill="none" xmlns="http://www.w3.org/2000/svg">
<path d="M27.1675 16.8001C28.287 17.0145 29.3947 16.3767 29.7713 15.3008L31.7366 9.68689C31.9108 9.18923 31.3724 8.74305 30.9157 9.00673L29.4442 9.85626L25.5648 3.13678C25.0866 2.30858 24.203 1.79834 23.2466 1.79834H17.2761C16.3197 1.79834 15.436 2.30858 14.9578 3.13678L10.7942 10.3484C10.4277 10.9831 10.6453 11.7949 11.28 12.1614L15.781 14.76C16.4159 15.1266 17.2278 14.9089 17.5942 14.2739L20.2603 9.65306L22.6443 13.7823L21.1681 14.6346C20.712 14.8979 20.8282 15.5862 21.3455 15.6853L27.1675 16.8001Z" fill="#1B8158"/>
<path d="M39.6517 29.319C40.1237 28.4871 40.1159 27.4666 39.6312 26.6419L35.4142 19.4658C35.043 18.8338 34.2298 18.6223 33.5977 18.9935L29.1161 21.6254C28.4839 21.9966 28.2725 22.8101 28.644 23.4423L31.3469 28.0417L26.579 28.077L26.5663 26.3725C26.5624 25.8458 25.9064 25.6072 25.565 26.0081L21.7218 30.5214C20.9828 31.3893 20.9908 32.6674 21.7406 33.526L25.653 38.0061C25.9998 38.4033 26.6536 38.1552 26.6497 37.6279L26.6371 35.9288L34.3955 35.8713C35.352 35.8642 36.2321 35.3473 36.7041 34.5153L39.6517 29.319Z" fill="#1B8158"/>
<path d="M13.9888 28.1065L8.654 28.0849L11.056 23.966L12.5284 24.8247C12.9833 25.09 13.5233 24.6475 13.3526 24.1493L11.4313 18.5414C11.0619 17.4631 9.95853 16.8179 8.83759 17.0248L2.98845 18.1043C2.46994 18.2 2.3497 18.8888 2.80525 19.1545L4.27298 20.0104L0.364468 26.7126C-0.117407 27.5389 -0.121704 28.5596 0.353061 29.3899L3.31869 34.5761C3.79345 35.4064 4.67517 35.9203 5.63158 35.9242L13.9549 35.958C14.688 35.9612 15.2847 35.3696 15.2879 34.6366L15.3105 29.4394C15.3138 28.7063 14.7219 28.1095 13.9888 28.1065Z" fill="#1B8158"/>
</svg>
