<svg width="101" height="88" viewBox="0 0 101 88" fill="none" xmlns="http://www.w3.org/2000/svg">
<path d="M7.2258 55.3797H4.6748V52.9609H12.6738V55.3797H10.1234V61.5088H7.2258V55.3797Z" fill="#1B8158"/>
<path d="M13.8926 52.9609H21.2848V55.3052H16.7379V56.1721H20.9724V58.2352H16.7379V59.1632H21.3442V61.5069H13.8926V52.9609Z" fill="#1B8158"/>
<path d="M23.1621 52.9614H27.3966C28.0447 52.9429 28.6914 53.0315 29.3098 53.2236C29.761 53.3702 30.1734 53.6141 30.5169 53.9378C30.7738 54.1877 30.9761 54.4869 31.1114 54.8168C31.2505 55.1829 31.3177 55.5717 31.3095 55.9626V55.9874C31.3282 56.5507 31.168 57.1057 30.8513 57.5748C30.5317 58.0178 30.1008 58.3712 29.6009 58.6003L31.6194 61.506H28.3132L26.6788 59.0644H26.0597V61.506H23.1621V52.9614ZM27.31 57.0274C27.5994 57.0436 27.8862 56.9666 28.1272 56.8079C28.2237 56.7379 28.3012 56.6456 28.3529 56.5392C28.4047 56.4327 28.4292 56.3154 28.4242 56.1974V56.1733C28.4322 56.054 28.4091 55.9347 28.3571 55.8267C28.3052 55.7188 28.226 55.6258 28.1272 55.5565C27.8858 55.4104 27.6051 55.3401 27.3223 55.3547H26.0591V57.0274H27.31Z" fill="#1B8158"/>
<path d="M32.9346 52.9614H37.1691C37.8172 52.9429 38.4639 53.0315 39.0823 53.2236C39.5335 53.3701 39.9459 53.6141 40.2894 53.9378C40.5463 54.1877 40.7485 54.4869 40.8839 54.8168C41.023 55.1828 41.0903 55.5717 41.082 55.9626V55.9874C41.1008 56.5507 40.9408 57.1056 40.6244 57.5748C40.3046 58.0179 39.8735 58.3713 39.3734 58.6003L41.3919 61.506H38.085L36.4506 59.0644H35.8316V61.506H32.9346V52.9614ZM37.0825 57.0274C37.3719 57.0436 37.6587 56.9665 37.8997 56.8079C37.9963 56.738 38.0739 56.6457 38.1258 56.5393C38.1777 56.4328 38.2022 56.3155 38.1973 56.1974V56.1733C38.2052 56.054 38.1821 55.9346 38.13 55.8267C38.0779 55.7187 37.9986 55.6257 37.8997 55.5565C37.6583 55.4104 37.3776 55.3401 37.0948 55.3547H35.8322V57.0274H37.0825Z" fill="#1B8158"/>
<path d="M45.8514 52.8989H48.7239L52.3767 61.5067H49.2312L48.7736 60.3609H45.7398L45.2937 61.5067H42.1953L45.8514 52.8989ZM48.0551 58.3323L47.2631 56.2566L46.4705 58.3323H48.0551Z" fill="#1B8158"/>
<path d="M57.2254 61.6896C56.6384 61.6923 56.0562 61.5842 55.5103 61.3714C54.9729 61.1635 54.4828 60.8525 54.0684 60.4563C53.654 60.0601 53.3234 59.5866 53.0961 59.0634C52.8473 58.4929 52.7228 57.8772 52.7308 57.2563V57.232C52.7253 56.6242 52.8454 56.0217 53.0839 55.4612C53.3101 54.9292 53.6427 54.4475 54.0619 54.045C54.4846 53.6423 54.9829 53.3249 55.529 53.1106C56.1038 52.8844 56.7176 52.7704 57.3365 52.7751C57.7816 52.7709 58.2252 52.8264 58.6552 52.94C59.038 53.0425 59.4046 53.1965 59.7448 53.3977C60.0662 53.589 60.3582 53.8247 60.6117 54.0978C60.8634 54.3708 61.0815 54.672 61.2617 54.9953L58.8734 56.3747C58.7242 56.0852 58.5153 55.8295 58.2601 55.6242C57.9834 55.4225 57.6446 55.3211 57.3009 55.3371C57.0694 55.3336 56.8404 55.3837 56.6322 55.4835C56.4354 55.5802 56.2621 55.7176 56.1242 55.8865C55.9799 56.065 55.8689 56.2674 55.7963 56.4842C55.7171 56.7163 55.6774 56.9598 55.6788 57.2047V57.2288C55.6758 57.488 55.7155 57.7461 55.7963 57.9927C55.8674 58.2117 55.9809 58.4148 56.1306 58.591C56.2728 58.7559 56.4488 58.8891 56.6471 58.9818C56.8523 59.0768 57.0768 59.1248 57.3035 59.1219C57.6592 59.1399 58.0099 59.034 58.2944 58.8227C58.5569 58.6064 58.7759 58.3434 58.9399 58.0474L61.3282 59.3784C61.1444 59.6984 60.9281 59.9991 60.6827 60.2759C60.4298 60.5611 60.1357 60.8079 59.8099 61.0086C59.4554 61.225 59.0719 61.3914 58.6706 61.5031C58.2003 61.6326 57.7137 61.6953 57.2254 61.6896Z" fill="#1B8158"/>
<path d="M64.844 58.4797L61.5752 52.9604H64.8195L66.3041 55.7688L67.8023 52.9604H71.0097L67.741 58.4428V61.507H64.8433L64.844 58.4797Z" fill="#1B8158"/>
<path d="M75.5906 61.6896C75.0035 61.6923 74.4214 61.5842 73.8755 61.3714C73.3381 61.1636 72.848 60.8525 72.4335 60.4563C72.0191 60.0601 71.6886 59.5866 71.4614 59.0634C71.2126 58.4929 71.0882 57.8772 71.0961 57.2563V57.232C71.0906 56.6242 71.2108 56.0218 71.4491 55.4612C71.6754 54.9292 72.0079 54.4476 72.427 54.045C72.8497 53.6423 73.3481 53.3248 73.8943 53.1106C74.469 52.8844 75.0828 52.7704 75.7016 52.7751C76.1467 52.7709 76.5904 52.8264 77.0204 52.94C77.4032 53.0425 77.7698 53.1965 78.11 53.3977C78.4315 53.5889 78.7234 53.8247 78.9769 54.0978C79.2286 54.3708 79.4468 54.672 79.6269 54.9953L77.2386 56.3747C77.0893 56.0852 76.8804 55.8296 76.6253 55.6242C76.3486 55.4225 76.0099 55.3211 75.6661 55.3371C75.4347 55.3336 75.2056 55.3837 74.9974 55.4835C74.8005 55.58 74.6272 55.7176 74.4894 55.8865C74.3449 56.0649 74.2338 56.2673 74.1615 56.4842C74.0824 56.7163 74.0427 56.9598 74.044 57.2047V57.2288C74.041 57.488 74.0807 57.746 74.1615 57.9927C74.2324 58.2117 74.3461 58.4149 74.4959 58.591C74.638 58.7559 74.814 58.8891 75.0122 58.9818C75.2175 59.0768 75.442 59.1248 75.6687 59.1219C76.0242 59.1399 76.3747 59.0339 76.6589 58.8227C76.9214 58.6064 77.1403 58.3434 77.3044 58.0474L79.6928 59.3784C79.5088 59.6983 79.2926 59.999 79.0473 60.2759C78.7944 60.5611 78.5003 60.8079 78.1745 61.0086C77.82 61.225 77.4365 61.3914 77.0352 61.5031C76.5651 61.6325 76.0786 61.6953 75.5906 61.6896Z" fill="#1B8158"/>
<path d="M81.0439 52.9609H83.9416V59.0664H88.0153V61.5082H81.0439V52.9609Z" fill="#1B8158"/>
<path d="M89.2217 52.9609H96.6139V55.3052H92.0696V56.1721H96.3041V58.2352H92.0696V59.1632H96.6752V61.5069H89.2217V52.9609Z" fill="#1B8158"/>
<path d="M72.2254 12.2874L74.2722 15.0404L55.143 17.6317L62.4306 0L64.806 3.05913C64.806 3.05913 67.5907 1.50155 73.2795 1.4099C86.079 1.20303 96.5399 11.5943 96.5399 24.3113C96.5468 27.3193 95.9523 30.2992 94.7904 33.0804C93.6285 35.8617 91.922 38.3898 89.7685 40.5202C87.615 42.6506 85.0568 44.3415 82.2401 45.4962C79.4234 46.6509 76.4035 47.2468 73.3531 47.2497C60.5722 47.2497 52.4119 35.5606 51.3565 34.2201C49.3942 31.7294 39.8893 20.0893 39.3425 19.3891C38.7958 18.6889 34.6336 12.5516 28.0205 12.5516C26.4678 12.5529 24.9306 12.8567 23.4972 13.4454C22.0639 14.0341 20.7625 14.8962 19.668 15.9822C18.5734 17.0681 17.7071 18.3566 17.1189 19.7737C16.5306 21.1907 16.232 22.7083 16.2402 24.2394C16.2611 26.3668 16.8533 28.4507 17.9566 30.2789C19.0598 32.1071 20.6347 33.6144 22.5209 34.6472C25.232 36.2226 29.01 35.9585 29.5503 35.8751L27.6009 33.3181L46.514 30.7854L39.4393 48.3579L37.0123 45.0703C37.0123 45.0703 33.7887 46.6374 28.0457 46.8309C15.17 47.2637 4.82911 36.553 4.82911 23.8524C4.8264 20.8597 5.4244 17.8961 6.58864 15.1324C7.75288 12.3687 9.46033 9.85955 11.6126 7.7496C13.7648 5.63964 16.3193 3.97061 19.1287 2.83873C21.9381 1.70685 24.947 1.13449 27.9818 1.15465C40.7458 1.15465 46.1544 9.78335 46.7102 10.3842C47.266 10.9851 61.8716 29.5487 62.6139 30.4633C63.7742 32.1155 65.3236 33.4654 67.1292 34.3973C68.9348 35.3292 70.9427 35.8153 72.9806 35.814C74.577 35.8083 76.156 35.4871 77.6242 34.8693C79.0925 34.2515 80.4203 33.3497 81.529 32.2172C82.6378 31.0846 83.505 29.7444 84.0795 28.2757C84.6539 26.8069 84.9239 25.2395 84.8734 23.6662C84.8229 22.0928 84.4531 20.5454 83.7857 19.1154C83.1183 17.6854 82.1669 16.4018 80.9878 15.3406C79.8087 14.2794 78.4258 13.4622 76.9209 12.9371C75.416 12.412 73.8195 12.1898 72.226 12.2836" fill="#1B8158"/>
<path d="M91.032 43.6921C91.2916 43.6907 91.5488 43.7405 91.7885 43.8385C92.0265 43.9387 92.2421 44.084 92.4231 44.2663C92.6004 44.4404 92.7394 44.6486 92.8316 44.878C93.021 45.3499 93.0194 45.8756 92.8272 46.3464C92.7305 46.5769 92.5865 46.7851 92.4043 46.9581C92.2213 47.135 92.0054 47.2754 91.7685 47.3718C91.5346 47.4656 91.2845 47.5138 91.032 47.5138C90.7767 47.5143 90.524 47.4645 90.2884 47.3674C90.0516 47.2656 89.8372 47.1192 89.6571 46.9365C89.4792 46.7618 89.3385 46.5539 89.2434 46.3248C89.0821 45.9347 89.0567 45.5028 89.171 45.0969C89.2194 44.9267 89.2906 44.7635 89.3827 44.6119C89.5493 44.329 89.7893 44.095 90.078 43.934C90.3688 43.7724 90.6976 43.6888 91.0314 43.6915L91.032 43.6921ZM91.0379 44.0097C90.8277 44.0073 90.6191 44.0456 90.424 44.1224C90.2323 44.1999 90.0586 44.3149 89.9134 44.4604C89.7573 44.6112 89.6327 44.7907 89.5467 44.9887C89.3826 45.3752 89.3802 45.81 89.5403 46.1981C89.6207 46.3882 89.7378 46.5612 89.885 46.7073C90.0359 46.859 90.2158 46.9798 90.4143 47.0625C90.6089 47.1462 90.819 47.1895 91.0314 47.1898C91.2395 47.1898 91.4456 47.149 91.6375 47.0695C91.8367 46.9875 92.0192 46.8703 92.1758 46.7238C92.3258 46.5811 92.4456 46.4104 92.5283 46.2216C92.6095 46.0343 92.6516 45.8328 92.6522 45.629C92.654 45.4145 92.6153 45.2014 92.538 45.0008C92.4179 44.706 92.2106 44.4538 91.943 44.277C91.6754 44.1002 91.36 44.0071 91.0379 44.0097ZM90.2316 44.5037H91.0707C91.3113 44.4876 91.5515 44.5414 91.7614 44.6583C91.837 44.7077 91.8981 44.7758 91.9386 44.8558C91.979 44.9358 91.9974 45.0249 91.9918 45.1141C91.9958 45.2446 91.9512 45.372 91.8666 45.4724C91.7765 45.5752 91.6552 45.6466 91.5206 45.6761L92.0029 46.6226H91.4219L91.01 45.7564H90.7519V46.6226H90.2316V44.5037ZM90.7519 44.8308V45.4445H91.01C91.1272 45.4532 91.2444 45.4285 91.3477 45.3732C91.3836 45.3473 91.4121 45.3129 91.4307 45.2731C91.4494 45.2334 91.4574 45.1896 91.4541 45.1459C91.4575 45.0997 91.4486 45.0534 91.4282 45.0116C91.4078 44.9699 91.3768 44.9341 91.338 44.9079C91.2295 44.8488 91.1059 44.822 90.9823 44.8308H90.7519Z" fill="#1B8158"/>
<rect y="68.1001" width="101" height="19.9001" rx="5" fill="#1B8158"/>
<path d="M9.05451 81.969L7.26837 78.7506H6.76679V81.969H4.6748V73.4434H8.18591C8.86285 73.4434 9.43784 73.5608 9.91088 73.7956C10.3921 74.0304 10.7509 74.3543 10.9875 74.7672C11.224 75.172 11.3422 75.6254 11.3422 76.1274C11.3422 76.6941 11.1791 77.2002 10.8529 77.6455C10.5348 78.0908 10.0618 78.4065 9.43376 78.5928L11.4156 81.969H9.05451ZM6.76679 77.2811H8.06357C8.4469 77.2811 8.73235 77.188 8.91994 77.0018C9.11568 76.8156 9.21355 76.5525 9.21355 76.2124C9.21355 75.8886 9.11568 75.6335 8.91994 75.4473C8.73235 75.2611 8.4469 75.168 8.06357 75.168H6.76679V77.2811Z" fill="white"/>
<path d="M19.0904 78.4713C19.0904 78.6656 19.0782 78.868 19.0537 79.0785H14.3193C14.3519 79.4996 14.4865 79.8234 14.723 80.0501C14.9676 80.2687 15.2653 80.378 15.616 80.378C16.138 80.378 16.501 80.1594 16.7048 79.7222H18.9314C18.8172 80.1675 18.6092 80.5683 18.3075 80.9245C18.0139 81.2808 17.6428 81.5601 17.1942 81.7625C16.7456 81.9649 16.244 82.0661 15.6894 82.0661C15.0207 82.0661 14.4253 81.9244 13.9033 81.6411C13.3813 81.3577 12.9735 80.9529 12.6799 80.4266C12.3863 79.9003 12.2395 79.285 12.2395 78.5806C12.2395 77.8762 12.3822 77.2609 12.6677 76.7346C12.9613 76.2084 13.3691 75.8035 13.8911 75.5202C14.413 75.2368 15.0125 75.0951 15.6894 75.0951C16.3501 75.0951 16.9373 75.2327 17.4511 75.508C17.9649 75.7833 18.3646 76.176 18.65 76.6861C18.9436 77.1961 19.0904 77.7912 19.0904 78.4713ZM16.9495 77.9248C16.9495 77.5686 16.8272 77.2852 16.5825 77.0747C16.3378 76.8642 16.032 76.7589 15.665 76.7589C15.3143 76.7589 15.0166 76.8601 14.7719 77.0625C14.5354 77.2649 14.3886 77.5524 14.3315 77.9248H16.9495Z" fill="white"/>
<path d="M19.7781 78.5806C19.7781 77.8762 19.9208 77.2609 20.2063 76.7346C20.4999 76.2084 20.9036 75.8035 21.4174 75.5202C21.9394 75.2368 22.5348 75.0951 23.2036 75.0951C24.06 75.0951 24.7736 75.3178 25.3445 75.7631C25.9236 76.2084 26.3028 76.8358 26.4822 77.6455H24.2557C24.0681 77.1273 23.7052 76.8682 23.1669 76.8682C22.7836 76.8682 22.4777 77.018 22.2493 77.3176C22.021 77.609 21.9068 78.0301 21.9068 78.5806C21.9068 79.1312 22.021 79.5562 22.2493 79.8558C22.4777 80.1473 22.7836 80.293 23.1669 80.293C23.7052 80.293 24.0681 80.0339 24.2557 79.5158H26.4822C26.3028 80.3092 25.9236 80.9326 25.3445 81.386C24.7654 81.8394 24.0518 82.0661 23.2036 82.0661C22.5348 82.0661 21.9394 81.9244 21.4174 81.6411C20.9036 81.3577 20.4999 80.9529 20.2063 80.4266C19.9208 79.9003 19.7781 79.285 19.7781 78.5806Z" fill="white"/>
<path d="M34.5745 75.1923L30.2927 85.1873H28.0417L29.6076 81.7382L26.8305 75.1923H29.1672L30.7453 79.4307L32.3113 75.1923H34.5745Z" fill="white"/>
<path d="M34.9151 78.5806C34.9151 77.8762 35.0578 77.2609 35.3433 76.7346C35.6369 76.2084 36.0406 75.8035 36.5544 75.5202C37.0764 75.2368 37.6718 75.0951 38.3405 75.0951C39.1969 75.0951 39.9105 75.3178 40.4815 75.7631C41.0605 76.2084 41.4398 76.8358 41.6192 77.6455H39.3926C39.2051 77.1273 38.8421 76.8682 38.3038 76.8682C37.9205 76.8682 37.6147 77.018 37.3863 77.3176C37.1579 77.609 37.0438 78.0301 37.0438 78.5806C37.0438 79.1312 37.1579 79.5562 37.3863 79.8558C37.6147 80.1473 37.9205 80.293 38.3038 80.293C38.8421 80.293 39.2051 80.0339 39.3926 79.5158H41.6192C41.4398 80.3092 41.0605 80.9326 40.4815 81.386C39.9024 81.8394 39.1888 82.0661 38.3405 82.0661C37.6718 82.0661 37.0764 81.9244 36.5544 81.6411C36.0406 81.3577 35.6369 80.9529 35.3433 80.4266C35.0578 79.9003 34.9151 79.285 34.9151 78.5806Z" fill="white"/>
<path d="M44.8302 72.9819V81.969H42.7382V72.9819H44.8302Z" fill="white"/>
<path d="M52.7812 78.4713C52.7812 78.6656 52.769 78.868 52.7445 79.0785H48.01C48.0427 79.4996 48.1772 79.8234 48.4137 80.0501C48.6584 80.2687 48.9561 80.378 49.3068 80.378C49.8288 80.378 50.1917 80.1594 50.3956 79.7222H52.6222C52.508 80.1675 52.3 80.5683 51.9983 80.9245C51.7046 81.2808 51.3335 81.5601 50.885 81.7625C50.4364 81.9649 49.9348 82.0661 49.3802 82.0661C48.7114 82.0661 48.1161 81.9244 47.5941 81.6411C47.0721 81.3577 46.6643 80.9529 46.3707 80.4266C46.0771 79.9003 45.9303 79.285 45.9303 78.5806C45.9303 77.8762 46.073 77.2609 46.3585 76.7346C46.6521 76.2084 47.0599 75.8035 47.5818 75.5202C48.1038 75.2368 48.7033 75.0951 49.3802 75.0951C50.0408 75.0951 50.6281 75.2327 51.1419 75.508C51.6557 75.7833 52.0553 76.176 52.3408 76.6861C52.6344 77.1961 52.7812 77.7912 52.7812 78.4713ZM50.6403 77.9248C50.6403 77.5686 50.518 77.2852 50.2733 77.0747C50.0286 76.8642 49.7228 76.7589 49.3558 76.7589C49.005 76.7589 48.7074 76.8601 48.4627 77.0625C48.2262 77.2649 48.0794 77.5524 48.0223 77.9248H50.6403Z" fill="white"/>
<path d="M62.6799 78.6535H60.5512V80.8152H58.5693V78.6535H56.4407V76.7954H58.5693V74.6215H60.5512V76.7954H62.6799V78.6535Z" fill="white"/>
<path d="M69.8592 82.054C69.2312 82.054 68.6685 81.9528 68.171 81.7504C67.6735 81.548 67.2738 81.2484 66.9721 80.8517C66.6784 80.4549 66.5235 79.9773 66.5072 79.4186H68.7337C68.7663 79.7344 68.8765 79.9773 69.064 80.1473C69.2516 80.3092 69.4963 80.3902 69.7981 80.3902C70.108 80.3902 70.3527 80.3214 70.5321 80.1837C70.7115 80.038 70.8012 79.8396 70.8012 79.5886C70.8012 79.3781 70.7278 79.204 70.581 79.0664C70.4424 78.9288 70.267 78.8154 70.055 78.7264C69.8511 78.6373 69.5575 78.5361 69.1741 78.4227C68.6195 78.2527 68.1669 78.0827 67.8162 77.9127C67.4655 77.7426 67.1637 77.4916 66.9109 77.1597C66.6581 76.8277 66.5316 76.3946 66.5316 75.8602C66.5316 75.0668 66.8212 74.4474 67.4002 74.0021C67.9793 73.5487 68.7337 73.322 69.6635 73.322C70.6096 73.322 71.3722 73.5487 71.9512 74.0021C72.5303 74.4474 72.8402 75.0708 72.881 75.8724H70.6177C70.6014 75.5971 70.4995 75.3825 70.3119 75.2287C70.1243 75.0668 69.8837 74.9858 69.5901 74.9858C69.3373 74.9858 69.1334 75.0546 68.9784 75.1923C68.8234 75.3218 68.746 75.5121 68.746 75.7631C68.746 76.0383 68.8765 76.2529 69.1374 76.4067C69.3984 76.5606 69.8062 76.7265 70.3608 76.9047C70.9154 77.0909 71.364 77.269 71.7065 77.439C72.0573 77.609 72.359 77.856 72.6118 78.1798C72.8647 78.5037 72.9911 78.9207 72.9911 79.4307C72.9911 79.9165 72.8647 80.3578 72.6118 80.7545C72.3672 81.1512 72.0083 81.467 71.5353 81.7018C71.0622 81.9366 70.5036 82.054 69.8592 82.054Z" fill="white"/>
<path d="M73.8626 78.5685C73.8626 77.8722 73.9931 77.2609 74.254 76.7346C74.5232 76.2084 74.8861 75.8035 75.3429 75.5202C75.7996 75.2368 76.3093 75.0951 76.8721 75.0951C77.3533 75.0951 77.7733 75.1923 78.1322 75.3866C78.4992 75.5809 78.7806 75.8359 78.9763 76.1517V75.1923H81.0683V81.969H78.9763V81.0095C78.7724 81.3253 78.4869 81.5803 78.1199 81.7747C77.7611 81.969 77.341 82.0661 76.8598 82.0661C76.3052 82.0661 75.7996 81.9244 75.3429 81.6411C74.8861 81.3496 74.5232 80.9407 74.254 80.4145C73.9931 79.8801 73.8626 79.2648 73.8626 78.5685ZM78.9763 78.5806C78.9763 78.0624 78.8295 77.6536 78.5359 77.354C78.2504 77.0544 77.8997 76.9047 77.4838 76.9047C77.0678 76.9047 76.713 77.0544 76.4194 77.354C76.134 77.6455 75.9912 78.0503 75.9912 78.5685C75.9912 79.0866 76.134 79.4996 76.4194 79.8072C76.713 80.1068 77.0678 80.2566 77.4838 80.2566C77.8997 80.2566 78.2504 80.1068 78.5359 79.8072C78.8295 79.5077 78.9763 79.0988 78.9763 78.5806Z" fill="white"/>
<path d="M85.6524 80.0258L87.1327 75.1923H89.3593L86.937 81.969H84.3556L81.9333 75.1923H84.1721L85.6524 80.0258Z" fill="white"/>
<path d="M96.6748 78.4713C96.6748 78.6656 96.6626 78.868 96.6381 79.0785H91.9036C91.9362 79.4996 92.0708 79.8234 92.3073 80.0501C92.552 80.2687 92.8497 80.378 93.2004 80.378C93.7224 80.378 94.0853 80.1594 94.2892 79.7222H96.5158C96.4016 80.1675 96.1936 80.5683 95.8918 80.9245C95.5982 81.2808 95.2271 81.5601 94.7786 81.7625C94.33 81.9649 93.8284 82.0661 93.2738 82.0661C92.605 82.0661 92.0096 81.9244 91.4877 81.6411C90.9657 81.3577 90.5579 80.9529 90.2643 80.4266C89.9707 79.9003 89.8239 79.285 89.8239 78.5806C89.8239 77.8762 89.9666 77.2609 90.2521 76.7346C90.5457 76.2084 90.9535 75.8035 91.4754 75.5202C91.9974 75.2368 92.5969 75.0951 93.2738 75.0951C93.9344 75.0951 94.5217 75.2327 95.0355 75.508C95.5493 75.7833 95.9489 76.176 96.2344 76.6861C96.528 77.1961 96.6748 77.7912 96.6748 78.4713ZM94.5339 77.9248C94.5339 77.5686 94.4115 77.2852 94.1669 77.0747C93.9222 76.8642 93.6163 76.7589 93.2493 76.7589C92.8986 76.7589 92.6009 76.8601 92.3563 77.0625C92.1198 77.2649 91.9729 77.5524 91.9158 77.9248H94.5339Z" fill="white"/>
</svg>
