<svg width="228" height="201" viewBox="0 0 228 201" fill="none" xmlns="http://www.w3.org/2000/svg">
<g clip-path="url(#clip0_4337_6647)">
<path d="M161.521 12.6964C161.521 12.6964 168.576 11.2144 175.315 14.2984C182.093 17.3824 188 24.2312 188 24.2312L179.041 31.04C179.041 31 179.557 19.9858 161.521 12.6964Z" fill="#FBE5A8"/>
<path d="M161.52 18.2636L160.093 12.2558L164.176 7.68991C164.652 7.16924 164.295 6.32815 163.621 6.2881L157.517 5.80748L154.504 0.440555C154.147 -0.160221 153.275 -0.120169 152.998 0.520658L150.659 6.208L144.673 7.48965C143.999 7.64986 143.762 8.49094 144.317 8.97156L148.954 12.9767L148.32 19.1046C148.241 19.7855 148.994 20.2661 149.589 19.9057L154.821 16.7015L160.371 19.2248C161.005 19.5452 161.679 18.9444 161.52 18.2636Z" fill="#F9CA58"/>
</g>
<g clip-path="url(#clip1_4337_6647)">
<path d="M79.7074 9.34938C77.17 14.9339 81.8705 21.4285 87.4029 22.6695C93.5177 24.076 100.09 20.7253 102.752 15.1407C105.664 9.10118 103.376 2.85478 97.5943 0.620963C91.9786 -1.57148 86.6958 2.44111 86.8206 8.06701C86.9038 12.121 89.8572 14.5202 91.8954 14.0238C93.4761 13.6102 94.0169 11.5832 92.4778 10.7559C91.8539 10.4249 91.1051 10.5904 90.6059 10.9627C89.358 9.96988 88.8172 7.03283 90.5643 4.55082C92.8106 1.36557 97.3447 2.52384 99.6326 5.00586C102.544 8.14974 101.712 12.8242 99.3414 16.0508C96.8455 19.4015 92.1866 21.263 88.0685 20.3116C83.368 19.2361 80.4146 14.5202 81.4129 9.88715C81.5793 8.77024 80.165 8.35658 79.7074 9.34938Z" fill="#9CDBE3"/>
</g>
<g clip-path="url(#clip2_4337_6647)">
<path d="M12.9036 119.528L8.60252 113.329H1.07564C0.201983 113.329 -0.268447 112.318 0.269187 111.644L4.83908 105.647L2.41972 98.4367C2.15091 97.6281 2.95736 96.8194 3.76381 97.1564L10.8875 99.6496L17.0031 95.2022C17.6751 94.6631 18.6832 95.2022 18.6832 96.0782L18.4816 103.625L24.5971 108.073C25.2692 108.545 25.1348 109.69 24.2611 109.892L17.0031 112.049L14.7181 119.259C14.4493 120.067 13.374 120.27 12.9036 119.528Z" fill="#A9DE98"/>
</g>
<g clip-path="url(#clip3_4337_6647)">
<path d="M212.35 74.7263L206.762 72.4436L201.713 75.7256C201.127 76.1065 200.371 75.6337 200.438 74.9473L200.888 68.9321L196.121 65.1509C195.588 64.7258 195.777 63.8318 196.465 63.7061L202.33 62.2723L204.492 56.6226C204.708 55.968 205.619 55.8901 206.001 56.4776L209.157 61.6276L215.198 61.944C215.854 61.9674 216.264 62.7943 215.766 63.3109L211.838 67.9219L213.449 73.7544C213.622 74.4139 212.989 75.0184 212.35 74.7263Z" fill="#A9DE98"/>
</g>
<g clip-path="url(#clip4_4337_6647)">
<path d="M203.699 115.351C201.19 120.943 205.859 127.42 211.387 128.684C217.518 130.074 224.093 126.725 226.73 121.133C229.62 115.067 227.333 108.843 221.552 106.6C215.929 104.42 210.688 108.401 210.783 114.056C210.847 118.1 213.833 120.501 215.834 119.995C217.422 119.616 217.93 117.563 216.437 116.741C215.834 116.394 215.072 116.552 214.563 116.962C213.324 115.983 212.753 113.013 214.5 110.549C216.723 107.39 221.266 108.527 223.553 111.023C226.444 114.182 225.65 118.858 223.235 122.049C220.726 125.398 216.088 127.262 211.958 126.314C207.321 125.24 204.335 120.532 205.351 115.857C205.605 114.751 204.144 114.372 203.699 115.351Z" fill="#9CDBE3"/>
</g>
<g clip-path="url(#clip5_4337_6647)">
<path d="M104.699 187.351C102.19 192.943 106.859 199.42 112.387 200.684C118.518 202.074 125.093 198.725 127.73 193.133C130.62 187.067 128.333 180.843 122.552 178.6C116.929 176.42 111.688 180.401 111.783 186.056C111.847 190.1 114.833 192.501 116.834 191.995C118.422 191.616 118.93 189.563 117.437 188.741C116.834 188.394 116.072 188.552 115.563 188.962C114.324 187.983 113.753 185.013 115.5 182.549C117.723 179.39 122.266 180.527 124.553 183.023C127.444 186.182 126.65 190.858 124.235 194.049C121.726 197.398 117.088 199.262 112.958 198.314C108.321 197.24 105.335 192.532 106.351 187.857C106.605 186.751 105.144 186.372 104.699 187.351Z" fill="#9CDBE3"/>
</g>
<path d="M192.339 172.708L186.186 174.294L182.576 164.575L173.322 165.803L169.407 159L166 160.995L171.186 170.049L179.983 168.923L183.746 179L193 176.596L192.339 172.708Z" fill="#FBE5A8"/>
<g clip-path="url(#clip6_4337_6647)">
<path d="M14.4601 38.1201L19.487 35.8907L23.9523 43.6739L31.6782 41.3087L35.989 46.5594L38.6135 44.3714L32.8971 37.3802L25.5474 39.593L20.9009 31.5258L13.3425 34.8953L14.4601 38.1201Z" fill="#879DD1"/>
</g>
<path d="M42.8077 167.044C42.8077 167.044 45.7473 164.067 50.6074 164.727C54.9519 165.349 57.4554 169.216 56.9129 173.197C56.2724 177.82 51.4298 182.738 40.209 185.942C30.2869 179.643 26.9578 173.625 27.619 168.959C28.1615 164.978 31.6584 161.953 36.003 162.576C40.8215 163.322 42.8077 167.044 42.8077 167.044Z" fill="#F48C7F"/>
<circle cx="111" cy="97" r="66" fill="#E6FFD4"/>
<rect x="33" y="63.3299" width="142" height="90" rx="10" transform="rotate(-10 33 63.3299)" fill="#1B8158"/>
<path d="M75.8359 107.411L72.04 102.699L71.2324 102.841L72.1528 108.061L68.7847 108.654L66.3467 94.8277L71.9995 93.831C73.0893 93.6388 74.0486 93.666 74.8774 93.9125C75.7192 94.1567 76.3896 94.58 76.8885 95.1826C77.385 95.772 77.7051 96.4737 77.8486 97.2878C78.0107 98.207 77.8928 99.074 77.4949 99.8888C77.1101 100.701 76.4389 101.348 75.481 101.828L79.6373 106.741L75.8359 107.411ZM70.8122 100.458L72.9 100.09C73.5171 99.9809 73.9501 99.7488 74.1988 99.3936C74.4607 99.036 74.5431 98.5815 74.4458 98.03C74.3532 97.5048 74.1227 97.1189 73.7543 96.8725C73.399 96.6237 72.9128 96.5538 72.2957 96.6626L70.2079 97.0307L70.8122 100.458ZM90.9933 98.8896C91.0489 99.2047 91.0871 99.5365 91.1079 99.8848L83.4855 101.229C83.6584 101.902 83.9677 102.389 84.4133 102.69C84.8697 102.975 85.3803 103.068 85.9449 102.968C86.7853 102.82 87.3071 102.362 87.5103 101.596L91.095 100.963C91.0385 101.718 90.8183 102.427 90.4343 103.09C90.0635 103.752 89.5459 104.31 88.8816 104.766C88.2173 105.221 87.4387 105.528 86.5458 105.685C85.4691 105.875 84.47 105.814 83.5486 105.503C82.6272 105.191 81.8549 104.651 81.2317 103.881C80.6085 103.11 80.1962 102.154 79.9948 101.012C79.7933 99.8693 79.8471 98.8309 80.1562 97.8964C80.4784 96.9595 81.0192 96.1872 81.7786 95.5794C82.5379 94.9717 83.4625 94.5717 84.5523 94.3795C85.6159 94.192 86.6007 94.2485 87.5067 94.5491C88.4126 94.8497 89.1683 95.3731 89.7738 96.1193C90.3923 96.8632 90.7989 97.7866 90.9933 98.8896ZM87.3902 98.611C87.2884 98.0333 87.0104 97.6084 86.5562 97.3365C86.1021 97.0646 85.5796 96.9807 84.9887 97.0849C84.4241 97.1844 83.9738 97.4331 83.6377 97.8308C83.3148 98.2262 83.1607 98.734 83.1753 99.3543L87.3902 98.611ZM107.609 90.4765L106.573 101.991L102.85 102.648L99.8598 95.8234L99.3247 103.269L95.6218 103.922L90.6901 93.4598L94.0581 92.8659L96.9998 100.45L97.4656 92.2651L101.031 91.6365L104.28 99.1259L104.438 91.0356L107.609 90.4765ZM109.189 95.8436C108.99 94.7144 109.025 93.686 109.295 92.7584C109.578 91.8285 110.047 91.0689 110.701 90.4797C111.355 89.8904 112.135 89.5159 113.041 89.3562C113.816 89.2196 114.52 89.2579 115.153 89.4712C115.8 89.6821 116.326 90.0159 116.731 90.4724L116.457 88.9164L119.825 88.3225L121.763 99.313L118.395 99.9069L118.12 98.3509C117.882 98.9208 117.496 99.4155 116.96 99.8348C116.438 100.252 115.79 100.529 115.015 100.665C114.122 100.823 113.268 100.736 112.451 100.407C111.633 100.063 110.931 99.5034 110.347 98.7263C109.774 97.9338 109.388 96.9729 109.189 95.8436ZM117.426 94.4116C117.278 93.5713 116.924 92.9498 116.366 92.5473C115.821 92.1425 115.213 91.9992 114.544 92.1173C113.874 92.2353 113.346 92.579 112.958 93.1482C112.582 93.7019 112.468 94.399 112.616 95.2393C112.765 96.0797 113.112 96.7089 113.66 97.1268C114.218 97.5293 114.832 97.6715 115.502 97.5534C116.172 97.4353 116.694 97.0928 117.067 96.526C117.455 95.9568 117.574 95.252 117.426 94.4116ZM125.953 89.1307C126.24 88.4573 126.649 87.8977 127.18 87.4521C127.708 86.9934 128.333 86.7004 129.056 86.5731L129.684 90.1381L128.758 90.3013C127.918 90.4495 127.32 90.7444 126.965 91.1862C126.607 91.6148 126.508 92.2821 126.668 93.1882L127.567 98.2895L124.199 98.8833L122.261 87.8929L125.63 87.299L125.953 89.1307ZM130.982 92.001C130.783 90.8717 130.818 89.8433 131.088 88.9157C131.371 87.9858 131.839 87.2263 132.494 86.637C133.148 86.0478 133.928 85.6733 134.834 85.5135C135.556 85.3862 136.239 85.4214 136.883 85.6193C137.541 85.8148 138.085 86.1385 138.517 86.5904L137.617 81.4891L140.985 80.8952L143.555 95.4703L140.187 96.0642L139.91 94.4885C139.687 95.0693 139.308 95.5694 138.773 95.9887C138.251 96.4057 137.602 96.6825 136.827 96.8191C135.921 96.9789 135.06 96.8938 134.244 96.5639C133.425 96.2208 132.724 95.6608 132.14 94.8837C131.567 94.0911 131.181 93.1302 130.982 92.001ZM139.218 90.569C139.07 89.7286 138.717 89.1072 138.159 88.7047C137.613 88.2999 137.006 88.1565 136.336 88.2746C135.667 88.3927 135.138 88.7363 134.751 89.3055C134.375 89.8593 134.261 90.5563 134.409 91.3967C134.557 92.2371 134.905 92.8662 135.453 93.2841C136.011 93.6866 136.625 93.8288 137.295 93.7108C137.964 93.5927 138.486 93.2502 138.86 92.6833C139.247 92.1141 139.367 91.4094 139.218 90.569ZM150.491 94.4099C149.532 94.5789 148.65 94.5653 147.844 94.369C147.037 94.1727 146.368 93.8304 145.835 93.3422C145.3 92.8409 144.943 92.2403 144.766 91.5405L148.094 90.9536C148.201 91.3274 148.433 91.6047 148.789 91.7855C149.146 91.9663 149.554 92.0162 150.014 91.9351C150.434 91.861 150.742 91.7255 150.937 91.5286C151.144 91.3162 151.224 91.0787 151.177 90.8161C151.122 90.501 150.917 90.3001 150.563 90.2136C150.207 90.1139 149.645 90.037 148.878 89.9828C148.057 89.9379 147.367 89.8632 146.807 89.7589C146.245 89.6414 145.735 89.3996 145.278 89.0334C144.819 88.6541 144.523 88.0902 144.391 87.3418C144.28 86.7115 144.35 86.1102 144.601 85.5379C144.863 84.9502 145.302 84.4463 145.918 84.0262C146.548 83.6038 147.329 83.3104 148.261 83.146C149.64 82.9029 150.783 83.0533 151.692 83.5971C152.613 84.1387 153.232 84.9637 153.55 86.0721L150.438 86.6208C150.318 86.2493 150.094 85.9774 149.766 85.8051C149.451 85.6305 149.063 85.5837 148.604 85.6648C148.21 85.7342 147.922 85.8663 147.739 86.0609C147.555 86.2423 147.486 86.4644 147.532 86.727C147.587 87.0422 147.793 87.2496 148.149 87.3493C148.518 87.4466 149.071 87.5116 149.808 87.5441C150.659 87.6107 151.36 87.7038 151.909 87.8236C152.456 87.9303 152.96 88.1798 153.422 88.5723C153.894 88.9493 154.204 89.5174 154.352 90.2767C154.465 90.9201 154.383 91.5302 154.106 92.1072C153.839 92.6686 153.39 93.154 152.758 93.5633C152.14 93.9703 151.384 94.2525 150.491 94.4099Z" fill="white"/>
<path d="M68.7423 75.9931L68.8658 76.6933C68.8604 76.738 68.8584 76.7829 68.8599 76.8276C68.9086 77.3229 68.8812 77.8238 68.7784 78.3149C68.4124 80.0578 67.417 81.3963 65.7875 82.3123C64.9429 82.7906 63.9862 83.0584 63.01 83.0897C62.0448 83.114 61.092 82.926 60.2273 82.5407C59.2622 82.1289 58.4298 81.5425 57.6466 80.8786C56.4548 79.8669 55.2369 78.8887 54.0378 77.8894C53.6204 77.5387 53.2082 77.1771 52.7054 76.927C51.5551 76.3523 50.4209 76.3667 49.3326 77.1118C48.1293 77.9371 47.723 79.4106 48.3313 80.7029C48.773 81.6413 50.0678 82.6593 51.7482 82.2875C51.8344 82.2723 51.918 82.242 52.0278 82.2126L51.4338 81.6809L56.1833 80.2025C55.8246 81.7575 55.4747 83.2754 55.1204 84.8152C54.8753 84.5952 54.653 84.3967 54.4327 84.1956C54.4239 84.1839 54.4127 84.174 54.3997 84.1665C54.3868 84.159 54.3723 84.154 54.3572 84.1518C54.342 84.1496 54.3265 84.1503 54.3115 84.1538C54.2965 84.1573 54.2823 84.1635 54.2697 84.1721C53.868 84.354 53.4662 84.536 53.0569 84.6881C51.9532 85.1051 50.7449 85.1835 49.6069 84.9121C48.4183 84.6475 47.3514 84.0471 46.548 83.1906C45.7445 82.3342 45.2424 81.2622 45.1084 80.1171C44.9187 78.7407 45.2984 77.3366 46.1695 76.1933C47.2155 74.7982 48.6586 73.9883 50.4482 73.745C52.2022 73.509 53.7721 73.8953 55.1015 74.9816C55.9752 75.695 56.8269 76.4313 57.6876 77.1581C58.6316 77.9547 59.5675 78.7583 60.5185 79.547C60.8932 79.8819 61.3529 80.1217 61.8559 80.2449C62.359 80.3681 62.8895 80.3707 63.3995 80.2525C63.9096 80.1343 64.3831 79.899 64.7773 79.5679C65.1715 79.2368 65.474 78.8203 65.6574 78.356C65.8407 77.8918 65.8992 77.3944 65.8276 76.9089C65.7559 76.4233 65.5564 75.965 65.247 75.5752C64.9376 75.1853 64.528 74.8764 64.0554 74.6762C63.5828 74.476 63.062 74.3909 62.5401 74.4286C62.3701 74.4502 62.2013 74.48 62.0343 74.5178L62.6554 75.0892L57.852 76.5849C58.2251 75.0306 58.5936 73.5039 58.9671 71.9518C59.2016 72.1526 59.4149 72.3338 59.625 72.5167C59.6751 72.559 59.711 72.5815 59.7866 72.5393C61.3094 71.7043 62.9156 71.4633 64.5883 71.9148C66.4868 72.4309 67.7938 73.5711 68.506 75.3116C68.5961 75.5335 68.663 75.7649 68.7423 75.9931Z" fill="white"/>
<defs>
<clipPath id="clip0_4337_6647">
<rect width="44" height="31" fill="white" transform="translate(144)"/>
</clipPath>
<clipPath id="clip1_4337_6647">
<rect width="25" height="23" fill="white" transform="translate(79)"/>
</clipPath>
<clipPath id="clip2_4337_6647">
<rect width="25" height="25" fill="white" transform="translate(0 95)"/>
</clipPath>
<clipPath id="clip3_4337_6647">
<rect width="20" height="20" fill="white" transform="translate(193 63.9008) rotate(-33.0276)"/>
</clipPath>
<clipPath id="clip4_4337_6647">
<rect width="25" height="23" fill="white" transform="translate(203 106)"/>
</clipPath>
<clipPath id="clip5_4337_6647">
<rect width="25" height="23" fill="white" transform="translate(104 178)"/>
</clipPath>
<clipPath id="clip6_4337_6647">
<rect width="23.3687" height="17.3102" fill="white" transform="translate(38.8975 46.0745) rotate(170.535)"/>
</clipPath>
</defs>
</svg>
