<svg width="55" height="55" viewBox="0 0 55 55" fill="none" xmlns="http://www.w3.org/2000/svg">
<g clip-path="url(#clip0_7030_33343)">
<path d="M16.0303 15.63H10.2303C9.43027 15.63 8.78027 16.28 8.78027 17.08V24.33H14.5803V22.88H10.2303V17.08H16.0303V21.43H17.4803V15.63H16.0303Z" fill="#1B8158"/>
<path d="M14.5797 18.53H11.6797V21.43H14.5797V18.53Z" fill="#1B8158"/>
<path d="M24.6803 18.53H21.7803V21.43H24.6803V18.53Z" fill="#1B8158"/>
<path d="M14.5797 28.68H11.6797V31.58H14.5797V28.68Z" fill="#1B8158"/>
<path d="M23.2297 25.78H20.3797H18.9297V27.23V30.13H20.3797V27.23H23.2297V25.78Z" fill="#1B8158"/>
<path d="M26.5303 30.13H24.6803V31.58H26.1303V33.03H23.2803V34.48H26.1803C26.9803 34.48 27.6303 33.83 27.6303 33.03V31.43C27.5303 31.33 27.4803 31.18 27.4303 31.03C27.0803 30.78 26.7803 30.48 26.5303 30.13Z" fill="#1B8158"/>
<path d="M21.7797 28.68V31.58H20.3797H18.9297V33.03V34.48H20.3797V33.03H21.7797H23.2297V31.58V28.68H21.7797Z" fill="#1B8158"/>
<path d="M17.4803 22.88H16.0303V24.33H17.4803V22.88Z" fill="#1B8158"/>
<path d="M24.6799 22.88V24.33H26.1799C26.5299 23.68 26.9799 23.08 27.5799 22.63V17.08C27.5799 16.28 26.9299 15.63 26.1299 15.63H18.8799V24.33H20.3299V17.08H26.1299V22.88H24.6799Z" fill="#1B8158"/>
<path d="M23.2303 22.88H21.7803V24.33H23.2303V22.88Z" fill="#1B8158"/>
<path d="M16.0303 25.78H8.78027V33.03C8.78027 33.83 9.43027 34.48 10.2303 34.48H17.4803V33.03H10.2303V27.23H16.0303V31.58H17.4803V25.78H16.0303Z" fill="#1B8158"/>
<path d="M50.2304 50.3C49.9904 50.3 49.7504 50.16 49.6504 49.92C49.5904 49.76 48.0504 46.07 48.0504 42.83C48.0504 39.26 47.3104 32.51 44.5404 29.88C43.6504 29.02 38.7304 26.92 35.6404 25.71C35.3204 25.58 35.1604 25.22 35.2904 24.9C35.4204 24.58 35.7804 24.42 36.1004 24.55C36.9104 24.87 44.0604 27.68 45.4104 28.98C49.1904 32.57 49.3004 41.79 49.3004 42.83C49.3004 45.81 50.7904 49.4 50.8004 49.44C50.9304 49.76 50.7804 50.12 50.4604 50.26C50.3804 50.29 50.3004 50.31 50.2204 50.31L50.2304 50.3Z" fill="#1B8158"/>
<path d="M39.7796 46.6C39.7196 46.6 39.6697 46.6 39.6096 46.58C34.5396 45.16 31.7597 41.91 31.3597 36.93C31.3197 36.69 31.2497 36.48 31.1097 36.28C30.8296 35.86 30.2196 35.03 29.4896 34.04C27.7696 31.69 25.6196 28.76 25.0096 27.51C24.6096 26.62 23.6996 24.59 25.7296 23.26C27.7896 21.86 29.3396 23.36 30.7096 24.68C31.8796 25.8 32.4696 26.39 33.0196 26.94C33.7196 27.64 34.3496 28.26 35.9996 29.83C36.5696 30.38 37.1896 30.68 37.9096 31.03C38.9396 31.53 40.1096 32.1 41.3396 33.52C41.5696 33.78 41.5396 34.18 41.2796 34.4C41.0196 34.63 40.6196 34.6 40.3997 34.34C39.3297 33.11 38.3296 32.62 37.3596 32.15C36.6096 31.79 35.8396 31.41 35.1396 30.73C33.4796 29.16 32.8496 28.53 32.1396 27.83C31.5896 27.29 30.9996 26.7 29.8396 25.58C28.1696 23.97 27.4796 23.58 26.4196 24.3C25.6696 24.79 25.4096 25.36 26.1396 26.98C26.6896 28.11 28.9796 31.24 30.4896 33.3C31.2296 34.32 31.8496 35.16 32.1396 35.59C32.3796 35.95 32.5196 36.33 32.5896 36.8C32.7296 38.48 33.1296 43.48 39.9396 45.39C40.2696 45.48 40.4696 45.83 40.3696 46.16C40.2896 46.44 40.0396 46.62 39.7696 46.62L39.7796 46.6Z" fill="#1B8158"/>
<path d="M35.3797 51.75C35.1197 51.75 34.8697 51.58 34.7897 51.32C34.4097 50.17 33.5297 49.17 32.3897 48.58C32.0797 48.42 31.9597 48.04 32.1197 47.74C32.2797 47.44 32.6597 47.31 32.9597 47.47C34.3797 48.21 35.4797 49.47 35.9597 50.93C36.0697 51.26 35.8897 51.61 35.5597 51.72C35.4897 51.74 35.4297 51.75 35.3597 51.75H35.3797Z" fill="#1B8158"/>
<path d="M24.78 47.95H11.58C7.95 47.95 5 45 5 41.37V9.58C5 5.95 7.95 3 11.58 3H24.83C28.46 3 31.41 5.95 31.41 9.58V21.23C31.41 21.58 31.13 21.85 30.79 21.85C30.45 21.85 30.17 21.57 30.17 21.23V9.58C30.17 6.64 27.78 4.25 24.84 4.25H11.58C8.64 4.25 6.25 6.64 6.25 9.58V41.38C6.25 44.32 8.64 46.71 11.58 46.71H24.78C26.64 46.71 28.37 45.75 29.29 44.21C29.47 43.91 29.85 43.82 30.15 44C30.45 44.18 30.54 44.56 30.36 44.86C29.21 46.77 27.07 47.96 24.77 47.96L24.78 47.95Z" fill="#1B8158"/>
<path d="M30.78 11.95H5.62C5.27 11.95 5 11.67 5 11.33C5 10.99 5.28 10.71 5.62 10.71H30.78C31.13 10.71 31.4 10.99 31.4 11.33C31.4 11.67 31.12 11.95 30.78 11.95Z" fill="#1B8158"/>
<path d="M19.9296 8.09999H16.4296C16.0796 8.09999 15.8096 7.81999 15.8096 7.47999C15.8096 7.13999 16.0896 6.85999 16.4296 6.85999H19.9296C20.2796 6.85999 20.5496 7.13999 20.5496 7.47999C20.5496 7.81999 20.2696 8.09999 19.9296 8.09999Z" fill="#1B8158"/>
<path d="M27.48 40.15H5.62C5.27 40.15 5 39.87 5 39.53C5 39.19 5.28 38.91 5.62 38.91H27.48C27.83 38.91 28.1 39.19 28.1 39.53C28.1 39.87 27.82 40.15 27.48 40.15Z" fill="#1B8158"/>
</g>
<defs>
<clipPath id="clip0_7030_33343">
<rect width="45.85" height="48.75" fill="white" transform="translate(5 3)"/>
</clipPath>
</defs>
</svg>
