<svg width="40" height="41" viewBox="0 0 40 41" fill="none" xmlns="http://www.w3.org/2000/svg">
    <path d="M4.99967 17.0333C5.4417 17.0333 5.86563 16.8538 6.17819 16.5344C6.49075 16.2149 6.66634 15.7817 6.66634 15.3299V8.51665C6.66634 8.0649 6.84194 7.63165 7.1545 7.31222C7.46706 6.99278 7.89098 6.81332 8.33301 6.81332H14.9997C15.4417 6.81332 15.8656 6.63387 16.1782 6.31443C16.4907 5.995 16.6663 5.56175 16.6663 5.11C16.6663 4.65825 16.4907 4.225 16.1782 3.90557C15.8656 3.58613 15.4417 3.40668 14.9997 3.40668H8.33301C7.00693 3.40668 5.73516 3.94505 4.79747 4.90335C3.85979 5.86166 3.33301 7.1614 3.33301 8.51665V15.3299C3.33301 15.7817 3.5086 16.2149 3.82116 16.5344C4.13372 16.8538 4.55765 17.0333 4.99967 17.0333Z" fill="#1B8158"/>
    <path d="M31.6663 3.40668H24.9997C24.5576 3.40668 24.1337 3.58613 23.8212 3.90557C23.5086 4.225 23.333 4.65825 23.333 5.11C23.333 5.56175 23.5086 5.995 23.8212 6.31443C24.1337 6.63387 24.5576 6.81332 24.9997 6.81332H31.6663C32.1084 6.81332 32.5323 6.99278 32.8448 7.31222C33.1574 7.63165 33.333 8.0649 33.333 8.51665V15.3299C33.333 15.7817 33.5086 16.2149 33.8212 16.5344C34.1337 16.8538 34.5576 17.0333 34.9997 17.0333C35.4417 17.0333 35.8656 16.8538 36.1782 16.5344C36.4907 16.2149 36.6663 15.7817 36.6663 15.3299V8.51665C36.6663 7.1614 36.1395 5.86166 35.2019 4.90335C34.2642 3.94505 32.9924 3.40668 31.6663 3.40668Z" fill="#1B8158"/>
    <path d="M34.9997 23.8466C34.5576 23.8466 34.1337 24.026 33.8212 24.3454C33.5086 24.6649 33.333 25.0981 33.333 25.5499V32.3632C33.333 32.8149 33.1574 33.2482 32.8448 33.5676C32.5323 33.887 32.1084 34.0665 31.6663 34.0665H24.9997C24.5576 34.0665 24.1337 34.2459 23.8212 34.5654C23.5086 34.8848 23.333 35.3181 23.333 35.7698C23.333 36.2216 23.5086 36.6548 23.8212 36.9742C24.1337 37.2937 24.5576 37.4731 24.9997 37.4731H31.6663C32.9924 37.4731 34.2642 36.9348 35.2019 35.9765C36.1395 35.0182 36.6663 33.7184 36.6663 32.3632V25.5499C36.6663 25.0981 36.4907 24.6649 36.1782 24.3454C35.8656 24.026 35.4417 23.8466 34.9997 23.8466Z" fill="#1B8158"/>
    <path d="M14.9997 34.0665H8.33301C7.89098 34.0665 7.46706 33.887 7.1545 33.5676C6.84194 33.2482 6.66634 32.8149 6.66634 32.3632V25.5499C6.66634 25.0981 6.49075 24.6649 6.17819 24.3454C5.86563 24.026 5.4417 23.8466 4.99967 23.8466C4.55765 23.8466 4.13372 24.026 3.82116 24.3454C3.5086 24.6649 3.33301 25.0981 3.33301 25.5499V32.3632C3.33301 33.7184 3.85979 35.0182 4.79747 35.9765C5.73516 36.9348 7.00693 37.4731 8.33301 37.4731H14.9997C15.4417 37.4731 15.8656 37.2937 16.1782 36.9742C16.4907 36.6548 16.6663 36.2216 16.6663 35.7698C16.6663 35.3181 16.4907 34.8848 16.1782 34.5654C15.8656 34.2459 15.4417 34.0665 14.9997 34.0665Z" fill="#1B8158"/>
    <path d="M26.6667 10.22H13.3333C11.4924 10.22 10 11.7452 10 13.6266V27.2532C10 29.1346 11.4924 30.6599 13.3333 30.6599H26.6667C28.5076 30.6599 30 29.1346 30 27.2532V13.6266C30 11.7452 28.5076 10.22 26.6667 10.22Z" fill="#1B8158"/>
</svg>
