<svg width="40" height="40" viewBox="0 0 40 40" fill="none" xmlns="http://www.w3.org/2000/svg">
<path d="M4.99992 16.6667C5.44195 16.6667 5.86587 16.4911 6.17843 16.1786C6.49099 15.866 6.66659 15.4421 6.66659 15V8.33337C6.66659 7.89135 6.84218 7.46742 7.15474 7.15486C7.4673 6.8423 7.89122 6.66671 8.33325 6.66671H14.9999C15.4419 6.66671 15.8659 6.49111 16.1784 6.17855C16.491 5.86599 16.6666 5.44207 16.6666 5.00004C16.6666 4.55801 16.491 4.13409 16.1784 3.82153C15.8659 3.50897 15.4419 3.33337 14.9999 3.33337H8.33325C7.00717 3.33337 5.7354 3.86016 4.79772 4.79784C3.86004 5.73552 3.33325 7.00729 3.33325 8.33337V15C3.33325 15.4421 3.50885 15.866 3.82141 16.1786C4.13397 16.4911 4.55789 16.6667 4.99992 16.6667Z" fill="#1B8158"/>
<path d="M31.6666 3.33337H24.9999C24.5579 3.33337 24.134 3.50897 23.8214 3.82153C23.5088 4.13409 23.3333 4.55801 23.3333 5.00004C23.3333 5.44207 23.5088 5.86599 23.8214 6.17855C24.134 6.49111 24.5579 6.66671 24.9999 6.66671H31.6666C32.1086 6.66671 32.5325 6.8423 32.8451 7.15486C33.1576 7.46742 33.3332 7.89135 33.3332 8.33337V15C33.3332 15.4421 33.5088 15.866 33.8214 16.1786C34.134 16.4911 34.5579 16.6667 34.9999 16.6667C35.4419 16.6667 35.8659 16.4911 36.1784 16.1786C36.491 15.866 36.6666 15.4421 36.6666 15V8.33337C36.6666 7.00729 36.1398 5.73552 35.2021 4.79784C34.2644 3.86016 32.9927 3.33337 31.6666 3.33337Z" fill="#1B8158"/>
<path d="M34.9999 23.3334C34.5579 23.3334 34.134 23.509 33.8214 23.8215C33.5088 24.1341 33.3332 24.558 33.3332 25V31.6667C33.3332 32.1087 33.1576 32.5326 32.8451 32.8452C32.5325 33.1578 32.1086 33.3334 31.6666 33.3334H24.9999C24.5579 33.3334 24.134 33.509 23.8214 33.8215C23.5088 34.1341 23.3333 34.558 23.3333 35C23.3333 35.4421 23.5088 35.866 23.8214 36.1785C24.134 36.4911 24.5579 36.6667 24.9999 36.6667H31.6666C32.9927 36.6667 34.2644 36.1399 35.2021 35.2022C36.1398 34.2645 36.6666 32.9928 36.6666 31.6667V25C36.6666 24.558 36.491 24.1341 36.1784 23.8215C35.8659 23.509 35.4419 23.3334 34.9999 23.3334Z" fill="#1B8158"/>
<path d="M14.9999 33.3334H8.33325C7.89122 33.3334 7.4673 33.1578 7.15474 32.8452C6.84218 32.5326 6.66659 32.1087 6.66659 31.6667V25C6.66659 24.558 6.49099 24.1341 6.17843 23.8215C5.86587 23.509 5.44195 23.3334 4.99992 23.3334C4.55789 23.3334 4.13397 23.509 3.82141 23.8215C3.50885 24.1341 3.33325 24.558 3.33325 25V31.6667C3.33325 32.9928 3.86004 34.2645 4.79772 35.2022C5.7354 36.1399 7.00717 36.6667 8.33325 36.6667H14.9999C15.4419 36.6667 15.8659 36.4911 16.1784 36.1785C16.491 35.866 16.6666 35.4421 16.6666 35C16.6666 34.558 16.491 34.1341 16.1784 33.8215C15.8659 33.509 15.4419 33.3334 14.9999 33.3334Z" fill="#1B8158"/>
<path d="M26.6667 10H13.3333C11.4924 10 10 11.4924 10 13.3333V26.6667C10 28.5076 11.4924 30 13.3333 30H26.6667C28.5076 30 30 28.5076 30 26.6667V13.3333C30 11.4924 28.5076 10 26.6667 10Z" fill="#1B8158"/>
</svg>
