<svg width="33" height="33" viewBox="0 0 33 33" fill="none" xmlns="http://www.w3.org/2000/svg">
<g clip-path="url(#clip0_7030_20197)">
<path d="M19.6382 31.53H10.2722C8.5742 31.53 7.2002 30.15 7.2002 28.458V14.718C7.2002 11.352 9.9362 8.616 13.3022 8.616H16.5722C19.9562 8.616 22.7102 11.37 22.7102 14.754V28.464C22.7102 30.162 21.3302 31.536 19.6382 31.536V31.53ZM13.3022 9.36C10.3502 9.36 7.9502 11.76 7.9502 14.712V28.452C7.9502 29.754 8.9702 30.78 10.2782 30.78H19.6382C20.9402 30.78 21.9662 29.76 21.9662 28.452V14.748C21.9662 11.778 19.5482 9.36 16.5782 9.36H13.3082H13.3022Z" fill="#1B8158"/>
<path d="M16.3982 9.35999H13.4882C13.2842 9.35999 13.1162 9.19199 13.1162 8.98799V7.00799C13.1162 6.79799 13.2842 6.63599 13.4882 6.63599H16.3982C16.6022 6.63599 16.7702 6.80399 16.7702 7.00799V8.98799C16.7702 9.19799 16.6022 9.35999 16.3982 9.35999ZM13.8662 8.60999H16.0262V7.37999H13.8662V8.60999Z" fill="#1B8158"/>
<path d="M17.8975 7.41H12.0175C11.8135 7.41 11.6455 7.242 11.6455 7.038V1.572C11.6455 1.362 11.8135 1.2 12.0175 1.2H17.8975C18.1015 1.2 18.2695 1.368 18.2695 1.572V7.038C18.2695 7.248 18.1015 7.41 17.8975 7.41ZM12.3955 6.66H17.5255V1.95H12.3895V6.66H12.3955Z" fill="#1B8158"/>
<path d="M25.2484 1.95H17.8984C17.6944 1.95 17.5264 1.782 17.5264 1.578C17.5264 1.374 17.6884 1.2 17.8984 1.2H25.2484C25.4524 1.2 25.6204 1.368 25.6204 1.572C25.6204 1.776 25.4524 1.944 25.2484 1.944V1.95Z" fill="#1B8158"/>
<path d="M25.248 1.2H22.332C22.1265 1.2 21.96 1.36655 21.96 1.572V2.298C21.96 2.50345 22.1265 2.67 22.332 2.67H25.248C25.4534 2.67 25.62 2.50345 25.62 2.298V1.572C25.62 1.36655 25.4534 1.2 25.248 1.2Z" fill="#1B8158"/>
</g>
<defs>
<clipPath id="clip0_7030_20197">
<rect width="18.42" height="30.33" fill="white" transform="translate(7.2002 1.2)"/>
</clipPath>
</defs>
</svg>
