<svg width="33" height="33" viewBox="0 0 33 33" fill="none" xmlns="http://www.w3.org/2000/svg">
<path d="M24.7263 32.9108C24.6421 32.8539 24.5409 32.8619 24.4476 32.8403C23.8004 32.6901 23.2544 32.3694 22.8073 31.8757C21.0487 29.9328 19.1809 28.1014 17.2175 26.3666C16.8 25.9981 16.3371 25.6887 15.8843 25.3656C14.9641 24.7092 14.6911 23.7492 15.137 22.7095C15.303 22.3227 15.46 21.9325 15.5704 21.5253C15.6784 21.1272 15.6238 20.7245 15.592 20.3252C15.5499 19.8008 15.4805 19.2798 15.3827 18.7543C15.3076 18.7748 15.2996 18.8476 15.2712 18.8965C14.2292 20.762 13.1929 22.6298 12.1111 24.4726C11.8222 24.9641 11.5321 25.4543 11.2102 25.9264C11.0601 26.1471 10.8769 26.2574 10.596 26.2699C9.29007 26.3325 7.98533 26.3257 6.67944 26.2938C6.13798 26.2802 5.59766 26.2688 5.05619 26.2586C4.78205 26.2529 4.64896 26.1277 4.6228 25.857C4.51814 24.7604 4.40667 23.6639 4.30429 22.5661C4.19736 21.4195 4.09612 20.2718 3.99488 19.1251C3.89819 18.0229 3.79922 16.9195 3.70936 15.8172C3.61153 14.6251 3.51826 13.4318 3.4318 12.2385C3.3408 10.9816 3.25321 9.72346 3.17586 8.46535C3.12012 7.54395 3.07803 6.62142 3.03822 5.69889C2.97224 4.13479 2.97224 2.57068 2.97679 1.00545C2.97793 0.503797 3.18724 0.243303 3.68434 0.129551C3.70481 0.125001 3.72301 0.123864 3.72756 0.0999756H12.4672C12.5946 0.146614 12.7311 0.163676 12.8517 0.230791C13.1213 0.380944 13.2691 0.598212 13.268 0.915583C13.2646 1.8347 13.2737 2.75496 13.2623 3.67409C13.2589 3.94482 13.2009 4.21555 13.1679 4.48628C13.1611 4.54316 13.1531 4.60003 13.1417 4.69445C13.3317 4.49538 13.4978 4.32703 13.6798 4.17573C13.8447 4.03923 14.0085 4.0199 14.2008 4.12C16.0311 5.06642 17.8625 6.01057 19.6962 6.9513C20.1364 7.17767 20.5698 7.41769 21.0214 7.62244C21.2 7.70321 21.2614 7.86474 21.2648 8.05016C21.2716 8.40506 21.2102 8.75315 21.1624 9.10237C20.9736 10.4902 20.8235 11.8813 20.7518 13.2805C20.7029 14.2485 20.6824 15.2166 20.704 16.1846C20.7336 17.5007 20.8212 18.8123 20.985 20.1193C21.0373 20.5334 21.0749 20.9497 21.1624 21.357C21.3035 22.0088 21.6618 22.5502 22.0747 23.0587C22.7516 23.8925 23.5649 24.5841 24.376 25.2803C25.1074 25.9082 25.8809 26.4872 26.5589 27.1743C27.1663 27.7897 27.6395 28.4915 27.8704 29.3378C27.9125 29.4925 27.9125 29.6564 27.9751 29.8065V30.4333C27.9376 30.4469 27.9478 30.4811 27.9432 30.5084C27.7521 31.6698 26.9365 32.5457 25.7899 32.8266C25.6739 32.8551 25.5487 32.8471 25.4395 32.9085H24.724L24.7263 32.9108ZM8.48698 25.5783C9.11944 25.5305 9.79513 25.5658 10.4697 25.5192C10.5573 25.5135 10.6051 25.4793 10.6471 25.4111C10.8587 25.0687 11.0783 24.732 11.283 24.3862C12.2249 22.7971 13.1281 21.1863 14.0245 19.571C14.997 17.817 15.9696 16.0629 16.9388 14.3066C17.4348 13.4068 17.9228 12.5013 18.4153 11.6004C19.0273 10.4811 19.6393 9.36059 20.2547 8.2424C20.3036 8.15253 20.2968 8.11386 20.2024 8.06494C19.1024 7.50073 18.0047 6.93196 16.9058 6.36548C16.0003 5.89909 15.0926 5.43953 14.1917 4.96518C14.0483 4.8901 13.9767 4.9174 13.8777 5.02206C13.4284 5.49868 13.0644 6.03673 12.7288 6.59526C11.9633 7.87156 11.3399 9.2184 10.7529 10.5823C9.63247 13.1861 8.66216 15.8479 7.74531 18.5291C7.24138 20.0033 6.75111 21.4821 6.29041 22.97C6.04129 23.7753 5.79445 24.5818 5.54306 25.3861C5.51348 25.4805 5.51576 25.5203 5.63065 25.5192C5.79445 25.5169 5.95712 25.5385 6.12092 25.5396C6.89558 25.5465 7.67023 25.5465 8.48698 25.5783ZM20.3104 9.76441C20.3025 9.76441 20.2945 9.76327 20.2866 9.76213C20.274 9.78261 20.2627 9.80422 20.2501 9.8247C19.6939 10.8451 19.1411 11.8666 18.5825 12.8858C17.726 14.4487 16.8649 16.0106 16.0049 17.5713C15.9651 17.6441 15.9514 17.7112 15.9685 17.7965C16.039 18.1514 16.1016 18.5074 16.1653 18.8635C16.2597 19.3959 16.3211 19.9328 16.3609 20.4708C16.3848 20.7871 16.403 21.1067 16.3553 21.4229C16.2677 22.0031 16.0322 22.5354 15.8024 23.0689C15.5408 23.6752 15.7069 24.3043 16.2449 24.6933C16.5702 24.9288 16.907 25.1517 17.2232 25.3997C18.1389 26.1175 18.9738 26.9263 19.8145 27.7282C20.4538 28.338 21.0885 28.9545 21.7005 29.5927C22.2579 30.1728 22.8107 30.7575 23.3533 31.3524C23.9539 32.0088 24.6945 32.2806 25.5669 32.102C26.6999 31.8688 27.3881 30.8257 27.1709 29.6962C27.0048 28.8294 26.4986 28.1525 25.8786 27.5656C25.013 26.7466 24.0563 26.0311 23.1679 25.2359C22.4638 24.6057 21.7801 23.9573 21.2205 23.1895C20.8303 22.6537 20.5163 22.0781 20.4049 21.4195C20.2069 20.2558 20.0954 19.0808 20.0204 17.9034C19.9749 17.1856 19.9521 16.4656 19.9476 15.7455C19.9385 14.4886 19.9794 13.2339 20.0784 11.9815C20.1148 11.5276 20.1694 11.0748 20.2172 10.621C20.2467 10.3354 20.2797 10.0511 20.3104 9.76555V9.76441ZM5.1836 23.8675C5.1927 23.8709 5.2018 23.8743 5.21203 23.8777C5.22682 23.8311 5.24161 23.7856 5.25526 23.7389C5.47139 23.053 5.68525 22.3671 5.90479 21.6823C6.56455 19.6222 7.25617 17.5724 7.99443 15.5396C8.69742 13.6036 9.43567 11.6811 10.2695 9.7974C10.803 8.59389 11.3695 7.40745 12.0372 6.27106C12.077 6.20281 12.1248 6.14025 12.1384 6.05721C12.2351 5.47593 12.3341 4.89465 12.4342 4.31338C12.4547 4.19735 12.4285 4.1473 12.2931 4.1473C9.49938 4.15071 6.70675 4.15071 3.91298 4.1473C3.7924 4.1473 3.74576 4.1746 3.75259 4.30314C3.76737 4.60572 3.7651 4.9083 3.77761 5.21089C3.79809 5.7114 3.81629 6.21191 3.83904 6.71242C3.87999 7.60879 3.9289 8.50517 3.9926 9.40154C4.04266 10.1136 4.0893 10.8257 4.14048 11.5378C4.1985 12.3386 4.25879 13.1395 4.32135 13.9403C4.37823 14.6717 4.43852 15.4031 4.4988 16.1346C4.56706 16.9502 4.63645 17.7646 4.70811 18.5791C4.7957 19.5767 4.8867 20.5732 4.97657 21.5708C5.04596 22.3364 5.11534 23.1008 5.18473 23.8652L5.1836 23.8675ZM8.12752 3.46933C9.58355 3.46933 11.0396 3.46819 12.4956 3.47161C12.6185 3.47161 12.656 3.44089 12.6549 3.31463C12.6492 2.57865 12.6526 1.84381 12.6526 1.10783C12.6526 0.766567 12.5991 0.713103 12.2511 0.70059C12.2158 0.699452 12.1817 0.70059 12.1464 0.70059C9.46753 0.70059 6.78979 0.70059 4.11091 0.70059C4.00626 0.70059 3.90274 0.710827 3.80036 0.72789C3.63883 0.754053 3.57854 0.82458 3.57854 0.986109C3.57854 1.7619 3.58196 2.53656 3.57513 3.31235C3.57399 3.44999 3.61836 3.47388 3.74462 3.47388C5.20521 3.46933 6.66693 3.47161 8.12752 3.47161V3.46933Z" fill="#1B8158"/>
</svg>
