<svg width="33" height="33" viewBox="0 0 33 33" fill="none" xmlns="http://www.w3.org/2000/svg">
<path fill-rule="evenodd" clip-rule="evenodd" d="M7.51604 9.5209C7.7503 9.21506 8.09553 9 8.50068 9C8.90583 9 9.25107 9.21506 9.48533 9.5209C9.60219 9.67347 9.69472 9.85193 9.75811 10.0472H13.1443C13.3008 10.0472 13.4277 10.1715 13.4277 10.3247C13.4277 10.478 13.3008 10.6022 13.1443 10.6022H9.85469C9.85557 10.6271 9.85601 10.6521 9.85601 10.6771V10.7924C10.7082 11.2587 11.2844 12.1508 11.2844 13.1748C11.2844 13.2623 11.2591 13.5307 11.237 13.7538C11.2254 13.8705 11.2138 13.9827 11.2052 14.0657C11.2008 14.1072 11.1972 14.1415 11.1947 14.1653L11.1907 14.2022L11.1907 14.2027L11.1907 14.2028C11.1903 14.2058 11.19 14.2089 11.1895 14.2119L11.1014 14.8348L11.6326 14.9747C12.0759 15.0913 12.6681 15.2472 13.2638 15.404C14.4561 15.7177 15.6582 16.0339 15.7152 16.0483C16.4541 16.2342 17 16.8909 17 17.6725C17 18.5988 16.2334 19.3497 15.2876 19.3497H10.4625L10.1603 21.4848C10.2215 21.5066 10.3009 21.5348 10.3934 21.5677C10.6146 21.6464 10.9102 21.7515 11.2077 21.857C11.5051 21.9626 11.8043 22.0685 12.0326 22.149C12.1468 22.1892 12.243 22.223 12.3123 22.2471C12.3454 22.2586 12.369 22.2667 12.3847 22.272C12.4073 22.2798 12.4135 22.2819 12.4082 22.2806C12.8594 22.3935 13.1744 22.8164 13.1744 23.2717C13.1744 23.8233 12.7411 24.2486 12.1768 24.2486H9.64988C9.46528 24.569 9.1687 24.8295 8.78404 24.9168V25.7225C8.78404 25.8758 8.65718 26 8.50068 26C8.34419 26 8.21733 25.8758 8.21733 25.7225V24.9171C7.83226 24.8302 7.53508 24.5698 7.3502 24.2493H4.82183C4.25754 24.2493 3.82428 23.824 3.82428 23.2723C3.82428 22.8171 4.13924 22.3942 4.59047 22.2813C4.58513 22.2826 4.5913 22.2805 4.61397 22.2727C4.62964 22.2673 4.6532 22.2593 4.6863 22.2478C4.75563 22.2237 4.85182 22.1899 4.96604 22.1497C5.19438 22.0692 5.4935 21.9633 5.79097 21.8577C6.0884 21.7522 6.38401 21.6471 6.60528 21.5684C6.6984 21.5353 6.77835 21.5068 6.83972 21.485L6.53782 19.3517H1.71243C0.766633 19.3517 0 18.6008 0 17.6745C0 16.8929 0.545938 16.2362 1.28482 16.0503C1.34185 16.0359 2.54391 15.7197 3.73617 15.406C4.33193 15.2492 4.92413 15.0933 5.36739 14.9767L5.89888 14.8368L5.81046 14.2119C5.81003 14.2089 5.80965 14.2059 5.80933 14.2028L6.09113 14.1738C5.80933 14.2028 5.80933 14.2029 5.80933 14.2028L5.80533 14.1653C5.8028 14.1415 5.79918 14.1072 5.79485 14.0657C5.78617 13.9827 5.7746 13.8705 5.76302 13.7538C5.74088 13.5307 5.7156 13.2623 5.7156 13.1748C5.7156 12.1503 6.29243 11.2578 7.14535 10.7917V10.6771C7.14535 10.6521 7.14579 10.6271 7.14667 10.6022H3.85569C3.6992 10.6022 3.57234 10.478 3.57234 10.3247C3.57234 10.1715 3.6992 10.0472 3.85569 10.0472H7.24326C7.30664 9.85193 7.39918 9.67347 7.51604 9.5209ZM7.37924 11.3002C7.39531 11.3029 7.41184 11.3044 7.42871 11.3044C7.53746 11.3044 7.6319 11.2444 7.6794 11.1563C7.93322 11.0573 8.21012 11.0028 8.5 11.0028C8.79055 11.0028 9.06804 11.0575 9.32233 11.157C9.36995 11.2447 9.46418 11.3044 9.57266 11.3044C9.58916 11.3044 9.60534 11.303 9.62107 11.3003C10.2772 11.6776 10.7177 12.3758 10.7177 13.1748C10.7177 13.2277 10.6969 13.4588 10.6729 13.7001C10.6615 13.8156 10.65 13.9268 10.6414 14.0092C10.6371 14.0504 10.6335 14.0843 10.631 14.108L10.6276 14.1403L9.2913 23.5826L9.29109 23.5842C9.24446 23.9277 9.04527 24.2091 8.78404 24.3297V21.8734C8.78404 21.7201 8.65718 21.5959 8.50068 21.5959C8.34419 21.5959 8.21733 21.7201 8.21733 21.8734V24.3304C7.95518 24.2102 7.75519 23.9283 7.70896 23.5845L7.7087 23.5826L6.37245 14.1403L6.36901 14.108C6.3665 14.0843 6.36292 14.0504 6.35861 14.0092C6.35 13.9268 6.33853 13.8156 6.32707 13.7001C6.30312 13.4588 6.28231 13.2277 6.28231 13.1748C6.28231 12.3757 6.72295 11.6773 7.37924 11.3002ZM9.28478 10.5576C9.03588 10.4861 8.77251 10.4478 8.5 10.4478C8.228 10.4478 7.96511 10.486 7.71662 10.5572C7.73814 10.2752 7.83439 10.0302 7.96937 9.85397C8.12311 9.65326 8.31386 9.55503 8.50068 9.55503C8.68751 9.55503 8.87826 9.65326 9.03199 9.85397C9.16704 10.0303 9.26332 10.2755 9.28478 10.5576ZM5.9773 15.3908L5.51449 15.5127C5.07121 15.6294 4.479 15.7852 3.88321 15.942C2.6934 16.2551 1.48491 16.5729 1.42599 16.5878L1.42584 16.5878C0.93161 16.7122 0.566712 17.1522 0.566712 17.6745C0.566712 18.2943 1.07962 18.7966 1.71243 18.7966H6.45927L5.9773 15.3908ZM6.91928 22.0472C6.91583 22.0484 6.91235 22.0496 6.90884 22.0509C6.87474 22.063 6.8379 22.0761 6.79874 22.0901C6.57739 22.1688 6.28163 22.2739 5.98401 22.3795C5.68644 22.4851 5.38684 22.5913 5.15788 22.6719C5.04345 22.7122 4.94635 22.7463 4.87588 22.7708L4.8709 22.7725C4.81357 22.7925 4.75397 22.8132 4.73092 22.819L4.73081 22.819C4.54574 22.8653 4.391 23.0549 4.391 23.2723C4.391 23.5178 4.57088 23.6943 4.82183 23.6943H7.15259C7.15065 23.6822 7.14887 23.6701 7.14723 23.658C7.14719 23.6576 7.14714 23.6573 7.1471 23.657L6.91928 22.0472ZM9.84749 23.6936H12.1768C12.4278 23.6936 12.6076 23.5171 12.6076 23.2717C12.6076 23.0542 12.4529 22.8646 12.2678 22.8183L12.2677 22.8183C12.2447 22.8125 12.1851 22.7918 12.1278 22.7719L12.1228 22.7701C12.0523 22.7456 11.9552 22.7116 11.8408 22.6713C11.6118 22.5906 11.3122 22.4845 11.0146 22.3789C10.717 22.2733 10.4212 22.1681 10.1999 22.0894C10.1572 22.0742 10.1174 22.06 10.0807 22.047L9.85286 23.6573C9.85282 23.6575 9.85279 23.6578 9.85275 23.6581C9.85114 23.6699 9.84938 23.6818 9.84749 23.6936ZM10.541 18.7946H15.2876C15.9204 18.7946 16.4333 18.2923 16.4333 17.6725C16.4333 17.1502 16.0684 16.7102 15.5742 16.5858L15.574 16.5858C15.5151 16.5709 14.3066 16.2531 13.1168 15.94C12.521 15.7832 11.9288 15.6274 11.4855 15.5107L11.023 15.3889L10.541 18.7946ZM8.05225 13.3775C7.93996 13.4974 7.85477 13.689 7.85477 13.9639C7.85477 14.4008 7.98152 14.8869 8.15339 15.2618C8.23927 15.4492 8.3308 15.5964 8.41295 15.6917C8.45384 15.7391 8.48306 15.7631 8.50002 15.7751C8.51699 15.7631 8.54621 15.7391 8.58709 15.6917C8.66923 15.5965 8.76075 15.4494 8.84662 15.2621C9.01848 14.8872 9.14523 14.4012 9.14523 13.9639C9.14523 13.689 9.06004 13.4974 8.94775 13.3775C8.83614 13.2583 8.68118 13.1915 8.5 13.1915C8.31883 13.1915 8.16386 13.2583 8.05225 13.3775ZM7.63458 13.0023C7.85907 12.7626 8.1684 12.6365 8.5 12.6365C8.8316 12.6365 9.14093 12.7626 9.36542 13.0023C9.58923 13.2413 9.71194 13.5746 9.71194 13.9639C9.71194 14.4928 9.56217 15.0563 9.36362 15.4894C9.26429 15.7061 9.14713 15.9026 9.01995 16.05C8.907 16.1809 8.72856 16.3405 8.5 16.3405C8.27137 16.3405 8.09293 16.1808 7.98001 16.0498C7.85285 15.9024 7.7357 15.7058 7.63638 15.4892C7.43783 15.056 7.28806 14.4925 7.28806 13.9639C7.28806 13.5746 7.41077 13.2413 7.63458 13.0023Z" fill="#1B8158"/>
<path d="M31.9963 15.2981C31.6256 13.1021 30.4295 12.3469 29.595 12.0881C29.4555 11.7757 29.1387 11.554 28.7674 11.5368C28.1745 10.6274 26.9328 10 25.4999 10C24.067 10 22.8246 10.6281 22.2317 11.5368C21.8603 11.5533 21.5442 11.7751 21.4048 12.0868C20.5703 12.3456 19.3741 13.1007 19.0035 15.2981C18.9904 15.3775 19.0145 15.4589 19.0704 15.5191C19.1236 15.5767 19.2002 15.6091 19.2796 15.6091C19.2837 15.6091 19.2872 15.6091 19.2913 15.6091C21.117 15.5337 21.899 15.0148 22.3145 13.3516C22.389 13.3489 22.4615 13.3377 22.5305 13.3192C22.5547 14.1074 23.0185 14.8057 23.7239 15.2478L23.3167 15.9904L20.9285 15.6826C20.6083 15.6422 20.2901 15.7216 20.0333 15.9103C19.7765 16.0982 19.6116 16.3709 19.5681 16.678C19.5253 16.9851 19.6095 17.2902 19.8055 17.5364C20.0016 17.7826 20.2859 17.9415 20.6062 17.9825L22.1164 18.1771L21.3192 19.6285C21.1584 19.9211 21.2647 20.2791 21.5608 20.4426C21.8569 20.6067 22.1537 20.751 22.4512 20.8774L22.1978 22.6856C22.1088 23.3196 22.5747 23.9047 23.2359 23.9894C23.2905 23.9967 23.3457 24 23.4002 24C23.6632 24 23.9186 23.9179 24.1312 23.7617C24.3879 23.5738 24.5536 23.3011 24.5964 22.994L24.8069 21.4923C25.0381 21.5148 25.2693 21.5267 25.5006 21.5267C25.7318 21.5267 25.963 21.5148 26.1942 21.4923L26.4048 22.994C26.4476 23.3011 26.6132 23.5738 26.87 23.7617C27.0832 23.9179 27.3379 24 27.6009 24C27.6554 24 27.71 23.9967 27.7652 23.9894C28.4264 23.904 28.8916 23.319 28.8033 22.6856L28.55 20.8774C28.8468 20.751 29.1436 20.6061 29.4397 20.4426C29.7365 20.2791 29.8421 19.9217 29.6812 19.6285L28.884 18.1771L30.3942 17.9825C30.7145 17.9415 30.9989 17.7826 31.1949 17.5364C31.3909 17.2902 31.4751 16.9851 31.4323 16.678C31.3889 16.3709 31.2239 16.0982 30.9671 15.9103C30.7097 15.7223 30.3922 15.6416 30.0719 15.6826L27.6831 15.9904L27.2758 15.2478C27.9812 14.8057 28.4457 14.1074 28.4692 13.3192C28.5382 13.3377 28.6107 13.3483 28.6853 13.3516C29.1008 15.0141 29.8828 15.5337 31.7084 15.6091C31.7126 15.6091 31.7167 15.6091 31.7202 15.6091C31.8002 15.6091 31.8762 15.576 31.9293 15.5191C31.9852 15.4589 32.0101 15.3775 31.9963 15.2981ZM19.6206 15.0519C19.9615 13.5415 20.7394 12.9201 21.3572 12.6652C21.4179 12.8969 21.5711 13.0935 21.7775 13.2166C21.4628 14.5323 20.9299 14.9446 19.6206 15.0519ZM22.2765 12.8175C22.0626 12.8175 21.8879 12.65 21.8879 12.4449C21.8879 12.2397 22.0626 12.0722 22.2765 12.0722C22.4905 12.0722 22.6651 12.2397 22.6651 12.4449C22.6651 12.65 22.4905 12.8175 22.2765 12.8175ZM20.68 17.451C20.5082 17.4292 20.3549 17.3438 20.25 17.2115C20.1444 17.0791 20.0996 16.9156 20.1223 16.7502C20.1451 16.5854 20.2342 16.4384 20.3722 16.3378C20.5102 16.2366 20.6814 16.1929 20.8533 16.2154L23.0385 16.4967L22.3939 17.6714L20.68 17.4504V17.451ZM24.0401 22.9245C24.0173 23.0893 23.9282 23.2362 23.7902 23.3368C23.6521 23.4381 23.481 23.4811 23.3098 23.4593C22.9543 23.4136 22.7045 23.0992 22.7521 22.7584L22.9861 21.0872C23.4071 21.2348 23.8288 21.346 24.2513 21.4195L24.0401 22.9245ZM28.247 22.7584C28.2946 23.0992 28.0447 23.4136 27.6893 23.4593C27.5188 23.4824 27.3469 23.4388 27.2089 23.3368C27.0708 23.2362 26.9818 23.0893 26.959 22.9245L26.7478 21.4195C27.1695 21.346 27.5919 21.2348 28.013 21.0872L28.247 22.7584ZM30.1458 16.216C30.3169 16.1935 30.4881 16.2366 30.6262 16.3385C30.7642 16.4391 30.8532 16.586 30.876 16.7508C30.8988 16.9163 30.8539 17.0798 30.7483 17.2121C30.6434 17.3445 30.4902 17.4299 30.3183 17.4517L28.6045 17.6728L27.9598 16.498L30.1451 16.2167L30.1458 16.216ZM29.1843 19.88C29.2036 19.9151 29.1919 19.9601 29.1581 19.9786C26.6953 21.3407 24.3016 21.3407 21.8389 19.9786C21.8058 19.9601 21.7941 19.9151 21.8134 19.88L24.2174 15.5006C24.6053 15.6568 25.0402 15.7442 25.4985 15.7442C25.9568 15.7442 26.3916 15.6568 26.7795 15.5006L29.1836 19.88H29.1843ZM25.4992 15.2081C24.1698 15.2081 23.0882 14.3331 23.0882 13.2569C23.0882 13.1649 23.0972 13.0749 23.1124 12.9862C23.8958 12.93 24.9339 12.7625 25.4474 12.2854C25.4654 12.2688 25.4826 12.2516 25.4992 12.2344C25.5157 12.2516 25.533 12.2688 25.551 12.2854C26.0645 12.7625 27.1033 12.9293 27.886 12.9856C27.9012 13.0743 27.9101 13.1649 27.9101 13.2569C27.9101 14.3324 26.8286 15.2081 25.4992 15.2081ZM27.7742 12.4356C27.0757 12.3727 26.2881 12.2231 25.9402 11.9002C25.8298 11.7982 25.7787 11.6904 25.7787 11.5626C25.7787 11.4144 25.6531 11.2939 25.4985 11.2939C25.3439 11.2939 25.2183 11.4137 25.2183 11.5626C25.2183 11.6904 25.1672 11.7982 25.0568 11.9002C24.7123 12.2205 23.9365 12.3701 23.2435 12.4336C23.2366 12.429 23.2297 12.4237 23.2221 12.4184C23.2125 12.1126 23.0454 11.8439 22.7956 11.6857C23.3195 11.002 24.3341 10.5374 25.4978 10.5374C26.6615 10.5374 27.6761 11.002 28.2 11.6857C27.9453 11.8465 27.7762 12.1219 27.7728 12.4349L27.7742 12.4356ZM28.7225 12.8181C28.5079 12.8181 28.3339 12.6507 28.3339 12.4455C28.3339 12.2403 28.5086 12.0729 28.7225 12.0729C28.9365 12.0729 29.1111 12.2403 29.1111 12.4455C29.1111 12.6507 28.9365 12.8181 28.7225 12.8181ZM29.2216 13.2179C29.4259 13.0961 29.5784 12.9022 29.6405 12.6732C30.2583 12.9313 31.0389 13.5541 31.3785 15.0532C30.0692 14.946 29.537 14.533 29.2216 13.2179Z" fill="#1B8158"/>
</svg>
