<svg width="130" height="130" viewBox="0 0 130 130" fill="none" xmlns="http://www.w3.org/2000/svg">
<g clip-path="url(#clip0_4337_7062)">
<path d="M91.0809 43.54L75.9863 40.4147L83.8842 2.27623C84.2046 0.732951 85.7151 -0.259863 87.2594 0.059504L96.763 2.02827C98.3073 2.34764 99.2991 3.85818 98.9797 5.40245L91.0809 43.54Z" fill="#DBDBDB"/>
<path d="M98.9778 5.40256L91.08 43.5401L84.9297 42.2666L92.8286 4.12906C93.1479 2.58578 92.1581 1.07524 90.6118 0.754883L96.7621 2.02838C98.3074 2.34874 99.2982 3.85928 98.9778 5.40256Z" fill="#CCCCCC"/>
<path d="M64.5768 55.4736L48.8058 39.7026C47.691 38.5878 47.691 36.7807 48.8058 35.6659L64.5768 19.8949C65.6916 18.7801 67.4997 18.7801 68.6145 19.8949L84.3854 35.6659C85.5002 36.7807 85.5002 38.5878 84.3854 39.7026L68.6145 55.4736C67.4997 56.5894 65.6916 56.5894 64.5768 55.4736Z" fill="#DBDBDB"/>
<path d="M88.001 36.0864L84.3838 39.7026C85.4996 38.5868 85.4996 36.7797 84.3838 35.6669L68.6138 19.8939C67.498 18.7781 65.6909 18.7781 64.5781 19.8939L68.1913 16.2777C69.3081 15.1639 71.1152 15.1639 72.228 16.2777L88.001 32.0497C89.1168 33.1635 89.1168 34.9726 88.001 36.0864Z" fill="#CCCCCC"/>
<path d="M58.3675 39.6094H36.0634C34.4865 39.6094 33.209 38.331 33.209 36.754V14.4509C33.209 12.8739 34.4865 11.5964 36.0634 11.5964H58.3675C59.9435 11.5964 61.222 12.8739 61.222 14.4509V36.755C61.222 38.331 59.9445 39.6094 58.3675 39.6094Z" fill="#DBDBDB"/>
<path d="M61.2216 14.4509V36.754C61.2216 38.33 59.9451 39.6094 58.3661 39.6094H52.2773C53.8533 39.6094 55.1328 38.33 55.1328 36.754V14.4509C55.1328 12.8749 53.8533 11.5964 52.2773 11.5964H58.3661C59.9451 11.5964 61.2216 12.8749 61.2216 14.4509Z" fill="#CCCCCC"/>
<path d="M105.09 37.1762L97.9557 117.114L97.0363 127.399C96.9024 128.869 95.6696 130 94.1908 130H36.0432C34.5674 130 33.3306 128.869 33.1997 127.399L32.2803 117.114L25.1461 37.1762C24.9983 35.507 26.3145 34.0679 27.9897 34.0679H102.246C103.922 34.0679 105.238 35.507 105.09 37.1762Z" fill="#DBDBDB"/>
<path d="M105.09 37.1762L97.9556 117.114L97.0362 127.399C96.9023 128.869 95.6684 130 94.1906 130H86.751C88.2298 130 89.4626 128.869 89.5965 127.399L90.5159 117.114L97.6501 37.1772C97.7979 35.507 96.4817 34.0679 94.8065 34.0679H102.246C103.921 34.0679 105.238 35.507 105.09 37.1762Z" fill="#CCCCCC"/>
<path d="M97.9557 117.114L97.0363 127.399C96.9024 128.869 95.6686 130 94.1898 130H36.0432C34.5674 130 33.3306 128.869 33.1997 127.399L32.2803 117.114H97.9557Z" fill="#CCCCCC"/>
<path d="M97.9556 117.114L97.0362 127.399C96.9023 128.869 95.6684 130 94.1906 130H86.751C88.2298 130 89.4626 128.869 89.5965 127.399L90.5159 117.114H97.9556Z" fill="#B3B3B3"/>
<path d="M104.704 39.9218H25.5315C22.9299 39.9218 20.8203 37.8122 20.8203 35.2107C20.8203 32.6091 22.9299 30.4995 25.5315 30.4995H104.704C107.305 30.4995 109.415 32.6091 109.415 35.2107C109.415 37.8122 107.305 39.9218 104.704 39.9218Z" fill="#CCCCCC"/>
<path d="M106.656 21.9717C105.572 21.9717 104.683 21.093 104.683 20.0099C104.683 18.9268 105.548 18.0481 106.632 18.0481H106.656C107.739 18.0481 108.618 18.9268 108.618 20.0099C108.618 21.093 107.739 21.9717 106.656 21.9717Z" fill="#CCCCCC"/>
<path d="M25.1466 13.5572C24.0625 13.5572 23.1729 12.6794 23.1729 11.5963C23.1729 10.5123 24.0387 9.63452 25.1218 9.63452H25.1466C26.2306 9.63452 27.1084 10.5123 27.1084 11.5963C27.1084 12.6794 26.2306 13.5572 25.1466 13.5572Z" fill="#CCCCCC"/>
<path d="M74.1905 4.44633C73.1075 4.44633 72.2168 3.56857 72.2168 2.48451C72.2168 1.40144 73.0827 0.523682 74.1667 0.523682H74.1905C75.2746 0.523682 76.1523 1.40144 76.1523 2.48451C76.1523 3.56857 75.2746 4.44633 74.1905 4.44633Z" fill="#CCCCCC"/>
<path d="M60.5274 75.8492C62.0477 73.0496 63.7435 70.3667 65.5561 67.8004C66.5501 66.3423 67.7781 64.8841 69.4738 64.4759C67.0179 62.6095 63.3341 62.4928 60.7613 64.2426C59.4749 65.1174 58.4224 66.4006 57.6623 67.8004C56.9021 69.2002 56.3759 70.6583 55.8496 72.1748C57.3699 73.4579 58.7148 74.9743 60.5274 75.8492Z" fill="white"/>
<path d="M65.79 68.5001C66.3748 69.4916 66.9595 70.4248 67.6027 71.4163C67.018 71.9412 66.4917 72.5245 65.8485 73.0494C68.012 73.0494 70.2924 73.516 72.2805 74.4492C72.9237 72.1745 73.5669 69.8415 74.2101 67.5668C73.5669 67.9751 72.9237 68.3834 72.2805 68.7917C71.5788 67.3336 70.7018 65.8754 69.6492 64.5923C68.129 65.4672 66.7256 67.0419 65.79 68.5001Z" fill="white"/>
<path d="M70.4092 76.8992C71.871 79.6987 73.2159 82.5567 74.3853 85.5312C75.0285 87.1643 75.6133 88.9724 75.0285 90.6638C77.9522 89.6139 80.0572 86.6394 79.9987 83.5482C79.9987 81.9734 79.4725 80.457 78.7123 79.0572C77.9522 77.6574 77.0166 76.3742 76.081 75.1494C74.1514 75.616 72.1049 75.9076 70.4092 76.8992Z" fill="white"/>
<path d="M73.6834 85.2978C72.514 85.2395 71.403 85.2395 70.2335 85.1811C70.1166 84.3646 69.9412 83.6647 69.8242 82.8481C68.6547 84.6562 66.959 86.2893 65.0879 87.4558C66.6082 89.2639 68.2454 91.0136 69.7657 92.88C69.7657 92.1218 69.7657 91.3636 69.7657 90.6053C71.403 90.8386 73.0987 90.897 74.6775 90.722C74.9698 88.9722 74.3851 86.9309 73.6834 85.2978Z" fill="white"/>
<path d="M64.3865 84.8894C61.229 84.9478 58.0715 84.7728 54.9139 84.4812C53.1598 84.3062 51.2302 84.0146 50.0607 82.6731C49.6514 85.7643 51.3471 88.9722 54.0953 90.372C55.4987 91.0719 57.1359 91.3052 58.7147 91.3052C60.2934 91.3052 61.8722 91.0136 63.3925 90.7803C63.8018 88.7972 64.445 86.8725 64.3865 84.8894Z" fill="white"/>
<path d="M55.3817 83.8979C55.9664 82.9064 56.4927 81.9149 57.0774 80.9234C57.8376 81.1567 58.5977 81.3899 59.3579 81.6232C58.2469 79.7569 57.5452 77.5405 57.4283 75.3242C55.0893 75.8491 52.8089 76.4907 50.47 77.0156C51.1716 77.3656 51.8149 77.7155 52.5165 78.0655C51.581 79.4069 50.7623 80.865 50.1191 82.3815C51.5225 83.373 53.6275 83.7812 55.3817 83.8979Z" fill="white"/>
</g>
<defs>
<clipPath id="clip0_4337_7062">
<rect width="130" height="130" fill="white"/>
</clipPath>
</defs>
</svg>
