<svg width="17" height="19" viewBox="0 0 17 19" fill="none" xmlns="http://www.w3.org/2000/svg">
<path d="M16.9907 5.16071C16.9907 4.07143 16.0653 3.1875 14.9271 3.1875H12.0027C11.6233 1.65179 10.2074 0.5 8.50463 0.5C6.80185 0.5 5.36745 1.65179 4.98802 3.1875H2.06369C0.925422 3.1875 0 4.08036 0 5.17857C0 6.125 0.694066 6.91964 1.61023 7.11607L2.77627 16.5625C2.91508 17.6696 3.88677 18.5089 5.04355 18.5089H11.9842C13.141 18.5089 14.1127 17.6696 14.2515 16.5625L15.4175 7.125C15.8062 7.04464 16.1486 6.85714 16.4355 6.58036C16.8242 6.19643 17.0278 5.6875 17.0093 5.16964L16.9907 5.16071ZM8.51388 2.10714C9.28198 2.10714 9.94829 2.55357 10.2537 3.1875H6.75558C7.07022 2.55357 7.73653 2.10714 8.51388 2.10714Z" fill="#CA4B2B"/>
</svg>
