<svg width="130" height="130" viewBox="0 0 130 130" fill="none" xmlns="http://www.w3.org/2000/svg">
    <g clip-path="url(#clip0_4337_7062)">
        <path d="M91.0809 43.54L75.9863 40.4147L83.8842 2.27623C84.2046 0.732951 85.7151 -0.259863 87.2594 0.059504L96.763 2.02827C98.3073 2.34764 99.2991 3.85818 98.9797 5.40245L91.0809 43.54Z" fill="#DBDBDB"/>
        <path d="M98.9778 5.40256L91.08 43.5401L84.9297 42.2666L92.8286 4.12906C93.1479 2.58578 92.1581 1.07524 90.6118 0.754883L96.7621 2.02838C98.3074 2.34874 99.2982 3.85928 98.9778 5.40256Z" fill="#CCCCCC"/>
        <path d="M64.5768 55.4736L48.8058 39.7026C47.691 38.5878 47.691 36.7807 48.8058 35.6659L64.5768 19.8949C65.6916 18.7801 67.4997 18.7801 68.6145 19.8949L84.3854 35.6659C85.5002 36.7807 85.5002 38.5878 84.3854 39.7026L68.6145 55.4736C67.4997 56.5894 65.6916 56.5894 64.5768 55.4736Z" fill="#DBDBDB"/>
        <path d="M88.001 36.0864L84.3838 39.7026C85.4996 38.5868 85.4996 36.7797 84.3838 35.6669L68.6138 19.8939C67.498 18.7781 65.6909 18.7781 64.5781 19.8939L68.1913 16.2777C69.3081 15.1639 71.1152 15.1639 72.228 16.2777L88.001 32.0497C89.1168 33.1635 89.1168 34.9726 88.001 36.0864Z" fill="#CCCCCC"/>
        <path d="M58.3675 39.6094H36.0634C34.4865 39.6094 33.209 38.331 33.209 36.754V14.4509C33.209 12.8739 34.4865 11.5964 36.0634 11.5964H58.3675C59.9435 11.5964 61.222 12.8739 61.222 14.4509V36.755C61.222 38.331 59.9445 39.6094 58.3675 39.6094Z" fill="#DBDBDB"/>
        <path d="M61.2216 14.4509V36.754C61.2216 38.33 59.9451 39.6094 58.3661 39.6094H52.2773C53.8533 39.6094 55.1328 38.33 55.1328 36.754V14.4509C55.1328 12.8749 53.8533 11.5964 52.2773 11.5964H58.3661C59.9451 11.5964 61.2216 12.8749 61.2216 14.4509Z" fill="#CCCCCC"/>
        <path d="M105.09 37.1762L97.9557 117.114L97.0363 127.399C96.9024 128.869 95.6696 130 94.1908 130H36.0432C34.5674 130 33.3306 128.869 33.1997 127.399L32.2803 117.114L25.1461 37.1762C24.9983 35.507 26.3145 34.0679 27.9897 34.0679H102.246C103.922 34.0679 105.238 35.507 105.09 37.1762Z" fill="#DBDBDB"/>
        <path d="M105.09 37.1762L97.9556 117.114L97.0362 127.399C96.9023 128.869 95.6684 130 94.1906 130H86.751C88.2298 130 89.4626 128.869 89.5965 127.399L90.5159 117.114L97.6501 37.1772C97.7979 35.507 96.4817 34.0679 94.8065 34.0679H102.246C103.921 34.0679 105.238 35.507 105.09 37.1762Z" fill="#CCCCCC"/>
        <path d="M97.9557 117.114L97.0363 127.399C96.9024 128.869 95.6686 130 94.1898 130H36.0432C34.5674 130 33.3306 128.869 33.1997 127.399L32.2803 117.114H97.9557Z" fill="#CCCCCC"/>
        <path d="M97.9556 117.114L97.0362 127.399C96.9023 128.869 95.6684 130 94.1906 130H86.751C88.2298 130 89.4626 128.869 89.5965 127.399L90.5159 117.114H97.9556Z" fill="#B3B3B3"/>
        <path d="M104.704 39.9218H25.5315C22.9299 39.9218 20.8203 37.8122 20.8203 35.2107C20.8203 32.6091 22.9299 30.4995 25.5315 30.4995H104.704C107.305 30.4995 109.415 32.6091 109.415 35.2107C109.415 37.8122 107.305 39.9218 104.704 39.9218Z" fill="#CCCCCC"/>
        <path d="M106.656 21.9717C105.572 21.9717 104.683 21.093 104.683 20.0099C104.683 18.9268 105.548 18.0481 106.632 18.0481H106.656C107.739 18.0481 108.618 18.9268 108.618 20.0099C108.618 21.093 107.739 21.9717 106.656 21.9717Z" fill="#CCCCCC"/>
        <path d="M25.1466 13.5572C24.0625 13.5572 23.1729 12.6794 23.1729 11.5963C23.1729 10.5123 24.0387 9.63452 25.1218 9.63452H25.1466C26.2306 9.63452 27.1084 10.5123 27.1084 11.5963C27.1084 12.6794 26.2306 13.5572 25.1466 13.5572Z" fill="#CCCCCC"/>
        <path d="M74.1905 4.44633C73.1075 4.44633 72.2168 3.56857 72.2168 2.48451C72.2168 1.40144 73.0827 0.523682 74.1667 0.523682H74.1905C75.2746 0.523682 76.1523 1.40144 76.1523 2.48451C76.1523 3.56857 75.2746 4.44633 74.1905 4.44633Z" fill="#CCCCCC"/>
    </g>
    <defs>
        <clipPath id="clip0_4337_7062">
            <rect width="130" height="130" fill="white"/>
        </clipPath>
    </defs>
</svg>
