<svg width="16" height="16" viewBox="0 0 16 16" fill="none" xmlns="http://www.w3.org/2000/svg">
<path d="M15.6337 2.13415C16.1218 1.64598 16.1218 0.8545 15.6337 0.366329C15.1455 -0.121841 14.354 -0.121841 13.8658 0.366329L8.00051 6.23166L2.13498 0.366128C1.64681 -0.122042 0.855329 -0.122043 0.367159 0.366128C-0.121012 0.854298 -0.121011 1.64578 0.367159 2.13395L6.23269 7.99948L0.366127 13.8661C-0.122042 14.3542 -0.122043 15.1457 0.366128 15.6339C0.854298 16.122 1.64578 16.122 2.13395 15.6339L8.00051 9.7673L13.8669 15.6337C14.355 16.1218 15.1465 16.1218 15.6347 15.6337C16.1229 15.1455 16.1229 14.354 15.6347 13.8658L9.76833 7.99948L15.6337 2.13415Z" fill="#898989"/>
</svg>
